<svg class="summary-menu__item-graphic" xmlns="http://www.w3.org/2000/svg" viewBox="0 0 354.706 224.647"><path d="M989.147,103.081c141.494,7.964,264.833,83.853,337.934,195.582" transform="translate(-989.035 -75.112)" fill="none" stroke="#0d65d9" stroke-miterlimit="10" stroke-width="4"/><path d="M989.642,94.432c144.323,8.123,270.129,85.53,344.692,199.494" transform="translate(-989.035 -75.112)" fill="none" stroke="#3d84e1" stroke-miterlimit="10" stroke-width="2.4"/><path d="M990.146,85.61c147.21,8.285,275.532,87.24,351.586,203.484" transform="translate(-989.035 -75.112)" fill="none" stroke="#6ea3e8" stroke-miterlimit="10" stroke-width="4.8"/><path d="M1167.987,127.9c4.6-5.621-12.624,5.352-11.521,5.626-2.928-.728,5.525,7.192,7.665,8.2s1.307-7.3,4.622-12.93S1167.987,127.9,1167.987,127.9Z" transform="translate(-989.035 -75.112)" fill="#cc6db6" stroke="#cc6db6" stroke-miterlimit="10" stroke-width="3.2"/><line x1="226.614" y1="77.864" x2="235.483" y2="67.653" fill="none" stroke="#cc6db6" stroke-linecap="round" stroke-miterlimit="10" stroke-width="1.6"/><line x1="182.097" y1="50.289" x2="187.911" y2="37.981" fill="none" stroke="#cc6db6" stroke-linecap="round" stroke-miterlimit="10" stroke-width="1.6"/><path d="M1212.724,156.421c4.089-6.006-4.876,11.935-5.452,10.954,1.528,2.6-7.512-4.122-9.088-5.889-2.278-2.556,11.168-3.094,13.461-5.546C1216.111,151.166,1212.724,156.421,1212.724,156.421Z" transform="translate(-989.035 -75.112)" fill="#cc6db6" stroke="#cc6db6" stroke-miterlimit="10" stroke-width="3.2"/><text transform="translate(140.745 123.679)" font-size="20" fill="#cc6db6" font-family="Helvetica">T9SS</text><text transform="translate(269.992 33.034)" font-size="30" font-family="Helvetica">1</text><circle cx="175.834" cy="31.701" r="1.968" fill="#e29ad5"/><circle cx="193.32" cy="42.672" r="1.968" fill="#e29ad5"/><circle cx="206.588" cy="42.497" r="1.968" fill="#e29ad5"/><circle cx="212.229" cy="54.95" r="1.968" fill="#e29ad5"/><circle cx="227.48" cy="58.262" r="1.968" fill="#e29ad5"/><circle cx="239.717" cy="75.379" r="1.968" fill="#e29ad5"/><circle cx="257.202" cy="91.15" r="1.968" fill="#e29ad5"/><circle cx="252.239" cy="77.494" r="1.968" fill="#e29ad5"/><circle cx="270.41" cy="93.608" r="1.968" fill="#e29ad5"/><circle cx="153.685" cy="28.294" r="1.968" fill="#e29ad5"/><circle cx="143.219" cy="14.74" r="1.968" fill="#e29ad5"/><circle cx="127.886" cy="20.656" r="1.968" fill="#e29ad5"/><circle cx="275.475" cy="109.953" r="1.968" fill="#e29ad5"/><circle cx="291.624" cy="115.104" r="1.968" fill="#e29ad5"/><circle cx="219.895" cy="67.997" r="1.968" fill="#e29ad5"/><circle cx="111.514" cy="11.967" r="1.968" fill="#e29ad5"/><circle cx="96.022" cy="2.526" r="1.968" fill="#e29ad5"/><circle cx="85.178" cy="10.18" r="1.968" fill="#e29ad5"/><circle cx="310.755" cy="128.131" r="1.968" fill="#e29ad5"/><circle cx="298.441" cy="130.575" r="1.968" fill="#e29ad5"/><circle cx="318.462" cy="146.145" r="1.968" fill="#e29ad5"/><circle cx="166.234" cy="21.415" r="1.968" fill="#e29ad5"/><circle cx="256.952" cy="73.432" r="1.968" fill="#e29ad5"/><circle cx="238.893" cy="63.433" r="1.968" fill="#e29ad5"/><circle cx="232.631" cy="51.734" r="1.968" fill="#e29ad5"/><circle cx="219.003" cy="52.819" r="1.968" fill="#e29ad5"/><circle cx="208.729" cy="41.072" r="1.968" fill="#e29ad5"/><circle cx="187.829" cy="38.638" r="1.968" fill="#e29ad5"/><circle cx="165.568" cy="30.96" r="1.968" fill="#e29ad5"/><circle cx="179.922" cy="28.7" r="1.968" fill="#e29ad5"/><circle cx="157.03" cy="20.587" r="1.968" fill="#e29ad5"/><circle cx="270.646" cy="91.172" r="1.968" fill="#e29ad5"/><circle cx="286.899" cy="97.306" r="1.968" fill="#e29ad5"/><circle cx="289.807" cy="110.06" r="1.968" fill="#e29ad5"/><circle cx="140.274" cy="24.058" r="1.968" fill="#e29ad5"/><circle cx="127.956" cy="12.413" r="1.968" fill="#e29ad5"/><circle cx="203.875" cy="52.418" r="1.968" fill="#e29ad5"/><circle cx="305.33" cy="120.189" r="1.968" fill="#e29ad5"/><circle cx="321.085" cy="129.183" r="1.968" fill="#e29ad5"/><circle cx="319.629" cy="142.376" r="1.968" fill="#e29ad5"/><circle cx="107.302" cy="1.968" r="1.968" fill="#e29ad5"/><circle cx="111.117" cy="13.928" r="1.968" fill="#e29ad5"/><circle cx="87.807" cy="3.934" r="1.968" fill="#e29ad5"/><circle cx="267.119" cy="80.822" r="1.968" fill="#e29ad5"/></svg>