<svg class="summary-menu__item-graphic" xmlns="http://www.w3.org/2000/svg" viewBox="0 0 431.777 662.445"><path d="M1328.811,769.579c-73.461,114.1-199.047,191.457-343.1,198.428" transform="translate(-985.609 -325.431)" fill="none" stroke="#0d65d9" stroke-miterlimit="10" stroke-width="4"/><path d="M1348.228,334.661a433.847,433.847,0,0,1,.225,401.157" transform="translate(-985.609 -325.431)" fill="none" stroke="#0d65d9" stroke-miterlimit="10" stroke-width="4"/><path d="M1328.811,769.579c-73.461,114.1-199.047,191.457-343.1,198.428" transform="translate(-985.609 -325.431)" fill="none" stroke="#0d65d9" stroke-miterlimit="10" stroke-width="4"/><path d="M1348.228,334.661a433.847,433.847,0,0,1,.225,401.157" transform="translate(-985.609 -325.431)" fill="none" stroke="#0d65d9" stroke-miterlimit="10" stroke-width="4"/><path d="M1336.1,774.26c-74.93,116.378-203.028,195.286-349.967,202.4" transform="translate(-985.609 -325.431)" fill="none" stroke="#3d84e1" stroke-miterlimit="10" stroke-width="2.4"/><path d="M1355.9,330.643a442.523,442.523,0,0,1,.229,409.18" transform="translate(-985.609 -325.431)" fill="none" stroke="#3d84e1" stroke-miterlimit="10" stroke-width="2.4"/><path d="M1336.1,774.26c-74.93,116.378-203.028,195.286-349.967,202.4" transform="translate(-985.609 -325.431)" fill="none" stroke="#3d84e1" stroke-miterlimit="10" stroke-width="2.4"/><path d="M1355.9,330.643a442.523,442.523,0,0,1,.229,409.18" transform="translate(-985.609 -325.431)" fill="none" stroke="#3d84e1" stroke-miterlimit="10" stroke-width="2.4"/><path d="M1343.532,779.034C1267.1,897.74,1136.444,978.226,986.566,985.479" transform="translate(-985.609 -325.431)" fill="none" stroke="#6ea3e8" stroke-miterlimit="10" stroke-width="4.8"/><path d="M1363.733,326.545a451.368,451.368,0,0,1,.234,417.364" transform="translate(-985.609 -325.431)" fill="none" stroke="#6ea3e8" stroke-miterlimit="10" stroke-width="4.8"/><path d="M1343.532,779.034C1267.1,897.74,1136.444,978.226,986.566,985.479" transform="translate(-985.609 -325.431)" fill="none" stroke="#6ea3e8" stroke-miterlimit="10" stroke-width="4.8"/><path d="M1363.733,326.545a451.368,451.368,0,0,1,.234,417.364" transform="translate(-985.609 -325.431)" fill="none" stroke="#6ea3e8" stroke-miterlimit="10" stroke-width="4.8"/><path d="M1410.131,500.538c.307,5.94,4.006,15.554,4.63,19.65s-3.413,11.895-4.277,18.014" transform="translate(-985.609 -325.431)" fill="none" stroke="#853b65" stroke-linecap="round" stroke-miterlimit="10" stroke-width="4"/><path d="M1405.015,509.17c.535,3.51,2.658,9.228,3.1,12.153s-4.432,10.907-5.335,12.841" transform="translate(-985.609 -325.431)" fill="none" stroke="#853b65" stroke-linecap="round" stroke-miterlimit="10" stroke-width="4"/><path d="M1405.1,528.747c-2.184,4.074-4.4-5.316-8.587-5.276,0,0-4.046-2.976.05-3.6s6.36-5.759,8.522-7.286C1405.081,512.585,1409.292,520.923,1405.1,528.747Z" transform="translate(-985.609 -325.431)" fill="#853b65" stroke="#853b65" stroke-linecap="round" stroke-miterlimit="10"/><path d="M1199.757,916.313c-3.98,3.49-9.373,7.938-13.515,9.318" transform="translate(-985.609 -325.431)" fill="none" stroke="#ffac66" stroke-linecap="round" stroke-miterlimit="10" stroke-width="4"/><path d="M1193.36,913.193c-.716,1.753-3.98,3.49-6.19,5.146" transform="translate(-985.609 -325.431)" fill="none" stroke="#ffac66" stroke-linecap="round" stroke-miterlimit="10" stroke-width="4"/><line x1="204.772" y1="584.922" x2="198.98" y2="589.207" fill="none" stroke="#ffac66" stroke-linecap="round" stroke-miterlimit="10" stroke-width="4"/><line x1="201.428" y1="580.582" x2="196.392" y2="584.153" fill="none" stroke="#ffac66" stroke-linecap="round" stroke-miterlimit="10" stroke-width="4"/><line x1="198.022" y1="575.11" x2="192.987" y2="578.682" fill="none" stroke="#ffac66" stroke-linecap="round" stroke-miterlimit="10" stroke-width="4"/><path d="M1191.065,927.6c-1.2-4.58-6.866-12-10.616-16.6" transform="translate(-985.609 -325.431)" fill="none" stroke="#ffac66" stroke-linecap="round" stroke-miterlimit="10" stroke-width="4"/><path d="M1200.421,922.208a144.665,144.665,0,0,1-11.671-16.52" transform="translate(-985.609 -325.431)" fill="none" stroke="#ffac66" stroke-linecap="round" stroke-miterlimit="10" stroke-width="4"/><text transform="translate(333.182 206.328)" font-size="20" fill="#853b65" font-family="Helvetica">T4SS</text><text transform="translate(162.852 556.877)" font-size="20" fill="#ffac66" font-family="Helvetica">T2SS</text></svg>