<svg class="summary-menu__item-graphic" xmlns="http://www.w3.org/2000/svg" viewBox="0 0 529.618 1011.825"><path d="M598.472,303.779c72.665-114.542,197.624-192.637,341.293-200.7" transform="translate(-410.259 -69.019)" fill="none" stroke="#0d65d9" stroke-miterlimit="10" stroke-width="4"/><path d="M598.472,303.779c72.665-114.542,197.624-192.637,341.293-200.7" transform="translate(-410.259 -69.019)" fill="none" stroke="#0d65d9" stroke-miterlimit="10" stroke-width="4"/><path d="M591.153,299.143C665.271,182.311,792.73,102.654,939.272,94.428" transform="translate(-410.259 -69.019)" fill="none" stroke="#3d84e1" stroke-miterlimit="10" stroke-width="2.4"/><path d="M591.153,299.143C665.271,182.311,792.73,102.654,939.272,94.428" transform="translate(-410.259 -69.019)" fill="none" stroke="#3d84e1" stroke-miterlimit="10" stroke-width="2.4"/><path d="M583.687,294.415C659.288,175.247,789.3,94,938.769,85.606" transform="translate(-410.259 -69.019)" fill="none" stroke="#6ea3e8" stroke-miterlimit="10" stroke-width="4.8"/><path d="M583.687,294.415C659.288,175.247,789.3,94,938.769,85.606" transform="translate(-410.259 -69.019)" fill="none" stroke="#6ea3e8" stroke-miterlimit="10" stroke-width="4.8"/><line x1="472.506" y1="287.654" x2="324.884" y2="86.727" fill="none" stroke="#a36c8b" stroke-linecap="round" stroke-miterlimit="10" stroke-width="5.6"/><path d="M578.265,731.689a433.9,433.9,0,0,1,1.171-394.753" transform="translate(-410.259 -69.019)" fill="none" stroke="#0d65d9" stroke-miterlimit="10" stroke-width="4"/><path d="M938.555,967.761C796.64,959.4,673.1,882.7,600.375,770.1" transform="translate(-410.259 -69.019)" fill="none" stroke="#0d65d9" stroke-miterlimit="10" stroke-width="4"/><path d="M578.265,731.689a433.9,433.9,0,0,1,1.171-394.753" transform="translate(-410.259 -69.019)" fill="none" stroke="#0d65d9" stroke-miterlimit="10" stroke-width="4"/><path d="M938.555,967.761C796.64,959.4,673.1,882.7,600.375,770.1" transform="translate(-410.259 -69.019)" fill="none" stroke="#0d65d9" stroke-miterlimit="10" stroke-width="4"/><path d="M570.542,735.612a442.58,442.58,0,0,1,1.194-402.648" transform="translate(-410.259 -69.019)" fill="none" stroke="#3d84e1" stroke-miterlimit="10" stroke-width="2.4"/><path d="M938.038,976.405c-144.754-8.528-270.765-86.761-344.944-201.611" transform="translate(-410.259 -69.019)" fill="none" stroke="#3d84e1" stroke-miterlimit="10" stroke-width="2.4"/><path d="M570.542,735.612a442.58,442.58,0,0,1,1.194-402.648" transform="translate(-410.259 -69.019)" fill="none" stroke="#3d84e1" stroke-miterlimit="10" stroke-width="2.4"/><path d="M938.038,976.405c-144.754-8.528-270.765-86.761-344.944-201.611" transform="translate(-410.259 -69.019)" fill="none" stroke="#3d84e1" stroke-miterlimit="10" stroke-width="2.4"/><path d="M562.664,739.613a451.435,451.435,0,0,1,1.219-410.7" transform="translate(-410.259 -69.019)" fill="none" stroke="#6ea3e8" stroke-miterlimit="10" stroke-width="4.8"/><path d="M937.51,985.222c-147.648-8.7-276.18-88.5-351.843-205.643" transform="translate(-410.259 -69.019)" fill="none" stroke="#6ea3e8" stroke-miterlimit="10" stroke-width="4.8"/><path d="M562.664,739.613a451.435,451.435,0,0,1,1.219-410.7" transform="translate(-410.259 -69.019)" fill="none" stroke="#6ea3e8" stroke-miterlimit="10" stroke-width="4.8"/><path d="M937.51,985.222c-147.648-8.7-276.18-88.5-351.843-205.643" transform="translate(-410.259 -69.019)" fill="none" stroke="#6ea3e8" stroke-miterlimit="10" stroke-width="4.8"/><polyline points="290.187 884.346 319.189 839.485 323.733 832.181" fill="none" stroke="#660a3e" stroke-linecap="round" stroke-miterlimit="10" stroke-width="4"/><path d="M727.4,917.654c-1.648-1.358-4.632-2.1-6.279-3.461" transform="translate(-410.259 -69.019)" fill="#660a3e" stroke="#660a3e" stroke-linecap="round" stroke-miterlimit="10" stroke-width="5"/><path d="M730.939,912.407a27.664,27.664,0,0,1-5.823-3.767" transform="translate(-410.259 -69.019)" fill="#660a3e" stroke="#660a3e" stroke-linecap="round" stroke-miterlimit="10" stroke-width="5"/><path d="M735.52,908.458c-.383.8,3.845-9.274,7.3-10.5l-9.581-6.7c-3.077,6.458-.318,7.776-6.582,11.515Z" transform="translate(-410.259 -69.019)" fill="#660a3e" stroke="#660a3e" stroke-linecap="round" stroke-miterlimit="10" stroke-width="3"/><line x1="100.747" y1="474.713" x2="56.031" y2="476.676" fill="none" stroke="#cc33a1" stroke-linecap="round" stroke-miterlimit="10" stroke-width="3"/><path d="M487.011,257.179c18.912-51.214,51.273-84.771,77.516-95.08,40.2-15.795,148.938-25.295,263.81-91.346" transform="translate(-410.259 -69.019)" fill="none" stroke="#0d65d9" stroke-miterlimit="10" stroke-width="4"/><path d="M455.913,801.786c-29.694-64.161-29.763-142.365-14.874-173.021,24.411-50.256,31.811-154.781,30.154-275.692a270.957,270.957,0,0,1,10.477-79.694" transform="translate(-410.259 -69.019)" fill="none" stroke="#0d65d9" stroke-miterlimit="10" stroke-width="4"/><path d="M890.463,1079.621C866.053,1048.031,673.655,926,553.039,891.535c-40.394-11.542-69.031-39.187-88.339-72.744" transform="translate(-410.259 -69.019)" fill="none" stroke="#0d65d9" stroke-miterlimit="10" stroke-width="4"/><path d="M680.452,130.731c12.912,2.952,29.978,14.66,41.376,20.141" transform="translate(-410.259 -69.019)" fill="none" stroke="#a36c8b" stroke-linecap="round" stroke-miterlimit="10" stroke-width="0.8"/><path d="M703.961,128.362c5.958,7.28,17.407,13.438,23.007,21.219" transform="translate(-410.259 -69.019)" fill="none" stroke="#a36c8b" stroke-linecap="round" stroke-miterlimit="10" stroke-width="0.8"/><path d="M750.909,155.333a66.171,66.171,0,0,0,5.642,10.5c2.958,4.535,4.832,10.109,4.741,13.314,0,0,4.323-2.9,3.283-7.04a132.124,132.124,0,0,0-7.763-19.353" transform="translate(-410.259 -69.019)" fill="none" stroke="#a36c8b" stroke-linecap="round" stroke-miterlimit="10" stroke-width="2.4"/><path d="M748.537,187.139c-1.582,1.433-20.6-7.776-23.224-10.485" transform="translate(-410.259 -69.019)" fill="none" stroke="#a36c8b" stroke-linecap="round" stroke-miterlimit="10" stroke-width="2.4"/><path d="M745.756,178.642c-3.5-1.062-12.286-8.7-14.357-8.178" transform="translate(-410.259 -69.019)" fill="none" stroke="#a36c8b" stroke-linecap="round" stroke-miterlimit="10" stroke-width="2.4"/><path d="M751.2,174.554a146.717,146.717,0,0,0-8.239-13.211" transform="translate(-410.259 -69.019)" fill="none" stroke="#a36c8b" stroke-linecap="round" stroke-miterlimit="10" stroke-width="2.4"/><path d="M748.74,177.634c-2.591-1.551-9.758-9.463-11.468-12.66" transform="translate(-410.259 -69.019)" fill="none" stroke="#a36c8b" stroke-linecap="round" stroke-miterlimit="10" stroke-width="2.4"/><path d="M740.127,184.589c2.432-4.237,6.215-11.44,22.294-16.514" transform="translate(-410.259 -69.019)" fill="none" stroke="#a36c8b" stroke-linecap="round" stroke-miterlimit="10" stroke-width="0.8"/><path d="M732.385,181.094c4.716-5.458,20.18-16.076,27.775-19.444" transform="translate(-410.259 -69.019)" fill="none" stroke="#a36c8b" stroke-linecap="round" stroke-miterlimit="10" stroke-width="0.8"/><line x1="339.847" y1="107.598" x2="340.323" y2="108.241" fill="none" stroke="#a36c8b" stroke-miterlimit="10" stroke-width="12.8"/><line x1="341.271" y1="109.522" x2="473.56" y2="288.319" fill="none" stroke="#a36c8b" stroke-miterlimit="10" stroke-width="12.8" stroke-dasharray="1.594 1.594"/><line x1="474.034" y1="288.96" x2="474.51" y2="289.603" fill="none" stroke="#a36c8b" stroke-miterlimit="10" stroke-width="12.8"/><path d="M733.492,162.3a14.2,14.2,0,0,1,8.889-5.34" transform="translate(-410.259 -69.019)" fill="none" stroke="#a36c8b" stroke-linecap="round" stroke-miterlimit="10" stroke-width="2.4"/><path d="M731.677,154.511c1.37-.732,2.931-2.207,4.758-3.184" transform="translate(-410.259 -69.019)" fill="none" stroke="#a36c8b" stroke-linecap="round" stroke-miterlimit="10" stroke-width="2.4"/><text transform="translate(332.708 815.487)" font-size="20" fill="#660a3e" font-family="Helvetica">T3SS</text><text transform="translate(131.609 482.52)" font-size="20" fill="#cc33a1" font-family="Helvetica">T5SS</text><text transform="translate(366.773 119.882)" font-size="20" fill="#a36c8b" font-family="Helvetica">T6SS</text><text transform="translate(0 443.836)" font-size="30" font-family="Helvetica">3</text></svg>