<svg class="summary-menu__item-graphic" xmlns="http://www.w3.org/2000/svg" viewBox="0 0 274.67 263.19"><path d="M988.18,152a401.22,401.22,0,0,1,95.32,13.38c25.57,6.83,39.33-4.31,60.27-33.27C1170,95.75,1188.49,63,1214.89,26.8c15.06-20.66,45.64-4.43,25.34,25.68-10.14,15.05-15.91,24.36-25.36,39.45-7.55,11.68-18.25,24.35-25.68,36.09-22.23,35.12-44.49,56.21-13.13,75.27,29.23,17.77,58.11,37.71,84.3,62.93" transform="translate(-987.08 -15.54)" fill="none" stroke="#6ea3e8" stroke-miterlimit="10" stroke-width="4"/><path d="M988,159.79c32.45.66,62.43,6.2,94.21,13.86,19.3,4.66,37.72,2.91,58.46-24.78,32.41-43.26,43.11-68.71,81.23-120.73,6.46-8.81,26.48,0,14.41,17.68-21.22,31.1-37.36,55.53-58,87-25.32,38.48-33.69,60.89-15.45,72.45,32.81,20.81,64.93,41.35,91.54,67.44" transform="translate(-987.08 -15.54)" fill="none" stroke="#3d84e1" stroke-miterlimit="10" stroke-width="2"/><path d="M987.12,167.68c35.36.71,70.34,7.32,104.77,16.74,27.79,7.61,37.17-9,54.68-33.26,32.37-44.87,47.66-73.79,78.93-119.6,2-3,14.11.5,6.52,11.6-38.19,55.86-47.28,68.37-82.66,126.3-10.11,16.55-10.41,29.75,10.15,43,30.12,19.43,61.42,38.46,88.31,64.83" transform="translate(-987.08 -15.54)" fill="none" stroke="#0d65d9" stroke-miterlimit="10" stroke-width="4"/><line x1="192.24" y1="67.43" x2="219.01" y2="86.09" fill="none" stroke="#337a33" stroke-linecap="round" stroke-miterlimit="10" stroke-width="5"/><text transform="translate(191.84 169.33)" font-size="30" font-family="Helvetica">1</text></svg>