<svg class="summary-menu__item-graphic" xmlns="http://www.w3.org/2000/svg" viewBox="0 0 307.38 277.4"><path d="M1280.82,300.18c66.59,70.72,106.67,165.26,106.67,270.06" transform="translate(-1273.87 -294.28)" fill="none" stroke="#3d84e1" stroke-miterlimit="10" stroke-width="2"/><path d="M1373.15,436.28a407.92,407.92,0,0,1,22.59,135.4" transform="translate(-1273.87 -294.28)" fill="none" stroke="#6ea3e8" stroke-miterlimit="10" stroke-width="4"/><path d="M1287.3,295.66a397,397,0,0,1,75.4,114" transform="translate(-1273.87 -294.28)" fill="none" stroke="#6ea3e8" stroke-miterlimit="10" stroke-width="4"/><path d="M1275.33,305.91A382.25,382.25,0,0,1,1379.58,568.8" transform="translate(-1273.87 -294.28)" fill="none" stroke="#0d65d9" stroke-miterlimit="10" stroke-width="4"/><path d="M1375.33,437a31,31,0,0,0,24.44.12c6.51-2.89,14.89-14.37,20.41-15.64,6-1.38,5.88,2.46,9.2,7,9.68,13.34,5,22.3,22.54,21.32s22-10,21.65-17.49c-.32-6.64-2.22-11-4.11-17.25-4.91-16.12-6.54-16.36,8.28-19.73,10.72-2.44,18.7-8,24.22-17.55,5.86-10.17,3.87-16.24,15.62-11.08,11.57,5.08,18.16,14.66,32.68,14,11.34-.49,20-6.46,24.31-17,9.31-22.79-9.51-44.13-33.28-39.46-13.61,2.67-20.94,12.36-26.26,24.16-1.37,3-.84,8.06-4.54,9.31-4.85,1.65-18.26-8.1-23-9.82-18.76-6.89-36.36,5.42-35.42,26.1.37,8.22,9.45,18.1,3.87,25.23-2.37,3-19,4.37-22,9.43-3.16,5.32-7,7.86-13.26,4.74-8.7-4.3-10.81-16.49-21-20.9-6.83-2.94-15.57-3.48-22.44-.38A26.32,26.32,0,0,0,1362.89,408" transform="translate(-1273.87 -294.28)" fill="none" stroke="#6ea3e8" stroke-miterlimit="10" stroke-width="4"/><path d="M1368.44,403.54c3.22,0,3.22-5,0-5s-3.22,5,0,5Z" transform="translate(-1273.87 -294.28)" fill="#337a33"/><path d="M1373.64,397.05c3.21,0,3.22-5,0-5s-3.23,5,0,5Z" transform="translate(-1273.87 -294.28)" fill="#337a33"/><path d="M1380.13,391.85c3.22,0,3.22-5,0-5s-3.22,5,0,5Z" transform="translate(-1273.87 -294.28)" fill="#337a33"/><path d="M1390.52,394.45c3.22,0,3.22-5,0-5s-3.22,5,0,5Z" transform="translate(-1273.87 -294.28)" fill="#337a33"/><path d="M1400.91,393.15c3.22,0,3.22-5,0-5s-3.22,5,0,5Z" transform="translate(-1273.87 -294.28)" fill="#337a33"/><path d="M1406.1,402.24c3.22,0,3.23-5,0-5s-3.22,5,0,5Z" transform="translate(-1273.87 -294.28)" fill="#337a33"/><path d="M1416.49,407.44c3.22,0,3.23-5,0-5s-3.22,5,0,5Z" transform="translate(-1273.87 -294.28)" fill="#337a33"/><path d="M1419.09,413.93c3.22,0,3.22-5,0-5s-3.22,5,0,5Z" transform="translate(-1273.87 -294.28)" fill="#337a33"/><path d="M1430.78,416.53c3.22,0,3.22-5,0-5s-3.22,5,0,5Z" transform="translate(-1273.87 -294.28)" fill="#337a33"/><path d="M1433.38,408.73c3.21,0,3.22-5,0-5s-3.23,5,0,5Z" transform="translate(-1273.87 -294.28)" fill="#337a33"/><path d="M1442.47,408.73c3.21,0,3.22-5,0-5s-3.23,5,0,5Z" transform="translate(-1273.87 -294.28)" fill="#337a33"/><path d="M1452.86,400.94c3.21,0,3.22-5,0-5s-3.23,5,0,5Z" transform="translate(-1273.87 -294.28)" fill="#337a33"/><path d="M1462,395.75c3.22,0,3.22-5,0-5s-3.22,5,0,5Z" transform="translate(-1273.87 -294.28)" fill="#337a33"/><path d="M1454.16,385.36c3.21,0,3.22-5,0-5s-3.23,5,0,5Z" transform="translate(-1273.87 -294.28)" fill="#337a33"/><path d="M1454.16,372.37c3.21,0,3.22-5,0-5s-3.23,5,0,5Z" transform="translate(-1273.87 -294.28)" fill="#337a33"/><path d="M1452.86,362c3.21,0,3.22-5,0-5s-3.23,5,0,5Z" transform="translate(-1273.87 -294.28)" fill="#337a33"/><path d="M1462,351.59c3.22,0,3.22-5,0-5s-3.22,5,0,5Z" transform="translate(-1273.87 -294.28)" fill="#337a33"/><path d="M1474.94,350.29c3.21,0,3.22-5,0-5s-3.23,5,0,5Z" transform="translate(-1273.87 -294.28)" fill="#337a33"/><path d="M1490.52,349c3.22,0,3.22-5,0-5s-3.22,5,0,5Z" transform="translate(-1273.87 -294.28)" fill="#337a33"/><path d="M1498.31,359.38c3.22,0,3.22-5,0-5s-3.22,5,0,5Z" transform="translate(-1273.87 -294.28)" fill="#337a33"/><path d="M1512.6,358.08c3.21,0,3.22-5,0-5s-3.23,5,0,5Z" transform="translate(-1273.87 -294.28)" fill="#337a33"/><path d="M1517.79,342.5c3.22,0,3.22-5,0-5s-3.22,5,0,5Z" transform="translate(-1273.87 -294.28)" fill="#337a33"/><path d="M1573.64,343.8c3.21,0,3.22-5,0-5s-3.23,5,0,5Z" transform="translate(-1273.87 -294.28)" fill="#337a33"/><path d="M1578.83,356.79c3.22,0,3.22-5,0-5s-3.22,5,0,5Z" transform="translate(-1273.87 -294.28)" fill="#337a33"/><path d="M1572.34,364.58c3.21,0,3.22-5,0-5s-3.22,5,0,5Z" transform="translate(-1273.87 -294.28)" fill="#337a33"/><path d="M1568.44,377.56c3.22,0,3.22-5,0-5s-3.22,5,0,5Z" transform="translate(-1273.87 -294.28)" fill="#337a33"/><path d="M1558.05,378.86c3.22,0,3.22-5,0-5s-3.22,5,0,5Z" transform="translate(-1273.87 -294.28)" fill="#337a33"/><path d="M1546.36,382.76c3.22,0,3.23-5,0-5s-3.22,5,0,5Z" transform="translate(-1273.87 -294.28)" fill="#337a33"/><path d="M1537.27,377.56c3.22,0,3.23-5,0-5s-3.22,5,0,5Z" transform="translate(-1273.87 -294.28)" fill="#337a33"/><path d="M1525.58,376.27c3.22,0,3.23-5,0-5s-3.22,5,0,5Z" transform="translate(-1273.87 -294.28)" fill="#337a33"/><path d="M1517.79,368.47c3.22,0,3.22-5,0-5s-3.22,5,0,5Z" transform="translate(-1273.87 -294.28)" fill="#337a33"/><path d="M1506.1,373.67c3.22,0,3.23-5,0-5s-3.22,5,0,5Z" transform="translate(-1273.87 -294.28)" fill="#337a33"/><path d="M1502.21,385.36c3.22,0,3.22-5,0-5s-3.22,5,0,5Z" transform="translate(-1273.87 -294.28)" fill="#337a33"/><path d="M1493.12,388c3.21,0,3.22-5,0-5s-3.23,5,0,5Z" transform="translate(-1273.87 -294.28)" fill="#337a33"/><path d="M1482.73,397.05c3.21,0,3.22-5,0-5s-3.23,5,0,5Z" transform="translate(-1273.87 -294.28)" fill="#337a33"/><path d="M1473.64,397.05c3.21,0,3.22-5,0-5s-3.23,5,0,5Z" transform="translate(-1273.87 -294.28)" fill="#337a33"/><path d="M1464.55,407.44c3.21,0,3.22-5,0-5s-3.23,5,0,5Z" transform="translate(-1273.87 -294.28)" fill="#337a33"/><path d="M1471,415.23c3.22,0,3.22-5,0-5s-3.22,5,0,5Z" transform="translate(-1273.87 -294.28)" fill="#337a33"/><path d="M1471,426.92c3.22,0,3.22-5,0-5s-3.22,5,0,5Z" transform="translate(-1273.87 -294.28)" fill="#337a33"/><path d="M1476.23,439.9c3.22,0,3.23-5,0-5s-3.22,5,0,5Z" transform="translate(-1273.87 -294.28)" fill="#337a33"/><path d="M1464.55,450.29c3.21,0,3.22-5,0-5s-3.23,5,0,5Z" transform="translate(-1273.87 -294.28)" fill="#337a33"/><path d="M1455.45,449c3.22,0,3.23-5,0-5s-3.22,5,0,5Z" transform="translate(-1273.87 -294.28)" fill="#337a33"/><path d="M1442.47,450.29c3.21,0,3.22-5,0-5s-3.23,5,0,5Z" transform="translate(-1273.87 -294.28)" fill="#337a33"/><path d="M1434.68,445.1c3.21,0,3.22-5,0-5s-3.23,5,0,5Z" transform="translate(-1273.87 -294.28)" fill="#337a33"/><path d="M1434.68,434.71c3.21,0,3.22-5,0-5s-3.23,5,0,5Z" transform="translate(-1273.87 -294.28)" fill="#337a33"/><path d="M1428.18,429.51c3.22,0,3.22-5,0-5s-3.22,5,0,5Z" transform="translate(-1273.87 -294.28)" fill="#337a33"/><path d="M1421.69,425.62c3.22,0,3.22-5,0-5s-3.22,5,0,5Z" transform="translate(-1273.87 -294.28)" fill="#337a33"/><path d="M1413.9,425.62c3.21,0,3.22-5,0-5s-3.23,5,0,5Z" transform="translate(-1273.87 -294.28)" fill="#337a33"/><path d="M1410,436c3.22,0,3.22-5,0-5s-3.22,5,0,5Z" transform="translate(-1273.87 -294.28)" fill="#337a33"/><path d="M1398.31,436c3.22,0,3.22-5,0-5s-3.22,5,0,5Z" transform="translate(-1273.87 -294.28)" fill="#337a33"/><path d="M1386.62,443.8c3.22,0,3.23-5,0-5s-3.22,5,0,5Z" transform="translate(-1273.87 -294.28)" fill="#337a33"/><path d="M1376.23,438.6c3.22,0,3.23-5,0-5s-3.22,5,0,5Z" transform="translate(-1273.87 -294.28)" fill="#337a33"/><text transform="translate(146.89 95.05)" font-size="30" font-family="Helvetica">2</text></svg>