<?xml version="1.0" encoding="utf-8"?>
<!-- Generator: Adobe Illustrator 25.4.1, SVG Export Plug-In . SVG Version: 6.00 Build 0)  -->
<svg class="summary-menu__li-text summary-menu__li-text--ch4 summary-menu__li-text--hidden" version="1.1" id="Layer_1" xmlns="http://www.w3.org/2000/svg" xmlns:xlink="http://www.w3.org/1999/xlink" x="0px" y="0px"
	 viewBox="0 0 500 200" style="enable-background:new 0 0 500 200;" xml:space="preserve">
<style type="text/css">
	.st0{fill:#005900;}
	.st1{font-family:'Helvetica';}
	.st2{font-size:24px;}
</style>
<path class="st0" d="M37.4,45.8l0.7,3.8c-2.6,0.5-3.9,0.8-6.5,1.3L35,68.2l-4.5,0.9L27,51.7L20.5,53l-0.8-3.7
	C26.8,47.8,30.3,47.1,37.4,45.8z"/>
<path class="st0" d="M54.5,62.6c-1.1,1.9-3,3.1-5.7,3.6s-4.9,0.1-6.6-1.3c-3.4-3-4.3-7.8-2.2-11.8c1-1.9,3-3.1,5.7-3.6s5,0,6.7,1.4
	s2.7,3.4,3.1,5.5C55.9,58.4,55.6,60.7,54.5,62.6z M50.8,60.9c0.5-1.2,0.6-2.5,0.3-3.8c-0.1-1.3-0.7-2.5-1.6-3.5
	c-1.7-1.3-4.1-1-5.4,0.6c-0.1,0.1-0.2,0.2-0.3,0.4c-0.5,1.2-0.6,2.5-0.3,3.8c0.2,1.3,0.7,2.5,1.7,3.5c0.8,0.7,2,1,3.1,0.8
	C49.3,62.5,50.2,61.9,50.8,60.9z"/>
<path class="st0" d="M79.7,46.2c1.5,1.5,2.5,3.4,2.7,5.5c0.4,2.1,0.1,4.4-0.9,6.3c-1.6,2.8-4.9,4-7.9,3c-0.7-0.3-1.3-0.8-1.8-1.4
	l0.3,2L68,62.2c-1.4-8.5-2.1-12.8-3.5-21.2l4.3-0.7c0.5,3,0.7,4.5,1.2,7.6c0.4-0.8,0.9-1.4,1.5-2c0.8-0.6,1.8-1.1,2.8-1.2
	C76.2,44.3,78.2,44.8,79.7,46.2z M77.7,56.3c0.5-1.1,0.6-2.3,0.3-3.5c-0.1-1-0.4-1.9-0.9-2.7c-0.7-1.2-2.1-1.9-3.5-1.6
	c-1.4,0.1-2.5,1.2-2.8,2.5c-0.2,1-0.2,1.9,0,2.9c0.1,1.2,0.7,2.3,1.5,3.2c0.8,0.8,1.9,1.1,3,0.9C76.3,57.9,77.2,57.2,77.7,56.3
	L77.7,56.3z"/>
<path class="st0" d="M99.6,55.5c-1.1,1.8-3.1,2.9-5.8,3.3c-2.7,0.4-4.9-0.1-6.5-1.6c-3.2-3.1-3.9-8-1.8-11.9c1.1-1.9,3.1-3,5.9-3.4
	s5,0.2,6.6,1.6C101.2,46.7,101.8,51.6,99.6,55.5z M95.9,53.7c0.6-1.2,0.7-2.5,0.5-3.8c-0.1-1.3-0.6-2.5-1.5-3.5
	c-0.8-0.8-1.9-1.1-3-0.9c-1.1,0.1-2.1,0.7-2.7,1.7c-0.6,1.2-0.7,2.5-0.5,3.8c0.1,1.3,0.6,2.5,1.5,3.5c0.8,0.8,1.9,1.1,3,0.9
	C94.4,55.3,95.4,54.6,95.9,53.7z"/>
<path class="st0" d="M118,53.2c-1.2,1.8-3.1,2.9-5.9,3.2s-4.9-0.2-6.5-1.7c-3.2-3.1-3.8-8-1.6-11.9c1.2-1.8,3.1-3,5.9-3.3
	s5,0.2,6.6,1.8c1.6,1.5,2.6,3.5,2.8,5.7C119.6,49.1,119.2,51.3,118,53.2z M114.4,51.3c0.6-1.2,0.8-2.5,0.6-3.8
	c-0.1-1.3-0.6-2.6-1.4-3.5c-1.6-1.4-4-1.2-5.4,0.4c-0.1,0.1-0.2,0.2-0.3,0.4c-0.6,1.2-0.8,2.5-0.5,3.8c0.1,1.3,0.6,2.6,1.5,3.6
	c1.6,1.4,4,1.3,5.4-0.3C114.2,51.6,114.3,51.4,114.4,51.3L114.4,51.3z"/>
<path class="st0" d="M126,49.1c0.1,0.6,0.3,1.1,0.8,1.5c0.9,0.6,2,0.7,3,0.5c0.7,0,1.3-0.2,1.9-0.6c0.4-0.2,0.7-0.7,0.6-1.2
	c0-0.4-0.3-0.8-0.7-1c-1.5-0.4-3-0.6-4.6-0.8c-1.4-0.1-2.8-0.5-4.1-1.2c-0.9-0.6-1.4-1.6-1.5-2.7c-0.2-1.5,0.3-2.9,1.3-4
	c1.3-1.3,3-2.1,4.8-2.1c1.7-0.3,3.5,0,5.1,0.7c1.4,0.8,2.4,2.2,2.6,3.9l-4.2,0.4c-0.1-0.5-0.3-0.9-0.6-1.2c-0.7-0.6-1.6-0.8-2.5-0.6
	c-0.7,0-1.4,0.2-1.9,0.6c-0.3,0.3-0.5,0.6-0.5,1.1s0.3,0.9,0.8,1c1.5,0.3,3,0.6,4.5,0.7c1.4,0.1,2.8,0.6,4,1.4
	c0.9,0.7,1.5,1.7,1.6,2.9c0.2,1.5-0.3,3-1.4,4c-1.1,1.1-2.9,1.8-5.3,2.1c-2.5,0.3-4.4,0-5.8-1c-1.3-0.9-2.1-2.3-2.3-3.8L126,49.1z"
	/>
<path class="st0" d="M137.1,40.1l-0.3-3l2.3-0.2c-0.2-1.8-0.3-2.7-0.4-4.4l4.2-0.4l0.4,4.4l2.6-0.2c0.1,1.2,0.2,1.8,0.3,3l-2.6,0.2
	l0.8,8.4c0,0.4,0.1,0.9,0.4,1.2c0.5,0.2,1,0.2,1.6,0.1h0.4l0.4-0.1l0.3,3.1l-2,0.3c-2,0.3-3.4,0-4.2-0.6c-0.6-0.6-0.9-1.3-0.9-2.1
	c-0.4-3.9-0.6-5.9-1-9.8L137.1,40.1z"/>
<path class="st0" d="M177.6,33.7c0.8,0.3,1.5,0.7,2,1.3s0.9,1.3,1.1,2c0.2,0.8,0.3,1.6,0.3,2.3c0.2,4,0.4,6,0.6,10l-4.3,0.3
	c-0.3-4-0.4-6.1-0.7-10.1c0-0.5-0.1-1-0.4-1.5c-0.5-0.7-1.3-1.1-2.2-1c-1,0-2,0.6-2.3,1.6c-0.2,0.6-0.3,1.2-0.2,1.8
	c0.3,3.8,0.4,5.7,0.7,9.5l-4.2,0.3l-0.7-9.5c0-0.7-0.2-1.4-0.4-2c-0.4-0.8-1.3-1.2-2.2-1c-1,0-1.9,0.5-2.4,1.3
	c-0.2,0.6-0.3,1.3-0.2,2l0.8,9.6l-4.3,0.3c-0.5-6.3-0.8-9.5-1.3-15.9l4.1-0.3c0.1,0.9,0.1,1.4,0.2,2.3c0.3-0.7,0.8-1.3,1.4-1.9
	c0.9-0.7,2-1.1,3.2-1.2c1.1-0.1,2.1,0.1,3.1,0.6c0.7,0.5,1.2,1.1,1.5,1.8c0.4-0.9,1.1-1.7,1.9-2.2c0.9-0.5,1.9-0.8,2.9-0.8
	C176.2,33.4,176.9,33.5,177.6,33.7z"/>
<path class="st0" d="M195.1,33c1.2,0.4,2.2,1.2,2.9,2.2s1.2,2.1,1.4,3.2c0.2,1,0.3,2.1,0.3,3.2c-4.7,0.2-7.1,0.3-11.8,0.6
	c0,1.3,0.7,2.6,1.9,3.3c0.7,0.4,1.5,0.5,2.4,0.5c1.4,0,2.6-0.8,3.1-2l4.3-0.2c-0.1,1.1-0.6,2.2-1.4,3c-1.5,1.7-3.7,2.6-5.9,2.6
	c-2.1,0.1-4.1-0.4-5.8-1.7c-1.7-1.2-2.7-3.3-2.8-6.2c-0.3-2.3,0.4-4.7,1.9-6.5c1.5-1.6,3.5-2.5,5.7-2.5
	C192.6,32.4,193.9,32.6,195.1,33z M188.9,36.9c-0.6,0.7-0.9,1.6-1,2.5c2.9-0.2,4.4-0.2,7.3-0.4c0-1-0.5-1.9-1.2-2.5
	c-0.7-0.5-1.7-0.8-2.6-0.7C190.5,35.8,189.6,36.2,188.9,36.9L188.9,36.9z"/>
<path class="st0" d="M200,35.5l-0.1-3l2.3-0.1c-0.1-1.8-0.1-2.7-0.2-4.5l4.2-0.2c0.1,1.8,0.1,2.7,0.2,4.4L209,32l0.1,3l-2.6,0.1
	c0.1,3.4,0.2,5.1,0.3,8.4c0,0.4,0.1,0.9,0.3,1.2c0.5,0.2,1,0.3,1.6,0.2h0.4h0.4c0,1.2,0.1,1.9,0.1,3.1l-2,0.1
	c-2,0.2-3.4-0.1-4.1-0.9c-0.5-0.6-0.8-1.4-0.8-2.2c-0.2-3.9-0.2-5.9-0.4-9.8L200,35.5z"/>
<path class="st0" d="M218.4,38c0.6-0.1,1.1-0.2,1.7-0.4c0.5-0.2,0.9-0.7,0.9-1.2c0-0.6-0.3-1.1-0.7-1.3c-0.7-0.3-1.4-0.4-2.1-0.3
	c-0.8-0.1-1.6,0.2-2.1,0.8c-0.3,0.4-0.5,0.9-0.6,1.5l-4.1,0.1c0-1.2,0.4-2.5,1.1-3.5c1.1-1.4,3-2.2,5.8-2.3c1.7-0.1,3.3,0.2,4.8,0.9
	c1.4,0.7,2.1,2,2.2,3.9c0.1,2.9,0.1,4.4,0.2,7.3c0,0.5,0,1.1,0.1,1.8c0,0.4,0.1,0.8,0.3,1.1c0.2,0.2,0.4,0.4,0.6,0.5v0.6l-4.6,0.1
	c-0.1-0.3-0.2-0.6-0.3-0.9c-0.1-0.3-0.1-0.6-0.1-1c-0.6,0.6-1.3,1.2-2,1.7c-0.9,0.6-2,0.8-3.1,0.9c-1.3,0.1-2.6-0.3-3.7-1.1
	c-1-0.9-1.6-2.1-1.6-3.5c-0.2-1.7,0.7-3.4,2.2-4.3c1.2-0.6,2.5-1,3.8-1.1L218.4,38z M221.1,39.9c-0.3,0.2-0.5,0.3-0.8,0.4
	c-0.4,0.1-0.7,0.2-1.1,0.3l-1,0.2c-0.7,0.1-1.3,0.3-1.9,0.6c-1,0.7-1.2,2-0.6,3c0.1,0.1,0.2,0.2,0.3,0.3c0.4,0.3,1,0.5,1.5,0.4
	c0.9,0,1.8-0.3,2.5-0.9c0.8-0.7,1.3-1.8,1.1-2.9V39.9z"/>
<path class="st0" d="M242.8,33.2c1.3,1.7,1.9,3.7,1.9,5.8c0.1,2.2-0.5,4.4-1.8,6.2c-2,2.5-5.4,3.2-8.2,1.7c-0.6-0.4-1.2-1-1.6-1.6v2
	l-4.2,0.1c-0.2-8.6-0.2-12.9-0.4-21.6l4.3-0.1c0.1,3.1,0.1,4.6,0.1,7.7c0.5-0.7,1.1-1.3,1.8-1.7c0.9-0.5,1.9-0.8,2.9-0.8
	C239.7,30.9,241.6,31.7,242.8,33.2z M239.4,43c0.6-1,1-2.2,0.9-3.4c0-1-0.1-1.9-0.5-2.8c-0.5-1.3-1.8-2.2-3.2-2.1
	c-1.4-0.1-2.7,0.8-3.2,2.1c-0.3,0.9-0.5,1.9-0.4,2.8c0,1.2,0.3,2.4,1,3.4c0.7,0.9,1.7,1.4,2.9,1.3C237.9,44.3,238.8,43.8,239.4,43z"
	/>
<path class="st0" d="M261.1,45.3c-1.4,1.7-3.5,2.5-6.2,2.5s-4.8-0.8-6.2-2.5s-2.1-3.8-2.1-6c-0.1-2.2,0.7-4.3,2.1-6
	c1.4-1.7,3.5-2.5,6.3-2.5s4.9,0.9,6.3,2.6C264,36.9,263.9,41.9,261.1,45.3L261.1,45.3z M257.8,43c0.7-1.1,1.1-2.4,1-3.7
	c0.1-1.3-0.3-2.6-1-3.7c-1.4-1.6-3.8-1.7-5.4-0.3c-0.1,0.1-0.2,0.2-0.3,0.3c-0.7,1.1-1.1,2.4-1,3.7c-0.1,1.3,0.3,2.6,1,3.7
	c0.7,0.9,1.7,1.4,2.9,1.3C256,44.4,257.1,43.9,257.8,43z"/>
<path class="st0" d="M270.5,47.4l-4.2-0.1c0.1-8.6,0.2-13,0.3-21.6c1.7,0,2.6,0,4.3,0.1C270.7,34.5,270.6,38.8,270.5,47.4z"/>
<path class="st0" d="M279.4,29.8l-4.3-0.1c0-1.5,0-2.3,0.1-3.9l4.4,0.1L279.4,29.8z M275,31.5l4.3,0.1c-0.2,6.4-0.2,9.6-0.4,16
	c-1.7,0-2.6-0.1-4.3-0.1L275,31.5z"/>
<path class="st0" d="M286.4,42.7c0,0.6,0.2,1.1,0.5,1.6c0.8,0.7,1.8,1,2.9,0.9c0.7,0.1,1.4,0,2-0.3c0.5-0.2,0.8-0.6,0.8-1.1
	c0-0.4-0.2-0.9-0.6-1.1c-1.4-0.6-2.9-1.1-4.4-1.4c-1.4-0.3-2.7-0.9-3.8-1.8c-0.7-0.8-1.1-1.8-1-2.9c0-1.5,0.7-2.8,1.9-3.8
	c1.5-1.1,3.3-1.6,5.1-1.4c1.7,0,3.5,0.5,5,1.4c1.3,1,2.1,2.6,2,4.2l-4.2-0.2c0-0.5-0.2-0.9-0.4-1.3c-0.6-0.7-1.5-1-2.4-0.9
	c-0.7-0.1-1.4,0-2,0.4c-0.4,0.2-0.6,0.6-0.6,1s0.2,0.9,0.6,1.1c1.4,0.5,2.9,1,4.4,1.3c1.4,0.3,2.7,1,3.7,1.9c0.8,0.8,1.2,1.9,1.1,3
	c0,1.5-0.7,2.9-2,3.8c-1.2,1-3.1,1.4-5.6,1.3c-2.5-0.1-4.3-0.7-5.6-1.8c-1.2-1-1.8-2.5-1.7-4.1L286.4,42.7z"/>
<path class="st0" d="M320.9,33.5c0.7,0.4,1.3,0.9,1.8,1.6c0.4,0.6,0.7,1.3,0.8,2.1c0.1,0.8,0.1,1.6,0,2.4c-0.3,4-0.4,6-0.7,10
	l-4.3-0.3c0.2-4.1,0.4-6.1,0.6-10.1c0-0.5,0-1-0.2-1.5c-0.4-0.8-1.1-1.3-2-1.2c-1-0.1-2,0.4-2.5,1.3c-0.3,0.6-0.4,1.2-0.5,1.8
	c-0.2,3.8-0.3,5.7-0.5,9.5l-4.2-0.2c0.2-3.8,0.3-5.7,0.5-9.5c0.1-0.7,0-1.4-0.2-2.1c-0.4-0.8-1.2-1.3-2.1-1.2c-1-0.2-1.9,0.2-2.5,1
	c-0.3,0.6-0.4,1.3-0.4,1.9c-0.2,3.8-0.3,5.8-0.5,9.6l-4.3-0.2c0.3-6.4,0.4-9.5,0.7-15.9l4.1,0.2l-0.1,2.4c0.4-0.7,1-1.2,1.6-1.7
	c1-0.6,2.1-0.9,3.3-0.8c1.1,0,2.1,0.3,3,1c0.6,0.5,1.1,1.2,1.3,2c0.5-0.8,1.3-1.5,2.2-1.9c0.9-0.4,2-0.6,3-0.5
	C319.6,33.1,320.3,33.3,320.9,33.5z"/>
<path class="st0" d="M326.3,53.3c0.7-0.1,1.4-0.5,1.9-1c0.5-0.7,0.8-1.4,0.9-2.2l-2.5-0.2c0.1-1.8,0.2-2.6,0.3-4.4l4.6,0.3l-0.3,3.8
	c-0.1,0.7-0.2,1.4-0.4,2c-0.2,0.7-0.6,1.3-1.1,1.8s-1.2,0.9-1.9,1.2c-0.5,0.2-1,0.3-1.5,0.3V53.3z"/>
<path class="st0" d="M354.1,41.8c0-0.6-0.2-1.2-0.5-1.7c-0.5-0.7-1.3-1.1-2.1-1.2c-1.3-0.2-2.6,0.6-3.1,1.8
	c-0.4,0.9-0.6,1.9-0.7,2.9c-0.1,0.9-0.1,1.9,0.2,2.8c0.3,1.3,1.4,2.2,2.7,2.2c0.8,0.2,1.6-0.1,2.2-0.6c0.5-0.6,0.9-1.3,1-2l4.3,0.4
	c-0.2,1.3-0.8,2.5-1.7,3.5c-1.5,1.7-3.8,2.5-6.1,2.2c-2.6-0.2-4.4-1.2-5.5-2.8c-1.1-1.8-1.6-3.9-1.4-6.1c0.1-2.3,1-4.5,2.6-6.2
	c1.6-1.4,3.7-2.1,5.9-1.8c1.8,0.1,3.5,0.7,4.9,1.8c1.2,1,1.8,2.7,1.9,5L354.1,41.8z"/>
<path class="st0" d="M372.5,38.2c1.1,0.6,1.9,1.6,2.5,2.7c0.6,1.1,0.9,2.2,0.9,3.4c0,1.1-0.1,2.1-0.2,3.2c-4.7-0.5-7-0.8-11.7-1.3
	c-0.2,1.3,0.3,2.7,1.4,3.5c0.7,0.5,1.4,0.8,2.2,0.8c1.3,0.3,2.7-0.3,3.4-1.5l4.3,0.5c-0.3,1.1-1,2-1.9,2.7c-1.8,1.4-4.1,2-6.3,1.7
	c-2.1-0.2-4-1.1-5.5-2.5c-1.5-1.5-2.1-3.7-1.8-6.6c0.1-2.3,1.1-4.6,2.9-6.1c1.7-1.3,3.9-1.9,6-1.6C370,37.2,371.3,37.6,372.5,38.2z
	 M365.8,41.2c-0.7,0.6-1.2,1.4-1.4,2.3c2.9,0.3,4.4,0.5,7.3,0.8c0.1-1-0.2-1.9-0.9-2.6c-0.6-0.7-1.5-1.1-2.4-1.1
	C367.5,40.3,366.5,40.6,365.8,41.2z"/>
<path class="st0" d="M381.4,55l-4.2-0.5l2.5-21.5l4.3,0.5L381.4,55z"/>
<path class="st0" d="M389.8,56l-4.2-0.5c1-8.6,1.6-12.9,2.6-21.4l4.3,0.5L389.8,56z"/>
<path class="st0" d="M397.8,51.9c-0.1,0.6,0.1,1.2,0.4,1.7c0.7,0.8,1.7,1.2,2.8,1.2c0.7,0.1,1.3,0.1,2-0.1c0.5-0.1,0.8-0.5,0.9-1
	c0.1-0.4-0.1-0.9-0.4-1.1c-1.4-0.7-2.8-1.4-4.2-1.8c-1.4-0.4-2.6-1.2-3.7-2.2c-0.7-0.8-1-1.9-0.8-3c0.2-1.4,1-2.7,2.3-3.5
	c1.6-0.9,3.4-1.3,5.2-0.9c1.8,0.2,3.4,0.8,4.8,1.9c1.2,1.1,1.8,2.7,1.6,4.4l-4.2-0.6c0-0.5-0.1-0.9-0.3-1.3
	c-0.5-0.7-1.4-1.1-2.3-1.2c-0.7-0.1-1.4-0.1-2,0.2c-0.4,0.2-0.6,0.5-0.7,0.9s0.1,0.9,0.5,1.1c1.4,0.7,2.8,1.3,4.2,1.8
	c1.4,0.4,2.6,1.2,3.5,2.3c0.7,0.9,1,2,0.8,3.2c-0.2,1.5-1,2.8-2.3,3.6s-3.2,1.1-5.7,0.7s-4.3-1.1-5.4-2.3c-1.1-1.1-1.5-2.7-1.3-4.2
	L397.8,51.9z"/>
<path class="st0" d="M430.1,51.5c0-0.6-0.1-1.2-0.4-1.7c-0.4-0.7-1.2-1.2-2.1-1.3c-1.3-0.3-2.7,0.4-3.2,1.6
	c-0.5,0.9-0.8,1.9-0.9,2.8c-0.2,0.9-0.2,1.9,0,2.8c0.2,1.3,1.2,2.3,2.5,2.4c0.8,0.2,1.6,0,2.2-0.5c0.5-0.5,0.9-1.2,1.1-1.9l4.3,0.7
	c-0.9,3.6-4.6,5.9-8.2,5.1c-2.6-0.4-4.3-1.5-5.3-3.2c-1-1.9-1.3-4-0.9-6.1c0.2-2.3,1.3-4.4,3-6c1.7-1.3,3.9-1.8,6-1.4
	c1.8,0.2,3.4,0.9,4.8,2.1c1.1,1.1,1.6,2.8,1.5,5.1L430.1,51.5z"/>
<path class="st0" d="M443.6,54.3c0.6,0.1,1.2,0,1.7-0.1s1-0.5,1.1-1c0.2-0.5,0-1.1-0.5-1.5c-0.6-0.4-1.3-0.6-2-0.7
	c-0.8-0.2-1.6-0.1-2.3,0.3c-0.4,0.4-0.7,0.8-0.9,1.3l-4-0.7c0.2-1.2,0.9-2.3,1.8-3.2c1.3-1.2,3.4-1.6,6.1-1.1
	c1.6,0.3,3.2,0.9,4.5,1.9s1.8,2.7,1.4,4.2l-1.3,7.2c-0.1,0.5-0.2,1.1-0.3,1.8c-0.1,0.4-0.1,0.8,0,1.2c0.1,0.2,0.3,0.4,0.5,0.6
	l-0.1,0.6l-4.5-0.8c-0.1-0.3-0.1-0.6-0.1-0.9c0-0.3,0-0.7,0.1-1c-0.7,0.5-1.5,0.9-2.3,1.2c-1,0.3-2.1,0.4-3.2,0.2
	c-1.3-0.2-2.5-0.8-3.4-1.8c-0.8-1-1.1-2.4-0.8-3.7c0.2-1.7,1.3-3.2,3-3.8c1.3-0.4,2.6-0.5,3.9-0.4L443.6,54.3z M445.8,56.6
	c-0.3,0.1-0.6,0.2-0.9,0.3c-0.4,0.1-0.8,0.1-1.2,0.1h-1c-0.7,0-1.4,0-2,0.2c-0.7,0.2-1.2,0.8-1.3,1.6c-0.2,0.6,0,1.2,0.3,1.6
	c0.4,0.4,0.9,0.6,1.4,0.7c0.9,0.2,1.8,0,2.7-0.3c1-0.5,1.6-1.5,1.7-2.6C445.7,57.6,445.7,57.3,445.8,56.6L445.8,56.6z"/>
<path class="st0" d="M468,53.4c0.9,1,1.1,2.6,0.8,4.5c-0.8,4.2-1.3,6.3-2.1,10.5l-4.3-0.8l1.9-9.5c0.2-0.7,0.2-1.3,0-2
	c-0.3-0.9-1.1-1.6-2.1-1.7c-1.2-0.3-2.5,0.2-3.2,1.2c-0.4,0.7-0.7,1.5-0.9,2.3l-1.6,8.5l-4.2-0.8c1.1-6.3,1.7-9.4,2.9-15.7l4.1,0.8
	l-0.4,2.3c0.5-0.6,1.2-1.1,1.9-1.5c1.1-0.5,2.3-0.6,3.5-0.3C465.6,51.5,467,52.2,468,53.4z"/>
<path class="st0" d="M475,54.5l4.5,0.9l-0.9,4.3l-4.5-0.9C474.5,57,474.7,56.2,475,54.5z M472.8,65.2l4.4,0.9
	c-0.4,1.7-0.5,2.6-0.9,4.3l-4.4-0.9C472.3,67.8,472.5,66.9,472.8,65.2L472.8,65.2z"/>
<text transform="matrix(1 0 0 1 82.5743 126.56)" class="st1 st2">...or to reach an insoluble metal</text>
<text transform="matrix(1 0 0 1 120.5943 155.36)" class="st1 st2">for anaerobic respiration</text>
</svg>
