<svg class="summary-menu__item-graphic" xmlns="http://www.w3.org/2000/svg" viewBox="0 0 132.9 276.74"><path d="M1357.49,715.65" transform="translate(-1269.51 -600.65)" fill="none" stroke="#0d65d9" stroke-miterlimit="10" stroke-width="4"/><path d="M1361.64,713.87" transform="translate(-1269.51 -600.65)" fill="none" stroke="#0d65d9" stroke-miterlimit="10" stroke-width="4"/><path d="M1389.18,601.76c-.72,97.13-37.06,191.74-109.47,267.5" transform="translate(-1269.51 -600.65)" fill="none" stroke="#3d84e1" stroke-miterlimit="10" stroke-width="2"/><path d="M1397,601.52c-.68,92.66-34.68,193.27-112.3,274.48" transform="translate(-1269.51 -600.65)" fill="none" stroke="#6ea3e8" stroke-miterlimit="10" stroke-width="4"/><path d="M1381.25,600.66a383.9,383.9,0,0,1-27,138.83s-9.31,6.41-8.65-.86,11.89-26.42,15.85-48.22,12-63.23.5-63.23c-3.3,0-2.48,67.86-30.22,116.74s1.32-16.51,9.25-44.26,8.27-41.63,4.31-44.28-7.46,54.81-37.18,109-43.19,45.71-33.42,53.85c7.69,6.41,42.19-51.48,45.15-48.53,6.22,6.22-45.72,70.32-45.72,72.88,0,11.82,32.7-25.64,42.42-43.16,21.49-38.77,21.79-48.88,25.76-48.22a6.71,6.71,0,0,1,5.07,4.53,383.13,383.13,0,0,1-72.35,107" transform="translate(-1269.51 -600.65)" fill="none" stroke="#0d65d9" stroke-miterlimit="10" stroke-width="4"/><path d="M1378.59,609.17c3.22,0,3.22-5,0-5s-3.22,5,0,5Z" transform="translate(-1269.51 -600.65)" fill="#99bd99"/><path d="M1378.59,620.71c3.22,0,3.22-5,0-5s-3.22,5,0,5Z" transform="translate(-1269.51 -600.65)" fill="#99bd99"/><path d="M1377.31,638.65c3.21,0,3.22-5,0-5s-3.22,5,0,5Z" transform="translate(-1269.51 -600.65)" fill="#99bd99"/><path d="M1376,650.19c3.21,0,3.22-5,0-5s-3.23,5,0,5Z" transform="translate(-1269.51 -600.65)" fill="#99bd99"/><path d="M1373.46,666.86c3.22,0,3.22-5,0-5s-3.22,5,0,5Z" transform="translate(-1269.51 -600.65)" fill="#99bd99"/><path d="M1370.9,681c3.21,0,3.22-5,0-5s-3.23,5,0,5Z" transform="translate(-1269.51 -600.65)" fill="#99bd99"/><path d="M1367.05,695.06c3.22,0,3.22-5,0-5s-3.22,5,0,5Z" transform="translate(-1269.51 -600.65)" fill="#99bd99"/><path d="M1364.49,709.17c3.21,0,3.22-5,0-5s-3.23,5,0,5Z" transform="translate(-1269.51 -600.65)" fill="#99bd99"/><path d="M1360.64,719.42c3.22,0,3.22-5,0-5s-3.22,5,0,5Z" transform="translate(-1269.51 -600.65)" fill="#99bd99"/><path d="M1355.51,732.24c3.22,0,3.23-5,0-5s-3.22,5,0,5Z" transform="translate(-1269.51 -600.65)" fill="#99bd99"/><path d="M1351.67,742.5c3.21,0,3.22-5,0-5s-3.23,5,0,5Z" transform="translate(-1269.51 -600.65)" fill="#99bd99"/><path d="M1346.54,737.37c3.22,0,3.22-5,0-5s-3.22,5,0,5Z" transform="translate(-1269.51 -600.65)" fill="#99bd99"/><path d="M1350.38,727.12c3.22,0,3.23-5,0-5s-3.22,5,0,5Z" transform="translate(-1269.51 -600.65)" fill="#99bd99"/><path d="M1355.51,716.86c3.22,0,3.23-5,0-5s-3.22,5,0,5Z" transform="translate(-1269.51 -600.65)" fill="#99bd99"/><path d="M1359.36,705.32c3.22,0,3.22-5,0-5s-3.22,5,0,5Z" transform="translate(-1269.51 -600.65)" fill="#99bd99"/><path d="M1363.21,689.94c3.21,0,3.22-5,0-5s-3.23,5,0,5Z" transform="translate(-1269.51 -600.65)" fill="#99bd99"/><path d="M1365.77,674.55c3.22,0,3.22-5,0-5s-3.22,5,0,5Z" transform="translate(-1269.51 -600.65)" fill="#99bd99"/><path d="M1368.33,659.17c3.22,0,3.23-5,0-5s-3.22,5,0,5Z" transform="translate(-1269.51 -600.65)" fill="#99bd99"/><path d="M1369.62,648.91c3.21,0,3.22-5,0-5s-3.23,5,0,5Z" transform="translate(-1269.51 -600.65)" fill="#99bd99"/><path d="M1368.33,637.37c3.22,0,3.23-5,0-5s-3.22,5,0,5Z" transform="translate(-1269.51 -600.65)" fill="#99bd99"/><path d="M1363.21,628.4c3.21,0,3.22-5,0-5s-3.23,5,0,5Z" transform="translate(-1269.51 -600.65)" fill="#99bd99"/><path d="M1358.08,633.53c3.21,0,3.22-5,0-5s-3.23,5,0,5Z" transform="translate(-1269.51 -600.65)" fill="#99bd99"/><path d="M1359.36,645.06c3.22,0,3.22-5,0-5s-3.22,5,0,5Z" transform="translate(-1269.51 -600.65)" fill="#99bd99"/><path d="M1356.79,660.45c3.22,0,3.23-5,0-5s-3.22,5,0,5Z" transform="translate(-1269.51 -600.65)" fill="#99bd99"/><path d="M1355.51,669.42c3.22,0,3.23-5,0-5s-3.22,5,0,5Z" transform="translate(-1269.51 -600.65)" fill="#99bd99"/><path d="M1354.23,682.24c3.22,0,3.22-5,0-5s-3.22,5,0,5Z" transform="translate(-1269.51 -600.65)" fill="#99bd99"/><path d="M1350.38,695.06c3.22,0,3.23-5,0-5s-3.22,5,0,5Z" transform="translate(-1269.51 -600.65)" fill="#99bd99"/><path d="M1347.82,705.32c3.22,0,3.22-5,0-5s-3.22,5,0,5Z" transform="translate(-1269.51 -600.65)" fill="#99bd99"/><path d="M1344,719.42c3.22,0,3.23-5,0-5s-3.22,5,0,5Z" transform="translate(-1269.51 -600.65)" fill="#99bd99"/><path d="M1337.56,733.53c3.22,0,3.23-5,0-5s-3.22,5,0,5Z" transform="translate(-1269.51 -600.65)" fill="#99bd99"/><path d="M1332.44,743.78c3.21,0,3.22-5,0-5s-3.23,5,0,5Z" transform="translate(-1269.51 -600.65)" fill="#99bd99"/><path d="M1324.74,754c3.22,0,3.23-5,0-5s-3.22,5,0,5Z" transform="translate(-1269.51 -600.65)" fill="#99bd99"/><path d="M1320.9,761.73c3.21,0,3.22-5,0-5s-3.23,5,0,5Z" transform="translate(-1269.51 -600.65)" fill="#99bd99"/><path d="M1324.74,746.35c3.22,0,3.23-5,0-5s-3.22,5,0,5Z" transform="translate(-1269.51 -600.65)" fill="#99bd99"/><path d="M1329.87,733.53c3.22,0,3.22-5,0-5s-3.22,5,0,5Z" transform="translate(-1269.51 -600.65)" fill="#99bd99"/><path d="M1336.28,713c3.22,0,3.22-5,0-5s-3.22,5,0,5Z" transform="translate(-1269.51 -600.65)" fill="#99bd99"/><path d="M1340.13,698.91c3.22,0,3.22-5,0-5s-3.22,5,0,5Z" transform="translate(-1269.51 -600.65)" fill="#99bd99"/><path d="M1344,687.37c3.22,0,3.23-5,0-5s-3.22,5,0,5Z" transform="translate(-1269.51 -600.65)" fill="#99bd99"/><path d="M1345.26,679.68c3.21,0,3.22-5,0-5s-3.23,5,0,5Z" transform="translate(-1269.51 -600.65)" fill="#99bd99"/><path d="M1345.26,665.58c3.21,0,3.22-5,0-5s-3.23,5,0,5Z" transform="translate(-1269.51 -600.65)" fill="#99bd99"/><path d="M1340.13,678.4c3.22,0,3.22-5,0-5s-3.22,5,0,5Z" transform="translate(-1269.51 -600.65)" fill="#99bd99"/><path d="M1336.28,692.5c3.22,0,3.22-5,0-5s-3.22,5,0,5Z" transform="translate(-1269.51 -600.65)" fill="#99bd99"/><path d="M1331.15,709.17c3.22,0,3.23-5,0-5s-3.22,5,0,5Z" transform="translate(-1269.51 -600.65)" fill="#99bd99"/><path d="M1329.87,720.71c3.22,0,3.22-5,0-5s-3.22,5,0,5Z" transform="translate(-1269.51 -600.65)" fill="#99bd99"/><path d="M1324.74,733.53c3.22,0,3.23-5,0-5s-3.22,5,0,5Z" transform="translate(-1269.51 -600.65)" fill="#99bd99"/><path d="M1319.62,747.63c3.21,0,3.22-5,0-5s-3.23,5,0,5Z" transform="translate(-1269.51 -600.65)" fill="#99bd99"/><path d="M1313.21,760.45c3.21,0,3.22-5,0-5s-3.23,5,0,5Z" transform="translate(-1269.51 -600.65)" fill="#99bd99"/><path d="M1306.79,772c3.22,0,3.23-5,0-5s-3.22,5,0,5Z" transform="translate(-1269.51 -600.65)" fill="#99bd99"/><path d="M1300.38,779.68c3.22,0,3.23-5,0-5s-3.22,5,0,5Z" transform="translate(-1269.51 -600.65)" fill="#99bd99"/><path d="M1295.26,788.65c3.21,0,3.22-5,0-5s-3.23,5,0,5Z" transform="translate(-1269.51 -600.65)" fill="#99bd99"/><path d="M1288.85,800.19c3.21,0,3.22-5,0-5s-3.23,5,0,5Z" transform="translate(-1269.51 -600.65)" fill="#99bd99"/><path d="M1279.87,809.17c3.22,0,3.22-5,0-5s-3.22,5,0,5Z" transform="translate(-1269.51 -600.65)" fill="#99bd99"/><path d="M1272.18,818.14c3.22,0,3.22-5,0-5s-3.22,5,0,5Z" transform="translate(-1269.51 -600.65)" fill="#99bd99"/><path d="M1282.44,816.86c3.21,0,3.22-5,0-5s-3.23,5,0,5Z" transform="translate(-1269.51 -600.65)" fill="#99bd99"/><path d="M1290.13,806.6c3.22,0,3.22-5,0-5s-3.22,5,0,5Z" transform="translate(-1269.51 -600.65)" fill="#99bd99"/><path d="M1296.54,798.91c3.22,0,3.22-5,0-5s-3.22,5,0,5Z" transform="translate(-1269.51 -600.65)" fill="#99bd99"/><path d="M1305.51,788.65c3.22,0,3.23-5,0-5s-3.22,5,0,5Z" transform="translate(-1269.51 -600.65)" fill="#99bd99"/><path d="M1310.64,779.68c3.22,0,3.22-5,0-5s-3.22,5,0,5Z" transform="translate(-1269.51 -600.65)" fill="#99bd99"/><path d="M1320.9,772c3.21,0,3.22-5,0-5s-3.23,5,0,5Z" transform="translate(-1269.51 -600.65)" fill="#99bd99"/><path d="M1320.9,781c3.21,0,3.22-5,0-5s-3.23,5,0,5Z" transform="translate(-1269.51 -600.65)" fill="#99bd99"/><path d="M1310.64,792.5c3.22,0,3.22-5,0-5s-3.22,5,0,5Z" transform="translate(-1269.51 -600.65)" fill="#99bd99"/><path d="M1301.67,807.88c3.21,0,3.22-5,0-5s-3.23,5,0,5Z" transform="translate(-1269.51 -600.65)" fill="#99bd99"/><path d="M1291.41,823.27c3.22,0,3.22-5,0-5s-3.22,5,0,5Z" transform="translate(-1269.51 -600.65)" fill="#99bd99"/><path d="M1285,832.24c3.22,0,3.22-5,0-5s-3.22,5,0,5Z" transform="translate(-1269.51 -600.65)" fill="#99bd99"/><path d="M1278.59,842.5c3.22,0,3.22-5,0-5s-3.22,5,0,5Z" transform="translate(-1269.51 -600.65)" fill="#99bd99"/><path d="M1276,860.45c3.21,0,3.22-5,0-5s-3.23,5,0,5Z" transform="translate(-1269.51 -600.65)" fill="#99bd99"/><path d="M1286.28,851.47c3.22,0,3.22-5,0-5s-3.22,5,0,5Z" transform="translate(-1269.51 -600.65)" fill="#99bd99"/><path d="M1299.1,836.09c3.22,0,3.23-5,0-5s-3.22,5,0,5Z" transform="translate(-1269.51 -600.65)" fill="#99bd99"/><path d="M1308.08,823.27c3.21,0,3.22-5,0-5s-3.23,5,0,5Z" transform="translate(-1269.51 -600.65)" fill="#99bd99"/><path d="M1315.77,809.17c3.22,0,3.22-5,0-5s-3.22,5,0,5Z" transform="translate(-1269.51 -600.65)" fill="#99bd99"/><path d="M1327.31,795.06c3.21,0,3.22-5,0-5s-3.22,5,0,5Z" transform="translate(-1269.51 -600.65)" fill="#99bd99"/><path d="M1335,781c3.22,0,3.22-5,0-5s-3.22,5,0,5Z" transform="translate(-1269.51 -600.65)" fill="#99bd99"/><path d="M1340.13,768.14c3.22,0,3.22-5,0-5s-3.22,5,0,5Z" transform="translate(-1269.51 -600.65)" fill="#99bd99"/><path d="M1344,754c3.22,0,3.23-5,0-5s-3.22,5,0,5Z" transform="translate(-1269.51 -600.65)" fill="#99bd99"/><path d="M1336.28,764.29c3.22,0,3.22-5,0-5s-3.22,5,0,5Z" transform="translate(-1269.51 -600.65)" fill="#99bd99"/><path d="M1329.87,782.24c3.22,0,3.22-5,0-5s-3.22,5,0,5Z" transform="translate(-1269.51 -600.65)" fill="#99bd99"/><path d="M1318.33,802.76c3.22,0,3.23-5,0-5s-3.22,5,0,5Z" transform="translate(-1269.51 -600.65)" fill="#99bd99"/><path d="M1304.23,823.27c3.22,0,3.22-5,0-5s-3.22,5,0,5Z" transform="translate(-1269.51 -600.65)" fill="#99bd99"/><path d="M1287.56,841.22c3.22,0,3.23-5,0-5s-3.22,5,0,5Z" transform="translate(-1269.51 -600.65)" fill="#99bd99"/><text transform="translate(116.21 167.64)" font-size="30" font-family="Helvetica">3</text></svg>