<svg class="summary-menu__item-graphic" xmlns="http://www.w3.org/2000/svg" viewBox="0 0 277.85 140.09"><path d="M1250.81,885.15A382.46,382.46,0,0,1,974.4,1002.78" transform="translate(-974.4 -883.77)" fill="none" stroke="#0d65d9" stroke-miterlimit="10" stroke-width="4"/><path d="M1039.14,954.59c-6.08-8.35,114.11-70.51,121.8-56.41S1049.4,968.7,1039.14,954.59Z" transform="translate(-974.4 -883.77)" fill="none" stroke="#0d65d9" stroke-miterlimit="10" stroke-width="2"/><path d="M1044.27,953.25c3.22,0,3.22-5,0-5s-3.22,5,0,5Z" transform="translate(-974.4 -883.77)" fill="#99bd99"/><path d="M1053.25,953.25c3.21,0,3.22-5,0-5s-3.23,5,0,5Z" transform="translate(-974.4 -883.77)" fill="#99bd99"/><path d="M1053.25,949.4c3.21,0,3.22-5,0-5s-3.23,5,0,5Z" transform="translate(-974.4 -883.77)" fill="#99bd99"/><path d="M1063.5,949.4c3.22,0,3.23-5,0-5s-3.22,5,0,5Z" transform="translate(-974.4 -883.77)" fill="#99bd99"/><path d="M1066.07,950.68c3.21,0,3.22-5,0-5s-3.23,5,0,5Z" transform="translate(-974.4 -883.77)" fill="#99bd99"/><path d="M1066.07,944.27c3.21,0,3.22-5,0-5s-3.23,5,0,5Z" transform="translate(-974.4 -883.77)" fill="#99bd99"/><path d="M1069.91,940.43c3.22,0,3.23-5,0-5s-3.22,5,0,5Z" transform="translate(-974.4 -883.77)" fill="#99bd99"/><path d="M1076.32,941.71c3.22,0,3.23-5,0-5s-3.22,5,0,5Z" transform="translate(-974.4 -883.77)" fill="#99bd99"/><path d="M1082.73,946.84c3.22,0,3.23-5,0-5s-3.22,5,0,5Z" transform="translate(-974.4 -883.77)" fill="#99bd99"/><path d="M1090.43,935.3c3.21,0,3.22-5,0-5s-3.23,5,0,5Z" transform="translate(-974.4 -883.77)" fill="#99bd99"/><path d="M1093,934c3.22,0,3.22-5,0-5s-3.22,5,0,5Z" transform="translate(-974.4 -883.77)" fill="#99bd99"/><path d="M1099.4,927.61c3.22,0,3.22-5,0-5s-3.22,5,0,5Z" transform="translate(-974.4 -883.77)" fill="#99bd99"/><path d="M1107.09,923.76c3.22,0,3.22-5,0-5s-3.22,5,0,5Z" transform="translate(-974.4 -883.77)" fill="#99bd99"/><path d="M1114.78,918.63c3.22,0,3.23-5,0-5s-3.22,5,0,5Z" transform="translate(-974.4 -883.77)" fill="#99bd99"/><path d="M1126.32,917.35c3.22,0,3.23-5,0-5s-3.22,5,0,5Z" transform="translate(-974.4 -883.77)" fill="#99bd99"/><path d="M1132.73,914.79c3.22,0,3.23-5,0-5s-3.22,5,0,5Z" transform="translate(-974.4 -883.77)" fill="#99bd99"/><path d="M1144.27,908.38c3.22,0,3.22-5,0-5s-3.22,5,0,5Z" transform="translate(-974.4 -883.77)" fill="#99bd99"/><path d="M1148.12,905.81c3.22,0,3.22-5,0-5s-3.22,5,0,5Z" transform="translate(-974.4 -883.77)" fill="#99bd99"/><path d="M1152,903.25c3.22,0,3.23-5,0-5s-3.22,5,0,5Z" transform="translate(-974.4 -883.77)" fill="#99bd99"/><path d="M1143,912.22c3.22,0,3.22-5,0-5s-3.22,5,0,5Z" transform="translate(-974.4 -883.77)" fill="#99bd99"/><path d="M1126.32,917.35c3.22,0,3.23-5,0-5s-3.22,5,0,5Z" transform="translate(-974.4 -883.77)" fill="#99bd99"/><path d="M1117.35,927.61c3.22,0,3.22-5,0-5s-3.22,5,0,5Z" transform="translate(-974.4 -883.77)" fill="#99bd99"/><path d="M1105.81,932.74c3.22,0,3.22-5,0-5s-3.22,5,0,5Z" transform="translate(-974.4 -883.77)" fill="#99bd99"/><path d="M1095.62,934.08v2.57a1.88,1.88,0,0,0,.21,1,1.85,1.85,0,0,0,.52.8,1.82,1.82,0,0,0,.8.52,1.9,1.9,0,0,0,1,.22l.66-.09a2.55,2.55,0,0,0,1.11-.65,2.63,2.63,0,0,0,.73-1.76v-2.57a1.88,1.88,0,0,0-.22-1,2.16,2.16,0,0,0-1.32-1.32,1.88,1.88,0,0,0-1-.22l-.67.09a2.5,2.5,0,0,0-1.1.64,2.59,2.59,0,0,0-.73,1.77Z" transform="translate(-974.4 -883.77)" fill="#99bd99"/><path d="M1090.43,943c3.21,0,3.22-5,0-5s-3.23,5,0,5Z" transform="translate(-974.4 -883.77)" fill="#99bd99"/><path d="M1084,936.58c3.21,0,3.22-5,0-5s-3.23,5,0,5Z" transform="translate(-974.4 -883.77)" fill="#99bd99"/><path d="M1081.45,934c3.22,0,3.22-5,0-5s-3.22,5,0,5Z" transform="translate(-974.4 -883.77)" fill="#99bd99"/><path d="M1069.91,948.12c3.22,0,3.23-5,0-5s-3.22,5,0,5Z" transform="translate(-974.4 -883.77)" fill="#99bd99"/><path d="M1068.63,949.4c3.22,0,3.22-5,0-5s-3.22,5,0,5Z" transform="translate(-974.4 -883.77)" fill="#99bd99"/><path d="M1054.53,948.12c3.22,0,3.22-5,0-5s-3.22,5,0,5Z" transform="translate(-974.4 -883.77)" fill="#99bd99"/><path d="M1049.4,957.09c3.22,0,3.22-5,0-5s-3.22,5,0,5Z" transform="translate(-974.4 -883.77)" fill="#99bd99"/><path d="M1043,955.81c3.22,0,3.22-5,0-5s-3.22,5,0,5Z" transform="translate(-974.4 -883.77)" fill="#99bd99"/><path d="M1053.25,954.53c3.21,0,3.22-5,0-5s-3.23,5,0,5Z" transform="translate(-974.4 -883.77)" fill="#99bd99"/><path d="M1060.94,945.56c3.22,0,3.22-5,0-5s-3.22,5,0,5Z" transform="translate(-974.4 -883.77)" fill="#99bd99"/><path d="M1068.63,944.27c3.22,0,3.22-5,0-5s-3.22,5,0,5Z" transform="translate(-974.4 -883.77)" fill="#99bd99"/><path d="M1057.09,953.25c3.22,0,3.22-5,0-5s-3.22,5,0,5Z" transform="translate(-974.4 -883.77)" fill="#99bd99"/><path d="M1075,948.12c3.22,0,3.22-5,0-5s-3.22,5,0,5Z" transform="translate(-974.4 -883.77)" fill="#99bd99"/><path d="M1075,934c3.22,0,3.22-5,0-5s-3.22,5,0,5Z" transform="translate(-974.4 -883.77)" fill="#99bd99"/><path d="M1080.17,940.43c3.22,0,3.22-5,0-5s-3.22,5,0,5Z" transform="translate(-974.4 -883.77)" fill="#99bd99"/><path d="M1087.86,930.17c3.22,0,3.22-5,0-5s-3.22,5,0,5Z" transform="translate(-974.4 -883.77)" fill="#99bd99"/><path d="M1099.4,934c3.22,0,3.22-5,0-5s-3.22,5,0,5Z" transform="translate(-974.4 -883.77)" fill="#99bd99"/><path d="M1108.37,934c3.22,0,3.23-5,0-5s-3.22,5,0,5Z" transform="translate(-974.4 -883.77)" fill="#99bd99"/><path d="M1114.78,926.33c3.22,0,3.23-5,0-5s-3.22,5,0,5Z" transform="translate(-974.4 -883.77)" fill="#99bd99"/><path d="M1119.91,923.76c3.22,0,3.23-5,0-5s-3.22,5,0,5Z" transform="translate(-974.4 -883.77)" fill="#99bd99"/><path d="M1123.76,917.35c3.22,0,3.22-5,0-5s-3.22,5,0,5Z" transform="translate(-974.4 -883.77)" fill="#99bd99"/><path d="M1125,912.22c3.22,0,3.22-5,0-5s-3.22,5,0,5Z" transform="translate(-974.4 -883.77)" fill="#99bd99"/><path d="M1131.45,922.48c3.22,0,3.22-5,0-5s-3.22,5,0,5Z" transform="translate(-974.4 -883.77)" fill="#99bd99"/><path d="M1141.71,917.35c3.21,0,3.22-5,0-5s-3.22,5,0,5Z" transform="translate(-974.4 -883.77)" fill="#99bd99"/><path d="M1135.3,909.66c3.21,0,3.22-5,0-5s-3.23,5,0,5Z" transform="translate(-974.4 -883.77)" fill="#99bd99"/><path d="M1141.71,905.81c3.21,0,3.22-5,0-5s-3.22,5,0,5Z" transform="translate(-974.4 -883.77)" fill="#99bd99"/><path d="M1123.76,926.33c3.22,0,3.22-5,0-5s-3.22,5,0,5Z" transform="translate(-974.4 -883.77)" fill="#99bd99"/><path d="M1112.22,922.48c3.22,0,3.22-5,0-5s-3.22,5,0,5Z" transform="translate(-974.4 -883.77)" fill="#99bd99"/><path d="M1108.37,921.2c3.22,0,3.23-5,0-5s-3.22,5,0,5Z" transform="translate(-974.4 -883.77)" fill="#99bd99"/><path d="M1095.55,923.76c3.22,0,3.23-5,0-5s-3.22,5,0,5Z" transform="translate(-974.4 -883.77)" fill="#99bd99"/><path d="M1098.12,928.89h1.28a1.86,1.86,0,0,0,1-.22,2.16,2.16,0,0,0,1.32-1.32,1.86,1.86,0,0,0,.22-1l-.09-.66a2.48,2.48,0,0,0-.64-1.11l-.51-.39a2.43,2.43,0,0,0-1.26-.34h-1.28a2.83,2.83,0,0,0-1.77.73,2,2,0,0,0-.52.81,1.85,1.85,0,0,0-.21,1l.09.66a2.48,2.48,0,0,0,.64,1.11l.51.39a2.53,2.53,0,0,0,1.26.34Z" transform="translate(-974.4 -883.77)" fill="#99bd99"/><path d="M1119.91,914.79c3.22,0,3.23-5,0-5s-3.22,5,0,5Z" transform="translate(-974.4 -883.77)" fill="#99bd99"/><path d="M1145.55,910.94c3.22,0,3.23-5,0-5s-3.22,5,0,5Z" transform="translate(-974.4 -883.77)" fill="#99bd99"/><path d="M1154.53,907.09c3.22,0,3.22-5,0-5s-3.22,5,0,5Z" transform="translate(-974.4 -883.77)" fill="#99bd99"/><path d="M1100.68,922.48c3.22,0,3.22-5,0-5s-3.22,5,0,5Z" transform="translate(-974.4 -883.77)" fill="#99bd99"/><path d="M1110.94,928.89c3.22,0,3.22-5,0-5s-3.22,5,0,5Z" transform="translate(-974.4 -883.77)" fill="#99bd99"/><path d="M1099.4,940.43c3.22,0,3.22-5,0-5s-3.22,5,0,5Z" transform="translate(-974.4 -883.77)" fill="#99bd99"/><path d="M1112.22,918.63c3.22,0,3.22-5,0-5s-3.22,5,0,5Z" transform="translate(-974.4 -883.77)" fill="#99bd99"/><path d="M1135.3,916.07c3.21,0,3.22-5,0-5s-3.23,5,0,5Z" transform="translate(-974.4 -883.77)" fill="#99bd99"/><path d="M1139.14,903.25c3.22,0,3.23-5,0-5s-3.22,5,0,5Z" transform="translate(-974.4 -883.77)" fill="#99bd99"/><path d="M1145.55,910.94c3.22,0,3.23-5,0-5s-3.22,5,0,5Z" transform="translate(-974.4 -883.77)" fill="#99bd99"/><path d="M1149.4,904.53c3.22,0,3.22-5,0-5s-3.22,5,0,5Z" transform="translate(-974.4 -883.77)" fill="#99bd99"/><path d="M1085.3,930.17c3.21,0,3.22-5,0-5s-3.23,5,0,5Z" transform="translate(-974.4 -883.77)" fill="#99bd99"/><path d="M1087.86,940.43c3.22,0,3.22-5,0-5s-3.22,5,0,5Z" transform="translate(-974.4 -883.77)" fill="#99bd99"/><path d="M1069.91,936.58c3.22,0,3.23-5,0-5s-3.22,5,0,5Z" transform="translate(-974.4 -883.77)" fill="#99bd99"/><path d="M1060.94,940.43c3.22,0,3.22-5,0-5s-3.22,5,0,5Z" transform="translate(-974.4 -883.77)" fill="#99bd99"/><path d="M1098.12,937.86c3.22,0,3.22-5,0-5s-3.22,5,0,5Z" transform="translate(-974.4 -883.77)" fill="#99bd99"/><path d="M1093,926.33c3.22,0,3.22-5,0-5s-3.22,5,0,5Z" transform="translate(-974.4 -883.77)" fill="#99bd99"/><path d="M1113.5,928.89c3.22,0,3.23-5,0-5s-3.22,5,0,5Z" transform="translate(-974.4 -883.77)" fill="#99bd99"/><path d="M1114.78,914.79c3.22,0,3.23-5,0-5s-3.22,5,0,5Z" transform="translate(-974.4 -883.77)" fill="#99bd99"/><path d="M1130.17,917.35c3.22,0,3.22-5,0-5s-3.22,5,0,5Z" transform="translate(-974.4 -883.77)" fill="#99bd99"/><path d="M1128.89,908.38c3.21,0,3.22-5,0-5s-3.23,5,0,5Z" transform="translate(-974.4 -883.77)" fill="#99bd99"/><path d="M1149.4,910.94c3.22,0,3.22-5,0-5s-3.22,5,0,5Z" transform="translate(-974.4 -883.77)" fill="#99bd99"/><path d="M1123.76,926.33c3.22,0,3.22-5,0-5s-3.22,5,0,5Z" transform="translate(-974.4 -883.77)" fill="#99bd99"/><path d="M1121.19,921.2c3.22,0,3.23-5,0-5s-3.22,5,0,5Z" transform="translate(-974.4 -883.77)" fill="#99bd99"/><path d="M1109.66,914.79c3.21,0,3.22-5,0-5s-3.23,5,0,5Z" transform="translate(-974.4 -883.77)" fill="#99bd99"/><text transform="translate(156.56 125.66)" font-size="30" font-family="Helvetica">4</text></svg>