<svg class="summary-menu__item-graphic" xmlns="http://www.w3.org/2000/svg" viewBox="0 0 264.27 139.04"><path d="M945.6,1002.78A382.25,382.25,0,0,1,682.71,898.53" transform="translate(-681.33 -885.05)" fill="none" stroke="#0d65d9" stroke-miterlimit="10" stroke-width="4"/><path d="M799.46,909.4c2.48,37.3,9.86,30.24,33.75,39.92a4.54,4.54,0,0,0,5.19-1.26l18.74-22.16a5.6,5.6,0,0,0,1.1-5.17c-7.14-24.45-17-30.69-34.3-34.08a5.49,5.49,0,0,0-5,1.57l-18.91,19.55A2.13,2.13,0,0,0,799.46,909.4Z" transform="translate(-681.33 -885.05)" fill="none" stroke="#005900" stroke-miterlimit="10" stroke-width="3"/><path d="M806.5,911.36c3.22,0,3.23-5,0-5s-3.22,5,0,5Z" transform="translate(-681.33 -885.05)" fill="#005900"/><path d="M810.22,907.23c3.22,0,3.23-5,0-5s-3.22,5,0,5Z" transform="translate(-681.33 -885.05)" fill="#005900"/><path d="M813.12,902.35c3.22,0,3.22-5,0-5s-3.22,5,0,5Z" transform="translate(-681.33 -885.05)" fill="#005900"/><path d="M816.92,899.79c3.22,0,3.22-5,0-5s-3.22,5,0,5Z" transform="translate(-681.33 -885.05)" fill="#005900"/><path d="M819.81,894.92c3.22,0,3.23-5,0-5s-3.22,5,0,5Z" transform="translate(-681.33 -885.05)" fill="#005900"/><path d="M825.27,893.84c3.22,0,3.22-5,0-5s-3.22,5,0,5Z" transform="translate(-681.33 -885.05)" fill="#005900"/><path d="M830.89,895.91c3.22,0,3.22-5,0-5s-3.22,5,0,5Z" transform="translate(-681.33 -885.05)" fill="#005900"/><path d="M838,896.33c3.22,0,3.22-5,0-5s-3.22,5,0,5Z" transform="translate(-681.33 -885.05)" fill="#005900"/><path d="M842.21,901.62c3.22,0,3.22-5,0-5s-3.22,5,0,5Z" transform="translate(-681.33 -885.05)" fill="#005900"/><path d="M845.52,904.59c3.21,0,3.22-5,0-5s-3.23,5,0,5Z" transform="translate(-681.33 -885.05)" fill="#005900"/><path d="M848.08,908.4c3.22,0,3.22-5,0-5s-3.22,5,0,5Z" transform="translate(-681.33 -885.05)" fill="#005900"/><path d="M850.06,916.17c3.22,0,3.22-5,0-5s-3.22,5,0,5Z" transform="translate(-681.33 -885.05)" fill="#005900"/><path d="M853.61,923.85c3.22,0,3.23-5,0-5s-3.22,5,0,5Z" transform="translate(-681.33 -885.05)" fill="#005900"/><path d="M852.54,918.4c3.22,0,3.22-5,0-5s-3.22,5,0,5Z" transform="translate(-681.33 -885.05)" fill="#005900"/><path d="M849.81,911.45c3.22,0,3.23-5,0-5s-3.22,5,0,5Z" transform="translate(-681.33 -885.05)" fill="#005900"/><path d="M852.29,928.65c3.22,0,3.22-5,0-5s-3.22,5,0,5Z" transform="translate(-681.33 -885.05)" fill="#005900"/><path d="M847.83,933.6c3.21,0,3.22-5,0-5s-3.23,5,0,5Z" transform="translate(-681.33 -885.05)" fill="#005900"/><path d="M846.42,936.83c3.22,0,3.22-5,0-5s-3.22,5,0,5Z" transform="translate(-681.33 -885.05)" fill="#005900"/><path d="M843.44,940.13c3.22,0,3.23-5,0-5s-3.22,5,0,5Z" transform="translate(-681.33 -885.05)" fill="#005900"/><path d="M840.47,943.44c3.21,0,3.22-5,0-5s-3.23,5,0,5Z" transform="translate(-681.33 -885.05)" fill="#005900"/><path d="M836.75,947.57c3.21,0,3.22-5,0-5s-3.23,5,0,5Z" transform="translate(-681.33 -885.05)" fill="#005900"/><path d="M830.46,947.9c3.22,0,3.23-5,0-5s-3.22,5,0,5Z" transform="translate(-681.33 -885.05)" fill="#005900"/><path d="M825.59,945c3.22,0,3.22-5,0-5s-3.22,5,0,5Z" transform="translate(-681.33 -885.05)" fill="#005900"/><path d="M820.71,942.11c3.22,0,3.23-5,0-5s-3.22,5,0,5Z" transform="translate(-681.33 -885.05)" fill="#005900"/><path d="M818.32,941.45c3.21,0,3.22-5,0-5s-3.23,5,0,5Z" transform="translate(-681.33 -885.05)" fill="#005900"/><path d="M815.18,941.61c3.21,0,3.22-5,0-5s-3.23,5,0,5Z" transform="translate(-681.33 -885.05)" fill="#005900"/><path d="M811.13,939.46c3.21,0,3.22-5,0-5s-3.23,5,0,5Z" transform="translate(-681.33 -885.05)" fill="#005900"/><path d="M809.31,934.84c3.22,0,3.22-5,0-5s-3.22,5,0,5Z" transform="translate(-681.33 -885.05)" fill="#005900"/><path d="M807.41,928.64c3.22,0,3.22-5,0-5s-3.22,5,0,5Z" transform="translate(-681.33 -885.05)" fill="#005900"/><path d="M805.59,924c3.22,0,3.22-5,0-5s-3.22,5,0,5Z" transform="translate(-681.33 -885.05)" fill="#005900"/><path d="M805.43,920.87c3.21,0,3.22-5,0-5s-3.23,5,0,5Z" transform="translate(-681.33 -885.05)" fill="#005900"/><path d="M805.92,915.33c3.22,0,3.23-5,0-5s-3.22,5,0,5Z" transform="translate(-681.33 -885.05)" fill="#005900"/><path d="M803.53,914.67c3.22,0,3.22-5,0-5s-3.22,5,0,5Z" transform="translate(-681.33 -885.05)" fill="#005900"/><path d="M809.23,918.31c3.22,0,3.22-5,0-5s-3.22,5,0,5Z" transform="translate(-681.33 -885.05)" fill="#005900"/><path d="M814.44,912.52c3.22,0,3.22-5,0-5s-3.22,5,0,5Z" transform="translate(-681.33 -885.05)" fill="#005900"/><path d="M821.13,905.08c3.22,0,3.23-5,0-5s-3.22,5,0,5Z" transform="translate(-681.33 -885.05)" fill="#005900"/><path d="M816.51,906.9c3.21,0,3.22-5,0-5s-3.23,5,0,5Z" transform="translate(-681.33 -885.05)" fill="#005900"/><path d="M810.55,913.51c3.22,0,3.23-5,0-5s-3.22,5,0,5Z" transform="translate(-681.33 -885.05)" fill="#005900"/><path d="M823.12,897.89c3.22,0,3.22-5,0-5s-3.22,5,0,5Z" transform="translate(-681.33 -885.05)" fill="#005900"/><path d="M829.65,902.28c3.22,0,3.22-5,0-5s-3.22,5,0,5Z" transform="translate(-681.33 -885.05)" fill="#005900"/><path d="M836.84,904.26c3.22,0,3.22-5,0-5s-3.22,5,0,5Z" transform="translate(-681.33 -885.05)" fill="#005900"/><path d="M833,906.82c3.21,0,3.22-5,0-5s-3.23,5,0,5Z" transform="translate(-681.33 -885.05)" fill="#005900"/><path d="M825.6,900.13c3.22,0,3.22-5,0-5s-3.22,5,0,5Z" transform="translate(-681.33 -885.05)" fill="#005900"/><path d="M834.28,900.46c3.21,0,3.22-5,0-5s-3.23,5,0,5Z" transform="translate(-681.33 -885.05)" fill="#005900"/><path d="M840.06,905.67c3.22,0,3.22-5,0-5s-3.22,5,0,5Z" transform="translate(-681.33 -885.05)" fill="#005900"/><path d="M841,908c3.22,0,3.22-5,0-5s-3.22,5,0,5Z" transform="translate(-681.33 -885.05)" fill="#005900"/><path d="M842.79,912.61c3.22,0,3.22-5,0-5s-3.22,5,0,5Z" transform="translate(-681.33 -885.05)" fill="#005900"/><path d="M842.28,912.86l1.74,3.06a1.87,1.87,0,0,0,.64.7,1.94,1.94,0,0,0,.85.45,1.89,1.89,0,0,0,1,0,1.85,1.85,0,0,0,.93-.29,2.58,2.58,0,0,0,1.15-1.5,2.65,2.65,0,0,0-.26-1.93l-1.73-3a1.88,1.88,0,0,0-.64-.7,1.8,1.8,0,0,0-.85-.45,1.9,1.9,0,0,0-1-.05,2,2,0,0,0-.93.3,2.56,2.56,0,0,0-1.15,1.49,2.64,2.64,0,0,0,.25,1.93Z" transform="translate(-681.33 -885.05)" fill="#005900"/><path d="M849.56,921.7c3.22,0,3.23-5,0-5s-3.22,5,0,5Z" transform="translate(-681.33 -885.05)" fill="#005900"/><path d="M849.56,921.7c3.22,0,3.23-5,0-5s-3.22,5,0,5Z" transform="translate(-681.33 -885.05)" fill="#005900"/><path d="M848.4,929.64c3.22,0,3.23-5,0-5s-3.22,5,0,5Z" transform="translate(-681.33 -885.05)" fill="#005900"/><path d="M844.52,930.63c3.22,0,3.22-5,0-5s-3.22,5,0,5Z" transform="translate(-681.33 -885.05)" fill="#005900"/><path d="M838.57,937.24c3.21,0,3.22-5,0-5s-3.23,5,0,5Z" transform="translate(-681.33 -885.05)" fill="#005900"/><path d="M838.57,937.24c3.21,0,3.22-5,0-5s-3.23,5,0,5Z" transform="translate(-681.33 -885.05)" fill="#005900"/><path d="M834.85,941.37c3.21,0,3.22-5,0-5s-3.23,5,0,5Z" transform="translate(-681.33 -885.05)" fill="#005900"/><path d="M829.39,942.44c3.22,0,3.22-5,0-5s-3.22,5,0,5Z" transform="translate(-681.33 -885.05)" fill="#005900"/><path d="M823.61,937.24c3.21,0,3.22-5,0-5s-3.23,5,0,5Z" transform="translate(-681.33 -885.05)" fill="#005900"/><path d="M823.61,937.24c3.21,0,3.22-5,0-5s-3.23,5,0,5Z" transform="translate(-681.33 -885.05)" fill="#005900"/><path d="M815.59,934.51c3.22,0,3.22-5,0-5s-3.22,5,0,5Z" transform="translate(-681.33 -885.05)" fill="#005900"/><path d="M812,926.82c3.22,0,3.22-5,0-5s-3.22,5,0,5Z" transform="translate(-681.33 -885.05)" fill="#005900"/><path d="M812.45,919.71c3.22,0,3.23-5,0-5s-3.22,5,0,5Z" transform="translate(-681.33 -885.05)" fill="#005900"/><path d="M818.57,916.24c3.22,0,3.22-5,0-5s-3.22,5,0,5Z" transform="translate(-681.33 -885.05)" fill="#005900"/><path d="M823.78,910.46c3.22,0,3.22-5,0-5s-3.22,5,0,5Z" transform="translate(-681.33 -885.05)" fill="#005900"/><path d="M823.78,910.46c3.22,0,3.22-5,0-5s-3.22,5,0,5Z" transform="translate(-681.33 -885.05)" fill="#005900"/><path d="M825.27,908.8l1.57-.08a2,2,0,0,0,1-.21,1.85,1.85,0,0,0,.8-.52,1.82,1.82,0,0,0,.52-.8,1.9,1.9,0,0,0,.22-1l-.09-.66a2.55,2.55,0,0,0-.65-1.11l-.5-.39a2.53,2.53,0,0,0-1.26-.34l-1.57.08a1.9,1.9,0,0,0-1,.22,1.82,1.82,0,0,0-.8.52,1.85,1.85,0,0,0-.52.8,1.88,1.88,0,0,0-.21,1l.09.67a2.41,2.41,0,0,0,.64,1.1l.5.39a2.47,2.47,0,0,0,1.27.34Z" transform="translate(-681.33 -885.05)" fill="#005900"/><path d="M834,910.71c3.21,0,3.22-5,0-5s-3.23,5,0,5Z" transform="translate(-681.33 -885.05)" fill="#005900"/><path d="M834,910.71c3.21,0,3.22-5,0-5s-3.23,5,0,5Z" transform="translate(-681.33 -885.05)" fill="#005900"/><path d="M840.72,918.23c3.22,0,3.22-5,0-5s-3.22,5,0,5Z" transform="translate(-681.33 -885.05)" fill="#005900"/><path d="M841.55,919c3.21,0,3.22-5,0-5s-3.23,5,0,5Z" transform="translate(-681.33 -885.05)" fill="#005900"/><path d="M839.53,917.65l1.76,3.05a2.56,2.56,0,0,0,1.5,1.14,1.86,1.86,0,0,0,1,0,1.8,1.8,0,0,0,.93-.3,2.46,2.46,0,0,0,1.15-1.49,2.6,2.6,0,0,0-.25-1.93l-1.76-3a2.6,2.6,0,0,0-1.49-1.15,2,2,0,0,0-1-.05,2,2,0,0,0-.93.3,2.58,2.58,0,0,0-1.15,1.5,2.62,2.62,0,0,0,.25,1.92Z" transform="translate(-681.33 -885.05)" fill="#005900"/><path d="M843.28,922c3.22,0,3.22-5,0-5s-3.22,5,0,5Z" transform="translate(-681.33 -885.05)" fill="#005900"/><path d="M839,915.17c3.21,0,3.22-5,0-5s-3.23,5,0,5Z" transform="translate(-681.33 -885.05)" fill="#005900"/><path d="M836.51,912.94c3.21,0,3.22-5,0-5s-3.23,5,0,5Z" transform="translate(-681.33 -885.05)" fill="#005900"/><path d="M831.38,920.29c3.22,0,3.22-5,0-5s-3.22,5,0,5Z" transform="translate(-681.33 -885.05)" fill="#005900"/><path d="M829.81,920.38c3.22,0,3.22-5,0-5s-3.22,5,0,5Z" transform="translate(-681.33 -885.05)" fill="#005900"/><path d="M826.42,915.83c3.22,0,3.22-5,0-5s-3.22,5,0,5Z" transform="translate(-681.33 -885.05)" fill="#005900"/><path d="M829.4,912.52c3.22,0,3.22-5,0-5s-3.22,5,0,5Z" transform="translate(-681.33 -885.05)" fill="#005900"/><path d="M834.27,915.42c3.22,0,3.23-5,0-5s-3.22,5,0,5Z" transform="translate(-681.33 -885.05)" fill="#005900"/><path d="M835.18,917.73l1.57-.08a2.69,2.69,0,0,0,1.77-.73,2,2,0,0,0,.52-.81,1.85,1.85,0,0,0,.21-1l-.09-.66a2.39,2.39,0,0,0-.64-1.11L838,913a2.57,2.57,0,0,0-1.27-.34l-1.57.08a1.88,1.88,0,0,0-1,.22,2.3,2.3,0,0,0-1.32,1.32,1.88,1.88,0,0,0-.22,1l.09.67a2.52,2.52,0,0,0,.65,1.1l.5.39a2.43,2.43,0,0,0,1.26.34Z" transform="translate(-681.33 -885.05)" fill="#005900"/><path d="M839.31,921.45c3.22,0,3.23-5,0-5s-3.22,5,0,5Z" transform="translate(-681.33 -885.05)" fill="#005900"/><path d="M838.46,923l.82.74a2.75,2.75,0,0,0,1.77.73,2,2,0,0,0,1-.21,2,2,0,0,0,.81-.52l.39-.51a2.53,2.53,0,0,0,.34-1.26l-.09-.66a2.53,2.53,0,0,0-.64-1.11l-.83-.74a1.92,1.92,0,0,0-.8-.52,2.32,2.32,0,0,0-1.93,0,1.85,1.85,0,0,0-.8.52l-.4.51a2.53,2.53,0,0,0-.34,1.26l.09.66a2.55,2.55,0,0,0,.65,1.11Z" transform="translate(-681.33 -885.05)" fill="#005900"/><path d="M839,930.13c3.22,0,3.22-5,0-5s-3.22,5,0,5Z" transform="translate(-681.33 -885.05)" fill="#005900"/><path d="M837.21,925.86l-1.48,1.66a1.77,1.77,0,0,0-.52.8,2.23,2.23,0,0,0,0,1.93,1.77,1.77,0,0,0,.52.8l.5.39a2.43,2.43,0,0,0,1.26.34l.67-.09a2.41,2.41,0,0,0,1.1-.64l1.49-1.65a2,2,0,0,0,.52-.81,1.83,1.83,0,0,0,.21-1,1.88,1.88,0,0,0-.21-1,2,2,0,0,0-.52-.81l-.51-.39a2.53,2.53,0,0,0-1.26-.34l-.66.09a2.53,2.53,0,0,0-1.11.64Z" transform="translate(-681.33 -885.05)" fill="#005900"/><path d="M831.29,933.68c3.22,0,3.23-5,0-5s-3.22,5,0,5Z" transform="translate(-681.33 -885.05)" fill="#005900"/><path d="M830.55,934.51c3.22,0,3.22-5,0-5s-3.22,5,0,5Z" transform="translate(-681.33 -885.05)" fill="#005900"/><path d="M825.84,934.76c3.22,0,3.22-5,0-5s-3.22,5,0,5Z" transform="translate(-681.33 -885.05)" fill="#005900"/><path d="M821.79,932.61c3.22,0,3.22-5,0-5s-3.22,5,0,5Z" transform="translate(-681.33 -885.05)" fill="#005900"/><path d="M820.22,932.69c3.22,0,3.22-5,0-5s-3.22,5,0,5Z" transform="translate(-681.33 -885.05)" fill="#005900"/><path d="M817.66,928.89c3.22,0,3.22-5,0-5s-3.22,5,0,5Z" transform="translate(-681.33 -885.05)" fill="#005900"/><path d="M818.32,926.49c3.22,0,3.22-5,0-5s-3.22,5,0,5Z" transform="translate(-681.33 -885.05)" fill="#005900"/><path d="M818.73,919.38c3.22,0,3.23-5,0-5s-3.22,5,0,5Z" transform="translate(-681.33 -885.05)" fill="#005900"/><path d="M817.33,922.61c3.22,0,3.22-5,0-5s-3.22,5,0,5Z" transform="translate(-681.33 -885.05)" fill="#005900"/><path d="M825.26,923.76c3.22,0,3.23-5,0-5s-3.22,5,0,5Z" transform="translate(-681.33 -885.05)" fill="#005900"/><path d="M831,927.4c3.21,0,3.22-5,0-5s-3.23,5,0,5Z" transform="translate(-681.33 -885.05)" fill="#005900"/><path d="M828.73,929.88c3.22,0,3.23-5,0-5s-3.22,5,0,5Z" transform="translate(-681.33 -885.05)" fill="#005900"/><path d="M824.68,927.73c3.22,0,3.23-5,0-5s-3.22,5,0,5Z" transform="translate(-681.33 -885.05)" fill="#005900"/><path d="M823,926.24c3.22,0,3.22-5,0-5s-3.22,5,0,5Z" transform="translate(-681.33 -885.05)" fill="#005900"/><path d="M823.36,917.56c3.22,0,3.23-5,0-5s-3.22,5,0,5Z" transform="translate(-681.33 -885.05)" fill="#005900"/><path d="M834.77,924.84c3.22,0,3.22-5,0-5s-3.22,5,0,5Z" transform="translate(-681.33 -885.05)" fill="#005900"/><text transform="translate(96.66 124.62)" font-size="30" font-family="Helvetica">5</text></svg>