<svg class="summary-menu__item-graphic" xmlns="http://www.w3.org/2000/svg" viewBox="0 0 129.34 280.78"><path d="M661.11,876.93A382.54,382.54,0,0,1,540.42,597.6" transform="translate(-533.14 -597.6)" fill="none" stroke="#0d65d9" stroke-miterlimit="10" stroke-width="4"/><path d="M596.77,716.51a16.86,16.86,0,0,1-3.66-13.5c1.29-7.93,3.7-20,6.88-23.28,4.86-5.06,12.36-10.36,17.68-10.16s5.49,2.17,7.76,5.29,29.89,53.75,29.89,53.75,2.07,8.43-1.42,14-18.28,8.84-23.72,7.32C625.84,748.76,606.14,727.81,596.77,716.51Z" transform="translate(-533.14 -597.6)" fill="none" stroke="#005900" stroke-miterlimit="10" stroke-width="3"/><path d="M600.13,716a1.8,1.8,0,0,0,0-3.6,1.8,1.8,0,0,0,0,3.6Z" transform="translate(-533.14 -597.6)" fill="#005900"/><path d="M630.29,747.4a1.8,1.8,0,0,0,0-3.6,1.8,1.8,0,0,0,0,3.6Z" transform="translate(-533.14 -597.6)" fill="#005900"/><path d="M635.84,745.15a1.8,1.8,0,0,0,0-3.6,1.8,1.8,0,0,0,0,3.6Z" transform="translate(-533.14 -597.6)" fill="#005900"/><path d="M637.65,740.57a1.8,1.8,0,0,0,0-3.6,1.8,1.8,0,0,0,0,3.6Z" transform="translate(-533.14 -597.6)" fill="#005900"/><path d="M640.49,737.67a1.8,1.8,0,0,0,0-3.6,1.8,1.8,0,0,0,0,3.6Z" transform="translate(-533.14 -597.6)" fill="#005900"/><path d="M644.19,739.56a1.8,1.8,0,0,0,0-3.6,1.8,1.8,0,0,0,0,3.6Z" transform="translate(-533.14 -597.6)" fill="#005900"/><path d="M645.67,736.33a1.8,1.8,0,0,0,0-3.6,1.8,1.8,0,0,0,0,3.6Z" transform="translate(-533.14 -597.6)" fill="#005900"/><path d="M649.81,738.18a1.8,1.8,0,0,0,0-3.6,1.8,1.8,0,0,0,0,3.6Z" transform="translate(-533.14 -597.6)" fill="#005900"/><path d="M650.84,739.86a1.8,1.8,0,0,0,0-3.6,1.8,1.8,0,0,0,0,3.6Z" transform="translate(-533.14 -597.6)" fill="#005900"/><path d="M625.36,741.64a1.8,1.8,0,0,0,0-3.6,1.8,1.8,0,0,0,0,3.6Z" transform="translate(-533.14 -597.6)" fill="#005900"/><path d="M623.21,742.27a1.8,1.8,0,0,0,0-3.6,1.8,1.8,0,0,0,0,3.6Z" transform="translate(-533.14 -597.6)" fill="#005900"/><path d="M627.57,736.59a1.8,1.8,0,0,0,0-3.6,1.8,1.8,0,0,0,0,3.6Z" transform="translate(-533.14 -597.6)" fill="#005900"/><path d="M621,737.6a1.8,1.8,0,0,0,0-3.6,1.8,1.8,0,0,0,0,3.6Z" transform="translate(-533.14 -597.6)" fill="#005900"/><path d="M636.44,731.84a1.8,1.8,0,0,0,0-3.6,1.8,1.8,0,0,0,0,3.6Z" transform="translate(-533.14 -597.6)" fill="#005900"/><path d="M635,735.94a1.8,1.8,0,0,0,0-3.6,1.8,1.8,0,0,0,0,3.6Z" transform="translate(-533.14 -597.6)" fill="#005900"/><path d="M633.87,737.81a1.8,1.8,0,0,0,0-3.6,1.8,1.8,0,0,0,0,3.6Z" transform="translate(-533.14 -597.6)" fill="#005900"/><path d="M652.14,734.44a1.8,1.8,0,0,0,0-3.6,1.8,1.8,0,0,0,0,3.6Z" transform="translate(-533.14 -597.6)" fill="#005900"/><path d="M644.81,721.38a1.8,1.8,0,0,0,0-3.6,1.8,1.8,0,0,0,0,3.6Z" transform="translate(-533.14 -597.6)" fill="#005900"/><path d="M648.85,727.21a1.8,1.8,0,0,0,0-3.6,1.8,1.8,0,0,0,0,3.6Z" transform="translate(-533.14 -597.6)" fill="#005900"/><path d="M649.49,729.37a1.8,1.8,0,0,0,0-3.6,1.8,1.8,0,0,0,0,3.6Z" transform="translate(-533.14 -597.6)" fill="#005900"/><path d="M650.92,730.57a1.8,1.8,0,0,0,0-3.6,1.8,1.8,0,0,0,0,3.6Z" transform="translate(-533.14 -597.6)" fill="#005900"/><path d="M648,732.15a1.8,1.8,0,0,0,0-3.6,1.8,1.8,0,0,0,0,3.6Z" transform="translate(-533.14 -597.6)" fill="#005900"/><path d="M646.05,730.55a1.8,1.8,0,0,0,0-3.6,1.8,1.8,0,0,0,0,3.6Z" transform="translate(-533.14 -597.6)" fill="#005900"/><path d="M643.54,732.1a1.8,1.8,0,0,0,0-3.6,1.8,1.8,0,0,0,0,3.6Z" transform="translate(-533.14 -597.6)" fill="#005900"/><path d="M642.5,730.42a1.8,1.8,0,0,0,0-3.6,1.8,1.8,0,0,0,0,3.6Z" transform="translate(-533.14 -597.6)" fill="#005900"/><path d="M640.46,732.37a1.8,1.8,0,0,0,0-3.6,1.8,1.8,0,0,0,0,3.6Z" transform="translate(-533.14 -597.6)" fill="#005900"/><path d="M640.39,731.49a1.8,1.8,0,0,0,0-3.6,1.8,1.8,0,0,0,0,3.6Z" transform="translate(-533.14 -597.6)" fill="#005900"/><path d="M640.84,726.59a1.8,1.8,0,0,0,0-3.6,1.8,1.8,0,0,0,0,3.6Z" transform="translate(-533.14 -597.6)" fill="#005900"/><path d="M639.81,724.91a1.8,1.8,0,0,0,0-3.6,1.8,1.8,0,0,0,0,3.6Z" transform="translate(-533.14 -597.6)" fill="#005900"/><path d="M638.23,722a1.8,1.8,0,0,0,0-3.6,1.8,1.8,0,0,0,0,3.6Z" transform="translate(-533.14 -597.6)" fill="#005900"/><path d="M633.71,725.89a1.8,1.8,0,0,0,0-3.6,1.8,1.8,0,0,0,0,3.6Z" transform="translate(-533.14 -597.6)" fill="#005900"/><path d="M636.89,726.93a1.8,1.8,0,0,0,0-3.6,1.8,1.8,0,0,0,0,3.6Z" transform="translate(-533.14 -597.6)" fill="#005900"/><path d="M633.65,730.31a1.8,1.8,0,0,0,0-3.6,1.8,1.8,0,0,0,0,3.6Z" transform="translate(-533.14 -597.6)" fill="#005900"/><path d="M630.85,733.65a1.8,1.8,0,0,0,0-3.6,1.8,1.8,0,0,0,0,3.6Z" transform="translate(-533.14 -597.6)" fill="#005900"/><path d="M629.9,732.85a1.8,1.8,0,0,0,0-3.6,1.8,1.8,0,0,0,0,3.6Z" transform="translate(-533.14 -597.6)" fill="#005900"/><path d="M641.75,742a1.8,1.8,0,0,0,0-3.6,1.8,1.8,0,0,0,0,3.6Z" transform="translate(-533.14 -597.6)" fill="#005900"/><path d="M647.89,741.44a1.8,1.8,0,0,0,0-3.6,1.8,1.8,0,0,0,0,3.6Z" transform="translate(-533.14 -597.6)" fill="#005900"/><path d="M648.6,744.48a1.8,1.8,0,0,0,0-3.6,1.8,1.8,0,0,0,0,3.6Z" transform="translate(-533.14 -597.6)" fill="#005900"/><path d="M642.85,744.54a1.8,1.8,0,0,0,0-3.6,1.8,1.8,0,0,0,0,3.6Z" transform="translate(-533.14 -597.6)" fill="#005900"/><path d="M643.48,746.69a1.8,1.8,0,0,0,0-3.6,1.8,1.8,0,0,0,0,3.6Z" transform="translate(-533.14 -597.6)" fill="#005900"/><path d="M639.14,747.51a1.8,1.8,0,0,0,0-3.6,1.8,1.8,0,0,0,0,3.6Z" transform="translate(-533.14 -597.6)" fill="#005900"/><path d="M642.38,718.94a1.8,1.8,0,0,0,0-3.6,1.8,1.8,0,0,0,0,3.6Z" transform="translate(-533.14 -597.6)" fill="#005900"/><path d="M640,716.5a1.8,1.8,0,0,0,0-3.6,1.8,1.8,0,0,0,0,3.6Z" transform="translate(-533.14 -597.6)" fill="#005900"/><path d="M639.77,714.3a1.8,1.8,0,0,0,0-3.6,1.8,1.8,0,0,0,0,3.6Z" transform="translate(-533.14 -597.6)" fill="#005900"/><path d="M618.22,675.08a1.8,1.8,0,0,0,0-3.6,1.8,1.8,0,0,0,0,3.6Z" transform="translate(-533.14 -597.6)" fill="#005900"/><path d="M610,677.12a1.8,1.8,0,0,0,0-3.6,1.8,1.8,0,0,0,0,3.6Z" transform="translate(-533.14 -597.6)" fill="#005900"/><path d="M614.46,677.62a1.8,1.8,0,0,0,0-3.6,1.8,1.8,0,0,0,0,3.6Z" transform="translate(-533.14 -597.6)" fill="#005900"/><path d="M614.21,679.85a1.8,1.8,0,0,0,0-3.6,1.8,1.8,0,0,0,0,3.6Z" transform="translate(-533.14 -597.6)" fill="#005900"/><path d="M609.35,679.83a1.8,1.8,0,0,0,0-3.6,1.8,1.8,0,0,0,0,3.6Z" transform="translate(-533.14 -597.6)" fill="#005900"/><path d="M606.32,680.54a1.8,1.8,0,0,0,0-3.6,1.8,1.8,0,0,0,0,3.6Z" transform="translate(-533.14 -597.6)" fill="#005900"/><path d="M607,683.57a1.8,1.8,0,0,0,0-3.6,1.8,1.8,0,0,0,0,3.6Z" transform="translate(-533.14 -597.6)" fill="#005900"/><path d="M609.41,685.57a1.8,1.8,0,0,0,0-3.6,1.8,1.8,0,0,0,0,3.6Z" transform="translate(-533.14 -597.6)" fill="#005900"/><path d="M611.41,683.19a1.8,1.8,0,0,0,0-3.6,1.8,1.8,0,0,0,0,3.6Z" transform="translate(-533.14 -597.6)" fill="#005900"/><path d="M609.52,686.89a1.8,1.8,0,0,0,0-3.6,1.8,1.8,0,0,0,0,3.6Z" transform="translate(-533.14 -597.6)" fill="#005900"/><path d="M600.23,686.82a1.8,1.8,0,0,0,0-3.6,1.8,1.8,0,0,0,0,3.6Z" transform="translate(-533.14 -597.6)" fill="#005900"/><path d="M602.35,685.75a1.8,1.8,0,0,0,0-3.6,1.8,1.8,0,0,0,0,3.6Z" transform="translate(-533.14 -597.6)" fill="#005900"/><path d="M605.06,686.4a1.8,1.8,0,0,0,0-3.6,1.8,1.8,0,0,0,0,3.6Z" transform="translate(-533.14 -597.6)" fill="#005900"/><path d="M603.1,689.22a1.8,1.8,0,0,0,0-3.6,1.8,1.8,0,0,0,0,3.6Z" transform="translate(-533.14 -597.6)" fill="#005900"/><path d="M601.9,690.65a1.8,1.8,0,0,0,0-3.6,1.8,1.8,0,0,0,0,3.6Z" transform="translate(-533.14 -597.6)" fill="#005900"/><path d="M601.73,693.76a1.8,1.8,0,0,0,0-3.6,1.8,1.8,0,0,0,0,3.6Z" transform="translate(-533.14 -597.6)" fill="#005900"/><path d="M602.07,697.71a1.8,1.8,0,0,0,0-3.6,1.8,1.8,0,0,0,0,3.6Z" transform="translate(-533.14 -597.6)" fill="#005900"/><path d="M603.5,698.91a1.8,1.8,0,0,0,0-3.6,1.8,1.8,0,0,0,0,3.6Z" transform="translate(-533.14 -597.6)" fill="#005900"/><path d="M598.16,698.49a1.8,1.8,0,0,0,0-3.6,1.8,1.8,0,0,0,0,3.6Z" transform="translate(-533.14 -597.6)" fill="#005900"/><path d="M597.63,702.52a1.8,1.8,0,0,0,0-3.6,1.8,1.8,0,0,0,0,3.6Z" transform="translate(-533.14 -597.6)" fill="#005900"/><path d="M600.3,702.73a1.8,1.8,0,0,0,0-3.6,1.8,1.8,0,0,0,0,3.6Z" transform="translate(-533.14 -597.6)" fill="#005900"/><path d="M600.89,704.44a1.8,1.8,0,0,0,0-3.6,1.8,1.8,0,0,0,0,3.6Z" transform="translate(-533.14 -597.6)" fill="#005900"/><path d="M597.65,707.82a1.8,1.8,0,0,0,0-3.6,1.8,1.8,0,0,0,0,3.6Z" transform="translate(-533.14 -597.6)" fill="#005900"/><path d="M599.16,709.9a1.8,1.8,0,0,0,0-3.6,1.8,1.8,0,0,0,0,3.6Z" transform="translate(-533.14 -597.6)" fill="#005900"/><path d="M601.5,711.46a1.8,1.8,0,0,0,0-3.6,1.8,1.8,0,0,0,0,3.6Z" transform="translate(-533.14 -597.6)" fill="#005900"/><path d="M603,708.68a1.8,1.8,0,0,0,0-3.6,1.8,1.8,0,0,0,0,3.6Z" transform="translate(-533.14 -597.6)" fill="#005900"/><path d="M607.85,708.25a1.8,1.8,0,0,0,0-3.6,1.8,1.8,0,0,0,0,3.6Z" transform="translate(-533.14 -597.6)" fill="#005900"/><path d="M609,710.81a1.8,1.8,0,0,0,0-3.6,1.8,1.8,0,0,0,0,3.6Z" transform="translate(-533.14 -597.6)" fill="#005900"/><path d="M604.65,712.07a1.8,1.8,0,0,0,0-3.6,1.8,1.8,0,0,0,0,3.6Z" transform="translate(-533.14 -597.6)" fill="#005900"/><path d="M604.92,715.14a1.8,1.8,0,0,0,0-3.6,1.8,1.8,0,0,0,0,3.6Z" transform="translate(-533.14 -597.6)" fill="#005900"/><path d="M604.83,719.13a1.8,1.8,0,0,0,0-3.6,1.8,1.8,0,0,0,0,3.6Z" transform="translate(-533.14 -597.6)" fill="#005900"/><path d="M609.61,718.27a1.8,1.8,0,0,0,0-3.6,1.8,1.8,0,0,0,0,3.6Z" transform="translate(-533.14 -597.6)" fill="#005900"/><path d="M606,722.56a1.8,1.8,0,0,0,0-3.6,1.8,1.8,0,0,0,0,3.6Z" transform="translate(-533.14 -597.6)" fill="#005900"/><path d="M609.83,725.76a1.8,1.8,0,0,0,0-3.6,1.8,1.8,0,0,0,0,3.6Z" transform="translate(-533.14 -597.6)" fill="#005900"/><path d="M612.37,729.52a1.8,1.8,0,0,0,0-3.6,1.8,1.8,0,0,0,0,3.6Z" transform="translate(-533.14 -597.6)" fill="#005900"/><path d="M614.87,732.84a1.8,1.8,0,0,0,0-3.6,1.8,1.8,0,0,0,0,3.6Z" transform="translate(-533.14 -597.6)" fill="#005900"/><path d="M618.05,733.88a1.8,1.8,0,0,0,0-3.6,1.8,1.8,0,0,0,0,3.6Z" transform="translate(-533.14 -597.6)" fill="#005900"/><path d="M620.82,730.11a1.8,1.8,0,0,0,0-3.6,1.8,1.8,0,0,0,0,3.6Z" transform="translate(-533.14 -597.6)" fill="#005900"/><path d="M604.43,694.41a1.8,1.8,0,0,0,0-3.6,1.8,1.8,0,0,0,0,3.6Z" transform="translate(-533.14 -597.6)" fill="#005900"/><path d="M606.5,697.76a1.8,1.8,0,0,0,0-3.6,1.8,1.8,0,0,0,0,3.6Z" transform="translate(-533.14 -597.6)" fill="#005900"/><path d="M606.17,699.12a1.8,1.8,0,0,0,0-3.6,1.8,1.8,0,0,0,0,3.6Z" transform="translate(-533.14 -597.6)" fill="#005900"/><path d="M610.39,701.84a1.8,1.8,0,0,0,0-3.6,1.8,1.8,0,0,0,0,3.6Z" transform="translate(-533.14 -597.6)" fill="#005900"/><path d="M612.91,700.3a1.8,1.8,0,0,0,0-3.6,1.8,1.8,0,0,0,0,3.6Z" transform="translate(-533.14 -597.6)" fill="#005900"/><path d="M610.65,694.75a1.8,1.8,0,0,0,0-3.6,1.8,1.8,0,0,0,0,3.6Z" transform="translate(-533.14 -597.6)" fill="#005900"/><path d="M613.65,693.6a1.8,1.8,0,0,0,0-3.6,1.8,1.8,0,0,0,0,3.6Z" transform="translate(-533.14 -597.6)" fill="#005900"/><path d="M616.16,692.06a1.8,1.8,0,0,0,0-3.6,1.8,1.8,0,0,0,0,3.6Z" transform="translate(-533.14 -597.6)" fill="#005900"/><path d="M616.85,689.79a1.8,1.8,0,0,0,0-3.6,1.8,1.8,0,0,0,0,3.6Z" transform="translate(-533.14 -597.6)" fill="#005900"/><path d="M621.16,688.52a1.8,1.8,0,0,0,0-3.6,1.8,1.8,0,0,0,0,3.6Z" transform="translate(-533.14 -597.6)" fill="#005900"/><path d="M607.27,691.51a1.8,1.8,0,0,0,0-3.6,1.8,1.8,0,0,0,0,3.6Z" transform="translate(-533.14 -597.6)" fill="#005900"/><path d="M609.87,690.84a1.8,1.8,0,0,0,0-3.6,1.8,1.8,0,0,0,0,3.6Z" transform="translate(-533.14 -597.6)" fill="#005900"/><path d="M611.79,687.58a1.8,1.8,0,0,0,0-3.6,1.8,1.8,0,0,0,0,3.6Z" transform="translate(-533.14 -597.6)" fill="#005900"/><path d="M614.71,685.55a1.8,1.8,0,0,0,0-3.6,1.8,1.8,0,0,0,0,3.6Z" transform="translate(-533.14 -597.6)" fill="#005900"/><path d="M623.56,685.66a1.8,1.8,0,0,0,0-3.6,1.8,1.8,0,0,0,0,3.6Z" transform="translate(-533.14 -597.6)" fill="#005900"/><path d="M619.82,683.34a1.8,1.8,0,0,0,0-3.6,1.8,1.8,0,0,0,0,3.6Z" transform="translate(-533.14 -597.6)" fill="#005900"/><path d="M617.74,684.84a1.8,1.8,0,0,0,0-3.6,1.8,1.8,0,0,0,0,3.6Z" transform="translate(-533.14 -597.6)" fill="#005900"/><path d="M618.71,680.78a1.8,1.8,0,0,0,0-3.6,1.8,1.8,0,0,0,0,3.6Z" transform="translate(-533.14 -597.6)" fill="#005900"/><path d="M620.72,678.4a1.8,1.8,0,0,0,0-3.6,1.8,1.8,0,0,0,0,3.6Z" transform="translate(-533.14 -597.6)" fill="#005900"/><path d="M625,681.56a1.8,1.8,0,0,0,0-3.6,1.8,1.8,0,0,0,0,3.6Z" transform="translate(-533.14 -597.6)" fill="#005900"/><path d="M628.58,687.43a1.8,1.8,0,0,0,0-3.6,1.8,1.8,0,0,0,0,3.6Z" transform="translate(-533.14 -597.6)" fill="#005900"/><path d="M627.09,690.66a1.8,1.8,0,0,0,0-3.6,1.8,1.8,0,0,0,0,3.6Z" transform="translate(-533.14 -597.6)" fill="#005900"/><path d="M632.93,696.78a1.8,1.8,0,0,0,0-3.6,1.8,1.8,0,0,0,0,3.6Z" transform="translate(-533.14 -597.6)" fill="#005900"/><path d="M622.42,692.83a1.8,1.8,0,0,0,0-3.6,1.8,1.8,0,0,0,0,3.6Z" transform="translate(-533.14 -597.6)" fill="#005900"/><path d="M626,698.71a1.8,1.8,0,0,0,0-3.6,1.8,1.8,0,0,0,0,3.6Z" transform="translate(-533.14 -597.6)" fill="#005900"/><path d="M622.56,699.45a1.8,1.8,0,0,0,0-3.6,1.8,1.8,0,0,0,0,3.6Z" transform="translate(-533.14 -597.6)" fill="#005900"/><path d="M619.5,694.86a1.8,1.8,0,0,0,0-3.6,1.8,1.8,0,0,0,0,3.6Z" transform="translate(-533.14 -597.6)" fill="#005900"/><path d="M617,696.84a1.8,1.8,0,0,0,0-3.6,1.8,1.8,0,0,0,0,3.6Z" transform="translate(-533.14 -597.6)" fill="#005900"/><path d="M614.79,696.6a1.8,1.8,0,0,0,0-3.6,1.8,1.8,0,0,0,0,3.6Z" transform="translate(-533.14 -597.6)" fill="#005900"/><path d="M612.28,698.14a1.8,1.8,0,0,0,0-3.6,1.8,1.8,0,0,0,0,3.6Z" transform="translate(-533.14 -597.6)" fill="#005900"/><path d="M604.29,702.82a1.8,1.8,0,0,0,0-3.6,1.8,1.8,0,0,0,0,3.6Z" transform="translate(-533.14 -597.6)" fill="#005900"/><path d="M606.56,703.5a1.8,1.8,0,0,0,0-3.6,1.8,1.8,0,0,0,0,3.6Z" transform="translate(-533.14 -597.6)" fill="#005900"/><path d="M610.7,705.35a1.8,1.8,0,0,0,0-3.6,1.8,1.8,0,0,0,0,3.6Z" transform="translate(-533.14 -597.6)" fill="#005900"/><path d="M612.77,703.85a1.8,1.8,0,0,0,0-3.6,1.8,1.8,0,0,0,0,3.6Z" transform="translate(-533.14 -597.6)" fill="#005900"/><path d="M616,705.77a1.8,1.8,0,0,0,0-3.6,1.8,1.8,0,0,0,0,3.6Z" transform="translate(-533.14 -597.6)" fill="#005900"/><path d="M617.94,707.37a1.8,1.8,0,0,0,0-3.6,1.8,1.8,0,0,0,0,3.6Z" transform="translate(-533.14 -597.6)" fill="#005900"/><path d="M613.31,710a1.8,1.8,0,0,0,0-3.6,1.8,1.8,0,0,0,0,3.6Z" transform="translate(-533.14 -597.6)" fill="#005900"/><path d="M614,712.58a1.8,1.8,0,0,0,0-3.6,1.8,1.8,0,0,0,0,3.6Z" transform="translate(-533.14 -597.6)" fill="#005900"/><path d="M618.37,712.2a1.8,1.8,0,0,0,0-3.6,1.8,1.8,0,0,0,0,3.6Z" transform="translate(-533.14 -597.6)" fill="#005900"/><path d="M612.46,715.37a1.8,1.8,0,0,0,0-3.6,1.8,1.8,0,0,0,0,3.6Z" transform="translate(-533.14 -597.6)" fill="#005900"/><path d="M613.28,719.71a1.8,1.8,0,0,0,0-3.6,1.8,1.8,0,0,0,0,3.6Z" transform="translate(-533.14 -597.6)" fill="#005900"/><path d="M616.54,721.64a1.8,1.8,0,0,0,0-3.6,1.8,1.8,0,0,0,0,3.6Z" transform="translate(-533.14 -597.6)" fill="#005900"/><path d="M614.62,723.82l.48.4a1.23,1.23,0,0,0,.58.37,1.57,1.57,0,0,0,1.38,0,1.23,1.23,0,0,0,.58-.37l.28-.36a1.73,1.73,0,0,0,.25-.91l-.06-.48a1.78,1.78,0,0,0-.47-.79l-.47-.4a1.46,1.46,0,0,0-.58-.38,1.41,1.41,0,0,0-.7-.15,1.34,1.34,0,0,0-.69.15,1.4,1.4,0,0,0-.58.38l-.28.36a1.8,1.8,0,0,0-.25.91l.07.48a1.76,1.76,0,0,0,.46.79Z" transform="translate(-533.14 -597.6)" fill="#005900"/><path d="M619.52,725.36a1.8,1.8,0,0,0,0-3.6,1.8,1.8,0,0,0,0,3.6Z" transform="translate(-533.14 -597.6)" fill="#005900"/><path d="M622.63,725.53a1.8,1.8,0,0,0,0-3.6,1.8,1.8,0,0,0,0,3.6Z" transform="translate(-533.14 -597.6)" fill="#005900"/><path d="M624.71,734.19a1.8,1.8,0,0,0,0-3.6,1.8,1.8,0,0,0,0,3.6Z" transform="translate(-533.14 -597.6)" fill="#005900"/><path d="M626.86,733.56a1.8,1.8,0,0,0,0-3.6,1.8,1.8,0,0,0,0,3.6Z" transform="translate(-533.14 -597.6)" fill="#005900"/><path d="M627.68,727.74a1.8,1.8,0,0,0,0-3.6,1.8,1.8,0,0,0,0,3.6Z" transform="translate(-533.14 -597.6)" fill="#005900"/><path d="M630.31,727.51a1.8,1.8,0,0,0,0-3.6,1.8,1.8,0,0,0,0,3.6Z" transform="translate(-533.14 -597.6)" fill="#005900"/><path d="M628.19,743.61a1.8,1.8,0,0,0,0-3.6,1.8,1.8,0,0,0,0,3.6Z" transform="translate(-533.14 -597.6)" fill="#005900"/><path d="M622.08,709.22a1.8,1.8,0,0,0,0-3.6,1.8,1.8,0,0,0,0,3.6Z" transform="translate(-533.14 -597.6)" fill="#005900"/><path d="M623.88,709.5a1.8,1.8,0,0,0,0-3.6,1.8,1.8,0,0,0,0,3.6Z" transform="translate(-533.14 -597.6)" fill="#005900"/><path d="M618.79,717a1.8,1.8,0,0,0,0-3.6,1.8,1.8,0,0,0,0,3.6Z" transform="translate(-533.14 -597.6)" fill="#005900"/><path d="M621.4,721.66a1.8,1.8,0,0,0,0-3.6,1.8,1.8,0,0,0,0,3.6Z" transform="translate(-533.14 -597.6)" fill="#005900"/><path d="M621.69,719.86a1.8,1.8,0,0,0,0-3.6,1.8,1.8,0,0,0,0,3.6Z" transform="translate(-533.14 -597.6)" fill="#005900"/><path d="M621.34,715.92a1.8,1.8,0,0,0,0-3.6,1.8,1.8,0,0,0,0,3.6Z" transform="translate(-533.14 -597.6)" fill="#005900"/><path d="M624.78,714.73a1.8,1.8,0,0,0,0-3.6,1.8,1.8,0,0,0,0,3.6Z" transform="translate(-533.14 -597.6)" fill="#005900"/><path d="M626,718.16a1.8,1.8,0,0,0,0-3.6,1.8,1.8,0,0,0,0,3.6Z" transform="translate(-533.14 -597.6)" fill="#005900"/><path d="M628.9,721.44a1.8,1.8,0,0,0,0-3.6,1.8,1.8,0,0,0,0,3.6Z" transform="translate(-533.14 -597.6)" fill="#005900"/><path d="M624.55,722.27a1.8,1.8,0,0,0,0-3.6,1.8,1.8,0,0,0,0,3.6Z" transform="translate(-533.14 -597.6)" fill="#005900"/><path d="M626,723.9a1.8,1.8,0,0,0,0-3.6,1.8,1.8,0,0,0,0,3.6Z" transform="translate(-533.14 -597.6)" fill="#005900"/><path d="M624.29,729.36a1.8,1.8,0,0,0,0-3.6,1.8,1.8,0,0,0,0,3.6Z" transform="translate(-533.14 -597.6)" fill="#005900"/><path d="M631.48,700.44a1.8,1.8,0,0,0,0-3.6,1.8,1.8,0,0,0,0,3.6Z" transform="translate(-533.14 -597.6)" fill="#005900"/><path d="M634.35,702.84a1.8,1.8,0,0,0,0-3.6,1.8,1.8,0,0,0,0,3.6Z" transform="translate(-533.14 -597.6)" fill="#005900"/><path d="M634.62,705.91a1.8,1.8,0,0,0,0-3.6,1.8,1.8,0,0,0,0,3.6Z" transform="translate(-533.14 -597.6)" fill="#005900"/><path d="M637.92,708.28a1.8,1.8,0,0,0,0-3.6,1.8,1.8,0,0,0,0,3.6Z" transform="translate(-533.14 -597.6)" fill="#005900"/><path d="M636.71,709.71a1.8,1.8,0,0,0,0-3.6,1.8,1.8,0,0,0,0,3.6Z" transform="translate(-533.14 -597.6)" fill="#005900"/><path d="M634.64,711.22a1.8,1.8,0,0,0,0-3.6,1.8,1.8,0,0,0,0,3.6Z" transform="translate(-533.14 -597.6)" fill="#005900"/><path d="M632.66,718.9a1.8,1.8,0,0,0,0-3.6,1.8,1.8,0,0,0,0,3.6Z" transform="translate(-533.14 -597.6)" fill="#005900"/><path d="M632.67,714a1.8,1.8,0,0,0,0-3.6,1.8,1.8,0,0,0,0,3.6Z" transform="translate(-533.14 -597.6)" fill="#005900"/><path d="M635.42,715.13a1.8,1.8,0,0,0,0-3.6,1.8,1.8,0,0,0,0,3.6Z" transform="translate(-533.14 -597.6)" fill="#005900"/><path d="M629.85,712.08a1.8,1.8,0,0,0,0-3.6,1.8,1.8,0,0,0,0,3.6Z" transform="translate(-533.14 -597.6)" fill="#005900"/><path d="M630.3,707.17a1.8,1.8,0,0,0,0-3.6,1.8,1.8,0,0,0,0,3.6Z" transform="translate(-533.14 -597.6)" fill="#005900"/><path d="M628.43,706a1.8,1.8,0,0,0,0-3.6,1.8,1.8,0,0,0,0,3.6Z" transform="translate(-533.14 -597.6)" fill="#005900"/><path d="M624.37,705a1.8,1.8,0,0,0,0-3.6,1.8,1.8,0,0,0,0,3.6Z" transform="translate(-533.14 -597.6)" fill="#005900"/><path d="M620.79,704.47a1.8,1.8,0,0,0,0-3.6,1.8,1.8,0,0,0,0,3.6Z" transform="translate(-533.14 -597.6)" fill="#005900"/><path d="M617.92,702.07a1.8,1.8,0,0,0,0-3.6,1.8,1.8,0,0,0,0,3.6Z" transform="translate(-533.14 -597.6)" fill="#005900"/><path d="M630,693.5a1.8,1.8,0,0,0,0-3.6,1.8,1.8,0,0,0,0,3.6Z" transform="translate(-533.14 -597.6)" fill="#005900"/><path d="M627.08,695.52a1.8,1.8,0,0,0,0-3.6,1.8,1.8,0,0,0,0,3.6Z" transform="translate(-533.14 -597.6)" fill="#005900"/><path d="M625,701.89a1.8,1.8,0,0,0,0-3.6,1.8,1.8,0,0,0,0,3.6Z" transform="translate(-533.14 -597.6)" fill="#005900"/><path d="M623.24,697.18a1.8,1.8,0,0,0,0-3.6,1.8,1.8,0,0,0,0,3.6Z" transform="translate(-533.14 -597.6)" fill="#005900"/><path d="M627.49,715.38a1.8,1.8,0,0,0,0-3.6,1.8,1.8,0,0,0,0,3.6Z" transform="translate(-533.14 -597.6)" fill="#005900"/><path d="M630.85,723.48a1.8,1.8,0,0,0,0-3.6,1.8,1.8,0,0,0,0,3.6Z" transform="translate(-533.14 -597.6)" fill="#005900"/><path d="M632.82,741a1.8,1.8,0,0,0,0-3.6,1.8,1.8,0,0,0,0,3.6Z" transform="translate(-533.14 -597.6)" fill="#005900"/><path d="M615.44,729.25a1.8,1.8,0,0,0,0-3.6,1.8,1.8,0,0,0,0,3.6Z" transform="translate(-533.14 -597.6)" fill="#005900"/><path d="M612.9,725.49a1.8,1.8,0,0,0,0-3.6,1.8,1.8,0,0,0,0,3.6Z" transform="translate(-533.14 -597.6)" fill="#005900"/><path d="M610.76,721.26a1.8,1.8,0,0,0,0-3.6,1.8,1.8,0,0,0,0,3.6Z" transform="translate(-533.14 -597.6)" fill="#005900"/><path d="M640,712.07a1.8,1.8,0,0,0,0-3.6,1.8,1.8,0,0,0,0,3.6Z" transform="translate(-533.14 -597.6)" fill="#005900"/><path d="M628.68,703.78a1.8,1.8,0,0,0,0-3.6,1.8,1.8,0,0,0,0,3.6Z" transform="translate(-533.14 -597.6)" fill="#005900"/><path d="M627.43,709.64a1.8,1.8,0,0,0,0-3.6,1.8,1.8,0,0,0,0,3.6Z" transform="translate(-533.14 -597.6)" fill="#005900"/><text transform="translate(0 166.79)" font-size="30" font-family="Helvetica">6</text></svg>