<svg class="summary-menu__item-graphic" xmlns="http://www.w3.org/2000/svg" viewBox="0 0 142.63 263.52"><path d="M540.42,568.8A382.24,382.24,0,0,1,644,306.65" transform="translate(-528.4 -305.28)" fill="none" stroke="#0d65d9" stroke-miterlimit="10" stroke-width="4"/><path d="M641.25,451.36c1-2.35-3.68-3.28-2.48-6s4.86,1.38,5.83-1-4.82-4.31-3.63-7,4.88,1.08,6.29-2-3.94-3.94-3-6.28,5.48,1.46,6.9-1.6-4.38-3.22-3.41-5.57,6.28,1,7.34-2.3-4.16-3.58-3.18-5.92,4.68,1.94,6.32-1.46-3.86-4.84-2.36-7.25c1.61-2.57,5.19,1.14,6.6-1.91s-3.49-4.64-2.61-6.55c1.24-2.68,5.13,1.73,6.42-1.89s-3.76-3.15-2.79-5.5,4.86,1.38,6.5-2" transform="translate(-528.4 -305.28)" fill="none" stroke="#00af00" stroke-linecap="round" stroke-miterlimit="10" stroke-width="2"/><path d="M586.08,473.52c3.21,0,3.22-5,0-5s-3.23,5,0,5Z" transform="translate(-528.4 -305.28)" fill="#00af00"/><path d="M638.37,478.07c3.21,0,3.22-5,0-5s-3.23,5,0,5Z" transform="translate(-528.4 -305.28)" fill="#00af00"/><path d="M621.59,480.4c3.22,0,3.23-5,0-5s-3.22,5,0,5Z" transform="translate(-528.4 -305.28)" fill="#00af00"/><path d="M604.94,502.15c3.21,0,3.22-5,0-5s-3.22,5,0,5Z" transform="translate(-528.4 -305.28)" fill="#00af00"/><path d="M634.65,462c3.22,0,3.22-5,0-5s-3.22,5,0,5Z" transform="translate(-528.4 -305.28)" fill="#00af00"/><path d="M632.33,502.43c3.22,0,3.23-5,0-5s-3.22,5,0,5Z" transform="translate(-528.4 -305.28)" fill="#00af00"/><text transform="translate(0 114.06)" font-size="30" font-family="Helvetica">7</text></svg>