<svg class="summary-menu__item-graphic" xmlns="http://www.w3.org/2000/svg" viewBox="0 0 281.48 170.84"><path d="M665.58,285.05a382.52,382.52,0,0,1,280-121.43" transform="translate(-664.12 -159.78)" fill="none" stroke="#0d65d9" stroke-miterlimit="10" stroke-width="4"/><path d="M794,245.85c4.45,5.55,7.29,13.09,6.29,20.15-.81,17.71-5,37.85-37.83,33.83C738.4,296,731.29,238,776,237.61h0A22.26,22.26,0,0,1,794,245.85Z" transform="translate(-664.12 -159.78)" fill="#337a33" stroke="#337a33" stroke-miterlimit="10" stroke-width="0.24"/><path d="M850.93,201c14.32,3.58,35.91,17.82,16.57,52.92-4.87,15.69-23.13,26.05-42.88,23.41-30.27-3.38-36.43-72.87,14.75-77.76A27.68,27.68,0,0,1,850.93,201Z" transform="translate(-664.12 -159.78)" fill="#337a33" stroke="#337a33" stroke-miterlimit="10" stroke-width="0.24" opacity="0.8"/><path d="M839.3,285.6c25,16.89,9.19,54.4-22.82,42.66-27.15-14.08-20.54-52.84,13.37-46.67a23.61,23.61,0,0,1,9.45,4Z" transform="translate(-664.12 -159.78)" fill="#337a33" stroke="#337a33" stroke-miterlimit="10" stroke-width="0.24" opacity="0.7"/><text transform="translate(96.46 25.76)" font-size="30" font-family="Helvetica">8</text></svg>