<svg class="summary-menu__item-graphic" xmlns="http://www.w3.org/2000/svg" viewBox="0 0 366.14 280.52"><path d="M960,120a423,423,0,0,1,70.84,6" transform="translate(-960 -51.01)" fill="none" stroke="#026873" stroke-miterlimit="10" stroke-width="5"/><path d="M1269.13,255.67A421.68,421.68,0,0,1,1324,330.29" transform="translate(-960 -51.01)" fill="none" stroke="#026873" stroke-miterlimit="10" stroke-width="5"/><path d="M1270,256.88q-1.5,2.61-3.1,5.14" transform="translate(-960 -51.01)" fill="none" stroke="#026873" stroke-miterlimit="10" stroke-width="2"/><path d="M1260.24,271.63A135.86,135.86,0,0,1,1027,136.49" transform="translate(-960 -51.01)" fill="none" stroke="#026873" stroke-miterlimit="10" stroke-width="2" stroke-dasharray="11.72 11.72"/><path d="M1029.42,131.14c.85-1.81,1.75-3.59,2.69-5.36" transform="translate(-960 -51.01)" fill="none" stroke="#026873" stroke-miterlimit="10" stroke-width="2"/><path d="M1032.11,125.78A135.85,135.85,0,1,1,1270,256.88" transform="translate(-960 -51.01)" fill="none" stroke="#026873" stroke-miterlimit="10" stroke-width="5"/><text transform="translate(183.66 142.1)" font-size="30" font-family="Helvetica">1</text></svg>