<svg class="summary-menu__item-graphic" xmlns="http://www.w3.org/2000/svg" viewBox="0 0 125.83 421.57"><path d="M51.19,374.44q-6.823,16.146-14.983,31.669" fill="none" stroke="#026873" stroke-miterlimit="10" stroke-width="5"/><path d="M34.361,12.343Q41.81,26.227,48.19,40.65" fill="none" stroke="#026873" stroke-miterlimit="10" stroke-width="5"/><path d="M49.88,375.17c-2-.41-3.91-.91-5.81-1.5" fill="none" stroke="#026873" stroke-miterlimit="10" stroke-width="2"/><path d="M33.19,369.07A61.319,61.319,0,0,1,1,315.25V101.17A61.37,61.37,0,0,1,36,45.92" fill="none" stroke="#026873" stroke-miterlimit="10" stroke-width="2" stroke-dasharray="11.83 11.83"/><path d="M41.46,43.64q2.809-1,5.73-1.77" fill="none" stroke="#026873" stroke-miterlimit="10" stroke-width="2"/><path d="M47.19,41.87a61.132,61.132,0,0,1,15-1.86h0a61.35,61.35,0,0,1,61.17,61.16V315.25a61.35,61.35,0,0,1-61.17,61.17h0a60.667,60.667,0,0,1-12.28-1.25" fill="none" stroke="#026873" stroke-miterlimit="10" stroke-width="5"/><text transform="translate(54.69 211.51)" font-size="30" font-family="Helvetica" style="isolation:isolate">2</text></svg>