<svg class="summary-menu__item-graphic" xmlns="http://www.w3.org/2000/svg" viewBox="0 0 125.83 421.57"><path d="M1347,703.48a416.79,416.79,0,0,1-22.81,45.88" transform="translate(-1295.81 -329.04)" fill="none" stroke="#026873" stroke-miterlimit="10" stroke-width="5"/><path d="M1324,330.29a415.09,415.09,0,0,1,20,39.4" transform="translate(-1295.81 -329.04)" fill="none" stroke="#026873" stroke-miterlimit="10" stroke-width="5"/><path d="M1345.69,704.21c-2-.41-3.91-.91-5.81-1.5" transform="translate(-1295.81 -329.04)" fill="none" stroke="#026873" stroke-miterlimit="10" stroke-width="2"/><path d="M1329,698.11a61.32,61.32,0,0,1-32.19-53.82V430.21a61.37,61.37,0,0,1,35-55.25" transform="translate(-1295.81 -329.04)" fill="none" stroke="#026873" stroke-miterlimit="10" stroke-width="2" stroke-dasharray="11.83 11.83"/><path d="M1337.27,372.68q2.81-1,5.73-1.77" transform="translate(-1295.81 -329.04)" fill="none" stroke="#026873" stroke-miterlimit="10" stroke-width="2"/><path d="M1343,370.91a61.15,61.15,0,0,1,15-1.86h0a61.35,61.35,0,0,1,61.17,61.16V644.29A61.35,61.35,0,0,1,1358,705.46h0a60.68,60.68,0,0,1-12.28-1.25" transform="translate(-1295.81 -329.04)" fill="none" stroke="#026873" stroke-miterlimit="10" stroke-width="5"/><text transform="translate(54.69 211.51)" font-size="30" font-family="Helvetica">2</text></svg>