<svg class="summary-menu__item-graphic" xmlns="http://www.w3.org/2000/svg" viewBox="0 0 366.35 289.5"><path d="M1066.29,946.43A420.42,420.42,0,0,1,960,960" transform="translate(-960 -736.45)" fill="none" stroke="#026873" stroke-miterlimit="10" stroke-width="5"/><path d="M1066.29,946.43" transform="translate(-960 -736.45)" fill="none" stroke="#026873" stroke-miterlimit="10" stroke-width="5"/><path d="M1324.18,749.36a421,421,0,0,1-49.84,69.2" transform="translate(-960 -736.45)" fill="none" stroke="#026873" stroke-miterlimit="10" stroke-width="5"/><path d="M1143.21,917.61l-3.76-4.68" transform="translate(-960 -736.45)" fill="none" stroke="#026873" stroke-miterlimit="10" stroke-width="2"/><path d="M1131.94,903.54c-28.68-36.25-56.6-77.3-38.88-123.22,14-44.22,73.52-53.83,109.66-30.67C1219,757.85,1229,771.82,1243,783c7.87,7.84,16,18.21,23.06,28" transform="translate(-960 -736.45)" fill="none" stroke="#026873" stroke-miterlimit="10" stroke-width="2" stroke-dasharray="12.03 12.03"/><path d="M1269.54,815.85c1.18,1.69,2.33,3.34,3.42,4.93" transform="translate(-960 -736.45)" fill="none" stroke="#026873" stroke-miterlimit="10" stroke-width="2"/><path d="M1139.71,920.36c10.06,11.88,20.43,23.52,30.13,35.4,2,3.38,11.61,8.53,8,.53-5.34-8.73-15.45-15.71-22.39-23.16-3.85-5.07-8-10.24-12.22-15.52" transform="translate(-960 -736.45)" fill="none" stroke="#026873" stroke-miterlimit="10" stroke-width="5"/><path d="M1067.46,946.38q-1.68-2.49-3.31-5" transform="translate(-960 -736.45)" fill="none" stroke="#026873" stroke-miterlimit="10" stroke-width="2"/><path d="M1058,931.49a432.23,432.23,0,0,1-34.83-72.12c-8.73-23.77-13.28-80.37,26.43-83.11,31.87-2.19,40.22,85.17,65.58,112.71,5.32,7.63,11.06,15,17,22.3" transform="translate(-960 -736.45)" fill="none" stroke="#026873" stroke-miterlimit="10" stroke-width="2" stroke-dasharray="11.66 11.66"/><path d="M1135.85,915.76c1.28,1.54,2.56,3.07,3.86,4.6" transform="translate(-960 -736.45)" fill="none" stroke="#026873" stroke-miterlimit="10" stroke-width="2"/><path d="M1210.5,875.9c33.13,45.06,56.91,95.37,5.27,135.29-58.47,34.72-111.3-9.79-148.31-64.81" transform="translate(-960 -736.45)" fill="none" stroke="#026873" stroke-miterlimit="10" stroke-width="5"/><path d="M1215,874.75l-3.54-4.83" transform="translate(-960 -736.45)" fill="none" stroke="#026873" stroke-miterlimit="10" stroke-width="2"/><path d="M1204.28,860.3c-21-28.07-47.14-60.78-43.06-47.27,11.18,15.65,27.06,33.85,42,53.27" transform="translate(-960 -736.45)" fill="none" stroke="#026873" stroke-miterlimit="10" stroke-width="2" stroke-dasharray="11.99 11.99"/><path d="M1206.92,871.08c1.2,1.6,2.4,3.2,3.58,4.82" transform="translate(-960 -736.45)" fill="none" stroke="#026873" stroke-miterlimit="10" stroke-width="2"/><path d="M1273,820.78c31.88,46.47,49.13,123.62,4.07,134.6-30.34,7.4-23.85-31.74-47.91-60.48-.83-1.59-6.46-9.62-14.15-20.15" transform="translate(-960 -736.45)" fill="none" stroke="#026873" stroke-miterlimit="10" stroke-width="5"/><text transform="translate(201.36 163.27)" font-size="30" font-family="Helvetica">3</text></svg>