<svg class="summary-menu__item-graphic" xmlns="http://www.w3.org/2000/svg" viewBox="0 0 366.35 289.5"><path d="M106.29,209.98a420.377,420.377,0,0,1-89.281,13.239" fill="none" stroke="#026873" stroke-miterlimit="10" stroke-width="5"/><path d="M356.51,25.694A421.008,421.008,0,0,1,314.34,82.11" fill="none" stroke="#026873" stroke-miterlimit="10" stroke-width="5"/><path d="M183.21,181.16l-3.76-4.68" fill="none" stroke="#026873" stroke-miterlimit="10" stroke-width="2"/><path d="M171.94,167.09c-28.68-36.25-56.6-77.3-38.88-123.22,14-44.22,73.52-53.83,109.66-30.67C259,21.4,269,35.37,283,46.55c7.87,7.84,16,18.21,23.06,28" fill="none" stroke="#026873" stroke-miterlimit="10" stroke-width="2" stroke-dasharray="12.03 12.03"/><path d="M309.54,79.4c1.18,1.69,2.33,3.34,3.42,4.93" fill="none" stroke="#026873" stroke-miterlimit="10" stroke-width="2"/><path d="M179.71,183.91c10.06,11.88,20.43,23.52,30.13,35.4,2,3.38,11.61,8.53,8,.53-5.34-8.73-15.45-15.71-22.39-23.16-3.85-5.07-8-10.24-12.22-15.52" fill="none" stroke="#026873" stroke-miterlimit="10" stroke-width="5"/><path d="M107.46,209.93q-1.68-2.49-3.31-5" fill="none" stroke="#026873" stroke-miterlimit="10" stroke-width="2"/><path d="M98,195.04a432.234,432.234,0,0,1-34.83-72.12C54.44,99.15,49.89,42.55,89.6,39.81c31.87-2.19,40.22,85.17,65.58,112.71,5.32,7.63,11.06,15,17,22.3" fill="none" stroke="#026873" stroke-miterlimit="10" stroke-width="2" stroke-dasharray="11.66 11.66"/><path d="M175.85,179.31c1.28,1.54,2.56,3.07,3.86,4.6" fill="none" stroke="#026873" stroke-miterlimit="10" stroke-width="2"/><path d="M250.5,139.45c33.13,45.06,56.91,95.37,5.27,135.29-58.47,34.72-111.3-9.79-148.31-64.81" fill="none" stroke="#026873" stroke-miterlimit="10" stroke-width="5"/><path d="M255,138.3l-3.54-4.83" fill="none" stroke="#026873" stroke-miterlimit="10" stroke-width="2"/><path d="M244.28,123.85c-21-28.07-47.14-60.78-43.06-47.27,11.18,15.65,27.06,33.85,42,53.27" fill="none" stroke="#026873" stroke-miterlimit="10" stroke-width="2" stroke-dasharray="11.99 11.99"/><path d="M246.92,134.63c1.2,1.6,2.4,3.2,3.58,4.82" fill="none" stroke="#026873" stroke-miterlimit="10" stroke-width="2"/><path d="M313,84.33c31.88,46.47,49.13,123.62,4.07,134.6-30.34,7.4-23.85-31.74-47.91-60.48-.83-1.59-6.46-9.62-14.15-20.15" fill="none" stroke="#026873" stroke-miterlimit="10" stroke-width="5"/><text transform="translate(201.36 163.27)" font-size="30" font-family="Helvetica" style="isolation:isolate">3</text></svg>