<svg class="summary-menu__item-graphic" xmlns="http://www.w3.org/2000/svg" viewBox="0 0 366.62 239.2"><path d="M30.53,44.29Q19.115,29.1,9.112,12.93" fill="none" stroke="#026873" stroke-miterlimit="10" stroke-width="5"/><path d="M351.034,212.078q-11.221-.41-22.294-1.408" fill="none" stroke="#026873" stroke-miterlimit="10" stroke-width="5"/><path d="M30.39,43.96c-6.95,2.29-10.39,8.51-12.09,15-4.4,16.67,10.71,22,19.29,34.47,7.89,11.48,9.28,26.81,16.9,38.9,15.81,25.07,41.7,43.95,70.63,50.65a96.788,96.788,0,0,0,40.24,1c12-2.39,24.62-9.52,37-5.1,11.94,4.27,16.8,17.24,24.32,26.34,10.38,12.56,25.2,21,40.29,26.64a70.6,70.6,0,0,0,37.73,3.79c5.43-1,11.43-2.3,16-5.63,5.3-3.88,5.1-7.75,6.7-13.5.73-2.6,1.48-4.72,1.9-6.7" fill="none" stroke="#026873" stroke-miterlimit="10" stroke-width="5"/><path d="M329.25,209.82a11.053,11.053,0,0,0-.17-5.92" fill="none" stroke="#026873" stroke-miterlimit="10" stroke-width="2"/><path d="M322.22,194.6a47.093,47.093,0,0,0-6.83-4.88c-6.51-3.9-14.06-5.87-20.37-10.16-7.12-4.84-11-11.6-14.5-19.29-13-28.94-33.49-46.8-64.71-54.38-15.53-3.77-28.9-3.69-44.46-.47-12.72,2.64-28.55,7.63-41.06,1.86-13.93-6.43-18.29-23.23-27.34-34.36A82,82,0,0,0,64.11,47.03c-6.06-1.91-14.28-4-22-4.36" fill="none" stroke="#026873" stroke-miterlimit="10" stroke-width="2" stroke-dasharray="11.68 11.68"/><path d="M36.26,42.78a26.588,26.588,0,0,0-5.87,1.18" fill="none" stroke="#026873" stroke-miterlimit="10" stroke-width="2"/><text transform="translate(163.36 157.35)" font-size="30" font-family="Helvetica" style="isolation:isolate">4</text></svg>