<svg class="summary-menu__item-graphic" xmlns="http://www.w3.org/2000/svg" viewBox="0 0 296.61 421.92"><path d="M143.64,110.55a417.51,417.51,0,0,1,38.65-99.392" fill="none" stroke="#026873" stroke-miterlimit="10" stroke-width="5"/><path d="M180.539,409.179A417.238,417.238,0,0,1,159.21,362.49" fill="none" stroke="#026873" stroke-miterlimit="10" stroke-width="5"/><path d="M161.98,362.43a10.224,10.224,0,0,1-5.18-2.8c-46.27-44.54-45.35-5.36-97.18-4.93-38.69-13.57-5.29-48.51.21-71.73-4.15-23.32-34.65-8.18-48.59-19-42.48-47.82,85.92-42.79,44.91-147.82-18-43.37,17.61-82.88,56.44-47.17,13.07,11.72,18.13,31.49,31,42.48" fill="none" stroke="#026873" stroke-miterlimit="10" stroke-width="5"/><path d="M143.61,111.41a33.88,33.88,0,0,0,4.37,3.18c.14.14.27.28.4.43" fill="none" stroke="#026873" stroke-miterlimit="10" stroke-width="2"/><path d="M157.26,122.79c46.26,32.39,107-40.32,106.69,17.09-.14,31-34.71,52.54-28.24,70.24,11.35,31,65.91,48,59.36,67.16-12.09,35.43-46.73,4.81-72.55,10.89-11.06,2.6-13.9,21.32-23.5,39.44-5.09,9.63-15.58,25-25.85,31.68" fill="none" stroke="#026873" stroke-miterlimit="10" stroke-width="2" stroke-dasharray="11.82 11.82"/><path d="M167.9,361.92a11.676,11.676,0,0,1-5.92.51" fill="none" stroke="#026873" stroke-miterlimit="10" stroke-width="2"/><text transform="translate(129.9 236.46)" font-size="30" font-family="Helvetica" style="isolation:isolate">5</text></svg>