<svg class="summary-menu__item-graphic" xmlns="http://www.w3.org/2000/svg" viewBox="0 0 365.66 320.44"><path d="M265.32,97.54a421.04,421.04,0,0,1,82.714-11.7" fill="none" stroke="#026873" stroke-miterlimit="10" stroke-width="5"/><path d="M11.183,280.117A421.172,421.172,0,0,1,59.75,217.69" fill="none" stroke="#026873" stroke-miterlimit="10" stroke-width="5"/><path d="M59.3,217.12,7.66,127.73a12,12,0,0,1,4.382-16.4l.008,0L197.81,4.1A12,12,0,0,1,214.2,8.48l50.92,88.19" fill="none" stroke="#026873" stroke-miterlimit="10" stroke-width="5"/><line x1="265.12" y1="96.68" x2="268.12" y2="101.88" fill="none" stroke="#026873" stroke-miterlimit="10" stroke-width="2"/><path d="M274.07,112.18l47.36,82a12,12,0,0,1-4.382,16.395l-.008.005L131.31,317.85a12,12,0,0,1-16.39-4.4l-49.65-86" fill="none" stroke="#026873" stroke-miterlimit="10" stroke-width="2" stroke-dasharray="11.9 11.9"/><line x1="62.3" y1="222.31" x2="59.3" y2="217.11" fill="none" stroke="#026873" stroke-miterlimit="10" stroke-width="2"/><text transform="translate(151.6 169.19)" font-size="30" font-family="Helvetica" style="isolation:isolate">6</text></svg>