<svg class="summary-menu__item-graphic" xmlns="http://www.w3.org/2000/svg" viewBox="0 0 365.66 320.44"><path d="M859.66,132.06A421.07,421.07,0,0,1,960,120" transform="translate(-594.34 -34.52)" fill="none" stroke="#026873" stroke-miterlimit="10" stroke-width="5"/><path d="M596.5,329.47a421.16,421.16,0,0,1,57.59-77.26" transform="translate(-594.34 -34.52)" fill="none" stroke="#026873" stroke-miterlimit="10" stroke-width="5"/><path d="M653.64,251.64,602,162.25a12,12,0,0,1,4.39-16.4L792.15,38.62A12,12,0,0,1,808.54,43l50.92,88.19" transform="translate(-594.34 -34.52)" fill="none" stroke="#026873" stroke-miterlimit="10" stroke-width="5"/><line x1="265.12" y1="96.68" x2="268.12" y2="101.88" fill="none" stroke="#026873" stroke-miterlimit="10" stroke-width="2"/><path d="M868.41,146.7l47.36,82a12,12,0,0,1-4.39,16.4L725.65,352.37a12,12,0,0,1-16.39-4.4l-49.65-86" transform="translate(-594.34 -34.52)" fill="none" stroke="#026873" stroke-miterlimit="10" stroke-width="2" stroke-dasharray="11.9 11.9"/><line x1="62.3" y1="222.31" x2="59.3" y2="217.11" fill="none" stroke="#026873" stroke-miterlimit="10" stroke-width="2"/><text transform="translate(151.6 169.19)" font-size="30" font-family="Helvetica">6</text></svg>