<svg class="summary-menu__item-graphic" xmlns="http://www.w3.org/2000/svg" viewBox="0 0 273.011 490.02"><path d="M1093.25,198.375C1229.831,251.688,1326.593,384.544,1326.593,540a365.718,365.718,0,0,1-24.371,131.709" transform="translate(-1091.405 -193.909)" fill="none" stroke="#a7a9ac" stroke-miterlimit="10" stroke-width="5"/><path d="M1092.254,196.261C1207.9,238.017,1355.393,350.1,1355.393,540a510.73,510.73,0,0,1-20.739,143.224" transform="translate(-1091.405 -193.909)" fill="none" stroke="#a7a9ac" stroke-miterlimit="10" stroke-width="5"/><g opacity="0.1"><rect x="1304.388" y="398.846" width="13.687" height="5.021" rx="2.51" transform="translate(488.963 1552.06) rotate(-118.338)" fill="#0d65d9"/><path d="M1308.143,395.219c-.3-.583.064-1.261.091-1.884a2.388,2.388,0,0,0-.389-1.614c-.919-1.209-2.631-1.028-2.768-2.9-.094-1.278.044-2.371-.766-3.485s-2.162-1.542-3.067-2.525a3.488,3.488,0,0,1-.866-2.547,3.75,3.75,0,0,0-.07-1.208,5.649,5.649,0,0,0-2.175-2.94c-1.544-1.176-2.9-2.107-3.259-4.166-.3-1.741-.086-3.44-.594-5.163a.15.15,0,0,0-.289.079c.906,3.073-.172,6.347,2.689,8.564,1.362,1.056,3.014,2,3.381,3.851.229,1.154-.122,2.143.575,3.239.734,1.155,2.106,1.594,3.035,2.541a4.068,4.068,0,0,1,1.114,2.949,4.509,4.509,0,0,0,.169,1.687c.446,1.152,1.7,1.19,2.478,2.012,1.1,1.166-.165,2.462.452,3.658.088.172.347.02.259-.151Z" transform="translate(-1091.405 -193.909)" fill="#ff7400"/></g><g opacity="0.15"><path d="M1315.737,404.159l4.3,8.114a2.7,2.7,0,0,1-1.08,3.626h0a2.61,2.61,0,0,1-3.57-1.075l-4.3-8.114a2.7,2.7,0,0,1,1.079-3.626h0A2.611,2.611,0,0,1,1315.737,404.159Z" transform="translate(-1091.405 -193.909)" fill="#0d65d9"/><path d="M1312.944,402.656c-.545-1.087-2.012-.971-2.61-2.122-.7-1.344.456-2.826-.558-4.118-.973-1.238-2.436-1.593-2.924-3.306-.456-1.6.255-3.326-.475-4.88a5.016,5.016,0,0,0-1.9-1.922c-1.832-1.375-1.515-3.836-1.6-5.834-.163-3.713-3.647-4.867-5.645-7.486-.122-.16-.4,0-.274.161a22.431,22.431,0,0,0,3.509,3.258,5.964,5.964,0,0,1,1.839,2.506,10.036,10.036,0,0,1,.251,3.192,6.072,6.072,0,0,0,1.233,3.984c.921,1.081,2.153,1.326,2.538,2.946.358,1.508-.231,3.088.365,4.567.556,1.378,1.692,1.809,2.653,2.8,1.237,1.268-.032,2.758.589,4.175.535,1.221,2.219,1.2,2.742,2.243.092.183.365.022.274-.16Z" transform="translate(-1091.405 -193.909)" fill="#ff7400"/></g><g opacity="0.1"><rect x="1311.461" y="413.22" width="13.687" height="5.021" rx="2.51" transform="translate(421.791 1590.315) rotate(-115.608)" fill="#0d65d9"/><path d="M1315.507,409.446c-.27-.591.13-1.264.185-1.878a2.4,2.4,0,0,0-.315-1.63c-.86-1.238-2.579-1.172-2.624-3.026-.033-1.382.142-2.585-.785-3.763-.823-1.048-2.161-1.553-2.925-2.651-.854-1.227-.322-2.211-.566-3.475a5.809,5.809,0,0,0-2.275-3.305c-1.536-1.243-2.706-2.339-2.866-4.446a28.807,28.807,0,0,0-.32-4.883c-.045-.188-.335-.108-.289.079.76,3.116-.48,6.33,2.282,8.681,1.323,1.126,2.84,2.086,3.179,3.954.209,1.152-.231,2.027.362,3.179.63,1.225,1.951,1.763,2.875,2.712a3.971,3.971,0,0,1,1.082,2.965,5.978,5.978,0,0,0,.044,1.69c.315,1.178,1.415,1.361,2.232,2.11,1.35,1.239-.133,2.528.465,3.839.081.175.339.023.259-.152Z" transform="translate(-1091.405 -193.909)" fill="#ff7400"/></g><g opacity="0.2"><rect x="1315.106" y="421.922" width="13.687" height="5.021" rx="2.51" transform="translate(298.937 1617.252) rotate(-110.624)" fill="#0d65d9"/><path d="M1319.719,417.954c-.37-1.042.756-2.149.275-3.311-.558-1.35-2.4-1.487-2.47-3.146-.055-1.3.419-2.309-.154-3.6-.618-1.395-2.1-2.036-2.9-3.286-.845-1.322-.2-2.313-.336-3.642a5.672,5.672,0,0,0-1.875-3.4c-1.406-1.389-2.547-2.475-2.571-4.62-.019-1.722.366-3.331.1-5.063-.029-.191-.318-.11-.289.079.487,3.175-1.023,6.259,1.525,8.843,1.234,1.251,2.819,2.47,2.831,4.424.008,1.147-.414,1.952.125,3.117.572,1.235,1.85,1.887,2.659,2.932a3.922,3.922,0,0,1,.73,2.939,6.224,6.224,0,0,0-.121,1.563c.163,1.23,1.164,1.531,1.966,2.31,1.419,1.379-.278,2.55.216,3.942.064.181.354.1.29-.079Z" transform="translate(-1091.405 -193.909)" fill="#ff7400"/></g><g opacity="0.3"><rect x="1317.852" y="429.911" width="13.687" height="5.021" rx="2.51" transform="translate(321.705 1629.191) rotate(-111.716)" fill="#0d65d9"/><path d="M1322.643,425.912c-.453-1.316-2.395-1.236-2.326-2.986.046-1.193.818-2.137.131-3.282a5.433,5.433,0,0,0-.97-1.051,4.072,4.072,0,0,1-1.369-2.788c-.064-1.593.732-3.067.044-4.623-.445-1-1.4-1.415-1.9-2.346-.974-1.814-.265-3.578-.224-5.471.069-3.216-2.956-4.688-4.379-7.195a.15.15,0,0,0-.259.152,14.784,14.784,0,0,0,2.622,3.139,5.8,5.8,0,0,1,1.565,5.31,6.922,6.922,0,0,0,.27,3.9c.476,1.092,1.545,1.56,2.014,2.647.732,1.695-.318,3.373.009,5.107.249,1.318,1.1,1.97,1.941,2.9,1.3,1.429-.079,2.56.232,4.1a2.411,2.411,0,0,0,.879,1.334c.466.4,1.217.627,1.427,1.236.062.182.352.1.289-.079Z" transform="translate(-1091.405 -193.909)" fill="#ff7400"/></g><g opacity="0.5"><rect x="1320.072" y="437.43" width="13.687" height="5.021" rx="2.51" transform="translate(162.008 1642.044) rotate(-105.329)" fill="#0d65d9"/><path d="M1325.288,433.27c-.177-.7.475-1.472.6-2.175a2.113,2.113,0,0,0-.135-1.372,4.909,4.909,0,0,0-1.219-1.308,2.275,2.275,0,0,1-.7-2.474,4.619,4.619,0,0,0-.358-3.732c-.882-1.393-2.427-2.232-2.537-4.038-.064-1.058.473-1.912.284-2.99a7.866,7.866,0,0,0-2.212-3.722,5.512,5.512,0,0,1-1.316-4.881,14.159,14.159,0,0,0,.489-4.126c-.013-.192-.314-.193-.3,0,.188,2.77-1.494,5.607.136,8.2.843,1.345,2.215,2.3,2.73,3.852a3.836,3.836,0,0,1,.026,2.439,3.678,3.678,0,0,0-.1,1.6c.208,1.334,1.169,2.142,2.005,3.118a4.024,4.024,0,0,1,1.108,2.878c-.027.638-.274,1.216-.357,1.84-.2,1.464.665,1.885,1.558,2.839,1.2,1.281.319,2.007.017,3.347a1.541,1.541,0,0,0-.006.778.15.15,0,0,0,.289-.08Z" transform="translate(-1091.405 -193.909)" fill="#ff7400"/></g><rect x="1322.708" y="447.5" width="13.687" height="5.021" rx="2.51" transform="translate(83.985 1651.254) rotate(-102.394)" fill="#0d65d9"/><path d="M1327.5,442.669c-.289-1.056.926-2.1.511-3.3-.539-1.56-2.5-1.765-2.16-3.759a5.474,5.474,0,0,0-.068-3.437c-.6-1.312-1.983-2.044-2.606-3.333-.675-1.4.138-2.434-.014-3.8a6.043,6.043,0,0,0-1.706-3.371c-1.3-1.456-2.257-2.682-2.105-4.764a31.193,31.193,0,0,0,.473-4.921c-.015-.191-.315-.193-.3,0,.242,3.038-1.462,6.053.677,8.73,1.144,1.431,2.637,2.61,2.688,4.617.028,1.093-.519,1.9-.2,3.051.342,1.245,1.4,2.008,2.191,2.957a3.926,3.926,0,0,1,.942,2.936c-.06.6-.306,1.18-.328,1.79-.046,1.305.8,1.718,1.632,2.558,1.175,1.19.354,2.06.081,3.346a1.528,1.528,0,0,0,.006.777.151.151,0,0,0,.29-.08Z" transform="translate(-1091.405 -193.909)" fill="#ff7400"/><g opacity="0.1"><path d="M1308.233,395.038a1.3,1.3,0,0,0-.492.253c-.027.021,0,.068.028.047a1.25,1.25,0,0,1,.478-.248c.034-.007.02-.059-.014-.052Z" transform="translate(-1091.405 -193.909)" fill="#ff7400"/></g><g opacity="0.1"><path d="M1308.277,395.128a1.471,1.471,0,0,0-.272.105,1.369,1.369,0,0,0-.234.172c-.037.033.017.086.053.054a1.182,1.182,0,0,1,.219-.16,1.283,1.283,0,0,1,.254-.1c.046-.014.026-.087-.02-.073Z" transform="translate(-1091.405 -193.909)" fill="#ff7400"/></g><g opacity="0.1"><path d="M1307.792,395.438c.277-.01.354-.048.468-.277.029-.057.2.123.194.164a.524.524,0,0,1-.593.371C1307.784,395.679,1307.721,395.441,1307.792,395.438Z" transform="translate(-1091.405 -193.909)" fill="none" stroke="#ff7400" stroke-linecap="round" stroke-miterlimit="10" stroke-width="0.06"/><path d="M1307.77,395.543c-.008-.039-.023-.077,0-.107" transform="translate(-1091.405 -193.909)" fill="none" stroke="#ff7400" stroke-linecap="round" stroke-miterlimit="10" stroke-width="0.06"/><path d="M1307.9,395.693a.992.992,0,0,1-.079-.261" transform="translate(-1091.405 -193.909)" fill="none" stroke="#ff7400" stroke-linecap="round" stroke-miterlimit="10" stroke-width="0.06"/><path d="M1307.955,395.693c-.021-.041-.1-.221-.076-.26" transform="translate(-1091.405 -193.909)" fill="none" stroke="#ff7400" stroke-linecap="round" stroke-miterlimit="10" stroke-width="0.06"/><path d="M1308.018,395.691c-.024-.038-.106-.218-.079-.257" transform="translate(-1091.405 -193.909)" fill="none" stroke="#ff7400" stroke-linecap="round" stroke-miterlimit="10" stroke-width="0.06"/><path d="M1308.079,395.683a.894.894,0,0,1-.088-.258" transform="translate(-1091.405 -193.909)" fill="none" stroke="#ff7400" stroke-linecap="round" stroke-miterlimit="10" stroke-width="0.06"/><path d="M1308.14,395.659a2.016,2.016,0,0,0-.1-.243" transform="translate(-1091.405 -193.909)" fill="none" stroke="#ff7400" stroke-linecap="round" stroke-miterlimit="10" stroke-width="0.06"/><path d="M1308.2,395.631a1.185,1.185,0,0,0-.1-.237" transform="translate(-1091.405 -193.909)" fill="none" stroke="#ff7400" stroke-linecap="round" stroke-miterlimit="10" stroke-width="0.06"/><path d="M1308.253,395.6a1.2,1.2,0,0,0-.118-.236" transform="translate(-1091.405 -193.909)" fill="none" stroke="#ff7400" stroke-linecap="round" stroke-miterlimit="10" stroke-width="0.06"/><path d="M1308.316,395.556c-.024-.03-.111-.207-.14-.233" transform="translate(-1091.405 -193.909)" fill="none" stroke="#ff7400" stroke-linecap="round" stroke-miterlimit="10" stroke-width="0.06"/><path d="M1308.367,395.505a2.028,2.028,0,0,0-.169-.225" transform="translate(-1091.405 -193.909)" fill="none" stroke="#ff7400" stroke-linecap="round" stroke-miterlimit="10" stroke-width="0.06"/><path d="M1308.4,395.462a.616.616,0,0,0-.178-.226" transform="translate(-1091.405 -193.909)" fill="none" stroke="#ff7400" stroke-linecap="round" stroke-miterlimit="10" stroke-width="0.06"/><path d="M1308.431,395.408c-.037-.034-.138-.207-.178-.215" transform="translate(-1091.405 -193.909)" fill="none" stroke="#ff7400" stroke-linecap="round" stroke-miterlimit="10" stroke-width="0.06"/><path d="M1308.447,395.347c-.034-.031-.116-.185-.178-.193" transform="translate(-1091.405 -193.909)" fill="none" stroke="#ff7400" stroke-linecap="round" stroke-miterlimit="10" stroke-width="0.06"/></g><text transform="translate(256.326 201.595)" font-size="30" font-family="Helvetica">1</text></svg>