<svg class="summary-menu__item-graphic"  xmlns="http://www.w3.org/2000/svg" viewBox="0 0 273 490"><path d="M15.8,10.2C144.9,66.9,235.2,196,235.2,346.1a362.687,362.687,0,0,1-21,122.5" fill="none" stroke="#a7a9ac" stroke-miterlimit="10" stroke-width="5"/><path d="M16.5,8.4C129.4,54.3,264,164.7,264,346.1a513.243,513.243,0,0,1-17.8,132.8" fill="none" stroke="#a7a9ac" stroke-miterlimit="10" stroke-width="5"/><g opacity="0.1"><path d="M219.7,212.5l-4.1-7.6a2.5,2.5,0,0,1,1-3.4h0a2.5,2.5,0,0,1,3.4,1l4.1,7.6a2.5,2.5,0,0,1-1,3.4h0A2.535,2.535,0,0,1,219.7,212.5Z" fill="#0d65d9"/><path d="M216.7,201.3c-.3-.6.1-1.3.1-1.9a2.276,2.276,0,0,0-.4-1.6c-.9-1.2-2.6-1-2.8-2.9-.1-1.3,0-2.4-.8-3.5s-2.2-1.5-3.1-2.5a3.84,3.84,0,0,1-.9-2.5,4.869,4.869,0,0,0-.1-1.2,5.3,5.3,0,0,0-2.2-2.9c-1.5-1.2-2.9-2.1-3.3-4.2-.3-1.7-.1-3.4-.6-5.2,0-.1-.1-.1-.2-.1s-.1.1-.1.2c.9,3.1-.2,6.3,2.7,8.6,1.4,1.1,3,2,3.4,3.9.2,1.2-.1,2.1.6,3.2.7,1.2,2.1,1.6,3,2.5a3.682,3.682,0,0,1,1.1,2.9,3.333,3.333,0,0,0,.2,1.7c.4,1.2,1.7,1.2,2.5,2,1.1,1.2-.2,2.5.5,3.7.3.1.5,0,.4-.2Z" fill="#ff7400"/></g><g opacity="0.15"><path d="M224.3,210.2l4.3,8.1a2.654,2.654,0,0,1-1.1,3.6h0a2.591,2.591,0,0,1-3.5-1h0l-4.3-8.1a2.654,2.654,0,0,1,1.1-3.6h0a2.53,2.53,0,0,1,3.5,1Z" fill="#0d65d9"/><path d="M221.5,208.7c-.5-1.1-2-1-2.6-2.1-.7-1.3.5-2.8-.6-4.1-1-1.2-2.4-1.6-2.9-3.3-.5-1.6.3-3.3-.5-4.9a4.36,4.36,0,0,0-1.9-1.9c-1.8-1.4-1.5-3.8-1.6-5.8-.2-3.7-3.6-4.9-5.6-7.5-.1-.2-.4,0-.3.2a27.336,27.336,0,0,0,3.5,3.3,5.552,5.552,0,0,1,1.8,2.5,11.233,11.233,0,0,1,.3,3.2,6.494,6.494,0,0,0,1.2,4c.9,1.1,2.2,1.3,2.5,2.9.4,1.5-.2,3.1.4,4.6.6,1.4,1.7,1.8,2.7,2.8,1.2,1.3,0,2.8.6,4.2.5,1.2,2.2,1.2,2.7,2.2a.221.221,0,0,0,.3-.3Z" fill="#ff7400"/></g><g opacity="0.1"><path d="M226.5,226.8l-3.7-7.8a2.409,2.409,0,0,1,1.2-3.3h0a2.409,2.409,0,0,1,3.3,1.2l3.7,7.8a2.409,2.409,0,0,1-1.2,3.3h0A2.437,2.437,0,0,1,226.5,226.8Z" fill="#0d65d9"/><path d="M224.1,215.5c-.3-.6.1-1.3.2-1.9a2.223,2.223,0,0,0-.3-1.6c-.9-1.2-2.6-1.2-2.6-3,0-1.4.1-2.6-.8-3.8-.8-1-2.2-1.6-2.9-2.7-.9-1.2-.3-2.2-.6-3.5a5.456,5.456,0,0,0-2.3-3.3c-1.5-1.2-2.7-2.3-2.9-4.4a40.279,40.279,0,0,0-.3-4.9c0-.2-.3-.1-.3.1.8,3.1-.5,6.3,2.3,8.7,1.3,1.1,2.8,2.1,3.2,4,.2,1.2-.2,2,.4,3.2s2,1.8,2.9,2.7a4.144,4.144,0,0,1,1.1,3,4.854,4.854,0,0,0,0,1.7c.3,1.2,1.4,1.4,2.2,2.1,1.3,1.2-.1,2.5.5,3.8,0,.2.3,0,.2-.2Z" fill="#ff7400"/></g><g opacity="0.2"><path d="M229.7,235.5l-3.1-8.1a2.483,2.483,0,0,1,1.5-3.2h0a2.483,2.483,0,0,1,3.2,1.5l3.1,8.1a2.483,2.483,0,0,1-1.5,3.2h0A2.568,2.568,0,0,1,229.7,235.5Z" fill="#0d65d9"/><path d="M228.3,224c-.4-1,.8-2.1.3-3.3-.6-1.4-2.4-1.5-2.5-3.1-.1-1.3.4-2.3-.2-3.6-.6-1.4-2.1-2-2.9-3.3s-.2-2.3-.3-3.6a5.827,5.827,0,0,0-1.9-3.4c-1.4-1.4-2.5-2.5-2.6-4.6,0-1.7.4-3.3.1-5.1,0-.2-.3-.1-.3.1.5,3.2-1,6.3,1.5,8.8,1.2,1.3,2.8,2.5,2.8,4.4,0,1.1-.4,2,.1,3.1.6,1.2,1.8,1.9,2.7,2.9a3.752,3.752,0,0,1,.7,2.9,8.083,8.083,0,0,0-.1,1.6c.2,1.2,1.2,1.5,2,2.3,1.4,1.4-.3,2.5.2,3.9.2.3.5.2.4,0Z" fill="#ff7400"/></g><g opacity="0.3"><path d="M232.6,243.5l-3.2-8.1a2.581,2.581,0,0,1,1.4-3.3h0a2.581,2.581,0,0,1,3.3,1.4l3.2,8.1a2.581,2.581,0,0,1-1.4,3.3h0A2.508,2.508,0,0,1,232.6,243.5Z" fill="#0d65d9"/><path d="M231.2,232c-.5-1.3-2.4-1.2-2.3-3,0-1.2.8-2.1.1-3.3a9.958,9.958,0,0,0-1-1.1,4.209,4.209,0,0,1-1.4-2.8c-.1-1.6.7-3.1,0-4.6-.4-1-1.4-1.4-1.9-2.3-1-1.8-.3-3.6-.2-5.5.1-3.2-3-4.7-4.4-7.2,0-.1-.1-.1-.2-.1s-.1.1-.1.2h0a12.99,12.99,0,0,0,2.6,3.1,5.82,5.82,0,0,1,1.6,5.3,6.484,6.484,0,0,0,.3,3.9c.5,1.1,1.5,1.6,2,2.6.7,1.7-.3,3.4,0,5.1.2,1.3,1.1,2,1.9,2.9,1.3,1.4-.1,2.6.2,4.1a1.964,1.964,0,0,0,.9,1.3c.5.4,1.2.6,1.4,1.2.3.5.6.4.5.2Z" fill="#ff7400"/></g><g opacity="0.5"><path d="M234.2,250.9l-2.3-8.4a2.508,2.508,0,0,1,1.8-3.1h0a2.508,2.508,0,0,1,3.1,1.8l2.3,8.4a2.508,2.508,0,0,1-1.8,3.1h0A2.678,2.678,0,0,1,234.2,250.9Z" fill="#0d65d9"/><path d="M233.9,239.4c-.2-.7.5-1.5.6-2.2a2.25,2.25,0,0,0-.1-1.4,3.745,3.745,0,0,0-1.2-1.3,2.348,2.348,0,0,1-.7-2.5,4.387,4.387,0,0,0-.4-3.7c-.9-1.4-2.4-2.2-2.5-4-.1-1.1.5-1.9.3-3a7.813,7.813,0,0,0-2.2-3.7,5.429,5.429,0,0,1-1.3-4.9,13.974,13.974,0,0,0,.5-4.1.15.15,0,1,0-.3,0c.2,2.8-1.5,5.6.1,8.2.8,1.3,2.2,2.3,2.7,3.9a3.313,3.313,0,0,1,0,2.4,2.917,2.917,0,0,0-.1,1.6c.2,1.3,1.2,2.1,2,3.1a4.357,4.357,0,0,1,1.1,2.9,11.627,11.627,0,0,1-.4,1.8c-.2,1.5.7,1.9,1.6,2.8,1.2,1.3.3,2,0,3.3a1.1,1.1,0,0,0,0,.8c0,.1.1.1.2.1a.1.1,0,0,0,.1-.1Z" fill="#ff7400"/></g><path d="M236.6,260.9l-1.9-8.5a2.53,2.53,0,0,1,1.9-3h0a2.53,2.53,0,0,1,3,1.9l1.9,8.5a2.53,2.53,0,0,1-1.9,3h0A2.582,2.582,0,0,1,236.6,260.9Z" fill="#0d65d9"/><path d="M236.1,248.8c-.3-1.1.9-2.1.5-3.3-.5-1.6-2.5-1.8-2.2-3.8a5.643,5.643,0,0,0-.1-3.4c-.6-1.3-2-2-2.6-3.3-.7-1.4.1-2.4,0-3.8a6.134,6.134,0,0,0-1.7-3.4c-1.3-1.5-2.3-2.7-2.1-4.8a40.68,40.68,0,0,0,.5-4.9.15.15,0,1,0-.3,0c.2,3-1.5,6.1.7,8.7,1.1,1.4,2.6,2.6,2.7,4.6,0,1.1-.5,1.9-.2,3.1s1.4,2,2.2,3a3.887,3.887,0,0,1,.9,2.9,11.271,11.271,0,0,0-.3,1.8c0,1.3.8,1.7,1.6,2.6,1.2,1.2.4,2.1.1,3.3a1.1,1.1,0,0,0,0,.8c0,.1.1.1.2.1a.31.31,0,0,0,.1-.2Z" fill="#ff7400"/><g opacity="0.1"><path d="M216.8,201.1c-.2,0-.3.1-.5.3h0a2.186,2.186,0,0,0,.5-.3C216.9,201.2,216.9,201.1,216.8,201.1Z" fill="#ff7400"/></g><g opacity="0.1"><path d="M216.9,201.2c-.1,0-.2.1-.3.1a.215.215,0,0,0-.2.2.1.1,0,0,0,.1.1l.2-.2c0-.1.1-.1.2-.2Z" fill="#ff7400"/></g><g opacity="0.1"><path d="M216.4,201.5c.3,0,.4,0,.5-.3,0-.1.2.1.2.2a.548.548,0,0,1-.6.4C216.4,201.8,216.3,201.5,216.4,201.5Z" fill="none" stroke="#ff7400" stroke-linecap="round" stroke-miterlimit="10" stroke-width="0.06"/><path d="M216.4,201.6v-.1" fill="none" stroke="#ff7400" stroke-linecap="round" stroke-miterlimit="10" stroke-width="0.06"/><path d="M216.5,201.8c0-.1-.1-.2-.1-.3" fill="none" stroke="#ff7400" stroke-linecap="round" stroke-miterlimit="10" stroke-width="0.06"/><path d="M216.5,201.8a1.007,1.007,0,0,1-.1-.3" fill="none" stroke="#ff7400" stroke-linecap="round" stroke-miterlimit="10" stroke-width="0.06"/><path d="M216.6,201.8a1.007,1.007,0,0,1-.1-.3" fill="none" stroke="#ff7400" stroke-linecap="round" stroke-miterlimit="10" stroke-width="0.06"/><path d="M216.7,201.8c0-.1-.1-.2-.1-.3" fill="none" stroke="#ff7400" stroke-linecap="round" stroke-miterlimit="10" stroke-width="0.06"/><path d="M216.7,201.8a.349.349,0,0,0-.1-.2" fill="none" stroke="#ff7400" stroke-linecap="round" stroke-miterlimit="10" stroke-width="0.06"/><path d="M216.8,201.7a.349.349,0,0,0-.1-.2" fill="none" stroke="#ff7400" stroke-linecap="round" stroke-miterlimit="10" stroke-width="0.06"/><path d="M216.8,201.7a.349.349,0,0,0-.1-.2" fill="none" stroke="#ff7400" stroke-linecap="round" stroke-miterlimit="10" stroke-width="0.06"/><path d="M216.9,201.6l-.1-.2" fill="none" stroke="#ff7400" stroke-linecap="round" stroke-miterlimit="10" stroke-width="0.06"/><path d="M217,201.6c-.1-.1-.1-.2-.2-.2" fill="none" stroke="#ff7400" stroke-linecap="round" stroke-miterlimit="10" stroke-width="0.06"/><path d="M217,201.6a.215.215,0,0,0-.2-.2" fill="none" stroke="#ff7400" stroke-linecap="round" stroke-miterlimit="10" stroke-width="0.06"/><path d="M217,201.5s-.1-.2-.2-.2" fill="none" stroke="#ff7400" stroke-linecap="round" stroke-miterlimit="10" stroke-width="0.06"/><path d="M217,201.4s-.1-.2-.2-.2" fill="none" stroke="#ff7400" stroke-linecap="round" stroke-miterlimit="10" stroke-width="0.06"/></g><text transform="translate(256.326 201.595)" font-size="30" font-family="Helvetica" style="isolation:isolate">1</text></svg>