<svg class="summary-menu__item-graphic"  xmlns="http://www.w3.org/2000/svg" viewBox="0 0 587.1 312.5"><path d="M504.6,12.3C448.9,143.6,318.7,235.8,167,235.8A365.16,365.16,0,0,1,43.2,214.4" fill="none" stroke="#a7a9ac" stroke-miterlimit="10" stroke-width="5"/><path d="M537.1,27c-50,152.8-173.9,283-369.6,283-54.4,0-104.7-5.9-150.6-16.9" fill="none" stroke="#a7a9ac" stroke-miterlimit="10" stroke-width="5"/><path d="M170.5,255.1l83.3-23.8a25.085,25.085,0,0,1,31,17.2h0a25.085,25.085,0,0,1-17.2,31l-83.3,23.8a25.085,25.085,0,0,1-31-17.2h0A25.085,25.085,0,0,1,170.5,255.1Z" fill="none" stroke="#0d65d9" stroke-miterlimit="10" stroke-width="2.4"/><g opacity="0.1"><path d="M424.7,212.1a37.9,37.9,0,0,0,18.2-7.4c2.9-2.1,4.9-4.8,7.2-7.5,3-3.4,7.1-5.5,11.3-7.1a50.12,50.12,0,0,1,20.6-3.3c12.8.6,25.2,5.3,38.1,4.3,12.5-.9,23.6-7.5,32.9-15.6,4.3-3.7,8.3-7.8,12.6-11.5a98.911,98.911,0,0,1,15.7-11.5,49.7,49.7,0,0,1,5.1-2.7c1.7-.9.2-3.5-1.5-2.6a96.338,96.338,0,0,0-17.1,11.1c-4.6,3.7-8.8,7.7-13.1,11.7-8.7,8.1-18.6,15.5-30.6,17.6-12.7,2.3-25.3-2.2-37.9-3.5a53.334,53.334,0,0,0-19.9,1.3c-5.5,1.5-11.3,3.6-15.8,7.3-2.5,2-4.2,4.8-6.5,7.1a34.092,34.092,0,0,1-13.8,8.2,26.61,26.61,0,0,1-5.6,1.2c-1.8.1-1.8,3.1.1,2.9Z" fill="#ff7400"/></g><path d="M285.4,249.4a13.34,13.34,0,0,0,5.5-2.6,15.1,15.1,0,0,0,1.8-2.6c.6-1,1.2-1.9,1.9-2.9,3-4.4,6.5-8.9,11.1-11.8,9.2-5.9,19.6.7,29,2.6a20.043,20.043,0,0,0,6.9.3,20.784,20.784,0,0,0,6.3-2.3,36.625,36.625,0,0,0,9.3-7.3,61.933,61.933,0,0,1,9.3-8.4,36.886,36.886,0,0,1,16.6-6.5c14.1-1.7,27.5,5.7,41.7,4.2,1.9-.2,1.9-3.2,0-3-12.7,1.3-24.8-4.5-37.5-4.5-11.1,0-21.5,5.3-29.3,13.1-5.5,5.5-11.6,12.5-20.2,11.9-4.9-.4-9.6-2.4-14.3-3.8-4.8-1.4-10-2.4-14.9-.9-5.9,1.8-10.5,6.8-14.1,11.6-1.6,2.2-3.2,4.4-4.6,6.7a5.2,5.2,0,0,1-3.1,2.7c-.7.3-1.4.4-2.1.7a1.445,1.445,0,1,0,.7,2.8Z" fill="#ff7400"/><path d="M284.8,244.9a13.222,13.222,0,0,1,1.6,5.1c0,.3.6.3.5,0a12.988,12.988,0,0,0-1.6-5.4C285.1,244.3,284.6,244.6,284.8,244.9Z" fill="#ff7400"/><path d="M283.7,245.3a18.887,18.887,0,0,1,1.1,2.5,12.588,12.588,0,0,1,.4,2.7.4.4,0,0,0,.8,0,14.455,14.455,0,0,0-.4-2.9c-.3-.9-.7-1.8-1.1-2.7-.4-.4-1.1,0-.8.4Z" fill="#ff7400"/><path d="M285.5,250.6c-1.9-2.1-2.1-2.9-1.3-5.3.2-.6-2.3-.6-2.5-.2a5.175,5.175,0,0,0,1.5,6.8C283.8,252.3,286,251.1,285.5,250.6Z" fill="none" stroke="#ff7400" stroke-linecap="round" stroke-miterlimit="10" stroke-width="0.6"/><path d="M284.9,251.5c.3-.2.7-.4.7-.8" fill="none" stroke="#ff7400" stroke-linecap="round" stroke-miterlimit="10" stroke-width="0.6"/><path d="M282.9,251.6a6.983,6.983,0,0,0,2.4-1.3" fill="none" stroke="#ff7400" stroke-linecap="round" stroke-miterlimit="10" stroke-width="0.6"/><path d="M282.5,251.2c.4-.1,2.3-.8,2.4-1.3" fill="none" stroke="#ff7400" stroke-linecap="round" stroke-miterlimit="10" stroke-width="0.6"/><path d="M282.1,250.7c.4-.1,2.3-.8,2.4-1.2" fill="none" stroke="#ff7400" stroke-linecap="round" stroke-miterlimit="10" stroke-width="0.6"/><path d="M281.7,250.2a11.507,11.507,0,0,0,2.5-1.2" fill="none" stroke="#ff7400" stroke-linecap="round" stroke-miterlimit="10" stroke-width="0.6"/><path d="M281.5,249.6a24.425,24.425,0,0,1,2.4-1" fill="none" stroke="#ff7400" stroke-linecap="round" stroke-miterlimit="10" stroke-width="0.6"/><path d="M281.2,249a11.725,11.725,0,0,1,2.4-.9" fill="none" stroke="#ff7400" stroke-linecap="round" stroke-miterlimit="10" stroke-width="0.6"/><path d="M281.1,248.4a10.434,10.434,0,0,1,2.5-.8" fill="none" stroke="#ff7400" stroke-linecap="round" stroke-miterlimit="10" stroke-width="0.6"/><path d="M281,247.6c.4,0,2.3-.6,2.6-.6" fill="none" stroke="#ff7400" stroke-linecap="round" stroke-miterlimit="10" stroke-width="0.6"/><path d="M281,246.9a26.956,26.956,0,0,1,2.8-.4" fill="none" stroke="#ff7400" stroke-linecap="round" stroke-miterlimit="10" stroke-width="0.6"/><path d="M281.1,246.4a7.017,7.017,0,0,1,2.9-.3" fill="none" stroke="#ff7400" stroke-linecap="round" stroke-miterlimit="10" stroke-width="0.6"/><path d="M281.2,245.8c.5,0,2.4-.5,2.8-.2" fill="none" stroke="#ff7400" stroke-linecap="round" stroke-miterlimit="10" stroke-width="0.6"/><path d="M281.6,245.3c.5,0,2.1-.5,2.6-.1" fill="none" stroke="#ff7400" stroke-linecap="round" stroke-miterlimit="10" stroke-width="0.6"/><text transform="translate(113.953 269.27)" font-size="30" font-family="Helvetica" style="isolation:isolate">2</text></svg>