<svg class="summary-menu__item-graphic" xmlns="http://www.w3.org/2000/svg" viewBox="0 0 587.128 312.52"><path d="M1302.222,671.709C1249.31,809.1,1116.04,906.593,960,906.593a365.631,365.631,0,0,1-134.951-25.637" transform="translate(-793.009 -670.81)" fill="none" stroke="#a7a9ac" stroke-miterlimit="10" stroke-width="5"/><path d="M1334.654,683.224c-46.732,159.008-172.212,297.607-374.1,297.607-60.929,0-116.628-7.435-166.887-21.039" transform="translate(-793.009 -670.81)" fill="none" stroke="#a7a9ac" stroke-miterlimit="10" stroke-width="5"/><rect x="943.675" y="912.997" width="136.874" height="50.205" rx="25.103" transform="translate(-1011.987 -356.264) rotate(-15.964)" fill="none" stroke="#0d65d9" stroke-miterlimit="10" stroke-width="2.4"/><g opacity="0.1"><path d="M1217.711,882.876a38.112,38.112,0,0,0,18.2-7.363c2.854-2.145,4.853-4.849,7.187-7.494,3.034-3.437,7.09-5.5,11.332-7.09a50.768,50.768,0,0,1,20.581-3.343c12.792.61,25.212,5.281,38.109,4.339,12.54-.917,23.6-7.5,32.882-15.593,4.291-3.743,8.333-7.762,12.6-11.528a98.39,98.39,0,0,1,15.714-11.489c1.655-.959,3.343-1.858,5.054-2.714,1.727-.863.21-3.452-1.514-2.59a94.767,94.767,0,0,0-17.147,11.092c-4.552,3.676-8.761,7.738-13.056,11.7-8.719,8.053-18.607,15.488-30.579,17.628-12.7,2.271-25.315-2.178-37.857-3.518a54.124,54.124,0,0,0-19.9,1.251c-5.495,1.486-11.3,3.625-15.774,7.251-2.516,2.041-4.242,4.767-6.462,7.089a33.582,33.582,0,0,1-13.814,8.172,29.419,29.419,0,0,1-5.557,1.2c-1.9.219-1.918,3.222,0,3Z" transform="translate(-793.009 -670.81)" fill="#ff7400"/></g><path d="M1078.376,920.244c1.957-.6,4.013-1.163,5.535-2.622a12.651,12.651,0,0,0,1.782-2.6q.9-1.452,1.855-2.872c2.994-4.444,6.526-8.887,11.1-11.8,9.225-5.872,19.566.713,28.986,2.552a19.454,19.454,0,0,0,6.911.278,22.784,22.784,0,0,0,6.329-2.264,35.425,35.425,0,0,0,9.286-7.314,61.875,61.875,0,0,1,9.293-8.419,38.333,38.333,0,0,1,16.593-6.543c14.117-1.7,27.543,5.68,41.669,4.233,1.9-.195,1.921-3.2,0-3-12.729,1.3-24.813-4.516-37.482-4.475-11.142.036-21.521,5.31-29.28,13.084-5.5,5.506-11.6,12.525-20.212,11.856-4.907-.381-9.623-2.449-14.312-3.8-4.784-1.374-10.037-2.4-14.914-.867-5.9,1.848-10.485,6.8-14.125,11.567a80.4,80.4,0,0,0-4.58,6.744,5.5,5.5,0,0,1-3.085,2.7c-.7.257-1.43.446-2.142.665-1.841.564-1.056,3.46.8,2.892Z" transform="translate(-793.009 -670.81)" fill="#ff7400"/><path d="M1077.807,915.7a12.339,12.339,0,0,1,1.559,5.082c.044.34.585.344.54,0a12.979,12.979,0,0,0-1.633-5.355c-.185-.293-.652-.023-.466.273Z" transform="translate(-793.009 -670.81)" fill="#ff7400"/><path d="M1076.67,916.123a13.569,13.569,0,0,1,1.07,2.5,12.193,12.193,0,0,1,.381,2.682c.027.484.783.487.756,0a13.153,13.153,0,0,0-.408-2.883,14.619,14.619,0,0,0-1.146-2.679c-.223-.433-.876-.051-.653.381Z" transform="translate(-793.009 -670.81)" fill="#ff7400"/><path d="M1078.5,921.387c-1.865-2.053-2.13-2.876-1.293-5.288.209-.6-2.292-.587-2.523-.243a5.237,5.237,0,0,0,1.489,6.833C1076.831,923.124,1078.969,921.906,1078.5,921.387Z" transform="translate(-793.009 -670.81)" fill="none" stroke="#ff7400" stroke-linecap="round" stroke-miterlimit="10" stroke-width="0.6"/><path d="M1077.9,922.274c.331-.214.708-.376.74-.769" transform="translate(-793.009 -670.81)" fill="none" stroke="#ff7400" stroke-linecap="round" stroke-miterlimit="10" stroke-width="0.6"/><path d="M1075.923,922.4a9.916,9.916,0,0,0,2.424-1.259" transform="translate(-793.009 -670.81)" fill="none" stroke="#ff7400" stroke-linecap="round" stroke-miterlimit="10" stroke-width="0.6"/><path d="M1075.531,922c.439-.142,2.3-.818,2.39-1.281" transform="translate(-793.009 -670.81)" fill="none" stroke="#ff7400" stroke-linecap="round" stroke-miterlimit="10" stroke-width="0.6"/><path d="M1075.105,921.537c.44-.1,2.3-.773,2.39-1.236" transform="translate(-793.009 -670.81)" fill="none" stroke="#ff7400" stroke-linecap="round" stroke-miterlimit="10" stroke-width="0.6"/><path d="M1074.74,921.038a8.954,8.954,0,0,0,2.459-1.167" transform="translate(-793.009 -670.81)" fill="none" stroke="#ff7400" stroke-linecap="round" stroke-miterlimit="10" stroke-width="0.6"/><path d="M1074.481,920.438a19.942,19.942,0,0,1,2.421-1" transform="translate(-793.009 -670.81)" fill="none" stroke="#ff7400" stroke-linecap="round" stroke-miterlimit="10" stroke-width="0.6"/><path d="M1074.234,919.785a11.648,11.648,0,0,1,2.425-.909" transform="translate(-793.009 -670.81)" fill="none" stroke="#ff7400" stroke-linecap="round" stroke-miterlimit="10" stroke-width="0.6"/><path d="M1074.115,919.222a11.627,11.627,0,0,1,2.506-.8" transform="translate(-793.009 -670.81)" fill="none" stroke="#ff7400" stroke-linecap="round" stroke-miterlimit="10" stroke-width="0.6"/><path d="M1073.991,918.451c.388-.033,2.253-.645,2.646-.613" transform="translate(-793.009 -670.81)" fill="none" stroke="#ff7400" stroke-linecap="round" stroke-miterlimit="10" stroke-width="0.6"/><path d="M1074,917.735a21.631,21.631,0,0,1,2.8-.366" transform="translate(-793.009 -670.81)" fill="none" stroke="#ff7400" stroke-linecap="round" stroke-miterlimit="10" stroke-width="0.6"/><path d="M1074.081,917.208a6.2,6.2,0,0,1,2.867-.307" transform="translate(-793.009 -670.81)" fill="none" stroke="#ff7400" stroke-linecap="round" stroke-miterlimit="10" stroke-width="0.6"/><path d="M1074.251,916.6c.5.033,2.437-.455,2.782-.224" transform="translate(-793.009 -670.81)" fill="none" stroke="#ff7400" stroke-linecap="round" stroke-miterlimit="10" stroke-width="0.6"/><path d="M1074.569,916.061c.458.026,2.134-.468,2.625-.072" transform="translate(-793.009 -670.81)" fill="none" stroke="#ff7400" stroke-linecap="round" stroke-miterlimit="10" stroke-width="0.6"/><text transform="translate(113.953 269.27)" font-size="30" font-family="Helvetica">2</text></svg>