<svg class="summary-menu__item-graphic" xmlns="http://www.w3.org/2000/svg" viewBox="0 0 485.332 680.178"><path d="M825.049,880.956C689.366,827.207,593.407,694.81,593.407,540a365.676,365.676,0,0,1,24.968-133.25" transform="translate(-340.638 -357.233)" fill="none" stroke="#a7a9ac" stroke-miterlimit="10" stroke-width="5"/><path d="M793.662,959.792c-214.424-58.041-329.816-228.37-329.816-412.649,0-60.077,10.118-125.442,31.568-189.112" transform="translate(-340.638 -357.233)" fill="none" stroke="#a7a9ac" stroke-miterlimit="10" stroke-width="5"/><path d="M607.139,694.854c-45.835-6-58.071-13.609-73.438-53.284-3.842-9.919-35.46,17.24-34.68,24.111,4.337,38.213,47.528,76.256,92.572,70.8C604.681,734.9,618.722,696.371,607.139,694.854Z" transform="translate(-340.638 -357.233)" fill="none" stroke="#ff7400" stroke-linecap="round" stroke-miterlimit="10" stroke-width="9"/><path d="M609.082,712.594c1.9-6.294,4.943-12.41,1.112-17.747,0,0-3.487-10.879-5.5-12.939-6.775-6.948-33.007-22.934-51.221-35.374-1.79-1.223-21.109-6.247-21.109-6.247-10.494.266-26.476,24.614-32.574,29.211" transform="translate(-340.638 -357.233)" fill="none" stroke="#ff7400" stroke-linecap="round" stroke-miterlimit="10" stroke-width="6"/><path d="M585.314,735.466c3.206-6.611,18.781-36.022,17.24-42.128" transform="translate(-340.638 -357.233)" fill="none" stroke="#ff7400" stroke-linecap="round" stroke-miterlimit="10" stroke-width="6"/><path d="M576.064,734.647c4.054-6.535,20.395-35.185,16.56-42.05" transform="translate(-340.638 -357.233)" fill="none" stroke="#ff7400" stroke-linecap="round" stroke-miterlimit="10" stroke-width="6"/><path d="M565.629,733.333c4.56-5.962,20.9-34.612,17.066-41.476" transform="translate(-340.638 -357.233)" fill="none" stroke="#ff7400" stroke-linecap="round" stroke-miterlimit="10" stroke-width="6"/><path d="M555.611,730.911c3.117-5.8,19.461-32.926,18.678-41.325" transform="translate(-340.638 -357.233)" fill="none" stroke="#ff7400" stroke-linecap="round" stroke-miterlimit="10" stroke-width="6"/><path d="M545.854,726.079c1.4-7.818,17.75-33.413,20.029-38.764" transform="translate(-340.638 -357.233)" fill="none" stroke="#ff7400" stroke-linecap="round" stroke-miterlimit="10" stroke-width="6"/><path d="M535.675,720.449c.883-5.217,17.224-33.867,21.033-37.695" transform="translate(-340.638 -357.233)" fill="none" stroke="#ff7400" stroke-linecap="round" stroke-miterlimit="10" stroke-width="6"/><path d="M528.094,714.582c2.337-6.973,15.641-27.979,23.256-37.161" transform="translate(-340.638 -357.233)" fill="none" stroke="#ff7400" stroke-linecap="round" stroke-miterlimit="10" stroke-width="6"/><path d="M518.208,706.111c4.572-4.593,21.678-32.481,27.014-36.312" transform="translate(-340.638 -357.233)" fill="none" stroke="#ff7400" stroke-linecap="round" stroke-miterlimit="10" stroke-width="6"/><path d="M510.55,696.965c5.333-5.359,26.259-32.492,31.6-34.8" transform="translate(-340.638 -357.233)" fill="none" stroke="#ff7400" stroke-linecap="round" stroke-miterlimit="10" stroke-width="6"/><path d="M505.95,689.339c3.037-7.644,24.732-32.488,33.127-34.8" transform="translate(-340.638 -357.233)" fill="none" stroke="#ff7400" stroke-linecap="round" stroke-miterlimit="10" stroke-width="6"/><path d="M501.529,679.754c6.678-4.93,26.077-32.06,32.948-32.84" transform="translate(-340.638 -357.233)" fill="none" stroke="#ff7400" stroke-linecap="round" stroke-miterlimit="10" stroke-width="6"/><path d="M595.578,694.257c.339-3.043,2.572-16.423.4-19.792" transform="translate(-340.638 -357.233)" fill="none" stroke="#ff7400" stroke-linecap="round" stroke-miterlimit="10" stroke-width="4.517" opacity="0.5"/><path d="M600.722,696.189c.339-3.044,2.571-16.423.4-19.793" transform="translate(-340.638 -357.233)" fill="none" stroke="#ff7400" stroke-linecap="round" stroke-miterlimit="10" stroke-width="4.517" opacity="0.5"/><path d="M590.3,692.684c.824-2.9,3.643-15.787.045-19.836" transform="translate(-340.638 -357.233)" fill="none" stroke="#ff7400" stroke-linecap="round" stroke-miterlimit="10" stroke-width="4.517" opacity="0.5"/><path d="M584.262,690.707c1.226-2.538,4.045-15.427.448-19.475" transform="translate(-340.638 -357.233)" fill="none" stroke="#ff7400" stroke-linecap="round" stroke-miterlimit="10" stroke-width="4.517" opacity="0.5"/><path d="M578.215,688.2c.465-2.635,3.616-14.728,1.369-19.2" transform="translate(-340.638 -357.233)" fill="none" stroke="#ff7400" stroke-linecap="round" stroke-miterlimit="10" stroke-width="4.517" opacity="0.5"/><path d="M571.791,684.479c-.916-3.9,2.567-15.193,2.667-17.7" transform="translate(-340.638 -357.233)" fill="none" stroke="#ff7400" stroke-linecap="round" stroke-miterlimit="10" stroke-width="4.517" opacity="0.5"/><path d="M566.051,678.689c-.64-2.606,2.179-15.5,3.452-17.015" transform="translate(-340.638 -357.233)" fill="none" stroke="#ff7400" stroke-linecap="round" stroke-miterlimit="10" stroke-width="4.517" opacity="0.5"/><path d="M559.514,676.292c-.219-3.34,2.578-12.625,4.792-16.461" transform="translate(-340.638 -357.233)" fill="none" stroke="#ff7400" stroke-linecap="round" stroke-miterlimit="10" stroke-width="4.517" opacity="0.5"/><path d="M552.232,670.657c1.528-1.824,4.934-14.221,7.049-15.554" transform="translate(-340.638 -357.233)" fill="none" stroke="#ff7400" stroke-linecap="round" stroke-miterlimit="10" stroke-width="4.517" opacity="0.5"/><path d="M546.033,664.946c1.782-2.128,7.458-13.658,9.9-14.2" transform="translate(-340.638 -357.233)" fill="none" stroke="#ff7400" stroke-linecap="round" stroke-miterlimit="10" stroke-width="4.517" opacity="0.5"/><path d="M541.848,660.406c.023-3.6,6.617-13.846,10.746-14.008" transform="translate(-340.638 -357.233)" fill="none" stroke="#ff7400" stroke-linecap="round" stroke-miterlimit="10" stroke-width="4.517" opacity="0.5"/><path d="M536.619,656.308c2.617-1.738,7.451-13.456,11.071-13.01" transform="translate(-340.638 -357.233)" fill="none" stroke="#ff7400" stroke-linecap="round" stroke-miterlimit="10" stroke-width="4.517" opacity="0.5"/><path d="M586.531,730.449c1.208-5.06,7.674-27.472,5.045-32.506" transform="translate(-340.638 -357.233)" fill="none" stroke="#ff7400" stroke-linecap="round" stroke-miterlimit="10" stroke-width="7.145" opacity="0.5"/><path d="M594.116,732.465c1.208-5.061,7.673-27.473,5.044-32.507" transform="translate(-340.638 -357.233)" fill="none" stroke="#ff7400" stroke-linecap="round" stroke-miterlimit="10" stroke-width="7.145" opacity="0.5"/><path d="M578.658,729.051c1.93-4.932,9.2-26.67,4.5-32.5" transform="translate(-340.638 -357.233)" fill="none" stroke="#ff7400" stroke-linecap="round" stroke-miterlimit="10" stroke-width="7.145" opacity="0.5"/><path d="M569.69,727.16c2.477-4.431,9.747-26.169,5.044-32" transform="translate(-340.638 -357.233)" fill="none" stroke="#ff7400" stroke-linecap="round" stroke-miterlimit="10" stroke-width="7.145" opacity="0.5"/><path d="M560.825,724.411c1.312-4.419,8.922-24.928,6.418-31.746" transform="translate(-340.638 -357.233)" fill="none" stroke="#ff7400" stroke-linecap="round" stroke-miterlimit="10" stroke-width="7.145" opacity="0.5"/><path d="M551.646,719.744c-.558-6.176,7.391-25.457,8.106-29.578" transform="translate(-340.638 -357.233)" fill="none" stroke="#ff7400" stroke-linecap="round" stroke-miterlimit="10" stroke-width="7.145" opacity="0.5"/><path d="M543.993,711.542c-.416-4.126,6.854-25.863,9.178-28.637" transform="translate(-340.638 -357.233)" fill="none" stroke="#ff7400" stroke-linecap="round" stroke-miterlimit="10" stroke-width="7.145" opacity="0.5"/><path d="M534.341,709.076c.4-5.422,6.835-21.254,11.143-28.031" transform="translate(-340.638 -357.233)" fill="none" stroke="#ff7400" stroke-linecap="round" stroke-miterlimit="10" stroke-width="7.145" opacity="0.5"/><path d="M524.251,701.472c2.789-3.329,10.863-24.393,14.456-27.048" transform="translate(-340.638 -357.233)" fill="none" stroke="#ff7400" stroke-linecap="round" stroke-miterlimit="10" stroke-width="7.145" opacity="0.5"/><path d="M515.865,693.5c3.254-3.884,14.671-24.035,18.6-25.461" transform="translate(-340.638 -357.233)" fill="none" stroke="#ff7400" stroke-linecap="round" stroke-miterlimit="10" stroke-width="7.145" opacity="0.5"/><path d="M510.358,687c.839-5.906,13.4-24.154,19.873-25.342" transform="translate(-340.638 -357.233)" fill="none" stroke="#ff7400" stroke-linecap="round" stroke-miterlimit="10" stroke-width="7.145" opacity="0.5"/><path d="M503.124,681.457c4.466-3.432,14.614-23.7,20.156-23.78" transform="translate(-340.638 -357.233)" fill="none" stroke="#ff7400" stroke-linecap="round" stroke-miterlimit="10" stroke-width="7.145" opacity="0.5"/><g opacity="0.03"><path d="M341.876,589.861a442.414,442.414,0,0,1,218.651,72.9h0c130.36,86.11,200.582,229.1,199.529,374.5" transform="translate(-340.638 -357.233)" fill="none" stroke="#0d65d9" stroke-miterlimit="10" stroke-width="42.494"/><g opacity="0.5"><path d="M685.223,605.842q20.778-5.3,41.423-11.091a29.722,29.722,0,0,0,15.873-12.2,19.774,19.774,0,0,0,3.152-9.875,20.125,20.125,0,0,0-.475-10.591l-2.677-6.344a26.687,26.687,0,0,0-9.528-9.528l-6.345-2.677a26.742,26.742,0,0,0-14.12,0q-20.64,5.813-41.424,11.09a29.711,29.711,0,0,0-15.872,12.206,19.76,19.76,0,0,0-3.152,9.874,20.124,20.124,0,0,0,.475,10.591l2.677,6.344a26.687,26.687,0,0,0,9.528,9.528l6.344,2.678a26.746,26.746,0,0,0,14.121,0Z" transform="translate(-340.638 -357.233)" fill="#ff7400"/></g><path d="M591.919,677.569l17.573-25.547c1.99-2.894,4.013-5.76,6.155-8.545l-4.153,5.376A155.7,155.7,0,0,1,639.37,620.98L634,625.133c5.469-4.206,11.227-8.536,17.59-11.289l-6.345,2.677c6.16-2.6,12.743-3.925,19.212-5.5q10.4-2.537,20.771-5.175A29.718,29.718,0,0,0,701.1,593.636a19.759,19.759,0,0,0,3.151-9.874,20.113,20.113,0,0,0-.474-10.591l-2.677-6.344a26.7,26.7,0,0,0-9.528-9.529l-6.345-2.677a26.746,26.746,0,0,0-14.121,0q-10.371,2.641-20.771,5.176c-6.329,1.544-12.756,2.856-18.806,5.332a82.151,82.151,0,0,0-14.024,6.836q-3.893,2.521-7.627,5.275a210.339,210.339,0,0,0-19.576,16c-13.674,12.878-24.19,28.365-34.773,43.751l-9.471,13.771a19.76,19.76,0,0,0-3.152,9.874,27.286,27.286,0,0,0,12.68,26.464l6.344,2.677a26.746,26.746,0,0,0,14.121,0l6.344-2.677a26.7,26.7,0,0,0,9.528-9.529Z" transform="translate(-340.638 -357.233)" fill="#ff7400"/><path d="M627.259,676.911A137.973,137.973,0,0,0,614.5,663.229a204.27,204.27,0,0,0-16.979-13.26,227.144,227.144,0,0,0-30.293-18.638c-6.781-3.45-13.683-6.659-20.58-9.87-2.262-1.053-5.258-.712-6.54,1.715-1.117,2.114-.706,5.415,1.715,6.541,11.294,5.257,22.638,10.5,33.357,16.872,5.126,3.051,10.1,6.352,14.962,9.8q4.3,3.051,8.5,6.23,1.166.876,2.325,1.761l.515.4c-.059-.046-.555-.435-.134-.1.371.3.747.585,1.119.879q1.891,1.5,3.727,3.074a131.73,131.73,0,0,1,14.305,15.04c1.622,1.916,5.113,1.794,6.761,0a4.906,4.906,0,0,0,0-6.761Z" transform="translate(-340.638 -357.233)" fill="#ff7400"/><path d="M616.9,691.237c-9.9-9.847-20.036-19.449-31.188-27.878a162.285,162.285,0,0,0-30.6-18c-7.83-3.575-15.835-6.766-23.892-9.791-3.284-1.233-7.48,1.369-8.233,4.674-.866,3.805,1.159,6.913,4.675,8.233,3.588,1.348,7.163,2.727,10.717,4.162q1.137.46,2.272.927l1.2.5.509.213c1.226.511-1.148-.489-.424-.179,1.52.649,3.037,1.3,4.546,1.976,5.545,2.473,11,5.156,16.278,8.16A148.255,148.255,0,0,1,577,673.464q.86.628,1.709,1.269.427.322.853.647c.122.093.243.188.366.28.58.433-1.443-1.126-.5-.387q1.724,1.35,3.424,2.731,3.553,2.905,6.98,5.965c6.051,5.379,11.861,11.024,17.6,16.733,2.485,2.472,7.015,2.668,9.465,0a6.812,6.812,0,0,0,0-9.465Z" transform="translate(-340.638 -357.233)" fill="#ff7400"/><path d="M528.025,641.608c24.759,42.411,37.25,51.259,82.432,49.962,11.295-.324-2.274,41.825-9.324,43.892-39.205,11.5-94.252-15.126-107.47-61.48C489.823,660.514,521.768,630.89,528.025,641.608Z" transform="translate(-340.638 -357.233)" fill="none" stroke="#ff7400" stroke-linecap="round" stroke-miterlimit="10" stroke-width="10.624"/><path d="M509.853,647.014c5.379-4.456,10.116-9.953,16.92-8.4" transform="translate(-340.638 -357.233)" fill="none" stroke="#ff7400" stroke-linecap="round" stroke-miterlimit="10" stroke-width="10.624"/><path d="M497.248,679.71c5.152-5.862,27.537-33.231,34.151-34.236" transform="translate(-340.638 -357.233)" fill="none" stroke="#ff7400" stroke-linecap="round" stroke-miterlimit="10" stroke-width="10.624"/><path d="M501.861,688.431c4.729-6.662,26.052-34.466,34.354-33.539" transform="translate(-340.638 -357.233)" fill="none" stroke="#ff7400" stroke-linecap="round" stroke-miterlimit="10" stroke-width="10.624"/><path d="M507.446,698.108c3.96-6.921,25.283-34.725,33.584-33.8" transform="translate(-340.638 -357.233)" fill="none" stroke="#ff7400" stroke-linecap="round" stroke-miterlimit="10" stroke-width="10.624"/><path d="M513.945,706.92c4.4-5.443,24.225-32.621,32.772-35.314" transform="translate(-340.638 -357.233)" fill="none" stroke="#ff7400" stroke-linecap="round" stroke-miterlimit="10" stroke-width="10.624"/><path d="M522.7,714.484c7.078-4.594,25.407-31.147,29.708-35.582" transform="translate(-340.638 -357.233)" fill="none" stroke="#ff7400" stroke-linecap="round" stroke-miterlimit="10" stroke-width="10.624"/><path d="M532.4,722.132c4.745-3.014,26.068-30.818,28.246-36.125" transform="translate(-340.638 -357.233)" fill="none" stroke="#ff7400" stroke-linecap="round" stroke-miterlimit="10" stroke-width="10.624"/><path d="M541.271,727.138c5.865-5.16,20.954-26.841,26.808-38.081" transform="translate(-340.638 -357.233)" fill="none" stroke="#ff7400" stroke-linecap="round" stroke-miterlimit="10" stroke-width="10.624"/><path d="M553.639,733.329c2.614-6.368,22.876-34.608,24.429-41.412" transform="translate(-340.638 -357.233)" fill="none" stroke="#ff7400" stroke-linecap="round" stroke-miterlimit="10" stroke-width="10.624"/><path d="M565.75,737.061c3.05-7.43,21-39.1,21.054-45.278" transform="translate(-340.638 -357.233)" fill="none" stroke="#ff7400" stroke-linecap="round" stroke-miterlimit="10" stroke-width="10.624"/><path d="M575.112,738.423c6.234-6.122,21.625-37.6,20.429-46.774" transform="translate(-340.638 -357.233)" fill="none" stroke="#ff7400" stroke-linecap="round" stroke-miterlimit="10" stroke-width="10.624"/><path d="M586.32,738.8c2.076-8.57,20.651-38.743,18.584-45.793" transform="translate(-340.638 -357.233)" fill="none" stroke="#ff7400" stroke-linecap="round" stroke-miterlimit="10" stroke-width="10.624"/><path d="M597.077,736.278c1.989-7.866,19.248-33.546,15.185-43.931" transform="translate(-340.638 -357.233)" fill="none" stroke="#ff7400" stroke-linecap="round" stroke-miterlimit="10" stroke-width="10.624"/></g><text transform="translate(203.636 259.473)" font-size="30" font-family="Helvetica">3</text></svg>