<svg class="summary-menu__item-graphic"  xmlns="http://www.w3.org/2000/svg" viewBox="0 0 485.3 680.2"><path d="M468.5,517C341.3,459.5,252.8,331.5,252.8,182.8A366.767,366.767,0,0,1,271.6,66.6" fill="none" stroke="#a7a9ac" stroke-miterlimit="10" stroke-width="5"/><path d="M428,595.1C229.6,531,123.2,366.9,123.2,189.9c0-54.7,8.4-113.7,26-171.8" fill="none" stroke="#a7a9ac" stroke-miterlimit="10" stroke-width="5"/><path d="M266.5,337.6c-45.8-6-58.1-13.6-73.4-53.3-3.8-9.9-35.5,17.2-34.7,24.1,4.3,38.2,47.5,76.3,92.6,70.8C264,377.7,278.1,339.1,266.5,337.6Z" fill="none" stroke="#ff7400" stroke-linecap="round" stroke-miterlimit="10" stroke-width="9"/><path d="M268.4,355.4c1.9-6.3,4.9-12.4,1.1-17.7,0,0-3.5-10.9-5.5-12.9-6.8-6.9-33-22.9-51.2-35.4-1.8-1.2-21.1-6.2-21.1-6.2-10.5.3-26.5,24.6-32.6,29.2" fill="none" stroke="#ff7400" stroke-linecap="round" stroke-miterlimit="10" stroke-width="6"/><path d="M244.7,378.2c3.2-6.6,18.8-36,17.2-42.1" fill="none" stroke="#ff7400" stroke-linecap="round" stroke-miterlimit="10" stroke-width="6"/><path d="M235.4,377.4c4.1-6.5,20.4-35.2,16.6-42" fill="none" stroke="#ff7400" stroke-linecap="round" stroke-miterlimit="10" stroke-width="6"/><path d="M225,376.1c4.6-6,20.9-34.6,17.1-41.5" fill="none" stroke="#ff7400" stroke-linecap="round" stroke-miterlimit="10" stroke-width="6"/><path d="M215,373.7c3.1-5.8,19.5-32.9,18.7-41.3" fill="none" stroke="#ff7400" stroke-linecap="round" stroke-miterlimit="10" stroke-width="6"/><path d="M205.2,368.8c1.4-7.8,17.8-33.4,20-38.8" fill="none" stroke="#ff7400" stroke-linecap="round" stroke-miterlimit="10" stroke-width="6"/><path d="M195,363.2c.9-5.2,17.2-33.9,21-37.7" fill="none" stroke="#ff7400" stroke-linecap="round" stroke-miterlimit="10" stroke-width="6"/><path d="M187.5,357.3c2.3-7,15.6-28,23.3-37.2" fill="none" stroke="#ff7400" stroke-linecap="round" stroke-miterlimit="10" stroke-width="6"/><path d="M177.6,348.9c4.6-4.6,21.7-32.5,27-36.3" fill="none" stroke="#ff7400" stroke-linecap="round" stroke-miterlimit="10" stroke-width="6"/><path d="M169.9,339.7c5.3-5.4,26.3-32.5,31.6-34.8" fill="none" stroke="#ff7400" stroke-linecap="round" stroke-miterlimit="10" stroke-width="6"/><path d="M165.3,332.1c3-7.6,24.7-32.5,33.1-34.8" fill="none" stroke="#ff7400" stroke-linecap="round" stroke-miterlimit="10" stroke-width="6"/><path d="M160.9,322.5c6.7-4.9,26.1-32.1,32.9-32.8" fill="none" stroke="#ff7400" stroke-linecap="round" stroke-miterlimit="10" stroke-width="6"/><path d="M254.9,337c.3-3,2.6-16.4.4-19.8" fill="none" stroke="#ff7400" stroke-linecap="round" stroke-miterlimit="10" stroke-width="4.517" opacity="0.5" style="isolation:isolate"/><path d="M260.1,339c.3-3,2.6-16.4.4-19.8" fill="none" stroke="#ff7400" stroke-linecap="round" stroke-miterlimit="10" stroke-width="4.517" opacity="0.5" style="isolation:isolate"/><path d="M249.7,335.5c.8-2.9,3.6-15.8,0-19.8" fill="none" stroke="#ff7400" stroke-linecap="round" stroke-miterlimit="10" stroke-width="4.517" opacity="0.5" style="isolation:isolate"/><path d="M243.6,333.5c1.2-2.5,4-15.4.4-19.5" fill="none" stroke="#ff7400" stroke-linecap="round" stroke-miterlimit="10" stroke-width="4.517" opacity="0.5" style="isolation:isolate"/><path d="M237.6,331c.5-2.6,3.6-14.7,1.4-19.2" fill="none" stroke="#ff7400" stroke-linecap="round" stroke-miterlimit="10" stroke-width="4.517" opacity="0.5" style="isolation:isolate"/><path d="M231.2,327.2c-.9-3.9,2.6-15.2,2.7-17.7" fill="none" stroke="#ff7400" stroke-linecap="round" stroke-miterlimit="10" stroke-width="4.517" opacity="0.5" style="isolation:isolate"/><path d="M225.4,321.5c-.6-2.6,2.2-15.5,3.5-17" fill="none" stroke="#ff7400" stroke-linecap="round" stroke-miterlimit="10" stroke-width="4.517" opacity="0.5" style="isolation:isolate"/><path d="M218.9,319.1c-.2-3.3,2.6-12.6,4.8-16.5" fill="none" stroke="#ff7400" stroke-linecap="round" stroke-miterlimit="10" stroke-width="4.517" opacity="0.5" style="isolation:isolate"/><path d="M211.6,313.4c1.5-1.8,4.9-14.2,7-15.6" fill="none" stroke="#ff7400" stroke-linecap="round" stroke-miterlimit="10" stroke-width="4.517" opacity="0.5" style="isolation:isolate"/><path d="M205.4,307.7c1.8-2.1,7.5-13.7,9.9-14.2" fill="none" stroke="#ff7400" stroke-linecap="round" stroke-miterlimit="10" stroke-width="4.517" opacity="0.5" style="isolation:isolate"/><path d="M201.2,303.2c0-3.6,6.6-13.8,10.7-14" fill="none" stroke="#ff7400" stroke-linecap="round" stroke-miterlimit="10" stroke-width="4.517" opacity="0.5" style="isolation:isolate"/><path d="M196,299.1c2.6-1.7,7.5-13.5,11.1-13" fill="none" stroke="#ff7400" stroke-linecap="round" stroke-miterlimit="10" stroke-width="4.517" opacity="0.5" style="isolation:isolate"/><path d="M245.9,373.2c1.2-5.1,7.7-27.5,5-32.5" fill="none" stroke="#ff7400" stroke-linecap="round" stroke-miterlimit="10" stroke-width="7.145" opacity="0.5" style="isolation:isolate"/><path d="M253.5,375.2c1.2-5.1,7.7-27.5,5-32.5" fill="none" stroke="#ff7400" stroke-linecap="round" stroke-miterlimit="10" stroke-width="7.145" opacity="0.5" style="isolation:isolate"/><path d="M238,371.8c1.9-4.9,9.2-26.7,4.5-32.5" fill="none" stroke="#ff7400" stroke-linecap="round" stroke-miterlimit="10" stroke-width="7.145" opacity="0.5" style="isolation:isolate"/><path d="M229.1,369.9c2.5-4.4,9.7-26.2,5-32" fill="none" stroke="#ff7400" stroke-linecap="round" stroke-miterlimit="10" stroke-width="7.145" opacity="0.5" style="isolation:isolate"/><path d="M220.2,367.2c1.3-4.4,8.9-24.9,6.4-31.7" fill="none" stroke="#ff7400" stroke-linecap="round" stroke-miterlimit="10" stroke-width="7.145" opacity="0.5" style="isolation:isolate"/><path d="M211,362.5c-.6-6.2,7.4-25.5,8.1-29.6" fill="none" stroke="#ff7400" stroke-linecap="round" stroke-miterlimit="10" stroke-width="7.145" opacity="0.5" style="isolation:isolate"/><path d="M203.4,354.3c-.4-4.1,6.9-25.9,9.2-28.6" fill="none" stroke="#ff7400" stroke-linecap="round" stroke-miterlimit="10" stroke-width="7.145" opacity="0.5" style="isolation:isolate"/><path d="M193.7,351.8c.4-5.4,6.8-21.3,11.1-28" fill="none" stroke="#ff7400" stroke-linecap="round" stroke-miterlimit="10" stroke-width="7.145" opacity="0.5" style="isolation:isolate"/><path d="M183.6,344.2c2.8-3.3,10.9-24.4,14.5-27" fill="none" stroke="#ff7400" stroke-linecap="round" stroke-miterlimit="10" stroke-width="7.145" opacity="0.5" style="isolation:isolate"/><path d="M175.2,336.3c3.3-3.9,14.7-24,18.6-25.5" fill="none" stroke="#ff7400" stroke-linecap="round" stroke-miterlimit="10" stroke-width="7.145" opacity="0.5" style="isolation:isolate"/><path d="M169.7,329.8c.8-5.9,13.4-24.2,19.9-25.3" fill="none" stroke="#ff7400" stroke-linecap="round" stroke-miterlimit="10" stroke-width="7.145" opacity="0.5" style="isolation:isolate"/><path d="M162.5,324.2c4.5-3.4,14.6-23.7,20.2-23.8" fill="none" stroke="#ff7400" stroke-linecap="round" stroke-miterlimit="10" stroke-width="7.145" opacity="0.5" style="isolation:isolate"/><g opacity="0.03"><path d="M1.2,232.6a443.23,443.23,0,0,1,218.7,72.9h0C350.2,391.6,420.5,534.6,419.4,680" fill="none" stroke="#0d65d9" stroke-miterlimit="10" stroke-width="42.494"/><g opacity="0.5"><path d="M344.6,248.6q20.85-5.25,41.4-11.1a29.724,29.724,0,0,0,15.9-12.2,20.7,20.7,0,0,0,3.2-9.9,20.086,20.086,0,0,0-.5-10.6l-2.7-6.3a27.014,27.014,0,0,0-9.5-9.5l-6.3-2.7a25.976,25.976,0,0,0-14.1,0q-20.7,5.85-41.4,11.1a29.724,29.724,0,0,0-15.9,12.2,20.7,20.7,0,0,0-3.2,9.9,20.086,20.086,0,0,0,.5,10.6l2.7,6.3a27.014,27.014,0,0,0,9.5,9.5l6.3,2.7a25.976,25.976,0,0,0,14.1,0Z" fill="#ff7400"/></g><path d="M251.3,320.3l17.6-25.5c2-2.9,4-5.8,6.2-8.5l-4.2,5.4a156.77,156.77,0,0,1,27.9-27.9l-5.4,4.2c5.5-4.2,11.2-8.5,17.6-11.3l-6.3,2.7c6.2-2.6,12.7-3.9,19.2-5.5,6.9-1.7,13.9-3.4,20.8-5.2a29.724,29.724,0,0,0,15.9-12.2,20.7,20.7,0,0,0,3.2-9.9,20.086,20.086,0,0,0-.5-10.6l-2.7-6.3a27.014,27.014,0,0,0-9.5-9.5l-6.3-2.7a25.976,25.976,0,0,0-14.1,0c-6.9,1.8-13.8,3.5-20.8,5.2-6.3,1.5-12.8,2.9-18.8,5.3a78.739,78.739,0,0,0-14,6.8c-2.6,1.7-5.1,3.4-7.6,5.3a213.754,213.754,0,0,0-19.6,16c-13.7,12.9-24.2,28.4-34.8,43.8l-9.5,13.8a20.7,20.7,0,0,0-3.2,9.9,27.375,27.375,0,0,0,12.7,26.5l6.3,2.7a25.976,25.976,0,0,0,14.1,0l6.3-2.7a28.729,28.729,0,0,0,9.5-9.8Z" fill="#ff7400"/><path d="M286.6,319.7A137.553,137.553,0,0,0,273.8,306c-5.4-4.7-11.1-9.1-17-13.3a223.676,223.676,0,0,0-30.3-18.6c-6.8-3.5-13.7-6.7-20.6-9.9-2.3-1.1-5.3-.7-6.5,1.7-1.1,2.1-.7,5.4,1.7,6.5,11.3,5.3,22.6,10.5,33.4,16.9,5.1,3.1,10.1,6.4,15,9.8,2.9,2,5.7,4.1,8.5,6.2.8.6,1.6,1.2,2.3,1.8l.5.4c-.1,0-.6-.4-.1-.1.4.3.7.6,1.1.9,1.3,1,2.5,2,3.7,3.1a135,135,0,0,1,14.3,15c1.6,1.9,5.1,1.8,6.8,0a4.831,4.831,0,0,0,0-6.7Z" fill="#ff7400"/><path d="M276.3,334c-9.9-9.8-20-19.4-31.2-27.9a164.885,164.885,0,0,0-30.6-18c-7.8-3.6-15.8-6.8-23.9-9.8-3.3-1.2-7.5,1.4-8.2,4.7-.9,3.8,1.2,6.9,4.7,8.2,3.6,1.3,7.2,2.7,10.7,4.2.8.3,1.5.6,2.3.9l1.2.5.5.2c1.2.5-1.1-.5-.4-.2,1.5.6,3,1.3,4.5,2,5.5,2.5,11,5.2,16.3,8.2a149.9,149.9,0,0,1,14.2,9.2,19.225,19.225,0,0,1,1.7,1.3l.9.6a1.38,1.38,0,0,0,.4.3c.6.4-1.4-1.1-.5-.4,1.1.9,2.3,1.8,3.4,2.7,2.4,1.9,4.7,3.9,7,6,6.1,5.4,11.9,11,17.6,16.7a6.76,6.76,0,0,0,9.5,0,6.931,6.931,0,0,0-.1-9.4Z" fill="#ff7400"/><path d="M187.4,284.4c24.8,42.4,37.2,51.3,82.4,50,11.3-.3-2.3,41.8-9.3,43.9-39.2,11.5-94.3-15.1-107.5-61.5C149.2,303.3,181.1,273.7,187.4,284.4Z" fill="none" stroke="#ff7400" stroke-linecap="round" stroke-miterlimit="10" stroke-width="10.624"/><path d="M169.2,289.8c5.4-4.5,10.1-10,16.9-8.4" fill="none" stroke="#ff7400" stroke-linecap="round" stroke-miterlimit="10" stroke-width="10.624"/><path d="M156.6,322.5c5.2-5.9,27.5-33.2,34.2-34.2" fill="none" stroke="#ff7400" stroke-linecap="round" stroke-miterlimit="10" stroke-width="10.624"/><path d="M161.2,331.2c4.7-6.7,26.1-34.5,34.4-33.5" fill="none" stroke="#ff7400" stroke-linecap="round" stroke-miterlimit="10" stroke-width="10.624"/><path d="M166.8,340.9c4-6.9,25.3-34.7,33.6-33.8" fill="none" stroke="#ff7400" stroke-linecap="round" stroke-miterlimit="10" stroke-width="10.624"/><path d="M173.3,349.7c4.4-5.4,24.2-32.6,32.8-35.3" fill="none" stroke="#ff7400" stroke-linecap="round" stroke-miterlimit="10" stroke-width="10.624"/><path d="M182.1,357.3c7.1-4.6,25.4-31.1,29.7-35.6" fill="none" stroke="#ff7400" stroke-linecap="round" stroke-miterlimit="10" stroke-width="10.624"/><path d="M191.8,364.9c4.7-3,26.1-30.8,28.2-36.1" fill="none" stroke="#ff7400" stroke-linecap="round" stroke-miterlimit="10" stroke-width="10.624"/><path d="M200.6,369.9c5.9-5.2,21-26.8,26.8-38.1" fill="none" stroke="#ff7400" stroke-linecap="round" stroke-miterlimit="10" stroke-width="10.624"/><path d="M213,376.1c2.6-6.4,22.9-34.6,24.4-41.4" fill="none" stroke="#ff7400" stroke-linecap="round" stroke-miterlimit="10" stroke-width="10.624"/><path d="M225.1,379.8c3-7.4,21-39.1,21.1-45.3" fill="none" stroke="#ff7400" stroke-linecap="round" stroke-miterlimit="10" stroke-width="10.624"/><path d="M234.5,381.2c6.2-6.1,21.6-37.6,20.4-46.8" fill="none" stroke="#ff7400" stroke-linecap="round" stroke-miterlimit="10" stroke-width="10.624"/><path d="M245.7,381.6c2.1-8.6,20.7-38.7,18.6-45.8" fill="none" stroke="#ff7400" stroke-linecap="round" stroke-miterlimit="10" stroke-width="10.624"/><path d="M256.4,379c2-7.9,19.2-33.5,15.2-43.9" fill="none" stroke="#ff7400" stroke-linecap="round" stroke-miterlimit="10" stroke-width="10.624"/></g><text transform="translate(203.636 259.473)" font-size="30" font-family="Helvetica" style="isolation:isolate">3</text></svg>