<svg class="summary-menu__item-graphic"  xmlns="http://www.w3.org/2000/svg" viewBox="0 0 601.1 426.2"><path d="M133,390.5c57.7-126.9,185.5-215.1,334-215.1A368.763,368.763,0,0,1,576.4,192" fill="none" stroke="#a7a9ac" stroke-miterlimit="10" stroke-width="5"/><path d="M9.9,339C74,169.9,220.3,18.4,471.9,18.4c0,0,20,153.5,80.2,166.3,8,1.7,15.9,3.7,23.8,6" fill="none" stroke="#a7a9ac" stroke-miterlimit="10" stroke-width="5"/><g opacity="0.03"><path d="M372.5,245.5C293.9,211.1,253.4,152.1,206.8,32,188.4-15.7,36.3,114.9,40.1,147.9,50.9,243.4,112.2,338.7,199,404.5" fill="none" stroke="#ff7400" stroke-linecap="round" stroke-miterlimit="10" stroke-width="43.275"/><path d="M200.4,25.8C150,27.1,73.1,144.2,43.8,166.3" fill="none" stroke="#ff7400" stroke-linecap="round" stroke-miterlimit="10" stroke-width="28.85"/><path d="M301.9,55.9c-8.6-5.9-101.5-30-101.5-30" fill="none" stroke="#ff7400" stroke-linecap="round" stroke-miterlimit="10" stroke-width="28.85"/><path d="M216.3,411.3c4.2-25.1,102.1-153.6,120.4-172" fill="none" stroke="#ff7400" stroke-linecap="round" stroke-miterlimit="10" stroke-width="28.85"/><path d="M179.9,383.1c11.2-33.5,75.2-134.5,111.8-178.7" fill="none" stroke="#ff7400" stroke-linecap="round" stroke-miterlimit="10" stroke-width="28.85"/><path d="M132.4,342.3c22-22.1,104.2-156.2,129.9-174.6" fill="none" stroke="#ff7400" stroke-linecap="round" stroke-miterlimit="10" stroke-width="28.85"/><path d="M95.5,298.4c25.6-25.8,126.3-156.2,151.9-167.3" fill="none" stroke="#ff7400" stroke-linecap="round" stroke-miterlimit="10" stroke-width="28.85"/><path d="M73.4,261.7C88,224.9,192.3,105.5,232.7,94.4" fill="none" stroke="#ff7400" stroke-linecap="round" stroke-miterlimit="10" stroke-width="28.85"/><path d="M52.2,215.6C84.3,191.9,177.5,61.4,210.6,57.7" fill="none" stroke="#ff7400" stroke-linecap="round" stroke-miterlimit="10" stroke-width="28.85"/></g><circle cx="216.4" cy="149.6" r="12.9" fill="#ff7400" opacity="0.7" style="isolation:isolate"/><circle cx="240" cy="155.6" r="12.9" fill="#ff7400"/><circle cx="229.7" cy="177.7" r="12.9" fill="#ff7400"/><circle cx="208.2" cy="183.7" r="12.9" fill="#ff7400"/><circle cx="199.4" cy="163.7" r="12.9" fill="#ff7400" opacity="0.8" style="isolation:isolate"/><circle cx="233.4" cy="134.1" r="12.9" fill="#ff7400"/><circle cx="221.3" cy="164.4" r="12.9" fill="#ff7400" opacity="0.9" style="isolation:isolate"/><circle cx="251.867" cy="175.491" r="12.9" fill="#ff7400" opacity="0.9" style="isolation:isolate"/><circle cx="225.3" cy="200.7" r="12.9" fill="#ff7400" opacity="0.9" style="isolation:isolate"/><circle cx="246.66" cy="194.737" r="12.9" transform="translate(-16.087 367.154) rotate(-71.564)" fill="#ff7400"/><circle cx="260.004" cy="158.517" r="12.9" fill="#ff7400"/><circle cx="185.3" cy="179.2" r="12.9" fill="#ff7400"/><circle cx="168.3" cy="191.8" r="12.9" fill="#ff7400"/><circle cx="192.7" cy="199.2" r="12.9" fill="#ff7400" opacity="0.9" style="isolation:isolate"/><circle cx="192" cy="144.5" r="12.9" fill="#ff7400" opacity="0.7" style="isolation:isolate"/><text transform="translate(290.577 140.884)" font-size="30" font-family="Helvetica" style="isolation:isolate">4</text></svg>