<svg class="summary-menu__item-graphic" xmlns="http://www.w3.org/2000/svg" viewBox="0 0 601.114 426.162"><path d="M618.375,406.75C671.688,270.169,804.544,173.407,960,173.407a365.676,365.676,0,0,1,133.25,24.968" transform="translate(-493.045 2.002)" fill="none" stroke="#a7a9ac" stroke-miterlimit="10" stroke-width="5"/><path d="M495.414,358.031C555.182,180.622,702.934,16.374,964.945,16.374c0,0,19.982,153.5,80.22,166.275a358.752,358.752,0,0,1,47.089,13.612" transform="translate(-493.045 2.002)" fill="none" stroke="#a7a9ac" stroke-miterlimit="10" stroke-width="5"/><g opacity="0.03"><path d="M865.58,243.494C786.952,209.068,746.4,150.078,699.893,30c-18.472-47.693-170.5,82.9-166.752,115.936,10.839,95.5,72.149,190.781,158.948,256.591" transform="translate(-493.045 2.002)" fill="none" stroke="#ff7400" stroke-linecap="round" stroke-miterlimit="10" stroke-width="43.275"/><path d="M693.484,23.825c-50.457,1.278-127.3,118.356-156.628,140.457" transform="translate(-493.045 2.002)" fill="none" stroke="#ff7400" stroke-linecap="round" stroke-miterlimit="10" stroke-width="28.85"/><path d="M794.987,53.863c-8.609-5.88-101.5-30.038-101.5-30.038" transform="translate(-493.045 2.002)" fill="none" stroke="#ff7400" stroke-linecap="round" stroke-miterlimit="10" stroke-width="28.85"/><path d="M998.078,189.333" transform="translate(-493.045 2.002)" fill="none" stroke="#ff7400" stroke-linecap="round" stroke-miterlimit="10" stroke-width="28.85"/><path d="M1030.965,278.914" transform="translate(-493.045 2.002)" fill="none" stroke="#ff7400" stroke-linecap="round" stroke-miterlimit="10" stroke-width="28.85"/><path d="M948.071,481.481" transform="translate(-493.045 2.002)" fill="none" stroke="#ff7400" stroke-linecap="round" stroke-miterlimit="10" stroke-width="28.85"/><path d="M903.592,477.543" transform="translate(-493.045 2.002)" fill="none" stroke="#ff7400" stroke-linecap="round" stroke-miterlimit="10" stroke-width="28.85"/><path d="M853.415,471.227" transform="translate(-493.045 2.002)" fill="none" stroke="#ff7400" stroke-linecap="round" stroke-miterlimit="10" stroke-width="28.85"/><path d="M854.638,249.954" transform="translate(-493.045 2.002)" fill="none" stroke="#ff7400" stroke-linecap="round" stroke-miterlimit="10" stroke-width="28.85"/><path d="M758.332,436.348" transform="translate(-493.045 2.002)" fill="none" stroke="#ff7400" stroke-linecap="round" stroke-miterlimit="10" stroke-width="28.85"/><path d="M709.386,409.276c4.247-25.087,102.077-153.62,120.394-172.023" transform="translate(-493.045 2.002)" fill="none" stroke="#ff7400" stroke-linecap="round" stroke-miterlimit="10" stroke-width="28.85"/><path d="M672.936,381.064c11.234-33.526,75.2-134.532,111.821-178.683" transform="translate(-493.045 2.002)" fill="none" stroke="#ff7400" stroke-linecap="round" stroke-miterlimit="10" stroke-width="28.85"/><path d="M625.4,340.332c21.98-22.084,104.232-156.181,129.893-174.6" transform="translate(-493.045 2.002)" fill="none" stroke="#ff7400" stroke-linecap="round" stroke-miterlimit="10" stroke-width="28.85"/><path d="M588.576,296.354C614.22,270.59,714.841,140.121,740.519,129.045" transform="translate(-493.045 2.002)" fill="none" stroke="#ff7400" stroke-linecap="round" stroke-miterlimit="10" stroke-width="28.85"/><path d="M566.458,259.686c14.6-36.755,118.92-156.216,159.287-167.327" transform="translate(-493.045 2.002)" fill="none" stroke="#ff7400" stroke-linecap="round" stroke-miterlimit="10" stroke-width="28.85"/><path d="M545.2,213.6c32.11-23.705,125.387-154.156,158.427-157.9" transform="translate(-493.045 2.002)" fill="none" stroke="#ff7400" stroke-linecap="round" stroke-miterlimit="10" stroke-width="28.85"/></g><path d="M999.356,188.165" transform="translate(-493.045 2.002)" fill="none" stroke="#ff7400" stroke-linecap="round" stroke-miterlimit="10" stroke-width="21.718" opacity="0.1"/><path d="M1024.09,197.452" transform="translate(-493.045 2.002)" fill="none" stroke="#ff7400" stroke-linecap="round" stroke-miterlimit="10" stroke-width="21.718" opacity="0.1"/><path d="M1022.156,292.624" transform="translate(-493.045 2.002)" fill="none" stroke="#ff7400" stroke-linecap="round" stroke-miterlimit="10" stroke-width="21.718" opacity="0.1"/><path d="M806.817,74.139" transform="translate(-493.045 2.002)" fill="none" stroke="#ff7400" stroke-linecap="round" stroke-miterlimit="10" stroke-width="21.718" opacity="0.1"/><path d="M759.19,142.4" transform="translate(-493.045 2.002)" fill="none" stroke="#ff7400" stroke-linecap="round" stroke-miterlimit="10" stroke-width="21.718" opacity="0.1"/><path d="M790.742,53.21" transform="translate(-493.045 2.002)" fill="none" stroke="#ff7400" stroke-linecap="round" stroke-miterlimit="10" stroke-width="21.718" opacity="0.1"/><path d="M739.07,120.567" transform="translate(-493.045 2.002)" fill="none" stroke="#ff7400" stroke-linecap="round" stroke-miterlimit="10" stroke-width="21.718" opacity="0.1"/><path d="M1014.649,310.745" transform="translate(-493.045 2.002)" fill="none" stroke="#ff7400" stroke-linecap="round" stroke-miterlimit="10" stroke-width="34.356" opacity="0.1"/><path d="M793.514,228.748" transform="translate(-493.045 2.002)" fill="none" stroke="#ff7400" stroke-linecap="round" stroke-miterlimit="10" stroke-width="34.356" opacity="0.1"/><path d="M749.385,366.449" transform="translate(-493.045 2.002)" fill="none" stroke="#ff7400" stroke-linecap="round" stroke-miterlimit="10" stroke-width="34.356" opacity="0.1"/><path d="M756.552,219.808" transform="translate(-493.045 2.002)" fill="none" stroke="#ff7400" stroke-linecap="round" stroke-miterlimit="10" stroke-width="34.356" opacity="0.1"/><path d="M702.971,354.589" transform="translate(-493.045 2.002)" fill="none" stroke="#ff7400" stroke-linecap="round" stroke-miterlimit="10" stroke-width="34.356" opacity="0.1"/><path d="M723.967,187.972" transform="translate(-493.045 2.002)" fill="none" stroke="#ff7400" stroke-linecap="round" stroke-miterlimit="10" stroke-width="34.356" opacity="0.1"/><path d="M654.457,318.025" transform="translate(-493.045 2.002)" fill="none" stroke="#ff7400" stroke-linecap="round" stroke-miterlimit="10" stroke-width="34.356" opacity="0.1"/><path d="M703.589,157.282" transform="translate(-493.045 2.002)" fill="none" stroke="#ff7400" stroke-linecap="round" stroke-miterlimit="10" stroke-width="34.356" opacity="0.1"/><path d="M614.134,279.707" transform="translate(-493.045 2.002)" fill="none" stroke="#ff7400" stroke-linecap="round" stroke-miterlimit="10" stroke-width="34.356" opacity="0.1"/><circle cx="216.378" cy="149.636" r="12.941" fill="#ff7400" opacity="0.7"/><circle cx="240.042" cy="155.552" r="12.941" fill="#ff7400"/><circle cx="229.689" cy="177.738" r="12.941" fill="#ff7400"/><circle cx="208.243" cy="183.654" r="12.941" fill="#ff7400"/><circle cx="199.369" cy="163.687" r="12.941" fill="#ff7400" opacity="0.8"/><circle cx="233.387" cy="134.106" r="12.941" fill="#ff7400"/><circle cx="221.3" cy="164.426" r="12.941" fill="#ff7400" opacity="0.9"/><circle cx="251.875" cy="175.519" r="12.941" fill="#ff7400" opacity="0.9"/><circle cx="225.252" cy="200.662" r="12.941" fill="#ff7400" opacity="0.9"/><circle cx="246.698" cy="194.746" r="12.941" fill="#ff7400"/><circle cx="260.009" cy="158.51" r="12.941" fill="#ff7400"/><circle cx="185.318" cy="179.217" r="12.941" fill="#ff7400"/><circle cx="168.31" cy="191.788" r="12.941" fill="#ff7400"/><circle cx="192.714" cy="199.183" r="12.941" fill="#ff7400" opacity="0.9"/><circle cx="191.974" cy="144.459" r="12.941" fill="#ff7400" opacity="0.7"/><text transform="translate(290.577 140.884)" font-size="30" font-family="Helvetica">4</text></svg>