<svg class="summary-menu__item-graphic" xmlns="http://www.w3.org/2000/svg" viewBox="0 0 195.04 330.02"><path d="M1391.09,554.4a393.77,393.77,0,0,1-110.38,273.93" transform="translate(-1270.97 -554.4)" fill="none" stroke="#3d84e1" stroke-miterlimit="10" stroke-width="4"/><path d="M1357.49,672.45" transform="translate(-1270.97 -554.4)" fill="none" stroke="#0d65d9" stroke-miterlimit="10" stroke-width="4"/><path d="M1361.09,670.29c0-12.22-20-24.91-32.92-15.91-5,3.48-8.85,17-6.08,22.55,4.84,9.67,18.51,10.07,26.4,7.2,3.22-1.17,9.8-4.31,11.24-6.33" transform="translate(-1270.97 -554.4)" fill="none" stroke="#0d65d9" stroke-miterlimit="10" stroke-width="4"/><path d="M1390.7,840c-30.52,7.69-45.57-21.75-31.87-41.13C1389.49,779.37,1405.33,818.25,1390.7,840Z" transform="translate(-1270.97 -554.4)" fill="none" stroke="#6ea3e8" stroke-miterlimit="10" stroke-width="4"/><path d="M1408.28,876.61c-16.37,17.69-39.88-9.24-27-24.11C1395.6,832.53,1422.43,861,1408.28,876.61Z" transform="translate(-1270.97 -554.4)" fill="none" stroke="#6ea3e8" stroke-miterlimit="10" stroke-width="4"/><path d="M1455.1,782.87c-8,2.38-14.51-3.9-20.43-9.1-28.32,9.87-47.36,11.83-50.33-19.63,1.12-24.33,38.28-18.46,45.4.21,9.49,17,22.79-4.51,31.8,8.36C1466.62,770,1463.58,780.33,1455.1,782.87Z" transform="translate(-1270.97 -554.4)" fill="none" stroke="#6ea3e8" stroke-miterlimit="10" stroke-width="4"/><path d="M1448.9,682.06c-19.09,28.08-52.51,5.2-43.71-21C1415,637,1456.24,658.77,1448.9,682.06Z" transform="translate(-1270.97 -554.4)" fill="none" stroke="#6ea3e8" stroke-miterlimit="10" stroke-width="4"/><path d="M1398.45,613.45c-1,10.12-2.07,17.8-1.62,24.58,2.46,23.67-21.49,48.53-20,75.78.2,25,5.09,19.36-13,34.82-18.77,9.8-7.32,27.17-8.41,42.46-33.77-1.08-48.51,26-62.34,41.35" transform="translate(-1270.97 -554.4)" fill="none" stroke="#6ea3e8" stroke-miterlimit="10" stroke-width="4"/><path d="M1359.16,678.22a383.5,383.5,0,0,1-86.75,142.13" transform="translate(-1270.97 -554.4)" fill="none" stroke="#0d65d9" stroke-miterlimit="10" stroke-width="4"/><path d="M1361.64,670.67" transform="translate(-1270.97 -554.4)" fill="none" stroke="#0d65d9" stroke-miterlimit="10" stroke-width="4"/><path d="M1379.58,554.4a387.79,387.79,0,0,1-17.94,117" transform="translate(-1270.97 -554.4)" fill="none" stroke="#0d65d9" stroke-miterlimit="10" stroke-width="4"/><text transform="translate(55 288)" font-size="30" font-family="Helvetica">4</text><path d="M1402.94,554.4a410.54,410.54,0,0,1-4.28,59.25" transform="translate(-1270.97 -554.4)" fill="none" stroke="#6ea3e8" stroke-miterlimit="10" stroke-width="4"/></svg>