<svg class="summary-menu__item-graphic" xmlns="http://www.w3.org/2000/svg" viewBox="0 0 303.48 202.23"><path d="M1259.11,849.93A393.94,393.94,0,0,1,974.4,971.09" transform="translate(-974.4 -840.57)" fill="none" stroke="#3d84e1" stroke-miterlimit="10" stroke-width="4"/><path d="M1267.65,858.15A405.76,405.76,0,0,1,974.4,982.94" transform="translate(-974.4 -840.57)" fill="none" stroke="#6ea3e8" stroke-miterlimit="10" stroke-width="4"/><path d="M1276.44,866.62q-2.07,2.16-4.19,4.29" transform="translate(-974.4 -840.57)" fill="none" stroke="#9ec1f0" stroke-miterlimit="10" stroke-width="4"/><path d="M1263.66,879.35A417.72,417.72,0,0,1,986.43,995" transform="translate(-974.4 -840.57)" fill="none" stroke="#9ec1f0" stroke-miterlimit="10" stroke-width="4" stroke-dasharray="12.05 12.05"/><path d="M980.4,995.11q-3,0-6,0" transform="translate(-974.4 -840.57)" fill="none" stroke="#9ec1f0" stroke-miterlimit="10" stroke-width="4"/><path d="M1250.81,842A382.46,382.46,0,0,1,974.4,959.58" transform="translate(-974.4 -840.57)" fill="none" stroke="#0d65d9" stroke-miterlimit="10" stroke-width="4"/><text transform="translate(7.75 187.8)" font-size="30" font-family="Helvetica">5</text></svg>