<svg class="summary-menu__item-graphic" xmlns="http://www.w3.org/2000/svg" viewBox="0 0 303.48 156.58"><defs><style>.cls-1,.cls-2,.cls-3,.cls-4,.cls-5{fill:none;stroke-miterlimit:10;stroke-width:4px;}.cls-1{stroke:#3d84e1;}.cls-2{stroke:#6ea3e8;}.cls-3,.cls-4{stroke:#9ec1f0;}.cls-4{stroke-dasharray:12.05 12.05;}.cls-5{stroke:#0d65d9;}</style></defs><g id="Layer_5" data-name="Layer 5"><path class="cls-1" d="M1259.11,849.93A393.94,393.94,0,0,1,974.4,971.09" transform="translate(-974.4 -840.57)"/><path class="cls-2" d="M1272.23,853.3q-2.26,2.44-4.58,4.85A405.76,405.76,0,0,1,974.4,982.94" transform="translate(-974.4 -840.57)"/><path class="cls-3" d="M1276.44,866.62q-2.07,2.16-4.19,4.29" transform="translate(-974.4 -840.57)"/><path class="cls-4" d="M1263.66,879.35A417.72,417.72,0,0,1,986.43,995" transform="translate(-974.4 -840.57)"/><path class="cls-3" d="M980.4,995.11q-3,0-6,0" transform="translate(-974.4 -840.57)"/><path class="cls-5" d="M1250.81,842A382.46,382.46,0,0,1,974.4,959.58" transform="translate(-974.4 -840.57)"/></g></svg>