<svg class="summary-menu__item-graphic" xmlns="http://www.w3.org/2000/svg" viewBox="0 0 272.38 135.98"><g><path d="M945.6,971.09A393.73,393.73,0,0,1,674.82,863.71" transform="translate(-673.22 -853.87)" fill="none" stroke="#9ec1f0" stroke-miterlimit="10" stroke-width="4"/><path d="M730,930.21c7-23.66-3.26-24.5-19.11-14.35" transform="translate(-673.22 -853.87)" fill="none" stroke="#9ec1f0" stroke-miterlimit="10" stroke-width="4"/><path d="M751.55,941c4-24.33-6.22-23.92-20.72-11.9" transform="translate(-673.22 -853.87)" fill="none" stroke="#9ec1f0" stroke-miterlimit="10" stroke-width="4"/><path d="M710.86,916.28c8.21-23.26-2-24.64-18.33-15.32" transform="translate(-673.22 -853.87)" fill="none" stroke="#9ec1f0" stroke-miterlimit="10" stroke-width="4"/><path d="M691.94,902.85c9-23-1.11-24.7-17.79-16" transform="translate(-673.22 -853.87)" fill="none" stroke="#9ec1f0" stroke-miterlimit="10" stroke-width="4"/><path d="M945.6,959.58A382.25,382.25,0,0,1,682.71,855.33" transform="translate(-673.22 -853.87)" fill="none" stroke="#0d65d9" stroke-miterlimit="10" stroke-width="4"/><path d="M772,952.26c4.05-24.33-6.22-23.92-20.71-11.9" transform="translate(-673.22 -853.87)" fill="none" stroke="#9ec1f0" stroke-miterlimit="10" stroke-width="4"/><path d="M794,960.52c.62-24.66-9.49-22.83-22.18-8.91" transform="translate(-673.22 -853.87)" fill="none" stroke="#9ec1f0" stroke-miterlimit="10" stroke-width="4"/><path d="M816.37,968.44c-1.11-24.64-11.06-22.11-22.74-7.34" transform="translate(-673.22 -853.87)" fill="none" stroke="#9ec1f0" stroke-miterlimit="10" stroke-width="4"/><path d="M838.64,975.63c-1.11-24.64-11.06-22.1-22.74-7.33" transform="translate(-673.22 -853.87)" fill="none" stroke="#9ec1f0" stroke-miterlimit="10" stroke-width="4"/><path d="M861.89,980.53c-2.82-24.5-12.57-21.28-23.19-5.73" transform="translate(-673.22 -853.87)" fill="none" stroke="#9ec1f0" stroke-miterlimit="10" stroke-width="4"/><path d="M886.35,985.41c-2.82-24.51-12.57-21.28-23.2-5.74" transform="translate(-673.22 -853.87)" fill="none" stroke="#9ec1f0" stroke-miterlimit="10" stroke-width="4"/><path d="M911.25,988.76c-4.1-24.33-13.67-20.6-23.47-4.52" transform="translate(-673.22 -853.87)" fill="none" stroke="#9ec1f0" stroke-miterlimit="10" stroke-width="4"/><path d="M936.05,989.28c-7-23.64-16.08-18.77-23.84-1.62" transform="translate(-673.22 -853.87)" fill="none" stroke="#9ec1f0" stroke-miterlimit="10" stroke-width="4"/></g></svg>