<svg class="summary-menu__item-graphic" xmlns="http://www.w3.org/2000/svg" viewBox="0 0 540.155 322.756"><path d="M985.583,136.951c131.818,8.24,246.493,79.718,314.043,184.45" transform="translate(-985.427 0)" fill="none" stroke="#0d65d9" stroke-miterlimit="10" stroke-width="5"/><path d="M1147.1,183.317a45.224,45.224,0,0,1,4.074-6.257,9.792,9.792,0,0,1,4.644-3.392c1.627-.5,3.252-1,4.871-1.528a176.654,176.654,0,0,0,22.41-8.845,85.667,85.667,0,0,0,21.87-14.526,43.2,43.2,0,0,0,12.343-20.833c4.087-16,.838-32.614.771-48.837-.008-1.87.028-3.742.135-5.609.051-.878.117-1.755.2-2.63.044-.455.1-.909.149-1.363.019-.168.1-.717-.013.072.044-.3.085-.592.132-.888a40.273,40.273,0,0,1,1.056-4.834c.234-.814.5-1.619.8-2.412.084-.226.518-1.243.152-.421.188-.421.375-.842.579-1.255a52.3,52.3,0,0,1,7.179-10.585,61.019,61.019,0,0,1,4.517-4.735q1.013-.954,2.069-1.862.585-.5,1.181-.992c.219-.179.44-.358.661-.535.062-.05.759-.6.429-.342s.227-.173.3-.227q.334-.254.672-.5.537-.4,1.082-.785,1.217-.868,2.464-1.692c1.656-1.1,3.345-2.143,5.051-3.161,3.384-2.019,6.831-3.93,10.233-5.921a117.949,117.949,0,0,0,22.3-16.361c1.951-1.87,3.816-3.826,5.612-5.846a3.731,3.731,0,0,0,0-5.157,3.682,3.682,0,0,0-5.157,0,97.387,97.387,0,0,1-21.9,18.338c-6.806,4.242-14,7.859-20.64,12.363a70.341,70.341,0,0,0-18.787,18.474,41.115,41.115,0,0,0-5.573,10.862,49.3,49.3,0,0,0-1.926,10.843c-1.285,16,2.387,32.023.415,48.017-.022.182-.129.921-.023.194-.032.221-.064.441-.1.662q-.1.658-.216,1.314-.258,1.467-.6,2.917a44.77,44.77,0,0,1-1.7,5.63c-.153.405-.311.809-.48,1.209.278-.66-.269.575-.359.764q-.663,1.4-1.442,2.746-.664,1.14-1.413,2.228-.426.618-.879,1.217c-.348.461.318-.39-.05.058-.18.221-.359.442-.541.66-5.567,6.628-12.008,10.992-19.673,15.121q-2.892,1.559-5.867,2.95-1.3.612-2.62,1.2-.734.326-1.47.643l-.652.279c-.237.1-.217.092.058-.025l-.486.2c-3.635,1.506-7.325,2.876-11.049,4.144q-2.443.833-4.9,1.61a36.5,36.5,0,0,0-5.975,2.059c-3.725,1.949-6.422,5.649-8.545,9.157l-1.662,2.747a3.647,3.647,0,0,0,6.3,3.681Z" transform="translate(-985.427 0)" fill="#ff7400"/><path d="M1156.646,182.077c-4.817-5.053-11.071-8.009-17.468-10.545-1.179-.467-1.69,1.437-.524,1.9,6.079,2.41,12.025,5.24,16.6,10.038.876.919,2.267-.475,1.393-1.392Z" transform="translate(-985.427 0)" fill="#ff7400"/><path d="M1154.7,185.162a53.411,53.411,0,0,0-8.446-6.44,47.941,47.941,0,0,0-9.82-4.012c-1.7-.529-2.425,2.132-.733,2.659a44.519,44.519,0,0,1,9.161,3.734,49.675,49.675,0,0,1,7.889,6.009c1.325,1.171,3.282-.772,1.949-1.95Z" transform="translate(-985.427 0)" fill="#ff7400"/><g opacity="0.7"><path d="M1135.776,175.97c5.6,8.423,8.275,10.092,17.549,9.283,2.319-.2.035,8.627-1.39,9.137-7.923,2.834-19.561-1.978-22.836-11.351C1128.148,180.316,1134.361,173.842,1135.776,175.97Z" transform="translate(-985.427 0)" fill="none" stroke="#ff7400" stroke-linecap="round" stroke-miterlimit="10" stroke-width="2.188"/><path d="M1132.1,177.3c1.053-.981,1.961-2.168,3.379-1.93" transform="translate(-985.427 0)" fill="none" stroke="#ff7400" stroke-linecap="round" stroke-miterlimit="10" stroke-width="2.188"/><path d="M1129.905,184.174c.989-1.267,5.263-7.163,6.611-7.449" transform="translate(-985.427 0)" fill="none" stroke="#ff7400" stroke-linecap="round" stroke-miterlimit="10" stroke-width="2.188"/><path d="M1130.959,185.912c.892-1.427,4.942-7.4,6.66-7.309" transform="translate(-985.427 0)" fill="none" stroke="#ff7400" stroke-linecap="round" stroke-miterlimit="10" stroke-width="2.188"/><path d="M1132.223,187.835c.731-1.471,4.782-7.444,6.5-7.353" transform="translate(-985.427 0)" fill="none" stroke="#ff7400" stroke-linecap="round" stroke-miterlimit="10" stroke-width="2.188"/><path d="M1133.665,189.568c.839-1.172,4.589-7,6.315-7.654" transform="translate(-985.427 0)" fill="none" stroke="#ff7400" stroke-linecap="round" stroke-miterlimit="10" stroke-width="2.188"/><path d="M1135.555,191.019c1.4-1.03,4.85-6.71,5.681-7.674" transform="translate(-985.427 0)" fill="none" stroke="#ff7400" stroke-linecap="round" stroke-miterlimit="10" stroke-width="2.188"/><path d="M1137.643,192.475c.94-.677,4.99-6.65,5.374-7.768" transform="translate(-985.427 0)" fill="none" stroke="#ff7400" stroke-linecap="round" stroke-miterlimit="10" stroke-width="2.188"/><path d="M1139.527,193.4a42.284,42.284,0,0,0,5.055-8.152" transform="translate(-985.427 0)" fill="none" stroke="#ff7400" stroke-linecap="round" stroke-miterlimit="10" stroke-width="2.188"/><path d="M1142.144,194.522c.461-1.341,4.288-7.391,4.526-8.809" transform="translate(-985.427 0)" fill="none" stroke="#ff7400" stroke-linecap="round" stroke-miterlimit="10" stroke-width="2.188"/><path d="M1144.679,195.144c.538-1.565,3.848-8.292,3.785-9.563" transform="translate(-985.427 0)" fill="none" stroke="#ff7400" stroke-linecap="round" stroke-miterlimit="10" stroke-width="2.188"/><path d="M1146.621,195.311c1.208-1.334,3.994-7.991,3.638-9.863" transform="translate(-985.427 0)" fill="none" stroke="#ff7400" stroke-linecap="round" stroke-miterlimit="10" stroke-width="2.188"/><path d="M1148.93,195.255c.324-1.787,3.78-8.214,3.271-9.639" transform="translate(-985.427 0)" fill="none" stroke="#ff7400" stroke-linecap="round" stroke-miterlimit="10" stroke-width="2.188"/><path d="M1151.111,194.606c.315-1.641,3.555-7.128,2.595-9.215" transform="translate(-985.427 0)" fill="none" stroke="#ff7400" stroke-linecap="round" stroke-miterlimit="10" stroke-width="2.188"/></g><path d="M1195.571,167.245c19.066-7.793,30.8-16.694,34.62-40.063" transform="translate(-985.427 0)" fill="none" stroke="#eaeaea" stroke-miterlimit="10"/><path d="M1215.332,168.213c10.742-6.166,17.471-13.14,19.764-27.162" transform="translate(-985.427 0)" fill="none" stroke="#eaeaea" stroke-miterlimit="10"/><path d="M1207.976,24.978c-9.882,7.467-15.681,15.231-16.194,29.429" transform="translate(-985.427 0)" fill="none" stroke="#eaeaea" stroke-miterlimit="10"/><path d="M1229.111,21.064c-17.936,10.126-28.457,20.431-29.313,44.1" transform="translate(-985.427 0)" fill="none" stroke="#eaeaea" stroke-miterlimit="10"/><path d="M1240.874,77.037c32.575,22.5,72.462,45.018,104.681,65.551,10.642,6.032,14,9.687,21.122,12.5,22.424,1.5,32.567-23.321,17.921-37.342-31.3-22.085-77.834-51.308-110-70.322C1252.528,34.375,1239.231,59.27,1240.874,77.037Z" transform="translate(-985.427 0)" fill="#53387f" opacity="0.8"/><path d="M1240.874,77.037c32.575,22.5,72.462,45.018,104.681,65.551,10.642,6.032,14,9.687,21.122,12.5,22.424,1.5,32.567-23.321,17.921-37.342-31.3-22.085-77.834-51.308-110-70.322C1252.528,34.375,1239.231,59.27,1240.874,77.037Z" transform="translate(-985.427 0)" fill="none" stroke="#53387f" stroke-miterlimit="10" stroke-width="3.564"/><path d="M1388.209,145.078l.485.223" transform="translate(-985.427 0)" fill="none" stroke="#a36c8b" stroke-miterlimit="10" stroke-width="7.128"/><path d="M1389.669,145.746c11.791,5.362,24.54,10.137,37.586,15.647,13.353,5.64,76.127,31.006,97.064,32.923" transform="translate(-985.427 0)" fill="none" stroke="#a36c8b" stroke-miterlimit="10" stroke-width="7.128" stroke-dasharray="1.074 1.074"/><path d="M1524.854,194.361c.18.013.357.025.531.035" transform="translate(-985.427 0)" fill="none" stroke="#a36c8b" stroke-miterlimit="10" stroke-width="7.128"/><line x1="265.486" y1="50.757" x2="257.154" y2="35.02" fill="none" stroke="#9888b2" stroke-linecap="round" stroke-miterlimit="10" stroke-width="2.851"/><text transform="translate(268.819 198.163)" font-size="30" font-family="Helvetica">1</text></svg>