<svg class="summary-menu__item-graphic" xmlns="http://www.w3.org/2000/svg" viewBox="0 0 253.947 364.589"><path d="M1381.123,517.361c.319,7.69-11.117,7.409-15.079,8.107" transform="translate(-1318.647 -357.413)" fill="none" stroke="#756099" stroke-linecap="round" stroke-miterlimit="10"/><path d="M1360.549,495.5c3.963-.7,14.9-1.416,17.583,2.2,1.143,1.541,2.037,1.489,2.558,9.16" transform="translate(-1318.647 -357.413)" fill="none" stroke="#756099" stroke-linecap="round" stroke-miterlimit="10"/><path d="M1388.016,507.013c1.632-2.33,6.389-17.059,4.781-19.227s-31.111-3.281-31.111-3.281" transform="translate(-1318.647 -357.413)" fill="none" stroke="#756099" stroke-linecap="round" stroke-miterlimit="10"/><path d="M1387.6,518.526s2.1,10.66,1.544,14.435-21.867,8.365-25.293,9.786" transform="translate(-1318.647 -357.413)" fill="none" stroke="#756099" stroke-linecap="round" stroke-miterlimit="10"/><path d="M1395.325,525.671c3.136,4.228,5.953,10.933,2.519,12.552-32.9,15.513-29.044,8.862-31.8,12.217" transform="translate(-1318.647 -357.413)" fill="none" stroke="#756099" stroke-linecap="round" stroke-miterlimit="10"/><path d="M1320.879,358.538a404.676,404.676,0,0,1,.293,362.343" transform="translate(-1318.647 -357.413)" fill="none" stroke="#0d65d9" stroke-miterlimit="10" stroke-width="5"/><path d="M1570.2,508.705c-.024,4.467-10.451,24.794-14.052,28.776s-21.115,10.416-24.906,10.607-18.522-2-21.03-5.377-15.245-24.089-14.371-29.981,11.734-28.366,15.744-30.03,31.615-5.095,36.443-2.121S1570.231,503.441,1570.2,508.705Z" transform="translate(-1318.647 -357.413)" fill="#53387f" opacity="0.8"/><path d="M1570.2,508.705c-.024,4.467-10.451,24.794-14.052,28.776s-21.115,10.416-24.906,10.607-18.522-2-21.03-5.377-15.245-24.089-14.371-29.981,11.734-28.366,15.744-30.03,31.615-5.095,36.443-2.121S1570.231,503.441,1570.2,508.705Z" transform="translate(-1318.647 -357.413)" fill="none" stroke="#53387f" stroke-miterlimit="10" stroke-width="4.782"/><path d="M1382.012,530.541l-1.648-22.256,97.6-6.51h0c3.779.089,8.821,5.991,8.732,9.769l.723,3.293c-.075,3.178-5.716,9.349-8.893,9.274l-3.211-.476Z" transform="translate(-1318.647 -357.413)" fill="#a36c8b"/><line x1="178.743" y1="154.069" x2="160.12" y2="154.787" fill="none" stroke="#a36c8b" stroke-miterlimit="10" stroke-width="7.97"/><text transform="translate(123.401 128.184)" font-size="30" font-family="Helvetica">2</text></svg>