<svg class="summary-menu__item-graphic" xmlns="http://www.w3.org/2000/svg" viewBox="0 0 325.543 289"><path d="M1302.329,754.349c-68.265,108.795-186.956,182.735-323.309,189.057" transform="translate(-978.904 -753.021)" fill="none" stroke="#0d65d9" stroke-miterlimit="10" stroke-width="5"/><path d="M1191.029,914.578c4.485-4.26,17.851-10.238,13.59-14.723s-17.452-10.017-24.869-22.663" transform="translate(-978.904 -753.021)" fill="none" stroke="#756099" stroke-linecap="round" stroke-miterlimit="10"/><path d="M1170.131,928.357c-6.762,1.173-7.323,9.125-13.274,4.932s-1.533-11.226-12.107-32.032" transform="translate(-978.904 -753.021)" fill="none" stroke="#756099" stroke-linecap="round" stroke-miterlimit="10"/><path d="M1162.113,889.423c8.008,8.6,12.664,17.47,15.33,21.611,3.6,5.587,4.777,5.465,7.238,9.4l-3.634,2.94c-6.171-1.459-.526,2.271-5.074-4.671-4.143-6.323-9.37-16.669-19.472-27.778l5-3.338" transform="translate(-978.904 -753.021)" fill="#a36c8b" opacity="0.8"/><line x1="229.716" y1="211.129" x2="200.005" y2="167.646" fill="none" stroke="#a36c8b" stroke-miterlimit="10" stroke-width="25.977"/><line x1="237.379" y1="223.505" x2="228.176" y2="209.516" fill="none" stroke="#a36c8b" stroke-miterlimit="10" stroke-width="10.391"/><path d="M1213.283,976.772c-8.518,5.248-16.618,23.779-15.445,30.542s14.975,27.009,22.324,29.217,24.842,2.659,32.709-2.188,15.666-20.132,15.891-28.878-16.007-32.055-25.34-35.661S1221.15,971.925,1213.283,976.772Z" transform="translate(-978.904 -753.021)" fill="#53387f" opacity="0.2"/><path d="M1213.283,976.772c-8.518,5.248-16.618,23.779-15.445,30.542s14.975,27.009,22.324,29.217,24.842,2.659,32.709-2.188,15.666-20.132,15.891-28.878-16.007-32.055-25.34-35.661S1221.15,971.925,1213.283,976.772Z" transform="translate(-978.904 -753.021)" fill="none" stroke="#53387f" stroke-miterlimit="10" stroke-width="7.793"/><path d="M1161.429,888.264c0-6.594,9.89-18.682,0-24.176s-24.176-6.593-26.374,0,4.4,7.692-1.1,17.582-9.89,3.3-23.077,0" transform="translate(-978.904 -753.021)" fill="none" stroke="#46d6ff" stroke-linecap="round" stroke-miterlimit="10" opacity="0.6"/><text transform="translate(256.5 181.729)" font-size="30" font-family="Helvetica">3</text></svg>