<svg class="summary-menu__item-graphic" xmlns="http://www.w3.org/2000/svg" viewBox="0 0 320.592 209.22"><path d="M935.062,943.089c-134.48-8.193-251.184-82.2-318.316-190.221" transform="translate(-614.622 -736.364)" fill="none" stroke="#0d65d9" stroke-miterlimit="10" stroke-width="5"/><path d="M719.375,795.012c-4.9,3.021-9.565,13.687-8.89,17.579s8.62,15.546,12.85,16.817,14.3,1.53,18.827-1.259,9.016-11.588,9.146-16.622S742.1,793.077,736.723,791,723.9,792.222,719.375,795.012Z" transform="translate(-614.622 -736.364)" fill="#53387f" opacity="0.2"/><path d="M719.375,795.012c-4.9,3.021-9.565,13.687-8.89,17.579s8.62,15.546,12.85,16.817,14.3,1.53,18.827-1.259,9.016-11.588,9.146-16.622S742.1,793.077,736.723,791,723.9,792.222,719.375,795.012Z" transform="translate(-614.622 -736.364)" fill="none" stroke="#53387f" stroke-miterlimit="10" stroke-width="4.486"/><path d="M707.4,768.806c2.527,5.175,12.686,10.857,16.626,10.566s16.314-7.058,17.993-11.143,2.921-14.081.587-18.86-10.65-10.107-15.647-10.728-19.263,7.365-21.854,12.508S705.062,764.026,707.4,768.806Z" transform="translate(-614.622 -736.364)" fill="#53387f" opacity="0.2"/><path d="M707.4,768.806c2.527,5.175,12.686,10.857,16.626,10.566s16.314-7.058,17.993-11.143,2.921-14.081.587-18.86-10.65-10.107-15.647-10.728-19.263,7.365-21.854,12.508S705.062,764.026,707.4,768.806Z" transform="translate(-614.622 -736.364)" fill="none" stroke="#53387f" stroke-miterlimit="10" stroke-width="4.486"/><path d="M797.41,831.458c-3.287-4.729-14.194-8.794-18.043-7.9s-15.046,9.465-16.082,13.759-.738,14.361,2.3,18.728,12.068,8.363,17.1,8.214,17.912-10.219,19.688-15.7S800.446,835.825,797.41,831.458Z" transform="translate(-614.622 -736.364)" fill="#53387f" opacity="0.2"/><path d="M797.41,831.458c-3.287-4.729-14.194-8.794-18.043-7.9s-15.046,9.465-16.082,13.759-.738,14.361,2.3,18.728,12.068,8.363,17.1,8.214,17.912-10.219,19.688-15.7S800.446,835.825,797.41,831.458Z" transform="translate(-614.622 -736.364)" fill="none" stroke="#53387f" stroke-miterlimit="10" stroke-width="4.486"/><path d="M845.215,879.2c-5.753-.272-15.619,5.9-17.258,9.5s-1.653,17.7,1.122,21.135,10.942,9.33,16.255,9.581,13.982-4.48,16.929-8.564,2.8-20.431-.463-25.176S850.527,879.454,845.215,879.2Z" transform="translate(-614.622 -736.364)" fill="#53387f" opacity="0.2"/><path d="M845.215,879.2c-5.753-.272-15.619,5.9-17.258,9.5s-1.653,17.7,1.122,21.135,10.942,9.33,16.255,9.581,13.982-4.48,16.929-8.564,2.8-20.431-.463-25.176S850.527,879.454,845.215,879.2Z" transform="translate(-614.622 -736.364)" fill="none" stroke="#53387f" stroke-miterlimit="10" stroke-width="4.486"/><line x1="58.27" y1="48.941" x2="83.833" y2="39.558" fill="none" stroke="#a36c8b" stroke-miterlimit="10" stroke-width="11" stroke-dasharray="1.1 1.1"/><line x1="216.436" y1="138.973" x2="198.194" y2="118.756" fill="none" stroke="#a36c8b" stroke-miterlimit="10" stroke-width="11" stroke-dasharray="1.1 1.1"/><line x1="129.468" y1="129.262" x2="131.315" y2="102.094" fill="none" stroke="#a36c8b" stroke-miterlimit="10" stroke-width="11" stroke-dasharray="1.1 1.1"/><line x1="256.1" y1="135.831" x2="281.607" y2="126.295" fill="none" stroke="#a36c8b" stroke-miterlimit="10" stroke-width="11" stroke-dasharray="1.1 1.1"/><text transform="translate(89.8 193.089)" font-size="30" font-family="Helvetica">4</text></svg>