<svg class="summary-menu__item-graphic" xmlns="http://www.w3.org/2000/svg" viewBox="0 0 192.964 364.678"><path d="M598.961,721.145a401.27,401.27,0,0,1-41.2-144.838c-.5-5.6-3.1-11.731-5.724-17.926" transform="translate(-448.607 -357.591)" fill="none" stroke="#0d65d9" stroke-miterlimit="10" stroke-width="5"/><path d="M553.593,514.572c2.13-4.639,4-9.332,4.493-14.332a401.208,401.208,0,0,1,40.946-141.526" transform="translate(-448.607 -357.591)" fill="none" stroke="#0d65d9" stroke-miterlimit="10" stroke-width="5"/><path d="M552.04,558.381c-.637-1.5-1.275-3.01-1.885-4.514" transform="translate(-448.607 -357.591)" fill="none" stroke="#0d65d9" stroke-miterlimit="10" stroke-width="5"/><line x1="33.27" y1="204.855" x2="16.686" y2="186.476" fill="none" stroke="#a36c8b" stroke-miterlimit="10" stroke-width="10" stroke-dasharray="1 1"/><line x1="129.974" y1="198.147" x2="113.389" y2="179.768" fill="none" stroke="#a36c8b" stroke-miterlimit="10" stroke-width="10" stroke-dasharray="1 1"/><line x1="128.546" y1="170.997" x2="136.567" y2="147.577" fill="none" stroke="#a36c8b" stroke-miterlimit="10" stroke-width="10" stroke-dasharray="1 1"/><line x1="39.334" y1="266.822" x2="61.778" y2="256.377" fill="none" stroke="#a36c8b" stroke-miterlimit="10" stroke-width="10" stroke-dasharray="1 1"/><line x1="177.027" y1="157.239" x2="187.822" y2="134.961" fill="none" stroke="#a36c8b" stroke-miterlimit="10" stroke-width="10" stroke-dasharray="1 1"/><line x1="4.5" y1="196.914" x2="15.294" y2="174.636" fill="none" stroke="#a36c8b" stroke-miterlimit="10" stroke-width="10" stroke-dasharray="1 1"/><line x1="35.362" y1="186.813" x2="58.55" y2="178.144" fill="none" stroke="#a36c8b" stroke-miterlimit="10" stroke-width="10" stroke-dasharray="1 1"/><circle cx="24.368" cy="158.773" r="18.334" fill="#53387f" opacity="0.8"/><circle cx="79.297" cy="172.033" r="18.334" fill="#53387f" opacity="0.8"/><circle cx="24.368" cy="158.773" r="18.334" fill="none" stroke="#53387f" stroke-miterlimit="10" stroke-width="5"/><circle cx="79.297" cy="172.033" r="18.334" fill="none" stroke="#53387f" stroke-miterlimit="10" stroke-width="5"/><circle cx="142.528" cy="211.058" r="18.334" fill="#53387f" opacity="0.8"/><circle cx="172.126" cy="172.267" r="18.334" fill="#53387f" opacity="0.8"/><circle cx="142.528" cy="211.058" r="18.334" fill="none" stroke="#53387f" stroke-miterlimit="10" stroke-width="5"/><circle cx="46.923" cy="218.864" r="18.334" fill="#53387f" opacity="0.8"/><circle cx="46.923" cy="218.864" r="18.334" fill="none" stroke="#53387f" stroke-miterlimit="10" stroke-width="5"/><circle cx="172.126" cy="172.267" r="18.334" fill="none" stroke="#53387f" stroke-miterlimit="10" stroke-width="5"/><circle cx="22.747" cy="273.809" r="18.334" fill="#53387f" opacity="0.8"/><circle cx="142.456" cy="129.409" r="18.334" fill="#53387f" opacity="0.8"/><circle cx="22.747" cy="273.809" r="18.334" fill="none" stroke="#53387f" stroke-miterlimit="10" stroke-width="5"/><circle cx="142.456" cy="129.409" r="18.334" fill="none" stroke="#53387f" stroke-miterlimit="10" stroke-width="5"/><text transform="translate(62.126 116.431)" font-size="30" font-family="Helvetica">5</text></svg>