<svg class="summary-menu__item-graphic" xmlns="http://www.w3.org/2000/svg" viewBox="0 0 319.338 226.346"><path d="M806.676,166.277a401.909,401.909,0,0,1,133.873-29.663" transform="translate(-621.329 -91.8)" fill="none" stroke="#0d65d9" stroke-miterlimit="10" stroke-width="5"/><path d="M623.412,316.762a406.072,406.072,0,0,1,86.833-94.138" transform="translate(-621.329 -91.8)" fill="none" stroke="#0d65d9" stroke-miterlimit="10" stroke-width="5"/><path d="M784.518,125.155l-39.385,34.479s83.045,9.348,66.283,3.6C778.776,152.043,784.518,125.155,784.518,125.155Z" transform="translate(-621.329 -91.8)" fill="#baafcc" stroke="#baafcc" stroke-linecap="round" stroke-miterlimit="10" stroke-width="4.758" opacity="0.6"/><path d="M698.791,181.67s32.967-7.692,45.055-24.554c8.987-12.537-37.611,72.138-34.03,57.134C715.771,189.3,698.791,181.67,698.791,181.67Z" transform="translate(-621.329 -91.8)" fill="#baafcc" stroke="#baafcc" stroke-linecap="round" stroke-miterlimit="10" stroke-width="7.735" opacity="0.6"/><polyline points="191.386 75.08 126.298 64.877 89.178 129.583" fill="none" stroke="#baafcc" stroke-linecap="round" stroke-miterlimit="10" stroke-width="8"/><g opacity="0.2"><polygon points="151.89 161.838 181.607 148.735 174.963 170.691 151.89 161.838" fill="#baafcc" stroke="#baafcc" stroke-linecap="round" stroke-miterlimit="10" stroke-width="5.695" opacity="0.6"/><polygon points="107.289 159.163 107.92 187.991 141.179 165.903 107.289 159.163" fill="#baafcc" stroke="#baafcc" stroke-linecap="round" stroke-miterlimit="10" stroke-width="5.695" opacity="0.6"/><polygon points="188.826 144.204 231.627 118.056 210.935 107.971 188.826 144.204" fill="#baafcc" stroke="#baafcc" stroke-linecap="round" stroke-miterlimit="10" stroke-width="5.695" opacity="0.6"/><polygon points="65.344 169.976 82.442 155.698 90.236 139.338 101.633 155.655 65.344 169.976" fill="#baafcc" stroke="#baafcc" stroke-linecap="round" stroke-miterlimit="10" stroke-width="5.695" opacity="0.6"/><path d="M844.623,159.8l-30.015,12.319s13.038,32.158,15.718,23.311C833.991,183.327,844.623,159.8,844.623,159.8Z" transform="translate(-621.329 -91.8)" fill="#baafcc" stroke="#baafcc" stroke-linecap="round" stroke-miterlimit="10" stroke-width="5.695" opacity="0.6"/><polyline points="92.458 134.966 106.043 153.516 102.201 147.226" fill="none" stroke="#baafcc" stroke-linecap="round" stroke-miterlimit="10" stroke-width="5.695"/><polyline points="107.351 154.534 144.787 163.1 181.706 148.124 205.986 107.887 192.413 79.383" fill="none" stroke="#baafcc" stroke-linecap="round" stroke-miterlimit="10" stroke-width="5.695"/></g><g opacity="0.7"><ellipse cx="750.488" cy="206.906" rx="19.001" ry="18.501" transform="translate(-648.291 74.921) rotate(-12.454)" fill="#53387f" stroke="#53387f" stroke-miterlimit="10" stroke-width="3" opacity="0.8"/><ellipse cx="750.488" cy="206.906" rx="19.001" ry="18.501" transform="translate(-648.291 74.921) rotate(-12.454)" fill="none" stroke="#53387f" stroke-miterlimit="10" stroke-width="3"/></g><g opacity="0.7"><ellipse cx="117.969" cy="20.001" rx="19.001" ry="18.501" fill="#53387f" stroke="#53387f" stroke-miterlimit="10" stroke-width="3" opacity="0.8"/><ellipse cx="117.969" cy="20.001" rx="19.001" ry="18.501" fill="none" stroke="#53387f" stroke-miterlimit="10" stroke-width="3"/></g><g opacity="0.2"><ellipse cx="206.189" cy="157.923" rx="17.011" ry="16.563" fill="#53387f" stroke="#53387f" stroke-miterlimit="10" stroke-width="2.686" opacity="0.8"/><ellipse cx="206.189" cy="157.923" rx="17.011" ry="16.563" fill="none" stroke="#53387f" stroke-miterlimit="10" stroke-width="2.686"/></g><g opacity="0.2"><ellipse cx="152.135" cy="202.718" rx="19.001" ry="18.501" fill="#53387f" stroke="#53387f" stroke-miterlimit="10" stroke-width="3" opacity="0.8"/><ellipse cx="152.135" cy="202.718" rx="19.001" ry="18.501" fill="none" stroke="#53387f" stroke-miterlimit="10" stroke-width="3"/></g><g opacity="0.7"><ellipse cx="697.641" cy="147.669" rx="19.001" ry="18.501" transform="translate(-622.87 196.064) rotate(-23.29)" fill="#53387f" stroke="#53387f" stroke-miterlimit="10" stroke-width="3" opacity="0.8"/><ellipse cx="697.641" cy="147.669" rx="19.001" ry="18.501" transform="translate(-622.87 196.064) rotate(-23.29)" fill="none" stroke="#53387f" stroke-miterlimit="10" stroke-width="3"/></g><g opacity="0.7"><ellipse cx="657.384" cy="139.548" rx="19.001" ry="18.501" transform="translate(-622.939 179.485) rotate(-23.29)" fill="#53387f" stroke="#53387f" stroke-miterlimit="10" stroke-width="3" opacity="0.8"/><ellipse cx="657.384" cy="139.548" rx="19.001" ry="18.501" transform="translate(-622.939 179.485) rotate(-23.29)" fill="none" stroke="#53387f" stroke-miterlimit="10" stroke-width="3"/></g><g opacity="0.7"><ellipse cx="174.713" cy="113.99" rx="15.201" ry="14.801" fill="#53387f" stroke="#53387f" stroke-miterlimit="10" stroke-width="3" opacity="0.8"/><ellipse cx="174.713" cy="113.99" rx="15.201" ry="14.801" fill="none" stroke="#53387f" stroke-miterlimit="10" stroke-width="3"/></g><text transform="translate(33.621 111.818)" font-size="30" font-family="Helvetica">6</text></svg>