<?xml version="1.0" encoding="UTF-8"?><svg id="a" xmlns="http://www.w3.org/2000/svg" viewBox="0 0 319.335 226.346"><path d="M185.346,74.477c42.596-17.483,87.879-27.517,133.873-29.663" fill="none" stroke="#0d65d9" stroke-miterlimit="10" stroke-width="5"/><path d="M2.082,224.962c23.783-35.775,53.091-67.549,86.833-94.138" fill="none" stroke="#0d65d9" stroke-miterlimit="10" stroke-width="5"/><path d="M163.188,33.355l-39.385,34.479s83.045,9.348,66.283,3.6c-32.64-11.191-26.898-38.079-26.898-38.079Z" fill="#baafcc" isolation="isolate" opacity=".6" stroke="#baafcc" stroke-linecap="round" stroke-miterlimit="10" stroke-width="4.758"/><path d="M77.461,89.87s32.967-7.692,45.055-24.554c8.987-12.537-37.611,72.138-34.03,57.134,5.955-24.95-11.025-32.58-11.025-32.58Z" fill="#baafcc" isolation="isolate" opacity=".6" stroke="#baafcc" stroke-linecap="round" stroke-miterlimit="10" stroke-width="7.735"/><polyline points="191.385 75.08 126.297 64.877 89.177 129.583" fill="none" stroke="#baafcc" stroke-linecap="round" stroke-miterlimit="10" stroke-width="8"/><polygon points="151.889 161.838 181.606 148.735 174.962 170.691 151.889 161.838" fill="#baafcc" isolation="isolate" opacity=".6" stroke="#baafcc" stroke-linecap="round" stroke-miterlimit="10" stroke-width="5.695"/><polygon points="107.288 159.163 107.919 187.991 141.178 165.903 107.288 159.163" fill="#baafcc" isolation="isolate" opacity=".6" stroke="#baafcc" stroke-linecap="round" stroke-miterlimit="10" stroke-width="5.695"/><polygon points="188.825 144.204 231.626 118.056 210.934 107.971 188.825 144.204" fill="#baafcc" isolation="isolate" opacity=".6" stroke="#baafcc" stroke-linecap="round" stroke-miterlimit="10" stroke-width="5.695"/><polygon points="65.343 169.976 82.441 155.698 90.235 139.338 101.632 155.655 65.343 169.976" fill="#baafcc" isolation="isolate" opacity=".6" stroke="#baafcc" stroke-linecap="round" stroke-miterlimit="10" stroke-width="5.695"/><path d="M223.293,68l-30.015,12.319s13.038,32.158,15.718,23.311c3.665-12.103,14.297-35.63,14.297-35.63Z" fill="#baafcc" isolation="isolate" opacity=".6" stroke="#baafcc" stroke-linecap="round" stroke-miterlimit="10" stroke-width="5.695"/><polyline points="92.457 134.966 106.042 153.516 102.2 147.226" fill="none" stroke="#baafcc" stroke-linecap="round" stroke-miterlimit="10" stroke-width="5.695"/><polyline points="107.35 154.534 144.786 163.1 181.705 148.124 205.985 107.887 192.412 79.383" fill="none" stroke="#baafcc" stroke-linecap="round" stroke-miterlimit="10" stroke-width="5.695"/><g opacity=".7"><ellipse cx="129.157" cy="115.111" rx="19.001" ry="18.501" transform="translate(-21.785 30.562) rotate(-12.454)" fill="#53387f" isolation="isolate" opacity=".8" stroke="#53387f" stroke-miterlimit="10" stroke-width="3"/><ellipse cx="129.157" cy="115.111" rx="19.001" ry="18.501" transform="translate(-21.785 30.562) rotate(-12.454)" fill="none" stroke="#53387f" stroke-miterlimit="10" stroke-width="3"/></g><g opacity=".7"><ellipse cx="117.968" cy="20.001" rx="19.001" ry="18.501" fill="#53387f" isolation="isolate" opacity=".8" stroke="#53387f" stroke-miterlimit="10" stroke-width="3"/><ellipse cx="117.968" cy="20.001" rx="19.001" ry="18.501" fill="none" stroke="#53387f" stroke-miterlimit="10" stroke-width="3"/></g><g opacity=".2"><ellipse cx="206.188" cy="157.923" rx="17.011" ry="16.563" fill="#53387f" isolation="isolate" opacity=".8" stroke="#53387f" stroke-miterlimit="10" stroke-width="2.686"/><ellipse cx="206.188" cy="157.923" rx="17.011" ry="16.563" fill="none" stroke="#53387f" stroke-miterlimit="10" stroke-width="2.686"/></g><g opacity=".2"><ellipse cx="152.134" cy="202.718" rx="19.001" ry="18.501" fill="#53387f" isolation="isolate" opacity=".8" stroke="#53387f" stroke-miterlimit="10" stroke-width="3"/><ellipse cx="152.134" cy="202.718" rx="19.001" ry="18.501" fill="none" stroke="#53387f" stroke-miterlimit="10" stroke-width="3"/></g><g opacity=".7"><ellipse cx="76.309" cy="55.863" rx="19.001" ry="18.501" transform="translate(-15.87 34.723) rotate(-23.29)" fill="#53387f" isolation="isolate" opacity=".8" stroke="#53387f" stroke-miterlimit="10" stroke-width="3"/><ellipse cx="76.309" cy="55.863" rx="19.001" ry="18.501" transform="translate(-15.87 34.723) rotate(-23.29)" fill="none" stroke="#53387f" stroke-miterlimit="10" stroke-width="3"/></g><g opacity=".7"><ellipse cx="36.052" cy="47.742" rx="19.001" ry="18.501" transform="translate(-15.939 18.145) rotate(-23.29)" fill="#53387f" isolation="isolate" opacity=".8" stroke="#53387f" stroke-miterlimit="10" stroke-width="3"/><ellipse cx="36.052" cy="47.742" rx="19.001" ry="18.501" transform="translate(-15.939 18.145) rotate(-23.29)" fill="none" stroke="#53387f" stroke-miterlimit="10" stroke-width="3"/></g><g opacity=".7"><ellipse cx="174.712" cy="113.99" rx="15.201" ry="14.801" fill="#53387f" isolation="isolate" opacity=".8" stroke="#53387f" stroke-miterlimit="10" stroke-width="3"/><ellipse cx="174.712" cy="113.99" rx="15.201" ry="14.801" fill="none" stroke="#53387f" stroke-miterlimit="10" stroke-width="3"/></g><text transform="translate(33.62 111.818)" font-family="Helvetica, Helvetica" font-size="30" isolation="isolate"><tspan x="0" y="0">6</tspan></text></svg>