<?xml version="1.0" encoding="utf-8"?>
<!-- Generator: Adobe Illustrator 25.2.1, SVG Export Plug-In . SVG Version: 6.00 Build 0)  -->
<svg data-id="treeSvg" version="1.1" id="Layer_1" xmlns="http://www.w3.org/2000/svg" xmlns:xlink="http://www.w3.org/1999/xlink" x="0px" y="0px"
	 viewBox="0 0 1969.3 1137.3" style="enable-background:new 0 0 1969.3 1137.3;" xml:space="preserve">
<style type="text/css">
	.st0{fill:#e6e5e2;enable-background:new    ;}
	.st1{fill:#fbf2da;enable-background:new    ;}
	.st2{fill:#e2e7db;enable-background:new    ;}
	.st3{fill:none;stroke:#A7A9AC;stroke-width:0.204;stroke-linecap:round;stroke-miterlimit:10;}
	.st4{fill:none;stroke:#AAAAAA;stroke-width:2.719831e-02;stroke-linecap:round;stroke-miterlimit:10;}
	.st5{fill:#003B4C;}
	.st6{font-family:'Arial-ItalicMT';}
	.st7{font-size:11.9954px;}
	.st8{fill:#5E5E5E;}
	.st9{font-family:'Arial-BoldMT';}
	.st10{font-size:11px;}
	.st11{font-size:24px;}
	.st12{opacity:0.85;}
	.st13{fill:none;stroke:#A7A9AC;stroke-miterlimit:10;}
	.st14{font-size:28px;}
</style>
<path class="st0" d="M506.3,734.7c-4,9.8,11.7,36.7,20.2,40.3s418.9-250.8,419.3-251.9C946.3,522,510.3,725,506.3,734.7z"/>
<path class="st1" d="M611,117.2c-58.3-56-123.1-58.5-184.5-6.8C297.2,219.1,338.1,517,420,668c36.2,66.7,48.5,59.3,119,29
	c128.2-55.2,360.7-182.3,361-183.1C900.4,513,730.2,231.7,611,117.2z"/>
<path class="st2" d="M791.9,56.7C1378-93.3,1662.2,382,1467.6,770c-177.4,353.5-567,467.6-872.2,150.2c-21.2-22.1-46-74.5,1.9-116.3
	C712.3,703.8,985,534,985.4,533.1S757.1,291.8,727.7,180.8C715.8,136,740.9,69.8,791.9,56.7z"/>
<g id="mainHolder" transform="translate(863.08993,564.77597) rotate(-30) scale(0.26077,0.26077)">
	<g id="rangeHolder">
	</g>
	<g id="pruningHolder">
	</g>
	<g id="treeHolder">
		<g>
			<path class="st3" d="M49.4,516.2l178.9-89.3"/>
		</g>
		<g>
			<path class="st4" d="M-194.7-1487.9l35.6,237.3"/>
			<a class="book-appendix-tree-species-entry" id="Haloferax-gibbonsii"><text transform="matrix(0.5686 3.7924 -3.7924 0.5686 -271.6414 -1907.9895)" class="st5 st6 st7">Haloferax gibbonsii</text></a>
			<path class="st3" d="M-159.1-1250.6l29.7,197.8"/>
		</g>
		<g>
			<path class="st4" d="M-96.4,1282.5l249.1-410.3"/>
			<a class="book-appendix-tree-species-entry" id="Brucella-abortus"><text transform="matrix(1.9901 -3.278 3.278 1.9901 -272.9695 1599.9531)" class="st5 st6 st7">Brucella abortus</text></a>
			<path class="st3" d="M152.7,872.2l103.8-171"/>
		</g>
		<g>
			<path class="st4" d="M538.2,1483.7l-41.6-357.6"/>
			<a class="book-appendix-tree-species-entry" id="Helicobacter-pylori"><text transform="matrix(0.4429 3.8091 -3.8091 0.4429 524.4925 1485.2729)" class="st5 st6 st7">Helicobacter pylori</text></a>
			<path class="st3" d="M496.6,1126.1l-23.1-198.7"/>
		</g>
		<g>
			<path class="st3" d="M484.6,514.8l-80.3-183.2"/>
		</g>
		<g>
			<path class="st3" d="M937.5,555.8L807,404.2"/>
		</g>
		<g>
			<path class="st4" d="M-486.9-1190.6l275.7,392.9"/>
			<a class="book-appendix-tree-species-entry" id="Methanoregula-formicica"><text transform="matrix(2.2024 3.1393 -3.1393 2.2024 -810.8918 -1628.4033)" class="st5 st6 st7">Methanoregula formicica</text></a>
			<path class="st3" d="M-211.2-797.7L-96.4-634"/>
		</g>
		<g>
			<path class="st4" d="M-650.3,469.1l479.7-15.9"/>
			<a class="book-appendix-tree-species-entry" id="Pseudoalteromonas-luteoviolacea"><text transform="matrix(3.8327 -0.1268 0.1268 3.8327 -1393.3219 507.5217)" class="st5 st6 st7">Pseudoalteromonas luteoviolacea</text></a>
			<path class="st3" d="M-170.5,453.3l199.9-6.6"/>
		</g>
		<g>
			<path class="st4" d="M-810-355.3L7.6-162.6"/>
			<a class="book-appendix-tree-species-entry" id="Asgard-group"><text transform="matrix(3.7325 0.8798 -0.8798 3.7325 -1106.6635 -411.0234)" class="st8 st9 st10">Asgard group</text></a>
			<path class="st3" d="M7.6-162.6l194.7,45.9"/>
		</g>
		<g>
			<path class="st3" d="M496.5,154.2l-149.4-133"/>
		</g>
		<g>
			<path class="st3" d="M-44.2-662.2l68.1,188.1"/>
		</g>
		<g>
			<path class="st4" d="M40.9,1432.7l122.5-338.5"/>
			<a class="book-appendix-tree-species-entry" id="Magnetospirillum-magneticum"><text transform="matrix(-1.305 3.6059 -3.6059 -1.305 27.9561 1428.0502)" class="st5 st6 st7">Magnetospirillum magneticum</text></a>
			<path class="st3" d="M163.4,1094.2l68.1-188.1"/>
		</g>
		<g>
			<path class="st4" d="M580,1396.9l-86.8-472.1"/>
			<a class="book-appendix-tree-species-entry" id="Campylobacter-jejuni"><text transform="matrix(0.6936 3.7715 -3.7715 0.6936 566.4377 1399.3894)" class="st5 st6 st7">Campylobacter jejuni</text></a>
			<path class="st3" d="M493.2,924.8L457,728.1"/>
		</g>
		<g>
			<path class="st4" d="M684.6-868.6L532.7-42.5"/>
			<a class="book-appendix-tree-species-entry" id="Chrysiogenetes"><text transform="matrix(-0.6936 3.7715 -3.7715 -0.6936 733.5011 -1210.554)" class="st8 st9 st10">Chrysiogenetes</text></a>
			<path class="st3" d="M532.7-42.5l-36.2,196.7"/>
		</g>
		<g>
			<path class="st3" d="M348.8,523.8l55.5-192.2"/>
		</g>
		<g>
			<path class="st4" d="M410.7-882.2L480-45.1"/>
			<a class="book-appendix-tree-species-entry" id="Deferribacteres"><text transform="matrix(0.3167 3.8217 -3.8217 0.3167 369.0271 -1217.4691)" class="st8 st9 st10">Deferribacteres</text></a>
			<path class="st3" d="M480-45.1l16.5,199.3"/>
		</g>
		<g>
			<path class="st4" d="M-231.1,1081.7l344.6-491.2"/>
			<a class="book-appendix-tree-species-entry" id="Hydrogenovibrio-crunogenus"><text transform="matrix(2.2024 -3.1393 3.1393 2.2024 -589.6935 1616.8997)" class="st5 st6 st7">Hydrogenovibrio crunogenus</text></a>
			<path class="st3" d="M113.5,590.6l114.9-163.7"/>
		</g>
		<g>
			<path class="st4" d="M1581.8-119.3L886.8,69"/>
			<a class="book-appendix-tree-species-entry" id="Porphyromonas-gingivalis"><text transform="matrix(3.7014 -1.0027 1.0027 3.7014 1585.4083 -105.9465)" class="st5 st6 st7">Porphyromonas gingivalis</text></a>
			<path class="st3" d="M886.8,69l-193,52.3"/>
		</g>
		<g>
			<path class="st4" d="M-779.8-805.6L-294.3-453"/>
			<a class="book-appendix-tree-species-entry" id="Sulfolobus-solfataricus"><text transform="matrix(3.1024 2.254 -2.254 3.1024 -1188.1798 -1091.7424)" class="st5 st6 st7">Sulfolobus solfataricus</text></a>
			<path class="st3" d="M-294.3-453l161.8,117.6"/>
		</g>
		<g>
			<path class="st3" d="M457,728.1l-23.1-198.7"/>
		</g>
		<g>
			<path class="st4" d="M630.3,1305L483,723.3"/>
			<a class="book-appendix-tree-species-entry" id="Myxococcus-xanthus"><text transform="matrix(0.9414 3.7175 -3.7175 0.9414 616.9269 1308.3534)" class="st5 st6 st7">Myxococcus xanthus</text></a>
			<path class="st3" d="M483,723.3l-49.1-193.9"/>
		</g>
		<g>
			<path class="st4" d="M-351.2,978.3L83.5,564.7"/>
			<a class="book-appendix-tree-species-entry" id="Lysobacter-antibioticus"><text transform="matrix(2.778 -2.6435 2.6435 2.778 -714.4688 1343.0833)" class="st5 st6 st7">Lysobacter antibioticus</text></a>
			<path class="st3" d="M83.5,564.7l144.9-137.9"/>
		</g>
		<g>
			<path class="st4" d="M830,1236.4L571,695.2"/>
			<a class="book-appendix-tree-species-entry" id="Cupriavidus-necator"><text transform="matrix(1.6557 3.459 -3.459 1.6557 817.5564 1242.3627)" class="st5 st6 st7">Cupriavidus necator</text></a>
			<path class="st3" d="M571,695.2l-86.4-180.4"/>
		</g>
		<g>
			<path class="st4" d="M-743.1-550.1L20.5-200"/>
			<a class="book-appendix-tree-species-entry" id="Archaea-incertae-sedis"><text transform="matrix(3.4859 1.5983 -1.5983 3.4859 -1204.4052 -746.4576)" class="st8 st9 st10">Archaea incertae sedis</text></a>
			<path class="st3" d="M20.5-200l181.8,83.4"/>
		</g>
		<g>
			<path class="st4" d="M-512.6,901.4l406.1-255.9"/>
			<a class="book-appendix-tree-species-entry" id="Pseudomonas-flexibilis"><text transform="matrix(3.2446 -2.0441 2.0441 3.2446 -937.7964 1185.6433)" class="st5 st6 st7">Pseudomonas flexibilis</text></a>
			<path class="st3" d="M-106.5,645.6L62.8,539"/>
		</g>
		<g>
			<path class="st4" d="M-568.7,799.6l436.3-200.1"/>
			<a class="book-appendix-tree-species-entry" id="Methylomicrobium-alcaliphilum"><text transform="matrix(3.4859 -1.5983 1.5983 3.4859 -1187.9438 1098.6838)" class="st5 st6 st7">Methylomicrobium alcaliphilum</text></a>
			<path class="st3" d="M-132.4,599.5l181.8-83.4"/>
		</g>
		<g>
			<path class="st4" d="M-304.8-1460l81.7,225.7"/>
			<a class="book-appendix-tree-species-entry" id="Halohasta-litchfieldiae"><text transform="matrix(1.305 3.6059 -3.6059 1.305 -483.0829 -1912.0314)" class="st5 st6 st7">Halohasta litchfieldiae</text></a>
			<path class="st3" d="M-223.2-1234.3l68.1,188.1"/>
		</g>
		<g>
			<path class="st4" d="M805.1,1334.3L626.9,888.6"/>
			<a class="book-appendix-tree-species-entry" id="Delftia-acidovorans"><text transform="matrix(1.4235 3.5608 -3.5608 1.4235 792.2618 1339.4159)" class="st5 st6 st7">Delftia acidovorans</text></a>
			<path class="st3" d="M626.9,888.6l-74.2-185.7"/>
		</g>
		<g>
			<path class="st3" d="M-96.4-634L23.9-474.1"/>
		</g>
		<g>
			<path class="st4" d="M230.2,1315l89-593.4"/>
			<a class="book-appendix-tree-species-entry" id="Caulobacter-crescentus"><text transform="matrix(-0.5686 3.7924 -3.7924 -0.5686 216.5244 1312.9186)" class="st5 st6 st7">Caulobacter crescentus </text></a>
			<path class="st3" d="M319.1,721.6l29.7-197.8"/>
		</g>
		<g>
			<path class="st4" d="M1121.7-676.9L616.7-5.6"/>
			<a class="book-appendix-tree-species-entry" id="Candidatus-Krumholzibacteriota"><text transform="matrix(2.305 -3.0647 3.0647 2.305 1132.6866 -668.6503)" class="st8 st9 st10">Candidatus Krumholzibacteriota</text></a>
			<path class="st3" d="M616.7-5.6L496.5,154.2"/>
		</g>
		<g>
			<path class="st3" d="M960.7,532.2L807,404.2"/>
		</g>
		<g>
			<path class="st4" d="M-16.6,1324l192.8-439.6"/>
			<a class="book-appendix-tree-species-entry" id="Agrobacterium-tumefaciens"><text transform="matrix(-1.5404 3.5118 -3.5118 -1.5404 -29.2776 1318.4329)" class="st5 st6 st7">Agrobacterium tumefaciens</text></a>
			<path class="st3" d="M176.2,884.4l80.3-183.2"/>
		</g>
		<g>
			<path class="st4" d="M1346.3,1099.2l-288.5-383.6"/>
			<a class="book-appendix-tree-species-entry" id="Listeria-monocytogenes"><text transform="matrix(2.305 3.0647 -3.0647 2.305 1335.2412 1107.5117)" class="st5 st6 st7">Listeria monocytogenes</text></a>
			<path class="st3" d="M1057.8,715.6L937.5,555.8"/>
		</g>
		<g>
			<path class="st4" d="M1528.6,765.4l-518-302.9"/>
			<a class="book-appendix-tree-species-entry" id="Mycoplasma-genitalium"><text transform="matrix(3.3104 1.9357 -1.9357 3.3104 1521.6698 777.2693)" class="st5 st6 st7">Mycoplasma genitalium</text></a>
			<path class="st3" d="M1010.7,462.5L838,361.5"/>
		</g>
		<g>
			<path class="st3" d="M552.7,702.9l-68.1-188.1"/>
		</g>
		<g>
			<path class="st4" d="M1414.4,1040.6l-336.6-342.2"/>
			<a class="book-appendix-tree-species-entry" id="Staphylococcus-aureus"><text transform="matrix(2.6891 2.7339 -2.7339 2.6891 1404.5399 1050.2393)" class="st5 st6 st7">Staphylococcus aureus</text></a>
			<path class="st3" d="M1077.8,698.4L937.5,555.8"/>
		</g>
		<g>
			<path class="st3" d="M-129.5-1052.8l36.2,196.7"/>
		</g>
		<g>
			<path class="st3" d="M662.1,266.4L496.5,154.2"/>
		</g>
		<g>
			<path class="st4" d="M1225.8-587.2l-589,598.9"/>
			<a class="book-appendix-tree-species-entry" id="Nitrospinae/Tectomicrobia-group"><text transform="matrix(2.6891 -2.7339 2.7339 2.6891 1235.6613 -577.5594)" class="st8 st9 st10">Nitrospinae/Tectomicrobia group</text></a>
			<path class="st3" d="M636.8,11.6L496.5,154.2"/>
		</g>
		<g>
			<path class="st3" d="M695.5,174l-199-19.8"/>
		</g>
		<g>
			<path class="st3" d="M256.5,701.2l92.3-177.4"/>
		</g>
		<g>
			<path class="st4" d="M1605.7,597.3l-567.5-194.8"/>
			<a class="book-appendix-tree-species-entry" id="Tetrasphaera-remsis"><text transform="matrix(3.627 1.2452 -1.2452 3.627 1601.2228 610.3274)" class="st5 st6 st7">Tetrasphaera remsis</text></a>
			<path class="st3" d="M1038.2,402.5l-189.2-65"/>
		</g>
		<g>
			<path class="st4" d="M-647.3,514l477.6-47.5"/>
			<a class="book-appendix-tree-species-entry" id="Idiomarina-loihiensis"><text transform="matrix(3.8159 -0.3798 0.3798 3.8159 -1101.241 573.0532)" class="st5 st6 st7">Idiomarina loihiensis</text></a>
			<path class="st3" d="M-169.7,466.5l199-19.8"/>
		</g>
		<g>
			<path class="st3" d="M228.4,426.8l175.9-95.2"/>
		</g>
		<g>
			<path class="st3" d="M1091.1,233.3l-197.3-32.9"/>
		</g>
		<g>
			<path class="st4" d="M1532-272.5L867.9,5.8"/>
			<a class="book-appendix-tree-species-entry" id="Borreliella-burgdorferi"><text transform="matrix(3.5368 -1.4821 1.4821 3.5368 1537.2906 -259.8008)" class="st5 st6 st7">Borreliella burgdorferi</text></a>
			<path class="st3" d="M867.9,5.8L683.4,83.1"/>
		</g>
		<g>
			<path class="st4" d="M-386.4,938.8l461-384"/>
			<a class="book-appendix-tree-species-entry" id="Halothiobacillus-neapolitanus"><text transform="matrix(2.9467 -2.4542 2.4542 2.9467 -878.3297 1366.5228)" class="st5 st6 st7">Halothiobacillus neapolitanus</text></a>
			<path class="st3" d="M74.7,554.8l153.7-128"/>
		</g>
		<g>
			<path class="st3" d="M-132.5-335.4L33.1-223.3"/>
		</g>
		<g>
			<path class="st4" d="M-427.1-1318.3l186.8,307.7"/>
			<a class="book-appendix-tree-species-entry" id="Halobacterium-salinarum"><text transform="matrix(1.9901 3.278 -3.278 1.9901 -724.123 -1780.9653)" class="st5 st6 st7">Halobacterium salinarum</text></a>
			<path class="st3" d="M-240.3-1010.6l103.8,171"/>
		</g>
		<g>
			<path class="st4" d="M882.6-811.5l-311.8,780"/>
			<a class="book-appendix-tree-species-entry" id="Caldiserica/Cryosericota-group"><text transform="matrix(-1.4235 3.5608 -3.5608 -1.4235 1123.1373 -1450.4127)" class="st8 st9 st10">Caldiserica/Cryosericota group</text></a>
			<path class="st3" d="M570.8-31.5l-74.2,185.7"/>
		</g>
		<g>
			<path class="st4" d="M1006.6-752.1l-412,732"/>
			<a class="book-appendix-tree-species-entry" id="unclassified-Bacteria"><text transform="matrix(-1.8807 3.342 -3.342 -1.8807 1220.244 -1159.9629)" class="st8 st9 st10">unclassified Bacteria</text></a>
			<path class="st3" d="M594.6-20.1l-98.1,174.3"/>
		</g>
		<g>
			<path class="st3" d="M849,337.5l-186.9-71.2"/>
		</g>
		<g>
			<path class="st4" d="M1757.7,367.4l-470.6-94.6"/>
			<a class="book-appendix-tree-species-entry" id="Prosthecobacter-vanneervenii"><text transform="matrix(3.7596 0.7559 -0.7559 3.7596 1755.0168 380.8902)" class="st5 st6 st7">Prosthecobacter vanneervenii</text></a>
			<path class="st3" d="M1287.2,272.7l-196.1-39.4"/>
		</g>
		<g>
			<path class="st4" d="M-691.3,702l344.2-105.6"/>
			<a class="book-appendix-tree-species-entry" id="Salmonella-enterica-Typhimurium"><text transform="matrix(3.6662 -1.1246 1.1246 3.6662 -1347.1478 922.6569)" class="st5 st6 st7">Salmonella enterica Typhimurium</text></a>
			<path class="st3" d="M-347.1,596.4l191.2-58.6"/>
		</g>
		<g>
			<path class="st4" d="M-832.6-219.7L3.3-136.5"/>
			<a class="book-appendix-tree-species-entry" id="Candidatus-Hydrothermarchaeota"><text transform="matrix(3.8159 0.3798 -0.3798 3.8159 -1571.6089 -279.3667)" class="st8 st9 st10">Candidatus Hydrothermarchaeota</text></a>
			<path class="st3" d="M3.3-136.5l199,19.8"/>
		</g>
		<g>
			<path class="st4" d="M-641.4,558.6l473.5-79"/>
			<a class="book-appendix-tree-species-entry" id="Shewanella-oneidensis"><text transform="matrix(3.7825 -0.6312 0.6312 3.7825 -1135.8549 655.0822)" class="st5 st6 st7">Shewanella oneidensis</text></a>
			<path class="st3" d="M-167.9,479.6l197.3-32.9"/>
		</g>
		<g>
			<path class="st4" d="M1394.3-370.7l-725.1,424"/>
			<a class="book-appendix-tree-species-entry" id="Dictyoglomi"><text transform="matrix(3.3104 -1.9357 1.9357 3.3104 1401.2896 -358.8331)" class="st8 st9 st10">Dictyoglomi</text></a>
			<path class="st3" d="M669.2,53.3l-172.7,101"/>
		</g>
		<g>
			<path class="st4" d="M1381.3,1071l-313.2-363.7"/>
			<a class="book-appendix-tree-species-entry" id="Bacillus-subtilis"><text transform="matrix(2.5025 2.9057 -2.9057 2.5025 1370.8403 1080.0276)" class="st5 st6 st7">Bacillus subtilis</text></a>
			<path class="st3" d="M1068.1,707.3L937.5,555.8"/>
		</g>
		<g>
			<path class="st4" d="M1550.1,506.9l-695-188.3"/>
			<a class="book-appendix-tree-species-entry" id="Chloroflexi"><text transform="matrix(3.7014 1.0027 -1.0027 3.7014 1546.5223 520.2383)" class="st5 st6 st7">Chloroflexi</text></a>
			<path class="st3" d="M855.2,318.6l-193-52.3"/>
		</g>
		<g>
			<path class="st3" d="M433.9,529.4l-29.7-197.8"/>
		</g>
		<g>
			<path class="st3" d="M-222.8-1020l86.4,180.4"/>
		</g>
		<g>
			<path class="st4" d="M945.6-783.9L582.9-26.2"/>
			<a class="book-appendix-tree-species-entry" id="Thermotogae"><text transform="matrix(-1.6557 3.459 -3.459 -1.6557 1058.908 -1052.6311)" class="st8 st9 st10">Thermotogae</text></a>
			<path class="st3" d="M582.9-26.2l-86.4,180.4"/>
		</g>
		<g>
			<path class="st4" d="M-223.3-1482.6l51.2,234.5"/>
			<a class="book-appendix-tree-species-entry" id="Haloquadratum-walsbyi"><text transform="matrix(0.818 3.7466 -3.7466 0.818 -346.9385 -1984.1466)" class="st5 st6 st7">Haloquadratum walsbyi</text></a>
			<path class="st3" d="M-172.1-1248.2l42.7,195.4"/>
		</g>
		<g>
			<path class="st4" d="M1692.1,253.3l-598.7-39.7"/>
			<a class="book-appendix-tree-species-entry" id="Verrucomicrobium-spinosum"><text transform="matrix(3.8264 0.2534 -0.2534 3.8264 1691.1449 267.0466)" class="st5 st6 st7">Verrucomicrobium spinosum</text></a>
			<path class="st3" d="M1093.4,213.6l-199.6-13.2"/>
		</g>
		<g>
			<path class="st4" d="M282.7,1321.1l49.5-598"/>
			<a class="book-appendix-tree-species-entry" id="Hyphomonas-neptunium"><text transform="matrix(-0.3167 3.8217 -3.8217 -0.3167 268.9641 1319.9368)" class="st5 st6 st7">Hyphomonas neptunium</text></a>
			<path class="st3" d="M332.3,723.1l16.5-199.3"/>
		</g>
		<g>
			<path class="st4" d="M335.6,1323.7l9.9-599.9"/>
			<a class="book-appendix-tree-species-entry" id="Sphingopyxis-alaskensis"><text transform="matrix(-6.341115e-02 3.8343 -3.8343 -6.341115e-02 321.7577 1323.4681)" class="st5 st6 st7">Sphingopyxis alaskensis</text></a>
			<path class="st3" d="M345.5,723.8l3.3-200"/>
		</g>
		<g>
			<path class="st4" d="M1317.2-484.6l-662.8,516"/>
			<a class="book-appendix-tree-species-entry" id="Nitrospirae"><text transform="matrix(3.0262 -2.3554 2.3554 3.0262 1325.7219 -473.6808)" class="st8 st9 st10">Nitrospirae</text></a>
			<path class="st3" d="M654.4,31.4L496.5,154.2"/>
		</g>
		<g>
			<path class="st4" d="M-812.2-17.2l959.5,31.7"/>
			<a class="book-appendix-tree-species-entry" id="EUKARYOTES"><text transform="matrix(3.8327 0.1268 -0.1268 3.8327 -1393.9773 3.1538)" class="st5 st9 st11">EUKARYOTES</text></a>
			<path class="st3" d="M147.3,14.6l199.9,6.6"/>
		</g>
		<g>
			<path class="st4" d="M548.1-884.5l-41.7,839"/>
			<a class="book-appendix-tree-species-entry" id="Fusobacteria"><text transform="matrix(-0.1901 3.8301 -3.8301 -0.1901 548.5151 -1171.153)" class="st8 st9 st10">Fusobacteria</text></a>
			<path class="st3" d="M506.4-45.5l-9.9,199.8"/>
		</g>
		<g>
			<path class="st4" d="M-548.6,839.8l422.1-228.5"/>
			<a class="book-appendix-tree-species-entry" id="Methyloprofundus-sedimenti"><text transform="matrix(3.3726 -1.8252 1.8252 3.3726 -1094.963 1151.1622)" class="st5 st6 st7">Methyloprofundus sedimenti</text></a>
			<path class="st3" d="M-126.5,611.4l175.9-95.2"/>
		</g>
		<g>
			<path class="st3" d="M29.4,446.7l199-19.8"/>
		</g>
		<g>
			<path class="st4" d="M76.2,1444.2l99.9-345.9"/>
			<a class="book-appendix-tree-species-entry" id="Azospirillum-brasilense"><text transform="matrix(-1.0638 3.6843 -3.6843 -1.0638 62.8953 1440.3644)" class="st5 st6 st7">Azospirillum brasilense</text></a>
			<path class="st3" d="M176,1098.3l55.5-192.2"/>
		</g>
		<g>
			<path class="st3" d="M37.2,485.5l191.2-58.6"/>
		</g>
		<g>
			<path class="st4" d="M-769.7-486.7l785,298.9"/>
			<a class="book-appendix-tree-species-entry" id="DPANN-group"><text transform="matrix(3.5839 1.3644 -1.3644 3.5839 -1057.9572 -581.683)" class="st8 st9 st10">DPANN group</text></a>
			<path class="st3" d="M15.4-187.8l186.9,71.2"/>
		</g>
		<g>
			<path class="st4" d="M907.5,1101.8L513.7,499.1"/>
			<a class="book-appendix-tree-species-entry" id="Bdellovibrio-bacteriovorus"><text transform="matrix(2.0974 3.2104 -3.2104 2.0974 895.901 1109.4003)" class="st5 st6 st7">Bdellovibrio bacteriovorus</text></a>
			<path class="st3" d="M513.7,499.1L404.3,331.7"/>
		</g>
		<g>
			<path class="st3" d="M293.3,716l55.5-192.2"/>
		</g>
		<g>
			<path class="st4" d="M-598.3,727.4l448.6-170.8"/>
			<a class="book-appendix-tree-species-entry" id="Proteus-mirabilis"><text transform="matrix(3.5839 -1.3644 1.3644 3.5839 -942.2494 873.1248)" class="st5 st6 st7">Proteus mirabilis</text></a>
			<path class="st3" d="M-149.8,556.7l186.9-71.2"/>
		</g>
		<g>
			<path class="st4" d="M-399.6-1423l96.4,219.8"/>
			<a class="book-appendix-tree-species-entry" id="Halomicrobium-mukohataei"><text transform="matrix(1.5404 3.5118 -3.5118 1.5404 -654.5172 -1969.8531)" class="st5 st6 st7">Halomicrobium mukohataei</text></a>
			<path class="st3" d="M-303.2-1203.2l80.3,183.2"/>
		</g>
		<g>
			<path class="st4" d="M1468.5,984.4L1110,665.2"/>
			<a class="book-appendix-tree-species-entry" id="Acetonema-longum"><text transform="matrix(2.8639 2.5502 -2.5502 2.8639 1459.3612 994.7473)" class="st5 st6 st7">Acetonema longum</text></a>
			<path class="st3" d="M1110.1,665.2l-149.4-133"/>
		</g>
		<g>
			<path class="st4" d="M1175.2-633.8L627,2.7"/>
			<a class="book-appendix-tree-species-entry" id="Thermodesulfobacteria"><text transform="matrix(2.5025 -2.9057 2.9057 2.5025 1185.682 -624.8087)" class="st8 st9 st10">Thermodesulfobacteria</text></a>
			<path class="st3" d="M627,2.7L496.5,154.2"/>
		</g>
		<g>
			<path class="st3" d="M23.9-474.1L104.2-291"/>
		</g>
		<g>
			<path class="st4" d="M1469.4,852.8L972.6,516.4"/>
			<a class="book-appendix-tree-species-entry" id="Clostridium-thermocellum"><text transform="matrix(3.1752 2.1502 -2.1502 3.1752 1461.6913 864.2258)" class="st5 st6 st7">Clostridium thermocellum</text></a>
			<path class="st3" d="M972.6,516.4L807,404.2"/>
		</g>
		<g>
			<path class="st4" d="M-487.4,938.7L-99,656.5"/>
			<a class="book-appendix-tree-species-entry" id="Pseudomonas-aeruginosa"><text transform="matrix(3.1024 -2.254 2.254 3.1024 -942.4964 1286.4132)" class="st5 st6 st7">Pseudomonas aeruginosa</text></a>
			<path class="st3" d="M-99,656.5L62.8,539"/>
		</g>
		<g>
			<path class="st4" d="M1427.1-310.3L675.5,64.9"/>
			<a class="book-appendix-tree-species-entry" id="Coleospermum"><text transform="matrix(3.4311 -1.7127 1.7127 3.4311 1433.2197 -297.9133)" class="st8 st9 st10">Coleospermum</text></a>
			<path class="st3" d="M675.5,64.9l-178.9,89.3"/>
		</g>
		<g>
			<path class="st3" d="M202.3-116.7L347.2,21.2"/>
		</g>
		<g>
			<path class="st3" d="M838,361.5l-175.9-95.2"/>
		</g>
		<g>
			<path class="st4" d="M1065.4-716.4L605.9-13.2"/>
			<a class="book-appendix-tree-species-entry" id="Acidobacteria"><text transform="matrix(2.0974 -3.2104 3.2104 2.0974 1076.915 -708.8976)" class="st8 st9 st10">Acidobacteria</text></a>
			<path class="st3" d="M605.9-13.2L496.5,154.2"/>
		</g>
		<g>
			<path class="st3" d="M807,404.2L662.1,266.4"/>
		</g>
		<g>
			<path class="st4" d="M751.8-854L545.6-39.7"/>
			<a class="book-appendix-tree-species-entry" id="Elusimicrobia"><text transform="matrix(-0.9414 3.7175 -3.7175 -0.9414 812.5144 -1149.7751)" class="st8 st9 st10">Elusimicrobia</text></a>
			<path class="st3" d="M545.6-39.7l-49.1,193.9"/>
		</g>
		<g>
			<path class="st4" d="M876.9,1212L582.7,689.1"/>
			<a class="book-appendix-tree-species-entry" id="Thiomonas-intermedia"><text transform="matrix(1.8807 3.342 -3.342 1.8807 864.9135 1218.767)" class="st5 st6 st7">Thiomonas intermedia</text></a>
			<path class="st3" d="M582.7,689.1l-98.1-174.3"/>
		</g>
		<g>
			<path class="st4" d="M1553.8,718.8l-536.8-268"/>
			<a class="book-appendix-tree-species-entry" id="Mycoplasma-pneumoniae"><text transform="matrix(3.4311 1.7127 -1.7127 3.4311 1547.6511 731.181)" class="st5 st6 st7">Mycoplasma pneumoniae</text></a>
			<path class="st3" d="M1017,450.9l-179-89.4"/>
		</g>
		<g>
			<path class="st3" d="M693.8,121.3l-197.3,32.9"/>
		</g>
		<g>
			<path class="st4" d="M-522.8-1163.6l301,373.9"/>
			<a class="book-appendix-tree-species-entry" id="Methanospirillum-hungatei"><text transform="matrix(2.4051 2.9868 -2.9868 2.4051 -900.6349 -1610.7744)" class="st5 st6 st7">Methanospirillum hungatei</text></a>
			<path class="st3" d="M-221.8-789.7L-96.4-634"/>
		</g>
		<g>
			<path class="st4" d="M479.3-885.7l13.9,839.9"/>
			<a class="book-appendix-tree-species-entry" id="Aquificae"><text transform="matrix(6.339820e-02 3.8343 -3.8343 6.339820e-02 462.1189 -1092.4396)" class="st8 st9 st10">Aquificae</text></a>
			<path class="st3" d="M493.2-45.8l3.3,200"/>
		</g>
		<g>
			<path class="st4" d="M-57.2,1304.6l221.4-425.9"/>
			<a class="book-appendix-tree-species-entry" id="Rhodopseudomonas-palustris"><text transform="matrix(-1.7692 3.4023 -3.4023 -1.7692 -69.4407 1298.1962)" class="st5 st6 st7">Rhodopseudomonas palustris</text></a>
			<path class="st3" d="M164.2,878.7l92.3-177.4"/>
		</g>
		<g>
			<path class="st4" d="M616.6-878.8l-97,834.4"/>
			<a class="book-appendix-tree-species-entry" id="Synergistetes"><text transform="matrix(-0.4429 3.8091 -3.8091 -0.4429 637.7703 -1180.1056)" class="st8 st9 st10">Synergistetes</text></a>
			<path class="st3" d="M519.6-44.5l-23.1,198.7"/>
		</g>
		<g>
			<path class="st3" d="M473.5,927.4L457,728.1"/>
		</g>
		<g>
			<path class="st3" d="M104.2-291l98.1,174.3"/>
		</g>
		<g>
			<path class="st3" d="M893.8,200.4L695.5,174"/>
		</g>
		<g>
			<path class="st4" d="M-602.7-879.7L-49.5-419"/>
			<a class="book-appendix-tree-species-entry" id="Methanobacterium-formicicum"><text transform="matrix(2.9467 2.4542 -2.4542 2.9467 -1126.1407 -1297.7069)" class="st5 st6 st7">Methanobacterium formicicum</text></a>
			<path class="st3" d="M-49.5-419l153.7,128"/>
		</g>
		<g>
			<path class="st4" d="M-700.9,666.3l350.4-82.6"/>
			<a class="book-appendix-tree-species-entry" id="Escherichia-coli"><text transform="matrix(3.7325 -0.8798 0.8798 3.7325 -1038.7186 760.0603)" class="st5 st6 st7">Escherichia coli</text></a>
			<path class="st3" d="M-350.5,583.7l194.7-45.9"/>
		</g>
		<g>
			<path class="st4" d="M-277.2-1469l66.6,230.6"/>
			<a class="book-appendix-tree-species-entry" id="Halorubrum-litoreum"><text transform="matrix(1.0638 3.6843 -3.6843 1.0638 -416.6119 -1902.2533)" class="st5 st6 st7">Halorubrum litoreum</text></a>
			<path class="st3" d="M-210.6-1238.4l55.5,192.2"/>
		</g>
		<g>
			<path class="st4" d="M1595.8-60.1l-705.9,142"/>
			<a class="book-appendix-tree-species-entry" id="Amoebophilus-asiaticus"><text transform="matrix(3.7596 -0.7559 0.7559 3.7596 1598.4779 -46.5254)" class="st5 st6 st7"> Amoebophilus asiaticus</text></a>
			<path class="st3" d="M889.9,81.9l-196.1,39.4"/>
		</g>
		<g>
			<path class="st4" d="M1497.3,949.9l-378.8-294.8"/>
			<a class="book-appendix-tree-species-entry" id="Sporomusa-acidovorans"><text transform="matrix(3.0262 2.3554 -2.3554 3.0262 1488.843 960.7756)" class="st5 st6 st7">Sporomusa acidovorans</text></a>
			<path class="st3" d="M1118.5,655.1L960.7,532.2"/>
		</g>
		<g>
			<path class="st4" d="M817.9-834.9L558.3-36"/>
			<a class="book-appendix-tree-species-entry" id="Coprothermobacterota"><text transform="matrix(-1.185 3.6471 -3.6471 -1.185 958.7984 -1313.1492)" class="st8 st9 st10">Coprothermobacterota</text></a>
			<path class="st3" d="M558.3-36l-61.8,190.2"/>
		</g>
		<g>
			<path class="st4" d="M-563.6-923.5l525.5,497.4"/>
			<a class="book-appendix-tree-species-entry" id="Thermococcus-kodakarensis"><text transform="matrix(2.8333 2.5843 -2.5843 2.8333 -1041.0078 -1352.2477)" class="st5 st6 st7">Thermococcus kodakarensis</text></a>
			<path class="st3" d="M-38.2-426.2L104.2-291"/>
		</g>
		<g>
			<path class="st3" d="M683.4,83.1l-186.9,71.2"/>
		</g>
		<g>
			<path class="st4" d="M-425.8-1410.4l110.7,212.9"/>
			<a class="book-appendix-tree-species-entry" id="Haloarcula-argentinensis"><text transform="matrix(1.7691 3.4023 -3.4023 1.7691 -690.4431 -1889.4263)" class="st5 st6 st7">Haloarcula argentinensis</text></a>
			<path class="st3" d="M-315.1-1197.5l92.3,177.4"/>
		</g>
		<g>
			<path class="st4" d="M1605.8,0L892.1,95"/>
			<a class="book-appendix-tree-species-entry" id="unclassified-Bacteroidetes"><text transform="matrix(3.8013 -0.5058 0.5058 3.8013 1607.5918 13.6281)" class="st5 st6 st7">unclassified Bacteroidetes</text></a>
			<path class="st3" d="M892.1,94.9l-198.3,26.4"/>
		</g>
		<g>
			<path class="st4" d="M762.8,1349.6L614.5,893.1"/>
			<a class="book-appendix-tree-species-entry" id="Hylemonella-gracilis"><text transform="matrix(1.185 3.6471 -3.6471 1.185 749.6677 1353.8621)" class="st5 st6 st7">Hylemonella gracilis</text></a>
			<path class="st3" d="M614.5,893.1l-61.8-190.2"/>
		</g>
		<g>
			<path class="st4" d="M1586.9,646.7l-553.4-231.9"/>
			<a class="book-appendix-tree-species-entry" id="Mycobacterium-marinum"><text transform="matrix(3.5368 1.4822 -1.4822 3.5368 1581.5466 659.4413)" class="st5 st6 st7">Mycobacterium marinum</text></a>
			<path class="st3" d="M1033.5,414.8L849,337.5"/>
		</g>
		<g>
			<path class="st4" d="M1273.2-537.4L645.9,21.2"/>
			<a class="book-appendix-tree-species-entry" id="Calditrichaeota"><text transform="matrix(2.8639 -2.5502 2.5502 2.8639 1282.4067 -527.1083)" class="st8 st9 st10">Calditrichaeota</text></a>
			<path class="st3" d="M645.9,21.2l-149.4,133"/>
		</g>
		<g>
			<path class="st4" d="M-776.1-661.1l633.2,342.7"/>
			<a class="book-appendix-tree-species-entry" id="Nitrosopumilus-maritimus"><text transform="matrix(3.3726 1.8252 -1.8252 3.3726 -1283.8932 -920.287)" class="st5 st6 st7">Nitrosopumilus maritimus</text></a>
			<path class="st3" d="M-142.8-318.5l175.9,95.2"/>
		</g>
		<g>
			<path class="st4" d="M148.3,1380.3l102.4-469"/>
			<a class="book-appendix-tree-species-entry" id="Gluconacetobacter-hansenii"><text transform="matrix(-0.818 3.7466 -3.7466 -0.818 134.7762 1377.3663)" class="st5 st6 st7">Gluconacetobacter hansenii</text></a>
			<path class="st3" d="M250.6,911.4L293.3,716"/>
		</g>
		<g>
			<path class="st3" d="M62.8,539l165.6-112.1"/>
		</g>
		<g>
			<path class="st3" d="M-155.9,537.8l193-52.3"/>
		</g>
		<g>
			<path class="st4" d="M1553.6-215.7l-681,233.8"/>
			<a class="book-appendix-tree-species-entry" id="Treponema-primitia"><text transform="matrix(3.627 -1.2452 1.2452 3.627 1558.0835 -202.62)" class="st5 st6 st7">Treponema primitia</text></a>
			<path class="st3" d="M872.6,18.1l-189.2,65"/>
		</g>
		<g>
			<path class="st4" d="M-273.4,1049.9l376.3-467.3"/>
			<a class="book-appendix-tree-species-entry" id="Legionella-pneumophila"><text transform="matrix(2.4051 -2.9868 2.9868 2.4051 -592.8269 1468.6709)" class="st5 st6 st7">Legionella pneumophila</text></a>
			<path class="st3" d="M102.9,582.6l125.4-155.8"/>
		</g>
		<g>
			<path class="st3" d="M-93.3-856.1l49.1,193.9"/>
		</g>
		<g>
			<path class="st4" d="M-792-421.6L11.1-175.3"/>
			<a class="book-appendix-tree-species-entry" id="unclassified-Archaea"><text transform="matrix(3.6662 1.1246 -1.1246 3.6662 -1234.3812 -542.9123)" class="st8 st9 st10">unclassified Archaea</text></a>
			<path class="st3" d="M11.1-175.3l191.2,58.7"/>
		</g>
		<g>
			<path class="st4" d="M-823.5-287.8L5-149.6"/>
			<a class="book-appendix-tree-species-entry" id="environmental-samples"><text transform="matrix(3.7825 0.6312 -0.6312 3.7825 -1330.1351 -358.3926)" class="st8 st9 st10">environmental samples</text></a>
			<path class="st3" d="M5-149.6l197.3,32.9"/>
		</g>
		<g>
			<path class="st4" d="M1765.1,323l-475.8-63.3"/>
			<a class="book-appendix-tree-species-entry" id="Prosthecobacter-debontii"><text transform="matrix(3.8013 0.5058 -0.5058 3.8013 1763.3153 336.6837)" class="st5 st6 st7">Prosthecobacter debontii</text></a>
			<path class="st3" d="M1289.3,259.7L1091,233.3"/>
		</g>
		<g>
			<path class="st4" d="M1611.8,60.5l-718.4,47.6"/>
			<a class="book-appendix-tree-species-entry" id="Flavobacterium-johnsoniae"><text transform="matrix(3.8264 -0.2534 0.2534 3.8264 1612.7102 74.2621)" class="st5 st6 st7">Flavobacterium johnsoniae</text></a>
			<path class="st3" d="M893.4,108.1l-199.6,13.2"/>
		</g>
		<g>
			<path class="st3" d="M-155.1-1046.3l61.8,190.2"/>
		</g>
		<g>
			<path class="st4" d="M-809.4-761.8L-301.8-442"/>
			<a class="book-appendix-tree-species-entry" id="Sulfolobus-acidocaldarius"><text transform="matrix(3.2446 2.0441 -2.0441 3.2446 -1301.2034 -1055.3615)" class="st5 st6 st7">Sulfolobus acidocaldarius</text></a>
			<path class="st3" d="M-301.8-442l169.2,106.6"/>
		</g>
		<g>
			<path class="st4" d="M1615.6,174l-720,0"/>
			<a class="book-appendix-tree-species-entry" id="Simkania-negevensis"><text transform="matrix(3.8348 0 0 3.8348 1615.5521 187.8236)" class="st5 st6 st7">Simkania negevensis</text></a>
			<path class="st3" d="M895.5,174l-200,0"/>
		</g>
		<g>
			<path class="st4" d="M501.3,1486.7l-17.8-359.6"/>
			<a class="book-appendix-tree-species-entry" id="Helicobacter-hepaticus"><text transform="matrix(0.1901 3.8301 -3.8301 0.1901 487.5127 1487.4241)" class="st5 st6 st7">Helicobacter hepaticus</text></a>
			<path class="st3" d="M483.4,1127.2l-9.9-199.8"/>
		</g>
		<g>
			<path class="st3" d="M-136.5-839.6l92.3,177.4"/>
		</g>
		<g>
			<path class="st3" d="M404.3,331.7l92.3-177.4"/>
		</g>
		<g>
			<path class="st3" d="M231.5,906.2L293.3,716"/>
		</g>
		<g>
			<path class="st3" d="M33.1-223.3l169.2,106.6"/>
		</g>
		<g>
			<path class="st4" d="M-313.5,1015.4L92.9,574"/>
			<a class="book-appendix-tree-species-entry" id="Vibrio-cholerae"><text transform="matrix(2.5972 -2.8214 2.8214 2.5972 -527.8256 1268.662)" class="st5 st6 st7">Vibrio cholerae</text></a>
			<path class="st3" d="M92.9,574l135.5-147.1"/>
		</g>
		<g>
			<path class="st4" d="M1357.7-428.9l-695.5,471"/>
			<a class="book-appendix-tree-species-entry" id="Bacteria-incertae-sedis"><text transform="matrix(3.1753 -2.1502 2.1502 3.1753 1365.4044 -417.5041)" class="st8 st9 st10">Bacteria incertae sedis</text></a>
			<path class="st3" d="M662.1,42.1L496.5,154.2"/>
		</g>
	</g>
	<g id="scaleHolder">
	</g>
	<g id="bootstrapHolder">
	</g>
	<g id="branchlengthHolder">
	</g>
	<g id="datasetHolder">
	</g>
</g>
<g id="wrapperHolder">
</g>
<g id="legendHolder">
</g>
<g class="st12">
	<g>
		<path class="st8" d="M927.5,1084.6c0.5-3.1,0.8-4.7,1.3-7.8c1,0.2,1.5,0.2,2.5,0.4c1,0.1,1.6,0.3,1.9,0.4c0.4,0.2,0.8,0.5,1,0.9
			s0.3,1,0.2,1.6c-0.1,0.5-0.2,0.9-0.4,1.2c-0.2,0.3-0.5,0.5-0.8,0.7c-0.3,0.1-0.6,0.2-0.9,0.2c-0.4,0-1,0-1.7-0.1
			c-0.4-0.1-0.6-0.1-1-0.2c-0.2,1.2-0.3,1.8-0.5,2.9C928.5,1084.8,928.2,1084.8,927.5,1084.6z M930.2,1078.4
			c-0.1,0.9-0.2,1.3-0.3,2.2c0.3,0.1,0.5,0.1,0.9,0.1c0.6,0.1,1.1,0.1,1.3,0.1s0.4-0.2,0.6-0.3c0.1-0.2,0.2-0.3,0.3-0.6
			c0-0.3,0-0.5-0.1-0.7s-0.3-0.4-0.6-0.4c-0.2-0.1-0.6-0.1-1.1-0.2C930.6,1078.5,930.5,1078.5,930.2,1078.4z"/>
		<path class="st8" d="M936.5,1086c-0.6-0.1-0.9-0.1-1.5-0.2c0.3-2.3,0.5-3.4,0.8-5.7c0.6,0.1,0.8,0.1,1.4,0.2
			c0,0.3-0.1,0.5-0.1,0.8c0.3-0.3,0.5-0.6,0.7-0.7s0.4-0.1,0.7-0.1s0.7,0.2,1,0.4c-0.3,0.5-0.4,0.7-0.6,1.2
			c-0.2-0.2-0.5-0.3-0.7-0.3s-0.4,0-0.6,0.1c-0.2,0.1-0.3,0.3-0.4,0.6c-0.1,0.3-0.3,0.9-0.4,1.9
			C936.6,1084.9,936.6,1085.3,936.5,1086z"/>
		<path class="st8" d="M939.4,1083.4c0.1-0.5,0.2-1,0.6-1.4c0.3-0.4,0.7-0.7,1.2-0.9c0.5-0.2,1-0.3,1.6-0.2c0.9,0.1,1.5,0.5,2,1.1
			s0.7,1.3,0.6,2.2c-0.1,0.9-0.4,1.5-1.1,2c-0.6,0.5-1.4,0.7-2.2,0.6c-0.5-0.1-1-0.2-1.5-0.5s-0.8-0.7-1-1.2
			S939.3,1084,939.4,1083.4z M940.9,1083.6c-0.1,0.6,0,1,0.3,1.3c0.2,0.3,0.6,0.5,1,0.6c0.4,0,0.8-0.1,1.1-0.3
			c0.3-0.3,0.5-0.7,0.6-1.3c0.1-0.6,0-1-0.3-1.3c-0.2-0.3-0.6-0.5-0.9-0.6s-0.7,0.1-1.1,0.3C941.2,1082.7,941,1083.1,940.9,1083.6z"
			/>
		<path class="st8" d="M949.5,1081.7c0,0.5-0.1,0.7-0.1,1.2c-0.4,0-0.6-0.1-1-0.1c-0.1,0.9-0.1,1.4-0.2,2.3c0,0.5-0.1,0.7,0,0.8
			c0,0.1,0.1,0.1,0.1,0.2c0.1,0.1,0.2,0.1,0.3,0.1s0.4,0,0.6-0.1c0,0.5,0,0.7,0,1.2c-0.4,0.1-0.8,0.2-1.2,0.1
			c-0.3,0-0.5-0.1-0.7-0.2s-0.4-0.2-0.5-0.4c-0.1-0.2-0.1-0.4-0.2-0.6c0-0.2,0-0.5,0.1-1.1c0.1-1,0.1-1.5,0.2-2.5
			c-0.3,0-0.4,0-0.7-0.1c0-0.5,0.1-0.7,0.1-1.2c0.3,0,0.4,0,0.7,0.1c0-0.5,0.1-0.7,0.1-1.1c0.6-0.3,1-0.4,1.6-0.7
			c-0.1,0.8-0.1,1.2-0.2,2C948.8,1081.6,949,1081.6,949.5,1081.7z"/>
		<path class="st8" d="M953.5,1085.9c0.6,0.1,0.9,0.2,1.5,0.4c-0.2,0.5-0.6,0.9-1,1.2c-0.4,0.3-1,0.4-1.6,0.3
			c-1-0.1-1.7-0.5-2.2-1.2c-0.3-0.5-0.5-1.2-0.4-2c0.1-0.9,0.4-1.7,0.9-2.1c0.5-0.5,1.2-0.7,2-0.6c0.9,0.1,1.5,0.4,2,1
			s0.6,1.5,0.5,2.6c-1.5-0.1-2.3-0.2-3.9-0.3c0,0.4,0.1,0.8,0.3,1.1c0.2,0.3,0.5,0.4,0.9,0.4c0.2,0,0.5,0,0.6-0.1
			C953.3,1086.4,953.4,1086.2,953.5,1085.9z M953.7,1084.4c0-0.4-0.1-0.8-0.3-1s-0.5-0.4-0.8-0.4s-0.6,0.1-0.9,0.3s-0.4,0.5-0.4,0.9
			C952.4,1084.3,952.8,1084.3,953.7,1084.4z"/>
		<path class="st8" d="M956.1,1085c0-0.5,0.2-1,0.5-1.4c0.3-0.5,0.7-0.8,1.1-1c0.5-0.2,1-0.3,1.6-0.3c0.9,0.1,1.6,0.4,2.1,1
			s0.8,1.3,0.7,2.2c0,0.9-0.4,1.6-1,2.1s-1.3,0.8-2.2,0.7c-0.5,0-1-0.2-1.5-0.4c-0.5-0.3-0.8-0.6-1-1.1
			C956.2,1086.2,956.1,1085.6,956.1,1085z M957.7,1085.2c0,0.6,0.1,1,0.3,1.3c0.3,0.3,0.6,0.5,1,0.5s0.8-0.1,1-0.4
			c0.3-0.3,0.4-0.7,0.5-1.3c0-0.6-0.1-1-0.3-1.3c-0.3-0.3-0.6-0.5-1-0.5s-0.7,0.1-1,0.4S957.7,1084.6,957.7,1085.2z"/>
		<path class="st8" d="M963.1,1088.3c0.1-3.1,0.2-4.7,0.4-7.9c0.6,0,0.9,0,1.5,0.1c0,1.1-0.1,1.7-0.1,2.8c0.5-0.5,1.1-0.8,1.7-0.7
			c0.7,0,1.3,0.3,1.7,0.8s0.7,1.2,0.6,2.2c0,1-0.3,1.7-0.8,2.2s-1.1,0.8-1.8,0.7c-0.3,0-0.7-0.1-1-0.3c-0.3-0.2-0.6-0.4-0.8-0.8
			c0,0.3,0,0.5,0,0.8C964,1088.3,963.7,1088.3,963.1,1088.3z M964.8,1085.4c0,0.6,0.1,1,0.2,1.3c0.3,0.4,0.6,0.6,1,0.6
			c0.3,0,0.6-0.1,0.9-0.4c0.2-0.3,0.4-0.7,0.4-1.3c0-0.7-0.1-1.1-0.3-1.4s-0.5-0.4-0.9-0.5c-0.4,0-0.7,0.1-0.9,0.4
			S964.8,1084.8,964.8,1085.4z"/>
		<path class="st8" d="M971.4,1084.6c-0.6-0.1-0.8-0.2-1.4-0.3c0.2-0.5,0.4-0.9,0.8-1.2c0.4-0.3,1-0.4,1.7-0.4s1.2,0.1,1.5,0.3
			c0.3,0.2,0.6,0.4,0.7,0.6c0.1,0.2,0.2,0.7,0.2,1.4c0,0.7,0,1.1,0,1.8c0,0.5,0,0.9,0.1,1.1c0,0.2,0.1,0.5,0.3,0.8
			c-0.6,0-0.9,0-1.5,0c0-0.1-0.1-0.3-0.1-0.4s0-0.1-0.1-0.2c-0.3,0.2-0.6,0.4-0.9,0.6c-0.3,0.1-0.6,0.2-1,0.2
			c-0.6,0-1.1-0.2-1.4-0.5c-0.3-0.3-0.5-0.7-0.5-1.2c0-0.3,0.1-0.6,0.3-0.9c0.2-0.2,0.4-0.4,0.7-0.6c0.3-0.1,0.7-0.2,1.2-0.3
			c0.7-0.1,1.2-0.2,1.5-0.3c0-0.1,0-0.1,0-0.2c0-0.3-0.1-0.5-0.2-0.6c-0.1-0.1-0.4-0.2-0.8-0.2c-0.3,0-0.5,0-0.6,0.1
			C971.6,1084.2,971.5,1084.3,971.4,1084.6z M973.4,1085.9c-0.2,0.1-0.5,0.1-0.9,0.2s-0.7,0.2-0.8,0.2c-0.2,0.1-0.3,0.3-0.3,0.5
			s0.1,0.4,0.2,0.6c0.2,0.2,0.4,0.2,0.6,0.2c0.3,0,0.6-0.1,0.8-0.3c0.2-0.1,0.3-0.3,0.4-0.5c0-0.1,0.1-0.4,0.1-0.7
			C973.4,1086,973.4,1086,973.4,1085.9z"/>
		<path class="st8" d="M981.5,1084.6c-0.6,0.1-0.9,0.2-1.5,0.3c-0.1-0.3-0.2-0.5-0.4-0.7c-0.2-0.1-0.4-0.2-0.7-0.2
			c-0.4,0-0.7,0.1-0.9,0.4s-0.3,0.7-0.3,1.3c0,0.7,0.1,1.2,0.4,1.4c0.2,0.3,0.5,0.4,0.9,0.4c0.3,0,0.5-0.1,0.7-0.2
			c0.2-0.2,0.3-0.4,0.4-0.8c0.6,0.1,0.9,0.1,1.5,0.2c-0.1,0.7-0.4,1.2-0.9,1.6c-0.4,0.4-1,0.5-1.8,0.5c-0.9,0-1.5-0.3-2.1-0.8
			c-0.5-0.5-0.8-1.3-0.8-2.2c0-0.9,0.3-1.7,0.8-2.2s1.2-0.8,2-0.8c0.7,0,1.3,0.1,1.7,0.4S981.3,1084,981.5,1084.6z"/>
		<path class="st8" d="M985.3,1082.8c0,0.5,0,0.7,0,1.2c-0.4,0-0.6,0-1,0c0,0.9,0,1.4,0.1,2.3c0,0.5,0,0.7,0,0.8
			c0,0.1,0.1,0.1,0.1,0.2c0.1,0,0.2,0.1,0.3,0.1s0.4-0.1,0.6-0.2c0.1,0.5,0.1,0.7,0.2,1.2c-0.4,0.2-0.8,0.2-1.2,0.3
			c-0.3,0-0.5,0-0.8-0.1c-0.2-0.1-0.4-0.2-0.5-0.3c-0.1-0.1-0.2-0.3-0.2-0.6c0-0.2-0.1-0.5-0.1-1.1c0-1,0-1.5,0-2.5
			c-0.3,0-0.4,0-0.7,0c0-0.5,0-0.7,0-1.2c0.3,0,0.4,0,0.7,0c0-0.5,0-0.7,0-1.1c0.6-0.4,0.9-0.5,1.5-0.9c0,0.8,0,1.2,0,2
			C984.7,1082.8,984.9,1082.8,985.3,1082.8z"/>
		<path class="st8" d="M989.8,1086.5c0.6,0.1,0.9,0.1,1.6,0.2c-0.2,0.6-0.5,1-0.9,1.3s-1,0.5-1.6,0.5c-1,0-1.8-0.3-2.3-0.9
			c-0.4-0.5-0.6-1.2-0.6-1.9c0-0.9,0.2-1.7,0.7-2.2s1.1-0.8,1.9-0.9c0.9,0,1.5,0.2,2.1,0.8c0.5,0.5,0.8,1.4,0.8,2.5
			c-1.5,0.1-2.3,0.1-3.9,0.2c0,0.4,0.2,0.8,0.4,1s0.6,0.4,0.9,0.3c0.2,0,0.4-0.1,0.6-0.2C989.7,1087,989.8,1086.8,989.8,1086.5z
			 M989.9,1085c0-0.4-0.2-0.8-0.4-1s-0.5-0.3-0.8-0.3s-0.6,0.1-0.8,0.4c-0.2,0.2-0.3,0.6-0.3,1
			C988.5,1085.1,988.9,1085.1,989.9,1085z"/>
		<path class="st8" d="M994.3,1088.1c-0.6,0-0.9,0.1-1.6,0.1c-0.1-2.3-0.2-3.4-0.3-5.7c0.6,0,0.9,0,1.4-0.1c0,0.3,0,0.5,0,0.8
			c0.2-0.4,0.4-0.7,0.6-0.8c0.2-0.1,0.4-0.2,0.6-0.2c0.3,0,0.7,0.1,1,0.2c-0.2,0.5-0.2,0.8-0.4,1.3c-0.3-0.1-0.5-0.2-0.7-0.2
			s-0.4,0.1-0.5,0.2s-0.2,0.3-0.3,0.7c-0.1,0.3-0.1,0.9,0,1.9C994.3,1087.1,994.3,1087.4,994.3,1088.1z"/>
		<path class="st8" d="M997.2,1088c-0.1-2.3-0.2-3.4-0.4-5.7c0.6,0,0.9-0.1,1.5-0.1c0.2,2.3,0.2,3.4,0.4,5.7
			C998.2,1087.9,997.9,1087.9,997.2,1088z M996.8,1081.5c0-0.6-0.1-0.8-0.1-1.4c0.6,0,0.9-0.1,1.5-0.1c0,0.6,0.1,0.8,0.1,1.4
			C997.7,1081.4,997.4,1081.5,996.8,1081.5z"/>
		<path class="st8" d="M1001.2,1083.7c-0.6-0.1-0.8-0.1-1.4-0.1c0.1-0.6,0.4-1,0.7-1.3c0.4-0.3,0.9-0.5,1.7-0.5
			c0.7-0.1,1.2,0,1.5,0.1s0.6,0.3,0.8,0.5s0.3,0.7,0.3,1.3c0.1,0.7,0.1,1.1,0.1,1.8c0,0.5,0.1,0.9,0.2,1.1c0.1,0.2,0.2,0.5,0.3,0.7
			c-0.6,0.1-0.9,0.1-1.5,0.1c0-0.1-0.1-0.2-0.2-0.4c0-0.1-0.1-0.1-0.1-0.2c-0.2,0.3-0.5,0.5-0.8,0.6c-0.3,0.2-0.6,0.2-1,0.3
			c-0.6,0-1.1-0.1-1.5-0.4s-0.6-0.7-0.6-1.2c0-0.3,0-0.6,0.2-0.9c0.1-0.3,0.3-0.5,0.6-0.6c0.3-0.2,0.7-0.3,1.2-0.4
			c0.7-0.2,1.2-0.4,1.5-0.5c0-0.1,0-0.1,0-0.2c0-0.3-0.1-0.5-0.3-0.6s-0.4-0.1-0.8-0.1c-0.3,0-0.5,0.1-0.6,0.2
			C1001.4,1083.2,1001.3,1083.4,1001.2,1083.7z M1003.4,1084.8c-0.2,0.1-0.5,0.2-0.9,0.3c-0.4,0.1-0.7,0.2-0.8,0.3
			c-0.2,0.2-0.3,0.3-0.3,0.6c0,0.2,0.1,0.4,0.3,0.5s0.4,0.2,0.6,0.2c0.3,0,0.5-0.1,0.8-0.3c0.2-0.1,0.3-0.3,0.3-0.5
			c0-0.1,0-0.4,0-0.7C1003.4,1084.9,1003.4,1084.9,1003.4,1084.8z"/>
	</g>
</g>
<g class="st12">
	<g>
		<path class="st8" d="M1498.7,527.1c2.6,0.1,3.9,0.1,6.5,0.2c0-1,0-1.4,0.1-2.4c0.5,0,0.8,0,1.3,0c-0.1,2.6-0.1,3.9-0.2,6.4
			c-0.5,0-0.8,0-1.3-0.1c0-1,0-1.4,0.1-2.4c-2.6-0.1-3.9-0.1-6.5-0.2C1498.7,528.1,1498.7,527.8,1498.7,527.1z"/>
		<path class="st8" d="M1500.3,534.7c-0.1,0.6-0.2,0.9-0.3,1.5c-0.5-0.2-0.9-0.5-1.2-1c-0.3-0.4-0.4-1-0.4-1.6c0-1,0.4-1.7,1.1-2.2
			c0.5-0.4,1.2-0.5,2-0.5c0.9,0,1.7,0.3,2.2,0.8s0.8,1.2,0.7,1.9c0,0.9-0.3,1.5-0.9,2s-1.4,0.7-2.6,0.6c0.1-1.5,0.1-2.3,0.2-3.8
			c-0.4,0-0.8,0.1-1.1,0.3c-0.3,0.2-0.4,0.5-0.4,0.9c0,0.2,0,0.4,0.2,0.6C1499.8,534.5,1500,534.6,1500.3,534.7z M1501.8,534.9
			c0.4,0,0.8-0.1,1-0.3s0.4-0.5,0.4-0.8s-0.1-0.6-0.3-0.8c-0.2-0.2-0.6-0.3-1-0.4C1501.9,533.5,1501.9,534,1501.8,534.9z"/>
		<path class="st8" d="M1498.3,538.9c0-0.6,0-0.9,0.1-1.5c2.3,0.1,3.4,0.2,5.7,0.3c0,0.6,0,0.9-0.1,1.4c-0.3,0-0.5,0-0.8,0
			c0.4,0.3,0.6,0.5,0.7,0.7s0.2,0.4,0.1,0.7c0,0.4-0.1,0.7-0.3,1c-0.5-0.2-0.8-0.3-1.3-0.5c0.2-0.2,0.3-0.5,0.3-0.7s0-0.4-0.1-0.6
			c-0.1-0.2-0.3-0.3-0.6-0.4c-0.3-0.1-0.9-0.2-1.9-0.2C1499.3,539,1499,539,1498.3,538.9z"/>
		<path class="st8" d="M1498.1,543.2c0-0.6,0.1-0.9,0.1-1.5c2.3,0.1,3.4,0.2,5.7,0.3c0,0.6,0,0.9-0.1,1.4c-0.3,0-0.5,0-0.8,0
			c0.4,0.3,0.6,0.5,0.7,0.7s0.2,0.4,0.1,0.7c0,0.3-0.1,0.7-0.3,1c-0.5-0.2-0.8-0.3-1.3-0.6c0.2-0.2,0.3-0.5,0.3-0.7s0-0.4-0.1-0.6
			c-0.1-0.2-0.3-0.3-0.6-0.4c-0.3-0.1-0.9-0.2-1.9-0.2C1499.1,543.3,1498.8,543.3,1498.1,543.2z"/>
		<path class="st8" d="M1501.8,547.5c0.1-0.5,0.2-0.8,0.3-1.4c0.5,0.2,0.9,0.5,1.2,0.9c0.2,0.4,0.3,1,0.3,1.7s-0.2,1.2-0.3,1.5
			c-0.2,0.3-0.4,0.5-0.7,0.7c-0.3,0.1-0.7,0.2-1.4,0.1c-0.7-0.1-1.1-0.1-1.8-0.1c-0.5,0-0.9,0-1.1,0s-0.5,0.1-0.8,0.2
			c0-0.6,0.1-0.9,0.1-1.5c0.1,0,0.3-0.1,0.5-0.1c0.1,0,0.2,0,0.2,0c-0.2-0.3-0.4-0.6-0.5-0.9c-0.1-0.3-0.1-0.6-0.1-1
			c0-0.6,0.2-1,0.6-1.4c0.3-0.3,0.8-0.5,1.2-0.4c0.3,0,0.6,0.1,0.8,0.3c0.2,0.2,0.4,0.4,0.5,0.7s0.2,0.7,0.3,1.2
			c0.1,0.7,0.2,1.2,0.3,1.5c0.1,0,0.1,0,0.1,0c0.3,0,0.5,0,0.6-0.2c0.1-0.1,0.2-0.4,0.2-0.8c0-0.3,0-0.5-0.1-0.6
			C1502.2,547.7,1502,547.6,1501.8,547.5z M1500.4,549.5c-0.1-0.2-0.1-0.5-0.2-0.9s-0.1-0.7-0.2-0.8c-0.1-0.2-0.3-0.3-0.5-0.3
			s-0.4,0.1-0.6,0.2c-0.2,0.1-0.3,0.3-0.3,0.6s0.1,0.5,0.2,0.8c0.1,0.2,0.3,0.3,0.5,0.4c0.1,0,0.4,0.1,0.7,0.1
			C1500.2,549.4,1500.3,549.4,1500.4,549.5z"/>
		<path class="st8" d="M1497.5,552.2c3.1,0.2,4.7,0.4,7.9,0.6c0,0.6-0.1,0.9-0.1,1.5c-1.1-0.1-1.7-0.1-2.8-0.2
			c0.5,0.5,0.7,1.1,0.7,1.7c-0.1,0.7-0.4,1.3-0.9,1.7s-1.3,0.6-2.2,0.5c-1-0.1-1.7-0.4-2.2-0.9s-0.7-1.1-0.7-1.8
			c0-0.3,0.1-0.6,0.3-0.9c0.2-0.3,0.4-0.6,0.8-0.8c-0.3,0-0.5,0-0.8-0.1C1497.4,553,1497.4,552.8,1497.5,552.2z M1500.3,553.9
			c-0.6,0-1,0-1.3,0.2c-0.4,0.2-0.6,0.6-0.7,1c0,0.3,0.1,0.6,0.4,0.9c0.3,0.3,0.7,0.4,1.3,0.5c0.6,0.1,1.1,0,1.4-0.2
			s0.5-0.5,0.5-0.9s-0.1-0.7-0.3-0.9C1501.3,554.1,1500.9,554,1500.3,553.9z"/>
		<path class="st8" d="M1500.8,560.5c0.1-0.5,0.2-0.8,0.4-1.4c0.5,0.2,0.9,0.5,1.2,0.9c0.2,0.4,0.3,1,0.2,1.7
			c-0.1,0.7-0.2,1.2-0.4,1.5c-0.2,0.3-0.4,0.5-0.7,0.6c-0.3,0.1-0.7,0.1-1.4,0.1c-0.7-0.1-1.1-0.1-1.8-0.2c-0.5,0-0.9-0.1-1.1,0
			c-0.2,0-0.5,0.1-0.8,0.2c0.1-0.6,0.1-0.9,0.1-1.5c0.1,0,0.3-0.1,0.5-0.1c0.1,0,0.2,0,0.2,0c-0.2-0.3-0.4-0.6-0.5-0.9
			c-0.1-0.3-0.1-0.6-0.1-1c0.1-0.6,0.3-1,0.6-1.3c0.3-0.3,0.8-0.4,1.2-0.4c0.3,0,0.6,0.1,0.8,0.3c0.2,0.2,0.4,0.4,0.5,0.7
			s0.2,0.7,0.2,1.2c0.1,0.7,0.1,1.2,0.2,1.5c0.1,0,0.1,0,0.1,0c0.3,0,0.5,0,0.6-0.2c0.1-0.1,0.2-0.4,0.3-0.8c0-0.3,0-0.5-0.1-0.6
			C1501.2,560.7,1501,560.6,1500.8,560.5z M1499.4,562.4c0-0.2-0.1-0.5-0.1-0.9c-0.1-0.4-0.1-0.7-0.2-0.9s-0.3-0.3-0.5-0.3
			s-0.4,0-0.6,0.2c-0.2,0.1-0.3,0.3-0.3,0.6s0,0.5,0.2,0.8c0.1,0.2,0.3,0.3,0.5,0.4c0.1,0.1,0.4,0.1,0.7,0.1
			C1499.2,562.4,1499.3,562.4,1499.4,562.4z"/>
		<path class="st8" d="M1499.9,570.5c0-0.6-0.1-0.9-0.1-1.5c0.3,0,0.5-0.1,0.7-0.3s0.3-0.4,0.3-0.7c0-0.4-0.1-0.7-0.3-0.9
			c-0.2-0.3-0.7-0.4-1.3-0.5c-0.7-0.1-1.2,0-1.5,0.2s-0.5,0.5-0.5,0.9c0,0.3,0,0.5,0.2,0.7c0.1,0.2,0.4,0.4,0.8,0.5
			c-0.2,0.6-0.2,0.9-0.4,1.5c-0.7-0.2-1.1-0.6-1.4-1.1s-0.4-1.1-0.3-1.8c0.1-0.8,0.4-1.5,1-1.9s1.3-0.6,2.2-0.5
			c0.9,0.1,1.6,0.4,2.1,1s0.7,1.3,0.6,2.1c-0.1,0.7-0.3,1.2-0.6,1.6C1501,570.2,1500.5,570.4,1499.9,570.5z"/>
		<path class="st8" d="M1501.1,574.5c-0.5-0.1-0.7-0.1-1.2-0.1c0-0.4,0.1-0.6,0.1-1c-0.9-0.1-1.4-0.2-2.3-0.3
			c-0.5-0.1-0.7-0.1-0.8-0.1c-0.1,0-0.1,0-0.2,0.1s-0.1,0.1-0.1,0.2c0,0.1,0,0.3,0.1,0.6c-0.5,0-0.7,0-1.2,0
			c-0.1-0.4-0.1-0.8-0.1-1.2c0-0.3,0.1-0.5,0.2-0.7s0.3-0.4,0.4-0.4c0.2-0.1,0.4-0.1,0.6-0.1s0.5,0,1.1,0.1c1,0.1,1.5,0.2,2.5,0.3
			c0-0.3,0-0.4,0.1-0.7c0.5,0.1,0.7,0.1,1.2,0.1c0,0.3,0,0.4-0.1,0.7c0.5,0.1,0.7,0.1,1.1,0.1c0.3,0.7,0.4,1,0.7,1.6
			c-0.8-0.1-1.2-0.1-2-0.2C1501.2,573.9,1501.2,574.1,1501.1,574.5z"/>
		<path class="st8" d="M1496.7,578.4c-0.2,0.6-0.3,0.9-0.4,1.5c-0.5-0.3-0.9-0.6-1.1-1.1s-0.3-1-0.2-1.6c0.1-1,0.5-1.7,1.2-2.1
			c0.6-0.3,1.2-0.4,2-0.3c0.9,0.1,1.6,0.4,2.1,1s0.7,1.2,0.6,2c-0.1,0.9-0.5,1.5-1.1,1.9s-1.5,0.5-2.6,0.4c0.2-1.5,0.3-2.3,0.5-3.8
			c-0.4,0-0.8,0-1.1,0.2c-0.3,0.2-0.4,0.5-0.5,0.8c0,0.2,0,0.4,0.1,0.6C1496.3,578.1,1496.5,578.3,1496.7,578.4z M1498.2,578.7
			c0.4,0,0.8,0,1-0.2c0.3-0.2,0.4-0.4,0.4-0.7s0-0.6-0.3-0.9c-0.2-0.2-0.5-0.4-0.9-0.4C1498.4,577.3,1498.4,577.8,1498.2,578.7z"/>
		<path class="st8" d="M1494.4,582.4c0.1-0.6,0.1-0.9,0.2-1.5c2.3,0.3,3.4,0.4,5.7,0.7c-0.1,0.6-0.1,0.8-0.2,1.4
			c-0.3,0-0.5-0.1-0.8-0.1c0.4,0.3,0.6,0.5,0.7,0.7s0.1,0.4,0.1,0.7s-0.2,0.7-0.4,1c-0.5-0.3-0.7-0.4-1.2-0.6
			c0.2-0.2,0.3-0.5,0.3-0.7s0-0.4-0.1-0.6c-0.1-0.2-0.3-0.3-0.6-0.4c-0.3-0.1-0.9-0.2-1.9-0.4
			C1495.5,582.6,1495.1,582.5,1494.4,582.4z"/>
		<path class="st8" d="M1494,585.2c2.3,0.3,3.4,0.5,5.7,0.8c-0.1,0.6-0.1,0.9-0.2,1.5c-2.3-0.3-3.4-0.5-5.6-0.8
			C1493.9,586.1,1493.9,585.8,1494,585.2z M1500.4,586.1c0.6,0.1,0.8,0.1,1.4,0.2c-0.1,0.6-0.1,0.9-0.2,1.5
			c-0.6-0.1-0.8-0.1-1.4-0.2C1500.3,587,1500.4,586.7,1500.4,586.1z"/>
		<path class="st8" d="M1497.4,590c0.2-0.5,0.3-0.8,0.4-1.3c0.5,0.2,0.9,0.6,1.1,1s0.3,1,0.2,1.7c-0.1,0.7-0.3,1.2-0.5,1.5
			s-0.4,0.5-0.7,0.6c-0.3,0.1-0.7,0.1-1.4,0c-0.7-0.1-1-0.2-1.7-0.3c-0.5-0.1-0.9-0.1-1.1-0.1s-0.5,0.1-0.8,0.2
			c0.1-0.6,0.1-0.9,0.2-1.5c0.1,0,0.3-0.1,0.5-0.1c0.1,0,0.2,0,0.2,0c-0.2-0.3-0.4-0.6-0.4-0.9c-0.1-0.3-0.1-0.6,0-1
			c0.1-0.6,0.3-1,0.7-1.3c0.4-0.3,0.8-0.4,1.3-0.3c0.3,0,0.6,0.2,0.8,0.4c0.2,0.2,0.4,0.4,0.5,0.7s0.2,0.7,0.2,1.2
			c0,0.7,0.1,1.2,0.2,1.5c0.1,0,0.1,0,0.1,0c0.3,0,0.5,0,0.6-0.1s0.2-0.4,0.3-0.8c0-0.3,0-0.5-0.1-0.7
			C1497.8,590.2,1497.6,590.1,1497.4,590z M1495.9,591.8c0-0.2-0.1-0.5-0.1-0.9s-0.1-0.7-0.1-0.9c-0.1-0.2-0.3-0.3-0.5-0.4
			c-0.2,0-0.4,0-0.6,0.2c-0.2,0.1-0.3,0.3-0.3,0.6s0,0.5,0.2,0.8c0.1,0.2,0.3,0.3,0.4,0.4c0.1,0.1,0.4,0.1,0.7,0.2
			C1495.7,591.8,1495.7,591.8,1495.9,591.8z"/>
	</g>
</g>
<g class="st12">
	<g>
		<path class="st8" d="M1445.6,301.4c2.7-1.7,4-2.5,6.6-4.2c0.5,0.9,0.8,1.3,1.4,2.2c0.5,0.8,0.8,1.4,0.9,1.7c0.1,0.4,0.1,0.9,0,1.4
			c-0.2,0.5-0.5,0.9-1.1,1.2c-0.4,0.3-0.8,0.4-1.2,0.4c-0.4,0-0.7,0-1-0.2c-0.3-0.1-0.6-0.3-0.8-0.5c-0.3-0.3-0.6-0.7-1-1.3
			c-0.2-0.4-0.3-0.5-0.6-0.9c-1,0.6-1.5,1-2.5,1.6C1446.1,302.3,1445.9,302,1445.6,301.4z M1452,299.3c-0.8,0.5-1.1,0.7-1.9,1.2
			c0.2,0.3,0.3,0.4,0.5,0.7c0.3,0.5,0.6,0.9,0.8,1c0.2,0.1,0.4,0.2,0.6,0.2s0.4,0,0.6-0.2s0.4-0.4,0.5-0.6s0-0.5,0-0.7
			c-0.1-0.2-0.3-0.5-0.6-1C1452.2,299.7,1452.1,299.6,1452,299.3z"/>
		<path class="st8" d="M1450.5,309.4c2.1-2.6,3.2-4,5.3-6.6c0.4,0.6,0.6,0.9,0.9,1.5c-1.6,1.9-2.3,2.9-3.9,4.8
			c2.4-0.6,3.7-0.9,6.1-1.5c0.4,0.6,0.6,0.9,0.9,1.4c-3.4,0.7-5.1,1.1-8.4,1.8C1451.1,310.3,1450.9,310,1450.5,309.4z"/>
		<path class="st8" d="M1458.5,316.9c0.1,0.7,0.2,1,0.4,1.6c-0.9,0.3-1.7,0.2-2.3,0c-0.7-0.3-1.2-0.8-1.6-1.5
			c-0.5-0.9-0.7-1.8-0.4-2.8c0.3-1,1-1.8,2.1-2.5c1.2-0.7,2.2-1,3.2-0.8s1.8,0.8,2.4,1.7c0.5,0.8,0.7,1.7,0.5,2.5
			c-0.1,0.5-0.4,1-0.9,1.5c-0.5-0.5-0.7-0.7-1.2-1.2c0.3-0.3,0.5-0.7,0.6-1c0.1-0.4,0-0.8-0.2-1.1c-0.3-0.5-0.7-0.8-1.3-0.9
			c-0.6-0.1-1.3,0.1-2.1,0.6c-0.9,0.5-1.4,1.1-1.6,1.6s-0.1,1.1,0.2,1.6c0.2,0.4,0.5,0.6,0.9,0.7
			C1457.4,317.1,1457.9,317,1458.5,316.9z"/>
		<path class="st8" d="M1458.5,323.8c0.3,0.7,0.4,1,0.7,1.7c-0.2,0.1-0.3,0.3-0.3,0.4c0,0.2,0,0.4,0.2,0.7c0.2,0.4,0.4,0.6,0.6,0.7
			c0.1,0.1,0.3,0.1,0.5,0.1c0.1,0,0.4-0.1,0.7-0.3c0.3-0.2,0.5-0.3,0.8-0.4c-0.8-0.1-1.3-0.5-1.7-1.1c-0.4-0.7-0.4-1.4,0-2.2
			c0.3-0.6,0.8-1.1,1.5-1.5c0.9-0.5,1.6-0.7,2.3-0.5c0.7,0.2,1.2,0.6,1.6,1.2c0.4,0.7,0.4,1.4,0,2.1c0.3-0.2,0.4-0.3,0.7-0.4
			c0.3,0.5,0.4,0.8,0.7,1.3c-1.9,1.1-2.8,1.6-4.7,2.6c-0.6,0.3-1.1,0.5-1.5,0.6s-0.7,0.1-0.9,0c-0.3-0.1-0.5-0.3-0.8-0.5
			c-0.3-0.3-0.5-0.6-0.8-1.1c-0.5-0.9-0.7-1.6-0.6-2.1s0.4-0.9,0.8-1.2C1458.4,323.9,1458.4,323.9,1458.5,323.8z M1462.2,323.3
			c-0.5,0.3-0.9,0.7-1,1c-0.1,0.4-0.1,0.7,0,1c0.2,0.3,0.5,0.6,0.9,0.6c0.4,0.1,0.8,0,1.4-0.3c0.5-0.3,0.9-0.7,1-1
			c0.1-0.4,0.1-0.7-0.1-1.1c-0.2-0.3-0.5-0.5-0.8-0.6C1463.2,322.9,1462.7,323,1462.2,323.3z"/>
		<path class="st8" d="M1462.9,331.3c-0.3-0.6-0.4-0.8-0.7-1.4c2.1-1.1,3.1-1.7,5.2-2.9c0.3,0.5,0.4,0.8,0.7,1.3
			c-0.3,0.2-0.4,0.3-0.7,0.4c0.5,0,0.8,0.1,1,0.2s0.4,0.3,0.5,0.5c0.2,0.3,0.2,0.7,0.2,1.1c-0.6,0.1-0.9,0.1-1.4,0.2
			c0-0.3,0-0.6-0.1-0.8c-0.1-0.2-0.2-0.3-0.4-0.4c-0.2-0.1-0.4-0.1-0.7,0c-0.3,0.1-0.9,0.4-1.8,0.8
			C1463.9,330.8,1463.6,330.9,1462.9,331.3z"/>
		<path class="st8" d="M1466.8,332.2c0.5-0.2,1-0.4,1.5-0.4s1,0.2,1.5,0.5c0.4,0.3,0.8,0.7,1.1,1.2c0.4,0.8,0.5,1.6,0.2,2.4
			s-0.8,1.4-1.6,1.8c-0.8,0.4-1.6,0.5-2.4,0.2s-1.3-0.8-1.7-1.5c-0.2-0.5-0.4-1-0.4-1.6s0.2-1.1,0.5-1.5
			C1465.8,332.9,1466.2,332.5,1466.8,332.2z M1467.5,333.6c-0.5,0.3-0.9,0.6-1,1c-0.2,0.4-0.1,0.8,0,1.1c0.2,0.4,0.5,0.6,0.9,0.7
			s0.9,0,1.4-0.3s0.9-0.6,1-1c0.2-0.4,0.1-0.8,0-1.1c-0.2-0.4-0.5-0.6-0.9-0.7C1468.5,333.3,1468,333.4,1467.5,333.6z"/>
		<path class="st8" d="M1468.8,343.7c0.3-0.2,0.5-0.2,0.8-0.4c-0.4-0.1-0.7-0.2-1-0.4c-0.3-0.2-0.5-0.5-0.7-0.9s-0.2-0.7-0.2-1.1
			s0.2-0.7,0.4-1c0.2-0.3,0.6-0.5,1.1-0.8c1.3-0.7,2-1,3.4-1.7c0.3,0.6,0.4,0.9,0.6,1.4c-1,0.5-1.5,0.8-2.4,1.3
			c-0.7,0.4-1.2,0.6-1.3,0.8c-0.1,0.1-0.2,0.3-0.3,0.5c0,0.2,0,0.4,0.1,0.6s0.3,0.4,0.5,0.6c0.2,0.1,0.4,0.2,0.7,0.1
			c0.2,0,0.7-0.2,1.5-0.6c0.9-0.5,1.3-0.7,2.2-1.1c0.2,0.6,0.4,0.9,0.6,1.4c-2.1,1.1-3.2,1.6-5.3,2.7
			C1469.2,344.5,1469,344.2,1468.8,343.7z"/>
		<path class="st8" d="M1475.3,343.8c0.2,0.5,0.3,0.8,0.6,1.3c-0.3,0.2-0.5,0.2-0.8,0.4c0.3,0,0.6,0.2,0.9,0.4
			c0.3,0.2,0.5,0.5,0.7,0.9c0.3,0.6,0.2,1.3,0,2c-0.3,0.7-0.8,1.2-1.7,1.7c-0.9,0.4-1.6,0.6-2.3,0.3c-0.7-0.2-1.2-0.6-1.4-1.3
			c-0.1-0.3-0.2-0.6-0.2-0.9s0.1-0.7,0.3-1.1c-1.1,0.5-1.6,0.8-2.6,1.3c-0.3-0.6-0.4-0.9-0.6-1.4
			C1470.9,346,1472.3,345.3,1475.3,343.8z M1473.3,346.5c-0.6,0.3-1,0.6-1.2,1s-0.2,0.8,0,1.1c0.1,0.3,0.4,0.6,0.7,0.6
			c0.4,0.1,0.8,0,1.4-0.3c0.5-0.3,0.9-0.6,1.1-1s0.2-0.7,0-1.1c-0.1-0.4-0.4-0.6-0.8-0.7C1474.3,346.1,1473.8,346.2,1473.3,346.5z"
			/>
	</g>
</g>
<g class="st12">
	<g>
		<path class="st8" d="M1361.9,185.9c1,0.9,1.4,1.4,2.4,2.3c0.5,0.4,0.8,0.8,1,1.1s0.3,0.5,0.4,0.8s0,0.6-0.1,0.9
			c-0.1,0.3-0.3,0.6-0.5,0.8c-0.3,0.3-0.6,0.4-1,0.5s-0.8,0-1.2-0.1c0.3,0.4,0.3,0.9,0.3,1.3c-0.1,0.4-0.3,0.8-0.6,1.1
			c-0.3,0.2-0.6,0.4-1,0.5s-0.8,0.1-1.1,0.1c-0.4-0.1-0.7-0.2-1.1-0.5c-0.2-0.2-0.7-0.6-1.5-1.3c-0.8-0.8-1.2-1.1-2-1.9
			C1358.1,189.2,1359.4,188.1,1361.9,185.9z M1359.6,190.1c-0.7,0.6-1,0.9-1.6,1.5c0.4,0.4,0.7,0.6,1.1,1.1c0.4,0.4,0.7,0.7,0.9,0.7
			c0.2,0.1,0.4,0.2,0.7,0.2c0.2,0,0.5-0.1,0.7-0.3s0.3-0.3,0.3-0.5s0-0.4-0.1-0.6c-0.1-0.2-0.4-0.6-1-1.1
			C1360.2,190.7,1360,190.5,1359.6,190.1z M1362,187.9c-0.6,0.5-0.9,0.8-1.4,1.3c0.3,0.3,0.5,0.4,0.8,0.7c0.5,0.4,0.8,0.7,0.9,0.8
			c0.2,0.2,0.5,0.3,0.7,0.3s0.5-0.1,0.7-0.3s0.3-0.4,0.3-0.6c0-0.2-0.1-0.4-0.2-0.6c-0.1-0.1-0.4-0.5-1-1
			C1362.5,188.3,1362.3,188.2,1362,187.9z"/>
		<path class="st8" d="M1365.7,195.1c-0.3-0.5-0.5-0.7-0.8-1.2c0.5-0.3,1.1-0.4,1.6-0.3c0.5,0.1,1,0.4,1.6,0.9
			c0.5,0.5,0.8,0.9,0.9,1.3c0.1,0.3,0.1,0.7,0,0.9c-0.1,0.3-0.4,0.6-0.9,1.1c-0.6,0.5-0.8,0.7-1.4,1.2c-0.4,0.3-0.7,0.6-0.8,0.8
			c-0.1,0.2-0.3,0.4-0.4,0.7c-0.4-0.4-0.7-0.6-1.1-1.1c0-0.1,0.1-0.2,0.2-0.4c0.1-0.1,0.1-0.1,0.1-0.2c-0.4,0-0.7-0.1-1.1-0.2
			c-0.3-0.1-0.6-0.3-0.8-0.5c-0.4-0.4-0.7-0.9-0.7-1.3c0-0.5,0.2-0.9,0.6-1.2c0.3-0.2,0.5-0.4,0.8-0.4c0.3-0.1,0.6,0,0.9,0.1
			s0.7,0.3,1.2,0.6c0.6,0.4,1.1,0.7,1.4,0.8l0.1-0.1c0.2-0.2,0.3-0.4,0.3-0.6c0-0.2-0.2-0.4-0.5-0.7c-0.2-0.2-0.4-0.3-0.6-0.3
			C1366.2,195,1365.9,195,1365.7,195.1z M1366.2,197.4c-0.2-0.1-0.5-0.3-0.9-0.5s-0.7-0.4-0.8-0.4c-0.3,0-0.5,0-0.6,0.2
			c-0.2,0.1-0.2,0.3-0.2,0.5s0.1,0.4,0.3,0.6c0.2,0.2,0.5,0.3,0.8,0.4c0.2,0,0.5,0,0.7-0.1c0.1-0.1,0.3-0.2,0.6-0.5
			C1366.1,197.6,1366.1,197.5,1366.2,197.4z"/>
		<path class="st8" d="M1373.1,202.3c-0.5-0.4-0.8-0.5-1.3-0.9c0.2-0.2,0.3-0.5,0.3-0.7s-0.1-0.5-0.3-0.7c-0.3-0.3-0.6-0.4-1-0.4
			s-0.8,0.2-1.3,0.6c-0.5,0.5-0.8,0.9-0.9,1.2s0.1,0.7,0.4,1c0.2,0.2,0.4,0.3,0.7,0.3c0.3,0,0.6-0.1,0.9-0.3
			c0.4,0.5,0.5,0.8,0.9,1.3c-0.6,0.4-1.3,0.5-1.8,0.4c-0.6-0.1-1.2-0.4-1.7-0.9c-0.6-0.6-0.9-1.3-0.9-2s0.4-1.4,1.1-2s1.5-1,2.3-1
			s1.5,0.3,2.1,0.9c0.5,0.5,0.8,1,0.9,1.5C1373.6,201.3,1373.4,201.8,1373.1,202.3z"/>
		<path class="st8" d="M1377.1,203.9c-0.4,0.3-0.6,0.5-0.9,0.8c-0.3-0.3-0.4-0.5-0.7-0.8c-0.7,0.6-1.1,0.9-1.8,1.6
			c-0.4,0.3-0.6,0.5-0.6,0.6s-0.1,0.1-0.1,0.2c0,0.1,0.1,0.2,0.1,0.2c0.1,0.1,0.3,0.2,0.6,0.3c-0.3,0.4-0.5,0.5-0.8,0.9
			c-0.4-0.2-0.7-0.4-1-0.7c-0.2-0.2-0.3-0.4-0.4-0.6c-0.1-0.2-0.1-0.4-0.1-0.6c0-0.2,0.1-0.4,0.3-0.6c0.1-0.1,0.4-0.4,0.8-0.8
			c0.8-0.7,1.2-1,1.9-1.7c-0.2-0.2-0.3-0.3-0.5-0.5c0.4-0.3,0.6-0.5,0.9-0.8c0.2,0.2,0.3,0.3,0.5,0.5c0.4-0.3,0.5-0.5,0.9-0.8
			c0.7,0.2,1.1,0.3,1.8,0.5c-0.6,0.5-1,0.8-1.6,1.4C1376.7,203.5,1376.8,203.6,1377.1,203.9z"/>
		<path class="st8" d="M1377.2,209.8c0.4,0.5,0.5,0.8,0.9,1.3c-0.6,0.2-1.1,0.3-1.6,0.2s-1-0.4-1.5-0.9c-0.7-0.7-1-1.5-0.8-2.3
			c0.1-0.6,0.5-1.2,1.1-1.7c0.7-0.6,1.5-1,2.3-1s1.4,0.3,2,0.8c0.6,0.6,0.9,1.3,0.8,2.1c-0.1,0.7-0.6,1.5-1.5,2.3
			c-1.1-1.1-1.6-1.7-2.7-2.8c-0.3,0.3-0.5,0.6-0.5,1c0,0.3,0.1,0.6,0.3,0.9c0.2,0.2,0.4,0.3,0.6,0.3
			C1376.7,210,1377,209.9,1377.2,209.8z M1378.5,208.8c0.3-0.3,0.5-0.6,0.5-0.9c0-0.3-0.1-0.6-0.3-0.8c-0.2-0.2-0.5-0.4-0.9-0.4
			c-0.3,0-0.7,0.1-1,0.4C1377.5,207.8,1377.8,208.1,1378.5,208.8z"/>
		<path class="st8" d="M1378.9,214.1c-0.4-0.4-0.6-0.7-1.1-1.1c1.8-1.5,2.7-2.3,4.4-3.8c0.4,0.4,0.6,0.6,1,1
			c-0.3,0.2-0.4,0.3-0.6,0.5c0.5-0.1,0.8-0.1,1.1,0c0.2,0.1,0.4,0.2,0.6,0.4c0.2,0.3,0.4,0.6,0.5,0.9c-0.5,0.2-0.8,0.3-1.4,0.5
			c-0.1-0.3-0.2-0.5-0.3-0.7c-0.1-0.2-0.3-0.3-0.5-0.3s-0.4,0-0.7,0.2c-0.3,0.1-0.8,0.5-1.6,1.2
			C1379.7,213.4,1379.4,213.7,1378.9,214.1z"/>
		<path class="st8" d="M1382.9,214c0.4-0.3,0.9-0.6,1.4-0.7c0.5-0.1,1.1-0.1,1.6,0.1c0.5,0.2,1,0.5,1.4,0.9c0.6,0.6,0.9,1.4,0.8,2.1
			c-0.1,0.8-0.4,1.5-1.1,2c-0.7,0.6-1.4,0.8-2.2,0.8c-0.8,0-1.5-0.4-2.1-1c-0.4-0.4-0.6-0.8-0.8-1.3c-0.2-0.5-0.1-1,0-1.5
			C1382.1,214.9,1382.4,214.5,1382.9,214z M1383.9,215.2c-0.4,0.4-0.7,0.8-0.7,1.2s0.1,0.7,0.3,1c0.3,0.3,0.6,0.4,1,0.4
			s0.9-0.2,1.3-0.6c0.4-0.4,0.7-0.8,0.7-1.2s-0.1-0.7-0.3-1c-0.3-0.3-0.6-0.4-1-0.4C1384.8,214.7,1384.4,214.8,1383.9,215.2z"/>
		<path class="st8" d="M1385.6,221.2c1.8-1.5,2.7-2.3,4.4-3.8c0.4,0.5,0.6,0.7,1,1.1c-1.8,1.5-2.7,2.3-4.4,3.8
			C1386.2,221.9,1386,221.7,1385.6,221.2z M1390.6,217c0.4-0.4,0.7-0.6,1.1-0.9c0.4,0.5,0.6,0.7,1,1.1c-0.4,0.4-0.7,0.6-1.1,0.9
			C1391.2,217.6,1391,217.4,1390.6,217z"/>
		<path class="st8" d="M1391.3,227.5c-0.4-0.4-0.6-0.6-1-1.1c0.3-0.2,0.4-0.3,0.6-0.6c-0.4,0-0.8,0-1.1-0.1
			c-0.3-0.1-0.6-0.3-0.8-0.6c-0.4-0.5-0.6-1.1-0.5-1.8s0.5-1.4,1.2-2c0.8-0.6,1.5-1,2.2-0.9s1.3,0.3,1.8,0.8
			c0.4,0.5,0.6,1.1,0.5,1.8c0.9-0.7,1.3-1.1,2.2-1.9c0.4,0.5,0.6,0.7,1,1.1C1394.9,224.4,1393.7,225.4,1391.3,227.5z M1390.8,222.5
			c-0.5,0.4-0.8,0.8-0.9,1.1c-0.1,0.4-0.1,0.8,0.2,1.2c0.2,0.3,0.6,0.4,0.9,0.4c0.4,0,0.8-0.2,1.3-0.6c0.5-0.4,0.8-0.8,0.9-1.2
			s0-0.7-0.3-1c-0.2-0.3-0.6-0.4-0.9-0.4C1391.7,221.9,1391.3,222.1,1390.8,222.5z"/>
		<path class="st8" d="M1395.9,229.9c0.3,0.5,0.5,0.8,0.8,1.3c-0.6,0.2-1.1,0.3-1.6,0.1c-0.5-0.1-1-0.4-1.4-0.9
			c-0.7-0.7-0.9-1.5-0.7-2.3c0.1-0.6,0.5-1.2,1.1-1.7c0.7-0.6,1.5-0.9,2.2-0.9c0.8,0,1.4,0.3,1.9,0.9c0.6,0.6,0.8,1.3,0.7,2.1
			c-0.1,0.7-0.6,1.5-1.5,2.2c-1-1.1-1.5-1.7-2.5-2.9c-0.3,0.3-0.5,0.6-0.6,1c0,0.3,0.1,0.6,0.3,0.9c0.2,0.2,0.3,0.3,0.5,0.3
			C1395.4,230.1,1395.6,230,1395.9,229.9z M1397.1,229c0.3-0.3,0.5-0.6,0.5-0.9c0-0.3-0.1-0.6-0.3-0.8c-0.2-0.3-0.5-0.4-0.8-0.4
			s-0.7,0.1-1,0.4C1396.2,227.9,1396.5,228.3,1397.1,229z"/>
		<path class="st8" d="M1402.5,231.5c-0.4,0.3-0.6,0.5-0.9,0.8c-0.3-0.3-0.4-0.5-0.7-0.8c-0.7,0.6-1.1,0.9-1.8,1.5
			c-0.4,0.3-0.6,0.5-0.6,0.5c0,0.1-0.1,0.1-0.1,0.2c0,0.1,0,0.2,0.1,0.2c0.1,0.1,0.3,0.2,0.5,0.4c-0.3,0.3-0.5,0.5-0.8,0.9
			c-0.3-0.2-0.7-0.4-1-0.8c-0.2-0.2-0.3-0.4-0.4-0.6c-0.1-0.2-0.1-0.4,0-0.6c0-0.2,0.1-0.4,0.3-0.5c0.1-0.1,0.4-0.4,0.8-0.7
			c0.8-0.6,1.2-1,1.9-1.6c-0.2-0.2-0.3-0.3-0.5-0.5c0.4-0.3,0.6-0.5,0.9-0.8c0.2,0.2,0.3,0.3,0.5,0.5c0.4-0.3,0.5-0.4,0.9-0.7
			c0.7,0.2,1,0.4,1.7,0.6c-0.6,0.5-0.9,0.8-1.6,1.3C1402.1,231,1402.2,231.2,1402.5,231.5z"/>
		<path class="st8" d="M1402.3,237.3c0.3,0.5,0.5,0.8,0.8,1.3c-0.6,0.2-1.1,0.2-1.6,0.1s-0.9-0.4-1.4-0.9c-0.6-0.8-0.9-1.5-0.7-2.3
			c0.2-0.6,0.5-1.2,1.1-1.7c0.7-0.6,1.5-0.9,2.2-0.9s1.4,0.3,1.9,0.9c0.6,0.7,0.8,1.3,0.7,2.1c-0.1,0.7-0.6,1.5-1.5,2.2
			c-1-1.2-1.5-1.7-2.5-2.9c-0.3,0.3-0.5,0.6-0.6,1c0,0.3,0.1,0.6,0.3,0.9c0.2,0.2,0.3,0.3,0.5,0.3
			C1401.8,237.5,1402.1,237.5,1402.3,237.3z M1403.6,236.4c0.3-0.3,0.5-0.6,0.6-0.9c0-0.3,0-0.6-0.2-0.8c-0.2-0.3-0.5-0.4-0.8-0.4
			s-0.6,0.1-1,0.4C1402.7,235.4,1403,235.7,1403.6,236.4z"/>
		<path class="st8" d="M1403.7,239.2c0.5,0.4,0.7,0.6,1.2,1c-0.2,0.2-0.3,0.5-0.3,0.7s0.1,0.5,0.4,0.8c0.2,0.3,0.5,0.5,0.7,0.5
			s0.3,0,0.4-0.1s0.1-0.2,0.2-0.3c0-0.1,0-0.3-0.2-0.5c-0.6-1.1-0.9-1.9-0.9-2.3c-0.1-0.5,0.1-1,0.6-1.3c0.4-0.3,0.8-0.4,1.3-0.3
			s1,0.4,1.6,1.1c0.5,0.6,0.8,1.1,0.8,1.6s-0.1,0.9-0.4,1.3c-0.4-0.4-0.7-0.6-1.1-0.9c0.1-0.2,0.2-0.4,0.2-0.6
			c0-0.2-0.1-0.4-0.3-0.7c-0.3-0.3-0.5-0.5-0.7-0.6c-0.1,0-0.3,0-0.3,0.1c-0.1,0.1-0.1,0.2-0.1,0.3c0,0.2,0.2,0.6,0.6,1.4
			c0.4,0.7,0.6,1.3,0.6,1.7s-0.2,0.8-0.6,1.1s-0.9,0.4-1.5,0.4c-0.6-0.1-1.1-0.5-1.7-1.1c-0.5-0.6-0.8-1.2-0.8-1.7
			C1403.2,240.2,1403.4,239.7,1403.7,239.2z"/>
	</g>
</g>
<g class="st12">
	<g>
		<path class="st8" d="M1269.9,123.2c0.6,0.3,0.8,0.5,1.4,0.8c-0.2,0.5-0.3,0.9-0.2,1.3c0.1,0.4,0.3,0.7,0.8,1
			c0.4,0.3,0.8,0.4,1.2,0.4c0.4,0,0.6-0.2,0.8-0.4c0.1-0.2,0.2-0.3,0.1-0.5c0-0.2-0.1-0.4-0.3-0.6c-0.1-0.2-0.4-0.5-0.9-1
			c-0.6-0.7-1-1.2-1.1-1.7c-0.2-0.6,0-1.2,0.3-1.7c0.2-0.3,0.6-0.6,1-0.7c0.4-0.2,0.8-0.2,1.3-0.1s1,0.3,1.5,0.7
			c0.8,0.6,1.3,1.2,1.5,1.8c0.2,0.6,0,1.3-0.4,1.9c-0.6-0.3-0.8-0.5-1.4-0.9c0.2-0.4,0.2-0.7,0.2-1c-0.1-0.3-0.3-0.5-0.7-0.8
			c-0.4-0.3-0.8-0.4-1.1-0.4c-0.2,0-0.4,0.1-0.5,0.3c-0.1,0.2-0.1,0.3-0.1,0.5c0.1,0.3,0.4,0.7,0.9,1.3c0.5,0.6,0.9,1.1,1.1,1.5
			s0.3,0.8,0.3,1.2c0,0.4-0.2,0.8-0.5,1.2c-0.3,0.4-0.6,0.6-1.1,0.8s-0.9,0.2-1.4,0.1c-0.5-0.1-1-0.4-1.6-0.8
			c-0.8-0.6-1.4-1.2-1.5-1.9C1269.3,124.7,1269.5,123.9,1269.9,123.2z"/>
		<path class="st8" d="M1278.4,125c0.5,0.3,0.7,0.5,1.2,0.8c-0.2,0.3-0.3,0.4-0.5,0.7c0.3-0.1,0.7-0.2,1.1-0.1s0.7,0.2,1,0.4
			c0.6,0.4,0.9,0.9,0.9,1.6c0.1,0.7-0.2,1.4-0.7,2.2c-0.6,0.8-1.2,1.2-1.9,1.4c-0.7,0.2-1.3,0-1.9-0.3c-0.3-0.2-0.5-0.4-0.6-0.7
			s-0.2-0.6-0.3-1c-0.7,0.9-1,1.4-1.7,2.3c-0.5-0.3-0.8-0.5-1.3-0.9C1275.5,128.9,1276.4,127.6,1278.4,125z M1277.9,128.2
			c-0.4,0.5-0.6,1-0.5,1.4c0,0.4,0.2,0.7,0.5,0.9s0.6,0.3,1,0.2s0.7-0.4,1.1-0.9s0.5-0.9,0.5-1.3c0-0.4-0.2-0.7-0.5-0.9
			c-0.3-0.2-0.7-0.3-1-0.2C1278.6,127.4,1278.3,127.7,1277.9,128.2z"/>
		<path class="st8" d="M1280.6,133.6c1.4-1.9,2.1-2.8,3.5-4.6c0.5,0.4,0.8,0.5,1.3,0.9c-1.4,1.8-2.1,2.8-3.5,4.6
			C1281.4,134.1,1281.1,134,1280.6,133.6z M1284.5,128.4c0.3-0.5,0.5-0.7,0.9-1.1c0.5,0.4,0.8,0.5,1.3,0.9c-0.3,0.5-0.5,0.7-0.9,1.1
			C1285.3,128.9,1285.1,128.7,1284.5,128.4z"/>
		<path class="st8" d="M1284.4,136.3c-0.5-0.4-0.8-0.5-1.3-0.9c1.4-1.8,2.1-2.8,3.5-4.6c0.5,0.3,0.7,0.5,1.2,0.8
			c-0.2,0.3-0.3,0.4-0.5,0.7c0.4-0.2,0.8-0.2,1-0.2s0.5,0.1,0.7,0.2c0.3,0.2,0.5,0.5,0.7,0.8c-0.5,0.3-0.7,0.5-1.2,0.8
			c-0.1-0.3-0.3-0.5-0.4-0.6c-0.2-0.1-0.4-0.2-0.6-0.2s-0.4,0.1-0.7,0.3c-0.3,0.2-0.7,0.7-1.3,1.5
			C1285,135.4,1284.8,135.7,1284.4,136.3z"/>
		<path class="st8" d="M1288.2,135.3c0.3-0.4,0.7-0.7,1.2-1c0.5-0.2,1-0.3,1.5-0.2s1,0.3,1.5,0.6c0.7,0.5,1.1,1.2,1.2,1.9
			c0.1,0.8-0.1,1.5-0.6,2.2s-1.2,1.1-2,1.2c-0.8,0.1-1.6-0.1-2.3-0.6c-0.4-0.3-0.8-0.7-1-1.2c-0.3-0.5-0.3-1-0.3-1.5
			C1287.6,136.4,1287.8,135.9,1288.2,135.3z M1289.5,136.3c-0.3,0.5-0.5,0.9-0.5,1.3c0,0.4,0.2,0.7,0.6,1c0.3,0.2,0.7,0.3,1.1,0.2
			s0.8-0.4,1.1-0.8c0.3-0.4,0.5-0.9,0.5-1.3c0-0.4-0.2-0.7-0.5-1c-0.3-0.2-0.7-0.3-1.1-0.2C1290.2,135.6,1289.8,135.9,1289.5,136.3z
			"/>
		<path class="st8" d="M1298.9,141.6c-0.6-0.3-0.8-0.4-1.4-0.7c0.1-0.3,0.2-0.5,0.1-0.7s-0.2-0.4-0.4-0.6c-0.3-0.2-0.6-0.3-1-0.2
			c-0.3,0.1-0.7,0.4-1.1,0.8c-0.4,0.5-0.6,1-0.6,1.4s0.2,0.7,0.5,0.9c0.2,0.2,0.5,0.2,0.7,0.2c0.3,0,0.5-0.2,0.8-0.4
			c0.4,0.4,0.6,0.7,1.1,1.1c-0.5,0.5-1.1,0.7-1.7,0.7s-1.2-0.2-1.8-0.6c-0.7-0.5-1.1-1.1-1.2-1.8s0.2-1.5,0.7-2.2
			c0.6-0.8,1.2-1.2,2-1.3c0.7-0.1,1.5,0.1,2.2,0.6c0.6,0.4,0.9,0.9,1.1,1.4C1299.2,140.5,1299.1,141,1298.9,141.6z"/>
		<path class="st8" d="M1303.5,140.1c-0.7,0.9-1.1,1.4-1.8,2.3c0.8-0.2,1.4,0,2,0.4c0.3,0.2,0.5,0.4,0.7,0.7
			c0.1,0.3,0.2,0.5,0.2,0.8c0,0.2-0.1,0.5-0.2,0.7s-0.3,0.5-0.6,1c-0.8,1.1-1.2,1.6-2.1,2.7c-0.5-0.4-0.7-0.5-1.2-0.9
			c0.7-1,1.1-1.4,1.9-2.4c0.4-0.5,0.6-0.8,0.6-1c0.1-0.2,0-0.3,0-0.5c-0.1-0.2-0.2-0.3-0.4-0.4c-0.2-0.2-0.4-0.2-0.7-0.3
			c-0.2,0-0.5,0-0.7,0.2c-0.2,0.1-0.5,0.4-0.8,0.8c-0.7,0.9-1.1,1.4-1.8,2.3c-0.5-0.4-0.7-0.5-1.2-0.9c1.9-2.5,2.9-3.8,4.9-6.3
			C1302.7,139.6,1303,139.8,1303.5,140.1z"/>
		<path class="st8" d="M1306.2,147.1c-0.4-0.4-0.6-0.6-1-1c0.5-0.3,0.9-0.5,1.4-0.5s1,0.2,1.6,0.7c0.5,0.4,0.9,0.8,1.1,1.1
			s0.2,0.6,0.2,0.9c0,0.3-0.3,0.7-0.7,1.2c-0.4,0.6-0.7,0.8-1.1,1.4c-0.3,0.4-0.5,0.7-0.6,0.9s-0.2,0.5-0.3,0.8
			c-0.5-0.4-0.7-0.5-1.2-0.9c0-0.1,0.1-0.3,0.2-0.4c0-0.1,0.1-0.1,0.1-0.2c-0.4,0-0.7,0-1,0c-0.3-0.1-0.6-0.2-0.9-0.4
			c-0.5-0.4-0.8-0.8-0.8-1.2c-0.1-0.5,0-0.9,0.3-1.3c0.2-0.3,0.4-0.4,0.7-0.5c0.3-0.1,0.6-0.1,0.9-0.1c0.3,0.1,0.7,0.2,1.2,0.4
			c0.7,0.3,1.1,0.5,1.4,0.6l0.1-0.1c0.2-0.2,0.2-0.4,0.2-0.6c0-0.2-0.2-0.4-0.5-0.6c-0.2-0.2-0.4-0.2-0.6-0.3
			C1306.7,146.9,1306.5,146.9,1306.2,147.1z M1307.1,149.3c-0.2-0.1-0.5-0.2-0.9-0.4s-0.7-0.3-0.8-0.3c-0.2,0-0.4,0.1-0.6,0.2
			c-0.1,0.2-0.2,0.4-0.1,0.6c0,0.2,0.1,0.4,0.3,0.5c0.2,0.2,0.5,0.3,0.8,0.3c0.2,0,0.4-0.1,0.6-0.2c0.1-0.1,0.3-0.3,0.5-0.5
			C1307,149.4,1307,149.4,1307.1,149.3z"/>
		<path class="st8" d="M1311.6,153.8c0.4,0.4,0.6,0.7,1.1,1.1c-0.5,0.3-1,0.5-1.5,0.4c-0.5,0-1-0.2-1.5-0.6
			c-0.8-0.6-1.2-1.3-1.2-2.1c0-0.6,0.3-1.3,0.8-1.9c0.6-0.8,1.2-1.2,2-1.3c0.7-0.1,1.4,0,2,0.5c0.7,0.5,1.1,1.1,1.1,1.9
			c0,0.7-0.3,1.6-1,2.5c-1.2-0.9-1.8-1.4-3.1-2.3c-0.3,0.4-0.4,0.7-0.4,1.1c0,0.3,0.2,0.6,0.5,0.8c0.2,0.1,0.4,0.2,0.6,0.2
			C1311.1,154.1,1311.4,154,1311.6,153.8z M1312.6,152.7c0.3-0.4,0.4-0.7,0.3-1c0-0.3-0.2-0.6-0.4-0.7c-0.3-0.2-0.6-0.3-0.9-0.2
			s-0.6,0.3-0.9,0.6C1311.5,151.9,1311.9,152.1,1312.6,152.7z"/>
		<path class="st8" d="M1318.4,154.1c-0.3,0.4-0.5,0.6-0.7,0.9c-0.3-0.3-0.5-0.4-0.8-0.6c-0.6,0.7-0.9,1.1-1.4,1.8
			c-0.3,0.4-0.4,0.6-0.5,0.7c0,0.1,0,0.2,0,0.2c0,0.1,0.1,0.2,0.2,0.2c0.1,0.1,0.3,0.2,0.6,0.3c-0.2,0.4-0.4,0.6-0.6,1
			c-0.4-0.1-0.7-0.3-1.1-0.5c-0.2-0.2-0.4-0.4-0.5-0.6c-0.1-0.2-0.2-0.4-0.2-0.6c0-0.2,0.1-0.4,0.2-0.6c0.1-0.2,0.3-0.4,0.6-0.9
			c0.6-0.8,0.9-1.2,1.5-2c-0.2-0.2-0.3-0.3-0.6-0.4c0.3-0.4,0.4-0.6,0.7-1c0.2,0.2,0.3,0.3,0.6,0.4c0.3-0.4,0.4-0.5,0.7-0.9
			c0.7,0.1,1.1,0.1,1.8,0.2c-0.5,0.6-0.8,1-1.3,1.6C1317.9,153.7,1318.1,153.8,1318.4,154.1z"/>
		<path class="st8" d="M1319.1,156.8c-0.4-0.4-0.6-0.6-0.9-1c0.5-0.3,0.9-0.5,1.4-0.5s1,0.3,1.6,0.7c0.5,0.4,0.9,0.8,1.1,1.1
			s0.2,0.6,0.2,0.9c0,0.3-0.3,0.7-0.7,1.2c-0.4,0.6-0.7,0.8-1.1,1.4c-0.3,0.4-0.5,0.7-0.6,0.9s-0.2,0.5-0.3,0.8
			c-0.5-0.4-0.7-0.6-1.2-0.9c0-0.1,0.1-0.3,0.2-0.4c0-0.1,0.1-0.1,0.1-0.2c-0.4,0-0.7,0-1-0.1s-0.6-0.2-0.9-0.4
			c-0.5-0.4-0.7-0.8-0.8-1.2c-0.1-0.5,0-0.9,0.3-1.3c0.2-0.3,0.4-0.4,0.7-0.5c0.3-0.1,0.6-0.1,0.9-0.1c0.3,0.1,0.7,0.2,1.2,0.5
			c0.6,0.3,1.1,0.5,1.4,0.6l0.1-0.1c0.2-0.2,0.3-0.4,0.2-0.6c0-0.2-0.2-0.4-0.5-0.6c-0.2-0.2-0.4-0.3-0.6-0.3
			S1319.3,156.6,1319.1,156.8z M1319.9,159c-0.2-0.1-0.5-0.2-0.9-0.4s-0.7-0.3-0.8-0.3c-0.2,0-0.4,0.1-0.6,0.2
			c-0.1,0.2-0.2,0.4-0.1,0.6c0,0.2,0.1,0.4,0.3,0.6c0.2,0.2,0.5,0.3,0.8,0.3c0.2,0,0.4-0.1,0.6-0.2c0.1-0.1,0.3-0.3,0.5-0.5
			C1319.8,159.1,1319.8,159.1,1319.9,159z"/>
		<path class="st8" d="M1320.6,163c2-2.5,2.9-3.7,4.9-6.2c0.5,0.4,0.7,0.6,1.2,0.9c-2,2.5-3,3.7-4.9,6.2
			C1321.3,163.5,1321.1,163.4,1320.6,163z"/>
		<path class="st8" d="M1326.7,165.5c0.4,0.5,0.6,0.7,1,1.1c-0.5,0.3-1,0.5-1.5,0.4c-0.5,0-1-0.2-1.5-0.6c-0.8-0.6-1.2-1.3-1.1-2.1
			c0-0.6,0.3-1.3,0.8-1.9c0.6-0.7,1.2-1.2,2-1.3c0.7-0.1,1.4,0.1,2,0.5c0.7,0.5,1,1.2,1.1,1.9c0,0.7-0.3,1.6-1.1,2.5
			c-1.2-0.9-1.8-1.4-3-2.3c-0.3,0.4-0.4,0.7-0.4,1s0.2,0.6,0.5,0.8c0.2,0.1,0.4,0.2,0.6,0.2C1326.3,165.7,1326.5,165.7,1326.7,165.5
			z M1327.8,164.3c0.3-0.3,0.4-0.7,0.4-1s-0.2-0.6-0.4-0.8c-0.3-0.2-0.5-0.3-0.9-0.2c-0.3,0.1-0.6,0.2-0.9,0.6
			C1326.7,163.5,1327,163.8,1327.8,164.3z"/>
		<path class="st8" d="M1328.4,167.1c0.5,0.3,0.8,0.5,1.3,0.8c-0.1,0.3-0.2,0.5-0.1,0.8c0.1,0.2,0.2,0.5,0.5,0.7s0.6,0.4,0.8,0.4
			c0.2,0,0.3-0.1,0.4-0.2c0.1-0.1,0.1-0.2,0.1-0.3s-0.1-0.3-0.3-0.5c-0.8-1-1.2-1.6-1.4-2c-0.2-0.5-0.1-1,0.3-1.4
			c0.3-0.4,0.7-0.6,1.2-0.6s1.1,0.2,1.7,0.7s1,1,1.1,1.4s0.1,0.9-0.1,1.4c-0.5-0.3-0.8-0.4-1.3-0.7c0.1-0.2,0.1-0.4,0-0.6
			c-0.1-0.2-0.2-0.4-0.5-0.6c-0.3-0.2-0.6-0.4-0.8-0.4c-0.1,0-0.2,0-0.3,0.1c-0.1,0.1-0.1,0.2-0.1,0.3c0,0.2,0.3,0.6,0.8,1.2
			c0.5,0.6,0.8,1.2,0.9,1.6c0.1,0.4,0,0.8-0.3,1.2s-0.8,0.6-1.4,0.6s-1.2-0.2-1.9-0.8c-0.6-0.5-1-1-1.2-1.5
			C1328.2,168.1,1328.2,167.6,1328.4,167.1z"/>
	</g>
</g>
<g class="st12">
	<g>
		<path class="st8" d="M394.2,526.3c-2.6,0.3-3.9,0.5-6.5,0.8c0.1,0.9,0.2,1.4,0.3,2.3c-0.5,0.1-0.8,0.1-1.3,0.2
			c-0.3-2.5-0.4-3.8-0.7-6.3c0.5-0.1,0.8-0.1,1.3-0.1c0.1,0.9,0.2,1.4,0.3,2.3c2.6-0.3,3.9-0.5,6.5-0.7
			C394.1,525.3,394.1,525.7,394.2,526.3z"/>
		<path class="st8" d="M392.9,515.1c0.1,0.7,0.1,1,0.2,1.7c-0.7,0.3-1,0.5-1.7,0.9c0.1,1.3,0.2,1.9,0.3,3.1c0.7,0.2,1.1,0.3,1.8,0.4
			c0.1,0.7,0.1,1,0.2,1.7c-3.3-0.9-4.9-1.3-8.2-2.2c-0.1-0.7-0.1-1-0.2-1.7C388.4,517.5,389.9,516.7,392.9,515.1z M390.1,518.4
			c-1.1,0.6-1.7,0.8-2.8,1.4c1.2,0.3,1.8,0.4,3,0.7C390.3,519.7,390.2,519.2,390.1,518.4z"/>
		<path class="st8" d="M389.5,509.6c0.1-0.6,0.2-1,0.3-1.6c0.9,0.2,1.6,0.5,2,1c0.5,0.5,0.7,1.2,0.8,2c0.1,1-0.2,1.9-0.8,2.7
			c-0.6,0.7-1.6,1.2-2.8,1.3c-1.3,0.1-2.4-0.1-3.1-0.7c-0.8-0.6-1.2-1.5-1.4-2.6c-0.1-1,0.1-1.8,0.6-2.4c0.3-0.4,0.8-0.7,1.4-1
			c0.2,0.6,0.3,0.9,0.5,1.5c-0.4,0.1-0.7,0.4-0.9,0.7c-0.2,0.3-0.3,0.7-0.2,1.1c0.1,0.6,0.3,1,0.8,1.4c0.5,0.3,1.1,0.4,2.1,0.3
			c1-0.1,1.7-0.4,2.1-0.8c0.4-0.4,0.5-0.9,0.5-1.5c0-0.4-0.2-0.8-0.5-1C390.5,509.8,390,509.6,389.5,509.6z"/>
		<path class="st8" d="M392.1,506.3c-3.1,0.3-4.7,0.5-7.8,0.8c-0.1-0.6-0.1-1-0.2-1.6c1.4-0.1,2.1-0.2,3.5-0.3
			c-1.5-1.2-2.3-1.7-3.8-2.9c-0.1-0.9-0.1-1.3-0.2-2.2c1.3,1.1,2,1.6,3.3,2.7c1.8-1.4,2.7-2.1,4.5-3.6c0.1,0.8,0.1,1.2,0.2,2.1
			c-1.4,1-2.1,1.5-3.5,2.5c0.6,0.5,0.9,0.7,1.4,1.2c0.9-0.1,1.4-0.1,2.4-0.2C392,505.4,392,505.7,392.1,506.3z"/>
		<path class="st8" d="M391.4,495.5c0-0.7,0-1,0.1-1.7c0.2,0,0.3-0.1,0.4-0.2c0.1-0.2,0.1-0.4,0.1-0.7c0-0.4-0.1-0.7-0.2-0.9
			c-0.1-0.1-0.2-0.2-0.4-0.3c-0.1,0-0.4,0-0.7,0c-0.3,0-0.5,0-0.8,0.1c0.7,0.4,1,0.9,1.1,1.6c0.1,0.8-0.2,1.4-0.8,1.9
			c-0.5,0.4-1.1,0.6-1.9,0.7c-1,0.1-1.7-0.1-2.2-0.5s-0.8-1-0.9-1.7s0.2-1.3,0.8-1.8c-0.3,0-0.5,0-0.8,0.1c0-0.6-0.1-0.9-0.1-1.4
			c2-0.2,3.1-0.2,5.1-0.4c0.7-0.1,1.2,0,1.5,0c0.3,0.1,0.6,0.2,0.8,0.4c0.2,0.2,0.4,0.4,0.5,0.8c0.1,0.3,0.2,0.7,0.3,1.3
			c0.1,1,0,1.7-0.3,2.1s-0.7,0.7-1.2,0.7C391.6,495.5,391.5,495.5,391.4,495.5z M388,494.4c0.6-0.1,1-0.2,1.3-0.5s0.4-0.6,0.3-0.9
			c0-0.4-0.2-0.7-0.5-0.9c-0.3-0.2-0.7-0.3-1.3-0.3c-0.6,0-1,0.2-1.3,0.5s-0.4,0.6-0.4,1s0.2,0.7,0.5,0.9
			C387,494.4,387.4,494.5,388,494.4z"/>
		<path class="st8" d="M390.4,487.2c0,0.6,0.1,0.9,0.1,1.5c-2.3,0.2-3.4,0.3-5.7,0.5c0-0.6-0.1-0.8-0.1-1.4c0.3,0,0.5,0,0.8-0.1
			c-0.4-0.2-0.7-0.4-0.8-0.6c-0.1-0.2-0.2-0.4-0.2-0.6c0-0.3,0-0.7,0.2-1c0.5,0.1,0.8,0.2,1.3,0.4c-0.1,0.3-0.2,0.5-0.2,0.7
			s0.1,0.4,0.2,0.5s0.3,0.2,0.7,0.3c0.3,0.1,0.9,0.1,1.9,0C389.3,487.3,389.7,487.3,390.4,487.2z"/>
		<path class="st8" d="M387.3,485c-0.5,0-1,0-1.5-0.3c-0.5-0.2-0.9-0.5-1.1-1c-0.3-0.4-0.4-0.9-0.5-1.5c-0.1-0.9,0.2-1.6,0.7-2.2
			s1.2-0.9,2.1-1s1.6,0.2,2.2,0.7s0.9,1.2,1,2c0,0.5,0,1-0.2,1.5s-0.5,0.9-1,1.2C388.5,484.8,387.9,484.9,387.3,485z M387.3,483.4
			c0.6,0,1-0.2,1.3-0.5s0.4-0.6,0.4-1s-0.2-0.7-0.5-1c-0.3-0.2-0.8-0.3-1.3-0.3c-0.6,0-1,0.2-1.3,0.5s-0.4,0.6-0.4,1s0.2,0.7,0.5,1
			C386.2,483.4,386.7,483.5,387.3,483.4z"/>
		<path class="st8" d="M389.5,473.9c-0.3,0-0.5,0-0.9,0.1c0.3,0.2,0.6,0.4,0.8,0.8c0.2,0.3,0.3,0.7,0.3,1.1s0,0.7-0.2,1.1
			c-0.1,0.3-0.4,0.6-0.7,0.7c-0.3,0.2-0.7,0.3-1.2,0.3c-1.4,0.1-2.2,0.1-3.6,0.2c0-0.6-0.1-0.9-0.1-1.5c1-0.1,1.6-0.1,2.6-0.2
			c0.8-0.1,1.3-0.1,1.5-0.2s0.3-0.2,0.4-0.3c0.1-0.2,0.1-0.3,0.1-0.6c0-0.3-0.1-0.5-0.3-0.7c-0.2-0.2-0.3-0.3-0.6-0.4
			c-0.2-0.1-0.7-0.1-1.5,0c-1,0.1-1.4,0.1-2.4,0.2c0-0.6-0.1-0.9-0.1-1.5c2.3-0.1,3.4-0.2,5.7-0.4
			C389.4,473.1,389.4,473.3,389.5,473.9z"/>
		<path class="st8" d="M383.6,471.3c0-0.6-0.1-0.9-0.1-1.4c0.3,0,0.5,0,0.8-0.1c-0.3-0.2-0.5-0.4-0.7-0.7c-0.2-0.3-0.3-0.6-0.3-1
			c0-0.7,0.2-1.3,0.7-1.7c0.5-0.5,1.2-0.8,2.1-0.8c1-0.1,1.7,0.1,2.3,0.6c0.6,0.4,0.8,1,0.9,1.7c0,0.3,0,0.6-0.1,0.9
			s-0.3,0.5-0.6,0.8c1.1-0.1,1.7-0.1,2.9-0.2c0,0.6,0.1,0.9,0.1,1.5C388.3,471,386.7,471.1,383.6,471.3z M386.2,469.7
			c0.6,0,1.1-0.2,1.4-0.5s0.4-0.6,0.4-1s-0.2-0.6-0.5-0.9c-0.3-0.2-0.8-0.3-1.4-0.3s-1,0.2-1.3,0.4c-0.3,0.3-0.4,0.6-0.4,0.9
			c0,0.4,0.2,0.7,0.5,0.9C385.3,469.6,385.7,469.7,386.2,469.7z"/>
	</g>
</g>
<g class="st12">
	<g>
		<path class="st8" d="M391.6,320.8c-3.1-0.6-4.6-0.9-7.7-1.6c0.4-2.4,0.6-3.6,1.1-6.1c0.5,0.1,0.8,0.2,1.3,0.3
			c-0.3,1.8-0.5,2.6-0.8,4.4c0.7,0.1,1,0.2,1.7,0.4c0.3-1.6,0.4-2.4,0.7-4.1c0.5,0.1,0.8,0.2,1.3,0.3c-0.3,1.6-0.5,2.4-0.7,4.1
			c0.8,0.2,1.3,0.3,2.1,0.4c0.3-1.8,0.5-2.7,0.8-4.5c0.5,0.1,0.8,0.2,1.3,0.3C392.3,317.1,392,318.3,391.6,320.8z"/>
		<path class="st8" d="M393.7,309.5c-0.3-0.1-0.5-0.1-0.8-0.2c0.3,0.3,0.4,0.6,0.5,1s0.1,0.8,0,1.1c-0.1,0.4-0.2,0.7-0.5,1
			c-0.2,0.3-0.5,0.4-0.8,0.5s-0.8,0.1-1.3-0.1c-1.4-0.3-2.1-0.5-3.5-0.8c0.1-0.6,0.2-0.9,0.3-1.6c1,0.2,1.5,0.3,2.6,0.6
			c0.8,0.2,1.3,0.2,1.5,0.2s0.3-0.1,0.5-0.2c0.1-0.1,0.2-0.3,0.3-0.5c0.1-0.3,0-0.5-0.1-0.7s-0.2-0.4-0.4-0.5
			c-0.2-0.1-0.7-0.3-1.5-0.4c-0.9-0.2-1.4-0.3-2.4-0.5c0.1-0.6,0.2-0.9,0.3-1.5c2.2,0.5,3.3,0.8,5.6,1.3
			C393.9,308.6,393.8,308.9,393.7,309.5z"/>
		<path class="st8" d="M394.6,305c-0.1,0.6-0.2,0.9-0.3,1.5c-2.2-0.5-3.3-0.8-5.6-1.3c0.1-0.6,0.2-0.9,0.3-1.4
			c0.3,0.1,0.5,0.1,0.8,0.2c-0.3-0.3-0.5-0.6-0.6-0.8c-0.1-0.2-0.1-0.5,0-0.7c0.1-0.4,0.2-0.7,0.5-0.9c0.5,0.3,0.7,0.5,1.2,0.8
			c-0.2,0.2-0.3,0.4-0.4,0.7c0,0.2,0,0.4,0.1,0.6s0.3,0.3,0.5,0.5c0.3,0.2,0.9,0.3,1.8,0.6C393.6,304.8,393.9,304.9,394.6,305z"/>
		<path class="st8" d="M389.5,301.6c0.1-0.7,0.2-1,0.4-1.6c1.7-0.2,2.6-0.3,4.3-0.4c-1.5-0.9-2.2-1.4-3.6-2.3c0.1-0.6,0.2-1,0.4-1.6
			c1.9,1.4,2.9,2,4.9,3.3c0.4,0.2,0.5,0.4,0.9,0.6c0.3,0.2,0.5,0.4,0.7,0.6c0.1,0.2,0.3,0.3,0.3,0.5c0.1,0.2,0.1,0.4,0.1,0.6
			s0,0.5-0.1,0.8s-0.2,0.6-0.3,0.8c-0.5-0.1-0.7-0.1-1.2-0.1c0.1-0.2,0.2-0.4,0.2-0.6c0.1-0.4,0-0.6-0.1-0.9
			c-0.2-0.2-0.4-0.4-0.7-0.6C393.2,301,391.9,301.2,389.5,301.6z"/>
		<path class="st8" d="M393,293.9c-0.2,0.5-0.3,0.8-0.6,1.3c-0.5-0.3-0.8-0.7-1-1.1s-0.2-1,0-1.8c0.2-0.7,0.4-1.2,0.6-1.5
			s0.5-0.5,0.8-0.5c0.3-0.1,0.7,0,1.4,0.1c0.7,0.2,1,0.3,1.7,0.5c0.5,0.1,0.9,0.2,1.1,0.2s0.5,0,0.8-0.1c-0.1,0.6-0.2,0.9-0.4,1.5
			c-0.1,0-0.3,0-0.5,0c-0.1,0-0.2,0-0.2,0c0.2,0.3,0.3,0.6,0.4,1c0.1,0.3,0,0.7,0,1c-0.1,0.6-0.4,1-0.8,1.3s-0.8,0.3-1.3,0.2
			c-0.3-0.1-0.6-0.2-0.8-0.4c-0.2-0.2-0.3-0.5-0.4-0.8s-0.1-0.7-0.1-1.3c0-0.7,0-1.3,0-1.6c-0.1,0-0.1,0-0.1,0
			c-0.3-0.1-0.5-0.1-0.7,0.1c-0.2,0.1-0.3,0.4-0.4,0.8c-0.1,0.3-0.1,0.5,0,0.7C392.6,293.6,392.8,293.8,393,293.9z M394.7,292.2
			c0,0.2,0,0.5,0,1c0,0.4,0,0.7,0.1,0.9c0.1,0.2,0.2,0.4,0.4,0.4c0.2,0.1,0.4,0,0.6-0.1s0.3-0.3,0.4-0.5c0.1-0.3,0-0.6-0.1-0.8
			c-0.1-0.2-0.2-0.4-0.4-0.5c-0.1-0.1-0.3-0.2-0.7-0.2C394.9,292.2,394.8,292.2,394.7,292.2z"/>
		<path class="st8" d="M398.4,288.5c-0.1,0.6-0.2,0.9-0.4,1.5c-2.2-0.6-3.3-0.9-5.5-1.4c0.1-0.6,0.2-0.8,0.3-1.4
			c0.3,0.1,0.5,0.1,0.8,0.2c-0.3-0.3-0.5-0.6-0.6-0.8c-0.1-0.2-0.1-0.5,0-0.7c0.1-0.3,0.3-0.7,0.5-0.9c0.5,0.3,0.7,0.5,1.2,0.8
			c-0.2,0.2-0.4,0.4-0.4,0.6c-0.1,0.2,0,0.4,0,0.6c0.1,0.2,0.3,0.3,0.5,0.5c0.3,0.2,0.9,0.4,1.8,0.6
			C397.4,288.2,397.7,288.3,398.4,288.5z"/>
		<path class="st8" d="M396.5,279.7c-0.1,0.6-0.1,0.9-0.1,1.5c-0.3,0-0.5,0-0.7,0.2c-0.2,0.1-0.3,0.3-0.4,0.6
			c-0.1,0.4-0.1,0.7,0.1,1s0.6,0.5,1.2,0.7c0.7,0.2,1.1,0.2,1.5,0c0.3-0.2,0.5-0.4,0.6-0.8c0.1-0.3,0.1-0.5-0.1-0.8
			c-0.1-0.2-0.3-0.4-0.7-0.6c0.3-0.6,0.4-0.8,0.6-1.4c0.6,0.3,1,0.8,1.3,1.3c0.2,0.5,0.2,1.1,0,1.9s-0.6,1.4-1.3,1.8
			c-0.6,0.4-1.4,0.4-2.3,0.2c-0.9-0.2-1.6-0.7-1.9-1.3c-0.4-0.6-0.5-1.4-0.2-2.2c0.2-0.7,0.5-1.2,0.9-1.5
			C395.4,279.9,395.9,279.7,396.5,279.7z"/>
		<path class="st8" d="M393.5,276c1.1,0.3,1.7,0.5,2.8,0.8c-0.4-0.6-0.5-1.3-0.3-2c0.1-0.3,0.2-0.6,0.4-0.9c0.2-0.2,0.4-0.4,0.6-0.5
			s0.5-0.1,0.7-0.1s0.6,0.1,1.1,0.2c1.3,0.4,1.9,0.6,3.2,0.9c-0.2,0.6-0.2,0.9-0.4,1.5c-1.2-0.3-1.7-0.5-2.9-0.8
			c-0.6-0.2-0.9-0.2-1.1-0.2s-0.3,0.1-0.5,0.2c-0.1,0.1-0.2,0.3-0.3,0.5c-0.1,0.2-0.1,0.5,0,0.7s0.2,0.4,0.4,0.6
			c0.2,0.2,0.5,0.3,1,0.4c1.1,0.3,1.7,0.5,2.8,0.8c-0.2,0.6-0.2,0.9-0.4,1.5c-3-0.8-4.6-1.3-7.6-2.2
			C393.3,276.9,393.4,276.6,393.5,276z"/>
		<path class="st8" d="M399,270.8c-0.2,0.5-0.4,0.8-0.6,1.3c-0.5-0.3-0.8-0.7-1-1.1c-0.1-0.4-0.1-1,0.1-1.8c0.2-0.7,0.4-1.1,0.7-1.4
			c0.2-0.3,0.5-0.4,0.8-0.5s0.7,0,1.4,0.2c0.7,0.2,1,0.3,1.7,0.5c0.5,0.1,0.8,0.2,1.1,0.3c0.2,0,0.5,0,0.8,0
			c-0.2,0.6-0.3,0.9-0.4,1.5c-0.1,0-0.3,0-0.5,0c-0.1,0-0.2,0-0.2,0c0.2,0.3,0.3,0.6,0.3,1c0,0.3,0,0.6-0.1,1
			c-0.2,0.6-0.4,1-0.8,1.2s-0.8,0.3-1.3,0.2c-0.3-0.1-0.6-0.2-0.8-0.5c-0.2-0.2-0.3-0.5-0.4-0.8s-0.1-0.7,0-1.3
			c0.1-0.7,0.1-1.2,0.1-1.5c-0.1,0-0.1,0-0.1,0c-0.3-0.1-0.5-0.1-0.7,0s-0.3,0.4-0.4,0.7c-0.1,0.3-0.1,0.5,0,0.7
			C398.7,270.5,398.8,270.6,399,270.8z M400.8,269.2c0,0.2,0,0.5,0,1c0,0.4,0,0.7,0,0.9c0.1,0.2,0.2,0.4,0.4,0.4
			c0.2,0.1,0.4,0,0.6-0.1s0.3-0.3,0.4-0.5c0.1-0.3,0.1-0.5,0-0.8c-0.1-0.2-0.2-0.4-0.4-0.5c-0.1-0.1-0.3-0.2-0.7-0.3
			C401,269.2,400.9,269.2,400.8,269.2z"/>
		<path class="st8" d="M403.5,263.4c0.3-0.6,0.4-0.8,0.7-1.4c0.5,0.4,0.8,0.8,0.9,1.3c0.2,0.5,0.1,1-0.1,1.6c-0.3,1-0.8,1.6-1.6,1.8
			c-0.6,0.2-1.3,0.2-2,0c-0.9-0.3-1.5-0.7-1.9-1.4c-0.4-0.6-0.4-1.3-0.2-2.1c0.3-0.8,0.7-1.4,1.4-1.7c0.7-0.3,1.6-0.3,2.7,0.1
			c-0.5,1.5-0.7,2.2-1.1,3.7c0.4,0.1,0.8,0.1,1.1,0c0.3-0.2,0.5-0.4,0.6-0.7c0.1-0.2,0.1-0.4,0-0.6
			C403.9,263.7,403.8,263.5,403.5,263.4z M402.1,262.8c-0.4-0.1-0.8-0.1-1.1,0c-0.3,0.1-0.5,0.4-0.6,0.7c-0.1,0.3-0.1,0.6,0.1,0.9
			s0.4,0.5,0.8,0.6C401.7,264.1,401.8,263.7,402.1,262.8z"/>
		<path class="st8" d="M403.2,260.6c-0.5-0.2-0.9-0.4-1.3-0.8s-0.6-0.8-0.7-1.4c-0.1-0.5-0.1-1,0.1-1.6c0.3-0.8,0.8-1.4,1.5-1.8
			c0.7-0.4,1.5-0.4,2.3-0.1c0.8,0.3,1.4,0.8,1.8,1.5s0.4,1.5,0.2,2.3c-0.2,0.5-0.4,0.9-0.8,1.3s-0.8,0.6-1.3,0.7
			C404.4,260.9,403.8,260.8,403.2,260.6z M403.7,259.2c0.5,0.2,1,0.2,1.4,0s0.6-0.4,0.7-0.8s0.1-0.7-0.1-1.1
			c-0.2-0.3-0.6-0.6-1.1-0.8c-0.5-0.2-1-0.2-1.3,0c-0.4,0.2-0.6,0.4-0.7,0.8s-0.1,0.7,0.1,1.1C402.8,258.7,403.2,259,403.7,259.2z"
			/>
		<path class="st8" d="M403.6,250.4c0.5,0.2,0.7,0.2,1.1,0.4c-0.1,0.4-0.2,0.6-0.3,1c0.9,0.3,1.3,0.4,2.2,0.7
			c0.4,0.1,0.7,0.2,0.8,0.2c0.1,0,0.2,0,0.2-0.1c0.1,0,0.1-0.1,0.2-0.2c0-0.1,0.1-0.3,0.1-0.6c0.5,0.1,0.7,0.2,1.1,0.3
			c0,0.4,0,0.8-0.2,1.2c-0.1,0.3-0.2,0.5-0.4,0.7c-0.2,0.2-0.3,0.3-0.5,0.3c-0.2,0.1-0.4,0.1-0.6,0c-0.2,0-0.5-0.1-1-0.3
			c-0.9-0.3-1.4-0.5-2.4-0.8c-0.1,0.3-0.1,0.4-0.2,0.7c-0.5-0.2-0.7-0.2-1.1-0.4c0.1-0.3,0.1-0.4,0.2-0.7c-0.4-0.1-0.6-0.2-1.1-0.4
			c-0.1-0.7-0.2-1.1-0.3-1.8c0.8,0.3,1.1,0.4,1.9,0.7C403.4,251,403.5,250.8,403.6,250.4z"/>
		<path class="st8" d="M406,248.9c-0.3,0.5-0.4,0.7-0.7,1.2c-0.5-0.3-0.8-0.7-0.9-1.2c-0.1-0.4-0.1-1,0.2-1.7
			c0.2-0.6,0.5-1.1,0.7-1.4c0.3-0.3,0.5-0.4,0.8-0.5c0.3,0,0.7,0,1.3,0.3c0.7,0.2,1,0.4,1.7,0.6c0.5,0.2,0.8,0.3,1.1,0.3
			c0.2,0,0.5,0,0.8,0c-0.2,0.6-0.3,0.8-0.5,1.4c-0.1,0-0.3,0-0.5,0c-0.1,0-0.2,0-0.2,0c0.2,0.3,0.2,0.7,0.3,1c0,0.3,0,0.6-0.1,1
			c-0.2,0.6-0.5,0.9-0.9,1.2c-0.4,0.2-0.8,0.2-1.3,0.1c-0.3-0.1-0.6-0.3-0.7-0.5c-0.2-0.2-0.3-0.5-0.3-0.8s0-0.7,0.1-1.3
			c0.1-0.7,0.2-1.2,0.1-1.5c-0.1,0-0.1,0-0.1,0c-0.3-0.1-0.5-0.1-0.7,0s-0.3,0.3-0.4,0.7c-0.1,0.3-0.1,0.5-0.1,0.7
			C405.6,248.5,405.7,248.7,406,248.9z M407.8,247.4c0,0.2,0,0.5-0.1,1c-0.1,0.4-0.1,0.7,0,0.9s0.2,0.4,0.4,0.5
			c0.2,0.1,0.4,0.1,0.6,0s0.3-0.3,0.4-0.5c0.1-0.3,0.1-0.5,0-0.8c-0.1-0.2-0.2-0.4-0.4-0.5c-0.1-0.1-0.3-0.2-0.7-0.3
			C407.9,247.4,407.9,247.4,407.8,247.4z"/>
	</g>
</g>
<path class="st13" d="M401.4,458.2c-1.1,6,1.8,65.4,4.2,72.6"/>
<path class="st13" d="M551.2,141.4c-50,8-160.6,52.6-150.9,275.8"/>
<path class="st13" d="M591.4,860.4c62.8,143,529.9,413.8,819.2-73.2"/>
<path class="st13" d="M1480.7,428.6c13.8,58.2,8.2,196.4-28.8,274.2"/>
<path class="st13" d="M1424.3,290.9c14.3,16.4,38,59,42.7,81.7"/>
<path class="st13" d="M1335.5,191.4c24.5,18.6,48.6,44.6,65.7,69"/>
<path class="st13" d="M1275.7,146.4c12,8,20.7,13.1,30.7,22.2"/>
			<a class="book-appendix-tree-species-entry" id="BACTERIA"><text transform="matrix(0.9816 -0.1908 0.1908 0.9816 775.717 100.6135)" class="st5 st9 st14">BACTERIA</text></a>
			<a class="book-appendix-tree-species-entry" id="ARCHAEA"><text transform="matrix(0.9986 -5.233693e-02 5.233693e-02 0.9986 439.4709 124.9379)" class="st5 st9 st14">ARCHAEA</text></a>
</svg>
