<svg xmlns:dc="http://purl.org/dc/elements/1.1/" xmlns:cc="http://creativecommons.org/ns#" xmlns:rdf="http://www.w3.org/1999/02/22-rdf-syntax-ns#" xmlns:svg="http://www.w3.org/2000/svg" xmlns="http://www.w3.org/2000/svg" version="1.1" viewBox="0 0 100 100" xml:space="preserve" x="0px" y="0px">
    <path d="M 50.4375,5 52,6.59375 56.15625,10.71875 52,14.90625 51.09375,15.8125 c 9.295453,0.28695 17.632862,4.248348 23.625,10.5 l 8.21875,2.1875 1.875,-7 C 76.637515,11.536199 64.273476,5.1294772 50.4375,5 z m -7.75,0.59375 C 29.315753,7.786115 17.939286,15.887773 11.28125,27.125 l 2.125,-0.5625 5.65625,-1.53125 1.53125,5.6875 0.34375,1.21875 C 25.585488,24.448465 33.032052,18.897573 41.84375,16.75 l 6,-6 -5.15625,-5.15625 z m 46.5,22.3125 -0.5625,2.125 -1.53125,5.65625 -5.6875,-1.53125 -1.21875,-0.3125 c 2.575723,4.810606 4.03125,10.306328 4.03125,16.15625 0,3.313219 -0.469709,6.503582 -1.34375,9.53125 L 85.09375,67.75 92.125,65.875 C 93.992098,60.937017 95,55.58432 95,50 95,41.97206 92.885756,34.438203 89.1875,27.90625 z M 14.9375,32.25 7.90625,34.125 C 6.0382779,39.064033 5,44.414281 5,50 c 0,8.03074 2.1117944,15.591647 5.8125,22.125 l 0.59375,-2.15625 1.5,-5.65625 5.71875,1.53125 1.21875,0.3125 C 17.269776,61.346344 15.78125,55.849573 15.78125,50 c 0,-3.309718 0.472158,-6.506731 1.34375,-9.53125 L 14.9375,32.25 z M 79.09375,68.0625 C 74.448281,75.543486 66.98814,81.065928 58.1875,83.21875 L 52.15625,89.25 57.3125,94.40625 C 70.674414,92.213885 82.060049,84.101029 88.71875,72.875 l -2.125,0.59375 -5.65625,1.5 -1.53125,-5.6875 -0.3125,-1.21875 z m -62,3.4375 -1.875,7 C 23.393804,88.457502 35.731739,94.870522 49.5625,95 L 48,93.4375 43.84375,89.28125 48.03125,85.125 48.9375,84.1875 c -9.297518,-0.281701 -17.632092,-4.250447 -23.625,-10.5 L 17.09375,71.5 z" style="text-indent:0;text-transform:none;direction:ltr;block-progression:tb;baseline-shift:baseline;color:#000000;enable-background:accumulate;" fill-opacity="1" fill-rule="evenodd" stroke="none" marker="none" visibility="visible" display="inline" overflow="visible"/>
</svg>