<svg class="summary-menu__item-graphic" xmlns="http://www.w3.org/2000/svg" viewBox="0 0 349.46 208.71"><path d="M989.35,93.7c145.83,9.44,272.62,88.78,347.2,204.86" transform="translate(-989.19 -91.2)" fill="none" stroke="#0d65d9" stroke-miterlimit="10" stroke-width="5"/><path d="M1175.32,190.57a.79.79,0,0,1-.55,1.06c-14.22,3.39-24.17,11-38.47,14.22-16.94,3.81-34.66-3.32-50.61-10.63-10.57-4.84-23.08-15.57-30-24.95-2.55-3.44-17.08-31.12-15.41-34,3.59-6.27,35.27-15.28,41.9-15.7,12.8-.8,29.5,6,41.71,11.17,14.1,6,29.62,9,38.16,21.26C1169.66,164,1170.34,178.21,1175.32,190.57Z" transform="translate(-989.19 -91.2)" fill="#35868f"/><path d="M1166.35,209.63a2.9,2.9,0,0,1,2.56-3.43c8.61-.79,16.45-4.74,31.72-6.75,14.63-1.92,28.65,7.39,41.08,15.65,8.22,5.46,17.3,16.13,21.9,24.93,1.69,3.23,10.21,28.39,8.42,30.62-3.85,4.79-31.65,8.15-37.26,7.62-10.86-1-24-9-33.54-14.92-11-6.87-23.68-11.46-29.21-22.91C1167.43,230.94,1168.21,220,1166.35,209.63Z" transform="translate(-989.19 -91.2)" fill="#35868f"/><text transform="translate(222.83 62.47)" font-size="30" font-family="Helvetica">1</text></svg>