<svg class="summary-menu__item-graphic" xmlns="http://www.w3.org/2000/svg" viewBox="0 0 349.464 208.746"><path d="M.2,2.5C146,11.9,272.8,91.3,347.4,207.4" transform="translate(-0.039 -0.005)" fill="none" stroke="#0d65d9" stroke-miterlimit="10" stroke-width="5"/><path d="M178.9,113.8a.7.7,0,0,1-.4,1h-.1c-14.2,3.4-24.2,11-38.5,14.2-16.9,3.8-34.7-3.3-50.6-10.6-10.6-4.8-23.1-15.6-30-24.9-2.6-3.4-17.1-31.1-15.4-34,3.6-6.3,35.3-15.3,41.9-15.7,12.8-.8,29.5,6,41.7,11.2,14.1,6,29.6,9,38.2,21.3C173.3,87.2,173.9,101.4,178.9,113.8Z" transform="translate(-0.039 -0.005)" fill="#35868f" opacity="0.3" style="isolation:isolate"/><path d="M170,132.8a2.871,2.871,0,0,1,2.3-3.4h.3c8.6-.8,16.4-4.7,31.7-6.7,14.6-1.9,28.7,7.4,41.1,15.6,8.2,5.5,17.3,16.1,21.9,24.9,1.7,3.2,10.2,28.4,8.4,30.6-3.8,4.8-31.7,8.1-37.3,7.6-10.9-1-24-9-33.5-14.9-11-6.9-23.7-11.5-29.2-22.9C171,154.1,171.8,143.2,170,132.8Z" transform="translate(-0.039 -0.005)" fill="#35868f" opacity="0.3" style="isolation:isolate"/><text transform="translate(222.791 62.465)" font-size="30" font-family="Helvetica" style="isolation:isolate">1</text><path d="M178.9,113.8a.7.7,0,0,1-.4,1h-.1c-14.2,3.4-24.2,11-38.5,14.2-16.9,3.8-34.7-3.3-50.6-10.6-10.6-4.8-23.1-15.6-30-24.9-2.6-3.4-17.1-31.1-15.4-34,3.6-6.3,35.3-15.3,41.9-15.7,12.8-.8,29.5,6,41.7,11.2,14.1,6,29.6,9,38.2,21.3C173.3,87.2,173.9,101.4,178.9,113.8Z" transform="translate(-0.039 -0.005)" fill="none" stroke="#35868f" stroke-miterlimit="10" stroke-width="6"/><path d="M170,132.8a2.871,2.871,0,0,1,2.3-3.4h.3c8.6-.8,16.4-4.7,31.7-6.7,14.6-1.9,28.7,7.4,41.1,15.6,8.2,5.5,17.3,16.1,21.9,24.9,1.7,3.2,10.2,28.4,8.4,30.6-3.8,4.8-31.7,8.1-37.3,7.6-10.9-1-24-9-33.5-14.9-11-6.9-23.7-11.5-29.2-22.9C171,154.1,171.8,143.2,170,132.8Z" transform="translate(-0.039 -0.005)" fill="none" stroke="#35868f" stroke-miterlimit="10" stroke-width="6"/></svg>