<svg class="summary-menu__item-graphic" xmlns="http://www.w3.org/2000/svg" viewBox="0 0 94.96 395.15"><path d="M1361.4,736.34c19.54-42.17,28.38-66.68,38-108.53a5.35,5.35,0,0,0-5.86-6.51l-.14,0c-4.54.68-9.77,20.21-26.34,14.79s-15.77-21.27-13.22-29.07,14.1-13.46,25.14-10.93c7.08,1.62,10.5,9,12.7,12.09a7.94,7.94,0,0,0,5.94,3.32h0a4.71,4.71,0,0,0,5-3.94c3.05-19.07,6.1-42.66,6.31-61.85a3.59,3.59,0,0,0-3.15-3.59h0a10.16,10.16,0,0,0-9.52,4.16c-3.27,4.56-10.09,12-20.44,10.66-13.36-1.75-19-12.11-18.93-18.66.22-16.83,14.08-25.9,22.69-23.8,11,2.67,19.78,13.68,22.15,16.27a2.36,2.36,0,0,0,1.73.75h0a4.9,4.9,0,0,0,4.86-5.15c-.92-18.66-3-43.24-6.58-61.56a6.59,6.59,0,0,0-11.88-2.8c-3.86,5.21-1.76,15.23-18.21,18.13-8.94,1.57-20.53-6.56-23-14.8-2.84-9.64,7.88-26.76,17.29-25.84,8.15.79,14.26,6.59,18.25,9.47a12.12,12.12,0,0,0,8,2.31h0a4.44,4.44,0,0,0,4-5.57c-10.31-39.43-14.2-62.17-35.8-102.28" transform="translate(-1345.73 -342.24)" fill="none" stroke="#0d65d9" stroke-miterlimit="10" stroke-width="5"/><path d="M1372.79,630.61a22.11,22.11,0,0,0,10.79-6.77c2.12-2.48,5.31-4.35,4.83-7.53-3.05-11.5-10.59-21-22.56-15-10.56,2.49-3.87,25.87,1.84,29.51C1369.19,631.45,1370.92,631.14,1372.79,630.61Z" transform="translate(-1345.73 -342.24)" fill="#f23c07"/><path d="M1388.71,548.56c-32,9-24.23-3.68-21-27C1386.77,508.77,1396.3,536.32,1388.71,548.56Z" transform="translate(-1345.73 -342.24)" fill="#f23c07"/><path d="M1371.22,475.84c16.61-12.24,11.06-11.79,10.29-22.45-1.58-1.44-2.57-4.16-4-5.13-4.67-3.2-8.91-2.36-11.9-1.52s-7.53,2.43-9.24,5.32c-2.52,4.27-1.56,10.46-2.37,13.92-1.69-.51,5.68,5.64,10.18,9.57A5.62,5.62,0,0,0,1371.22,475.84Z" transform="translate(-1345.73 -342.24)" fill="#f23c07"/><text transform="translate(78.28 184.58)" font-size="30" font-family="Helvetica">2</text></svg>