<svg class="summary-menu__item-graphic" xmlns="http://www.w3.org/2000/svg" viewBox="0 0 352.46 231.19"><path d="M932.66,986.43c-147.32-8.88-275.41-89.08-350.2-206.53" transform="translate(-580.35 -778.55)" fill="none" stroke="#0d65d9" stroke-miterlimit="10" stroke-width="5"/><path d="M742.51,902.17l-.77-.46" transform="translate(-580.35 -778.55)" fill="none" stroke="#f56339" stroke-miterlimit="10" stroke-width="51.3"/><path d="M740.21,900.77c-34-20.86-66.65-47.81-97.9-82" transform="translate(-580.35 -778.55)" fill="none" stroke="#f56339" stroke-miterlimit="10" stroke-width="51.3" stroke-dasharray="1.79 1.79"/><path d="M641.7,818.15c-.2-.23-.41-.45-.61-.67" transform="translate(-580.35 -778.55)" fill="none" stroke="#f56339" stroke-miterlimit="10" stroke-width="51.3"/><path d="M879.42,960.1l-.88-.19" transform="translate(-580.35 -778.55)" fill="none" stroke="#f56339" stroke-miterlimit="10" stroke-width="39.6"/><path d="M876.79,959.53c-34.31-7.51-67-17.85-98-31.79" transform="translate(-580.35 -778.55)" fill="none" stroke="#f56339" stroke-miterlimit="10" stroke-width="39.6" stroke-dasharray="1.79 1.79"/><path d="M778,927.37l-.82-.37" transform="translate(-580.35 -778.55)" fill="none" stroke="#f56339" stroke-miterlimit="10" stroke-width="39.6"/><path d="M755,879.64c-33.94-20.43-63.74-46-94.19-79.46" transform="translate(-580.35 -778.55)" fill="none" stroke="#f56339" stroke-linecap="round" stroke-miterlimit="10" stroke-width="2.7"/><path d="M882.65,941.18c-34.78-7.45-66.09-17.52-97.33-32" transform="translate(-580.35 -778.55)" fill="none" stroke="#f56339" stroke-linecap="round" stroke-miterlimit="10" stroke-width="2.7"/><path d="M721.09,961.05l1.64-14.24c-16.85,12.49-17.46-.87-35.14,7.47-15.5,7.31-8.81,12.86-24,21.53-14.77,8.46-27.82-10.76-48.27,18.21" transform="translate(-580.35 -778.55)" fill="none" stroke="#ffef99" stroke-linecap="round" stroke-miterlimit="10" stroke-width="2.7"/><line x1="129.18" y1="162.98" x2="142.38" y2="167.53" fill="none" stroke="#ffef99" stroke-linecap="round" stroke-miterlimit="10" stroke-width="2.7"/><circle cx="55.83" cy="138.75" r="11.83" fill="none" stroke="#99bd99" stroke-linecap="round" stroke-miterlimit="10" stroke-width="2.7"/><circle cx="174.7" cy="218.01" r="11.83" fill="none" stroke="#e0a1a4" stroke-linecap="round" stroke-miterlimit="10" stroke-width="2.7"/><text transform="translate(169.87 222.85)" font-size="16" fill="#c9c9c9" font-family="Helvetica-Bold, Helvetica" font-weight="700">–</text><text transform="translate(50.86 143.24)" font-size="16" fill="#c9c9c9" font-family="Helvetica-Bold, Helvetica" font-weight="700">+</text><text transform="translate(152.18 188.83)" font-size="30" font-family="Helvetica">4</text></svg>