<svg class="summary-menu__item-graphic" xmlns="http://www.w3.org/2000/svg" viewBox="0 0 556.25 354.91"><path d="M588.86,290.34C671.23,171.66,775.11,97.6,934.77,93.45" transform="translate(-378.59 -1)" fill="none" stroke="#0d65d9" stroke-miterlimit="10" stroke-width="5"/><text transform="translate(132.26 170.91) rotate(0.67)" font-size="24" fill="#c1c1c1" font-family="Helvetica">flagellum</text><text transform="matrix(0.85, 0.53, -0.53, 0.85, 195.41, 30.46)" font-size="24" fill="#c1c1c1" font-family="Helvetica">archaellum</text><text transform="translate(394.12 20.24) rotate(66.66)" font-size="24" fill="#c1c1c1" font-family="Helvetica">T4<tspan x="28.01" y="0" letter-spacing="-0.02em">P</tspan></text><path d="M672.69,197.17c-7.11-7.75-14.43-14.5-20.44-18.21-7.81-4.82-23.79-6.05-40.9,4.41" transform="translate(-378.59 -1)" fill="none" stroke="#ff7400" stroke-linecap="round" stroke-miterlimit="10" stroke-width="15"/><path d="M603.69,187.05c-86.16,41.38-74.62-36.44-147.2-3.18-31.61,14.48-53.45,14.29-72.9,10.49" transform="translate(-378.59 -1)" fill="none" stroke="#ff7400" stroke-linecap="round" stroke-miterlimit="10" stroke-width="10"/><path d="M672.57,181.31c-6.83,8.7-9.5,10.88-15.73,16.24" transform="translate(-378.59 -1)" fill="none" stroke="#ff7400" stroke-linecap="round" stroke-miterlimit="10" stroke-width="3"/><path d="M683.36,188.73c-2.87,10.52-10.64,16.18-20.79,18.85" transform="translate(-378.59 -1)" fill="none" stroke="#ff7400" stroke-linecap="round" stroke-miterlimit="10" stroke-width="3"/><path d="M663.21,201.11c3-2.59,12.1-9.16,13.52-11.64" transform="translate(-378.59 -1)" fill="none" stroke="#ff7400" stroke-linecap="round" stroke-miterlimit="10" stroke-width="3"/><path d="M667.57,178.61c-4.46,4.26-10.38,10.2-13.38,12.77" transform="translate(-378.59 -1)" fill="none" stroke="#ff7400" stroke-linecap="round" stroke-miterlimit="10" stroke-width="3"/><path d="M663.72,211.28c14.87-4,18.57-7.08,21.89-20.87.82-3.44,12.48,4.12,12.53,6.42.26,12.82-12.31,27.31-27.44,27.51C666.31,224.4,660,212.3,663.72,211.28Z" transform="translate(-378.59 -1)" fill="none" stroke="#ff7400" stroke-linecap="round" stroke-miterlimit="10" stroke-width="3"/><path d="M663.86,217.23c-.9-2-2.18-3.88-1.15-5.81" transform="translate(-378.59 -1)" fill="none" stroke="#ff7400" stroke-linecap="round" stroke-miterlimit="10" stroke-width="2"/><path d="M672.73,223.73c-1.35-2-7.8-11.07-7.57-13.15" transform="translate(-378.59 -1)" fill="none" stroke="#ff7400" stroke-linecap="round" stroke-miterlimit="10" stroke-width="2"/><path d="M675.75,223.05c-1.63-2-8.3-10.72-7.34-13.16" transform="translate(-378.59 -1)" fill="none" stroke="#ff7400" stroke-linecap="round" stroke-miterlimit="10" stroke-width="2"/><path d="M679.14,222.15c-1.77-1.77-8.44-10.51-7.48-12.94" transform="translate(-378.59 -1)" fill="none" stroke="#ff7400" stroke-linecap="round" stroke-miterlimit="10" stroke-width="2"/><path d="M682.34,220.9c-1.28-1.78-7.89-10-8-12.82" transform="translate(-378.59 -1)" fill="none" stroke="#ff7400" stroke-linecap="round" stroke-miterlimit="10" stroke-width="2"/><path d="M685.35,218.87c-.81-2.52-7.35-10.25-8.34-11.91" transform="translate(-378.59 -1)" fill="none" stroke="#ff7400" stroke-linecap="round" stroke-miterlimit="10" stroke-width="2"/><path d="M688.46,216.56c-.52-1.69-7.19-10.42-8.62-11.52" transform="translate(-378.59 -1)" fill="none" stroke="#ff7400" stroke-linecap="round" stroke-miterlimit="10" stroke-width="2"/><path d="M690.71,214.28c-1.09-2.2-6.41-8.54-9.34-11.24" transform="translate(-378.59 -1)" fill="none" stroke="#ff7400" stroke-linecap="round" stroke-miterlimit="10" stroke-width="2"/><path d="M693.6,211c-1.72-1.31-8.61-9.76-10.54-10.79" transform="translate(-378.59 -1)" fill="none" stroke="#ff7400" stroke-linecap="round" stroke-miterlimit="10" stroke-width="2"/><path d="M695.72,207.68c-2-1.53-10.12-9.56-12-10.09" transform="translate(-378.59 -1)" fill="none" stroke="#ff7400" stroke-linecap="round" stroke-miterlimit="10" stroke-width="2"/><path d="M696.9,205c-1.34-2.39-9.62-9.63-12.49-10" transform="translate(-378.59 -1)" fill="none" stroke="#ff7400" stroke-linecap="round" stroke-miterlimit="10" stroke-width="2"/><path d="M697.93,201.6c-2.42-1.34-10-9.44-12.34-9.39" transform="translate(-378.59 -1)" fill="none" stroke="#ff7400" stroke-linecap="round" stroke-miterlimit="10" stroke-width="2"/><path d="M698.05,198.13c-2.22-1.25-8.58-8.58-12.06-8.2" transform="translate(-378.59 -1)" fill="none" stroke="#ff7400" stroke-linecap="round" stroke-miterlimit="10" stroke-width="2"/><path d="M736.93,152.85A141.9,141.9,0,0,0,725.41,137c-16.5-19.43-33.89-61.67-63.14-92.61C645.51,26.63,608.48,8.11,536.48,4" transform="translate(-378.59 -1)" fill="none" stroke="#ff9033" stroke-linecap="round" stroke-miterlimit="10" stroke-width="6"/><path d="M728,158.52c-1.84-3.86,16.91-13.35,18.94-10.56C749.52,151.46,730.26,163.19,728,158.52Z" transform="translate(-378.59 -1)" fill="#ff9033" stroke="#ff9033" stroke-linecap="round" stroke-miterlimit="10" stroke-width="2"/><path d="M721.23,147.08c4.43-2.66,17-8.9,17-8.9" transform="translate(-378.59 -1)" fill="none" stroke="#ff9033" stroke-linecap="round" stroke-miterlimit="10" stroke-width="2"/><line x1="339.98" y1="140.35" x2="355.13" y2="131.9" fill="none" stroke="#ff9033" stroke-linecap="round" stroke-miterlimit="10" stroke-width="2"/><path d="M798.36,120.56l2.3-1.1.33-.15.14-.06c.28-.13-.38.15-.3.13a2.92,2.92,0,0,1,.38-.14l.14,0c.31-.08-.52,0-.37,0h.29a14.67,14.67,0,0,0,1.47-.16,26.81,26.81,0,0,0,2.67-.53,2,2,0,1,0-1.06-3.85c-.83.19-1.65.38-2.49.5-.46.07.54-.06.13,0l-.29,0-.42,0a6,6,0,0,0-2.41.68c-.85.38-1.69.8-2.53,1.2a2,2,0,0,0-.72,2.74,2.05,2.05,0,0,0,2.74.71Z" transform="translate(-378.59 -1)" fill="#ffac66"/><path d="M796.92,115.9c.77-.37,1.53-.75,2.3-1.1l.33-.15.14-.07-.06,0a2.92,2.92,0,0,1,.38-.14l.14,0c.21-.06-.18,0-.11,0a2.71,2.71,0,0,0,.29,0,12.09,12.09,0,0,0,1.21-.11c.9-.13,1.79-.33,2.67-.54a1,1,0,1,0-.53-1.92c-.83.19-1.65.38-2.49.5h-.08c.18,0,0,0-.05,0l-.3,0-.42,0a4.7,4.7,0,0,0-1.9.53c-.85.39-1.69.8-2.53,1.21a1,1,0,0,0-.36,1.37,1,1,0,0,0,1.37.36Z" transform="translate(-378.59 -1)" fill="#ffac66"/><path d="M790.29,111.5a160.85,160.85,0,0,1,15.81-4.8c1.25-.3.72-2.23-.54-1.93a159.85,159.85,0,0,0-15.81,4.81c-1.2.42-.68,2.35.54,1.92Z" transform="translate(-378.59 -1)" fill="#ffac66"/><path d="M786.37,102.69a161.68,161.68,0,0,1,15.81-4.8c1.25-.3.72-2.23-.53-1.93a160.85,160.85,0,0,0-15.81,4.8c-1.21.42-.69,2.36.53,1.93Z" transform="translate(-378.59 -1)" fill="#ffac66"/><path d="M801.43,111C796,96.83,790.6,82.58,785,68.44c-2.78-7-5.67-13.91-8.29-20.95-2.46-6.61-4.82-13.25-7.33-19.84q-4.47-11.76-9.17-23.41a2.07,2.07,0,0,0-2.46-1.4,2,2,0,0,0-1.4,2.47Q764.5,25.65,772,46.26c2.56,7.06,5.43,14,8.22,21S785.6,81,788.27,88q4.65,12.08,9.31,24.15a2.06,2.06,0,0,0,2.46,1.39,2,2,0,0,0,1.39-2.46Z" transform="translate(-378.59 -1)" fill="#ffac66"/><polygon points="411.37 72.96 417.42 82.93 404.73 86.71 403.22 75.63 411.37 72.96" fill="#ffac66" stroke="#ffac66" stroke-miterlimit="10" stroke-width="0.8"/><path d="M796.54,126.4c1.09,5.4,15.35.91,13.71-4.26C808.71,117.31,795.33,120.37,796.54,126.4Z" transform="translate(-378.59 -1)" fill="#ffac66" stroke="#ffac66" stroke-miterlimit="10" stroke-width="0.8"/><path d="M733.78,319.81a333,333,0,0,1,5.33,36" transform="translate(-378.59 -1)" fill="none" stroke="#ededed" stroke-miterlimit="10" stroke-width="3" stroke-dasharray="4"/><path d="M705.69,235.13c9.2,18.83,20.92,49.47,28.09,84.68" transform="translate(-378.59 -1)" fill="none" stroke="#ededed" stroke-miterlimit="10" stroke-width="3"/><polygon points="316.29 215.91 320.68 247.86 327.69 235.62 341.79 235.65 316.29 215.91" fill="#ededed"/><path d="M783.15,272.5a330.15,330.15,0,0,1,5.33,36" transform="translate(-378.59 -1)" fill="none" stroke="#ededed" stroke-miterlimit="10" stroke-width="3" stroke-dasharray="4"/><path d="M755.06,187.82c9.2,18.83,20.92,49.47,28.09,84.68" transform="translate(-378.59 -1)" fill="none" stroke="#ededed" stroke-miterlimit="10" stroke-width="3"/><polygon points="365.66 168.6 370.05 200.54 377.06 188.31 391.16 188.34 365.66 168.6" fill="#ededed"/><path d="M840.75,237.52a330.88,330.88,0,0,1,5.33,36" transform="translate(-378.59 -1)" fill="none" stroke="#ededed" stroke-miterlimit="10" stroke-width="3" stroke-dasharray="4"/><path d="M812.66,152.85c9.2,18.82,20.92,49.46,28.09,84.67" transform="translate(-378.59 -1)" fill="none" stroke="#ededed" stroke-miterlimit="10" stroke-width="3"/><polygon points="423.26 133.63 427.65 165.57 434.66 153.34 448.76 153.36 423.26 133.63" fill="#ededed"/><text transform="translate(297.88 158.13)" font-size="30" font-family="Helvetica">6</text></svg>