<svg class="summary-menu__item-graphic" xmlns="http://www.w3.org/2000/svg" viewBox="0 0 595.766 225.984"><path d="M960,120.165a420.858,420.858,0,0,1,100.428,12.087" transform="translate(-960 -103.462)" fill="none" stroke="#0d65d9" stroke-miterlimit="10" stroke-width="5"/><path d="M1252.43,238.759a421.577,421.577,0,0,1,70.133,89.424" transform="translate(-960 -103.462)" fill="none" stroke="#0d65d9" stroke-miterlimit="10" stroke-width="5"/><path d="M1293.985,205.612c4.166,3.867,8.393,7.185,11.793,8.922,4.409,2.254,13.062,2.228,21.819-4.144" transform="translate(-960 -103.462)" fill="none" stroke="#ff7400" stroke-linecap="round" stroke-miterlimit="10" stroke-width="9"/><path d="M1552.766,194.12c-10.446,2.322-16.038-3.045-34.547-6.179-27.761-4.7-32.073,13.811-69.159,7.695-9.694-1.6-21.993-.7-38.378,8.46-37.63,21.043-34.784-21.346-79.375,4.651" transform="translate(-960 -103.462)" fill="none" stroke="#ff7400" stroke-linecap="round" stroke-miterlimit="10" stroke-width="6"/><rect x="1047.754" y="138.324" width="219.874" height="90.287" rx="45.143" transform="matrix(0.866, 0.5, -0.5, 0.866, -713.165, -657.728)" fill="none" stroke="#0d65d9" stroke-miterlimit="10" stroke-width="5"/><text transform="translate(194.396 92.047)" font-size="30" font-family="Helvetica">1</text></svg>