<svg class="summary-menu__item-graphic" xmlns="http://www.w3.org/2000/svg" viewBox="0 0 595.766 225.984"><path d="M17,17.035A420.809,420.809,0,0,1,100.428,28.79" fill="none" stroke="#0d65d9" stroke-miterlimit="10" stroke-width="5"/><path d="M292.43,135.3A421.544,421.544,0,0,1,353.081,209.3" fill="none" stroke="#0d65d9" stroke-miterlimit="10" stroke-width="5"/><path d="M333.985,102.15c4.166,3.867,8.393,7.185,11.793,8.922,4.409,2.254,13.062,2.228,21.819-4.144" fill="none" stroke="#ff7400" stroke-linecap="round" stroke-miterlimit="10" stroke-width="9"/><path d="M592.766,90.658c-10.446,2.322-16.038-3.045-34.547-6.179-27.761-4.7-32.073,13.811-69.159,7.7-9.694-1.6-21.993-.7-38.378,8.46-37.63,21.043-34.784-21.346-79.375,4.651" fill="none" stroke="#ff7400" stroke-linecap="round" stroke-miterlimit="10" stroke-width="6"/><rect x="152.519" y="-29.934" width="90.285" height="219.869" rx="45.142" transform="translate(29.547 211.178) rotate(-59.999)" fill="none" stroke="#0d65d9" stroke-miterlimit="10" stroke-width="5"/><text transform="translate(194.396 92.047)" font-size="30" font-family="Helvetica" style="isolation:isolate">1</text></svg>