<svg class="summary-menu__item-graphic" xmlns="http://www.w3.org/2000/svg" viewBox="0 0 96.594 424.897"><path d="M1366.975,643.525A417.259,417.259,0,0,1,1323.3,750.561" transform="translate(-1320.406 -326.92)" fill="none" stroke="#0d65d9" stroke-miterlimit="10" stroke-width="5"/><path d="M1322.563,328.183a417.4,417.4,0,0,1,40.785,94.928" transform="translate(-1320.406 -326.92)" fill="none" stroke="#0d65d9" stroke-miterlimit="10" stroke-width="5"/><rect x="1260.5" y="490.5" width="220" height="88" rx="43.922" transform="translate(584.594 -1162.92) rotate(90)" fill="none" stroke="#0d65d9" stroke-miterlimit="10" stroke-width="5"/><path d="M1372.637,601.9q.57-.207,1.107-.462" transform="translate(-1320.406 -326.92)" fill="none" stroke="#46d6ff" stroke-miterlimit="10" stroke-width="3"/><path d="M1375.7,600.283c8.671-6.2,9.765-22.949,12.1-37.089" transform="translate(-1320.406 -326.92)" fill="none" stroke="#46d6ff" stroke-miterlimit="10" stroke-width="3" stroke-dasharray="2.28 2.28"/><path d="M1387.99,562.066q.1-.594.208-1.182" transform="translate(-1320.406 -326.92)" fill="none" stroke="#46d6ff" stroke-miterlimit="10" stroke-width="3"/><path d="M1373.736,600.8q.154-.583.311-1.159" transform="translate(-1320.406 -326.92)" fill="none" stroke="#46d6ff" stroke-miterlimit="10" stroke-width="3"/><path d="M1374.709,597.239c3.65-12.975,7.76-23.895,9.335-37.394" transform="translate(-1320.406 -326.92)" fill="none" stroke="#46d6ff" stroke-miterlimit="10" stroke-width="3" stroke-dasharray="2.49 2.49"/><path d="M1384.181,558.608q.061-.594.116-1.194" transform="translate(-1320.406 -326.92)" fill="none" stroke="#46d6ff" stroke-miterlimit="10" stroke-width="3"/><path d="M1373.223,596.316q.173-.573.341-1.15" transform="translate(-1320.406 -326.92)" fill="none" stroke="#46d6ff" stroke-miterlimit="10" stroke-width="3"/><path d="M1374.216,592.877c6.964-25.153,8.315-52.963,9.591-79.031" transform="translate(-1320.406 -326.92)" fill="none" stroke="#46d6ff" stroke-miterlimit="10" stroke-width="3" stroke-dasharray="2.381 2.381"/><path d="M1383.865,512.654q.03-.6.059-1.2" transform="translate(-1320.406 -326.92)" fill="none" stroke="#46d6ff" stroke-miterlimit="10" stroke-width="3"/><path d="M1368.969,598.458q.188-.57.368-1.142" transform="translate(-1320.406 -326.92)" fill="none" stroke="#46d6ff" stroke-miterlimit="10" stroke-width="3"/><path d="M1370.028,595.033c7.727-26.705,4.426-56.677,10.064-83.973" transform="translate(-1320.406 -326.92)" fill="none" stroke="#46d6ff" stroke-miterlimit="10" stroke-width="3" stroke-dasharray="2.386 2.386"/><path d="M1380.339,509.892q.126-.587.26-1.171" transform="translate(-1320.406 -326.92)" fill="none" stroke="#46d6ff" stroke-miterlimit="10" stroke-width="3"/><path d="M1368.7,595.793q.133-.581.266-1.166" transform="translate(-1320.406 -326.92)" fill="none" stroke="#46d6ff" stroke-miterlimit="10" stroke-width="3"/><path d="M1369.483,592.308c3.145-14.392,5.839-31.161,8.4-45.561" transform="translate(-1320.406 -326.92)" fill="none" stroke="#46d6ff" stroke-miterlimit="10" stroke-width="3" stroke-dasharray="2.376 2.376"/><path d="M1378.1,545.578q.106-.591.212-1.177" transform="translate(-1320.406 -326.92)" fill="none" stroke="#46d6ff" stroke-miterlimit="10" stroke-width="3"/><path d="M1364.593,591.3l.3-1.155" transform="translate(-1320.406 -326.92)" fill="none" stroke="#46d6ff" stroke-miterlimit="10" stroke-width="3"/><path d="M1365.484,587.886c3.59-13.954,7.177-30.385,8.69-44.6" transform="translate(-1320.406 -326.92)" fill="none" stroke="#46d6ff" stroke-miterlimit="10" stroke-width="3" stroke-dasharray="2.332 2.332"/><path d="M1374.294,542.12q.058-.6.113-1.19" transform="translate(-1320.406 -326.92)" fill="none" stroke="#46d6ff" stroke-miterlimit="10" stroke-width="3"/><path d="M1363.333,579.833q.173-.574.341-1.15" transform="translate(-1320.406 -326.92)" fill="none" stroke="#46d6ff" stroke-miterlimit="10" stroke-width="3"/><path d="M1364.326,576.393c6.964-25.153,8.315-52.962,9.591-79.031" transform="translate(-1320.406 -326.92)" fill="none" stroke="#46d6ff" stroke-miterlimit="10" stroke-width="3" stroke-dasharray="2.381 2.381"/><path d="M1373.975,496.171q.03-.6.059-1.2" transform="translate(-1320.406 -326.92)" fill="none" stroke="#46d6ff" stroke-miterlimit="10" stroke-width="3"/><path d="M1369.341,598.6q-.277-.519-.537-1.07" transform="translate(-1320.406 -326.92)" fill="none" stroke="#46d6ff" stroke-miterlimit="10" stroke-width="3"/><path d="M1367.859,595.286c-6.646-17.787-2.7-54.552,2.573-100.636" transform="translate(-1320.406 -326.92)" fill="none" stroke="#46d6ff" stroke-miterlimit="10" stroke-width="3" stroke-dasharray="2.44 2.44"/><path d="M1370.572,493.431q.068-.6.136-1.193" transform="translate(-1320.406 -326.92)" fill="none" stroke="#46d6ff" stroke-miterlimit="10" stroke-width="3"/><path d="M1378.575,596.892q-.133-.581-.266-1.166" transform="translate(-1320.406 -326.92)" fill="none" stroke="#46d6ff" stroke-miterlimit="10" stroke-width="3"/><path d="M1377.793,593.407c-3.144-14.393-5.838-31.161-8.4-45.561" transform="translate(-1320.406 -326.92)" fill="none" stroke="#46d6ff" stroke-miterlimit="10" stroke-width="3" stroke-dasharray="2.376 2.376"/><path d="M1369.18,546.677q-.105-.591-.211-1.177" transform="translate(-1320.406 -326.92)" fill="none" stroke="#46d6ff" stroke-miterlimit="10" stroke-width="3"/><path d="M1382.683,592.4l-.3-1.155" transform="translate(-1320.406 -326.92)" fill="none" stroke="#46d6ff" stroke-miterlimit="10" stroke-width="3"/><path d="M1381.793,588.985c-3.59-13.954-7.177-30.385-8.69-44.6" transform="translate(-1320.406 -326.92)" fill="none" stroke="#46d6ff" stroke-miterlimit="10" stroke-width="3" stroke-dasharray="2.332 2.332"/><path d="M1372.983,543.219q-.06-.6-.113-1.19" transform="translate(-1320.406 -326.92)" fill="none" stroke="#46d6ff" stroke-miterlimit="10" stroke-width="3"/><path d="M1383.944,580.932q-.173-.575-.341-1.15" transform="translate(-1320.406 -326.92)" fill="none" stroke="#46d6ff" stroke-miterlimit="10" stroke-width="3"/><path d="M1382.951,577.492c-6.965-25.153-8.315-52.963-9.591-79.031" transform="translate(-1320.406 -326.92)" fill="none" stroke="#46d6ff" stroke-miterlimit="10" stroke-width="3" stroke-dasharray="2.381 2.381"/><path d="M1373.3,497.27q-.03-.6-.059-1.2" transform="translate(-1320.406 -326.92)" fill="none" stroke="#46d6ff" stroke-miterlimit="10" stroke-width="3"/><path d="M1388.2,583.073q-.187-.568-.368-1.141" transform="translate(-1320.406 -326.92)" fill="none" stroke="#46d6ff" stroke-miterlimit="10" stroke-width="3"/><path d="M1387.139,579.648c-7.727-26.705-4.426-56.676-10.064-83.973" transform="translate(-1320.406 -326.92)" fill="none" stroke="#46d6ff" stroke-miterlimit="10" stroke-width="3" stroke-dasharray="2.386 2.386"/><path d="M1376.828,494.508q-.128-.586-.26-1.171" transform="translate(-1320.406 -326.92)" fill="none" stroke="#46d6ff" stroke-miterlimit="10" stroke-width="3"/><path d="M1369.951,568.636q.076-.594.15-1.189" transform="translate(-1320.406 -326.92)" fill="none" stroke="#46d6ff" stroke-miterlimit="10" stroke-width="3"/><path d="M1370.4,565.033c2.544-21.421,3.736-45.3,6.455-66.644" transform="translate(-1320.406 -326.92)" fill="none" stroke="#46d6ff" stroke-miterlimit="10" stroke-width="3" stroke-dasharray="2.435 2.435"/><path d="M1377.006,497.18q.078-.6.158-1.188" transform="translate(-1320.406 -326.92)" fill="none" stroke="#46d6ff" stroke-miterlimit="10" stroke-width="3"/><line x1="49.54" y1="199.071" x2="49.697" y2="197.881" fill="none" stroke="#46d6ff" stroke-miterlimit="10" stroke-width="3"/><line x1="50.009" y1="195.52" x2="53.599" y2="168.373" fill="none" stroke="#46d6ff" stroke-miterlimit="10" stroke-width="3" stroke-dasharray="2.381 2.381"/><line x1="53.756" y1="167.193" x2="53.913" y2="166.003" fill="none" stroke="#46d6ff" stroke-miterlimit="10" stroke-width="3"/><line x1="43.639" y1="198.35" x2="43.973" y2="197.197" fill="none" stroke="#46d6ff" stroke-miterlimit="10" stroke-width="3"/><line x1="44.694" y1="194.71" x2="51.537" y2="171.085" fill="none" stroke="#46d6ff" stroke-miterlimit="10" stroke-width="3" stroke-dasharray="2.589 2.589"/><line x1="51.898" y1="169.841" x2="52.231" y2="168.689" fill="none" stroke="#46d6ff" stroke-miterlimit="10" stroke-width="3"/><line x1="48.935" y1="222.232" x2="48.846" y2="221.035" fill="none" stroke="#46d6ff" stroke-miterlimit="10" stroke-width="3"/><line x1="48.662" y1="218.555" x2="46.917" y2="194.998" fill="none" stroke="#46d6ff" stroke-miterlimit="10" stroke-width="3" stroke-dasharray="2.487 2.487"/><line x1="46.825" y1="193.758" x2="46.737" y2="192.561" fill="none" stroke="#46d6ff" stroke-miterlimit="10" stroke-width="3"/><path d="M1379.231,493.108q.321.51.629,1.022" transform="translate(-1320.406 -326.92)" fill="none" stroke="#46d6ff" stroke-miterlimit="10" stroke-width="3"/><path d="M1381.081,496.267c15.174,27.958.217,57.716.678,85.746" transform="translate(-1320.406 -326.92)" fill="none" stroke="#46d6ff" stroke-miterlimit="10" stroke-width="3" stroke-dasharray="2.458 2.458"/><path d="M1381.789,583.237q.019.6.049,1.2" transform="translate(-1320.406 -326.92)" fill="none" stroke="#46d6ff" stroke-miterlimit="10" stroke-width="3"/><line x1="60.094" y1="227.08" x2="60.091" y2="228.28" fill="none" stroke="#46d6ff" stroke-miterlimit="10" stroke-width="3"/><line x1="60.084" y1="230.711" x2="60.01" y2="258.665" fill="none" stroke="#46d6ff" stroke-miterlimit="10" stroke-width="3" stroke-dasharray="2.431 2.431"/><line x1="60.007" y1="259.88" x2="60.004" y2="261.08" fill="none" stroke="#46d6ff" stroke-miterlimit="10" stroke-width="3"/><text transform="translate(44.983 149.05)" font-size="30" font-family="Helvetica">2</text></svg>