<svg class="summary-menu__item-graphic" xmlns="http://www.w3.org/2000/svg" viewBox="0 0 96.594 424.897"><path d="M46.569,316.605a417.263,417.263,0,0,1-32.677,86.849" fill="none" stroke="#0d65d9" stroke-miterlimit="10" stroke-width="5"/><path d="M11.376,17.855A417.387,417.387,0,0,1,42.942,96.191" fill="none" stroke="#0d65d9" stroke-miterlimit="10" stroke-width="5"/><rect x="6.094" y="97.58" width="88" height="220" rx="43.922" fill="none" stroke="#0d65d9" stroke-miterlimit="10" stroke-width="5"/><path d="M52.231,274.98q.57-.207,1.107-.462" fill="none" stroke="#46d6ff" stroke-miterlimit="10" stroke-width="3"/><path d="M55.294,273.363c8.671-6.2,9.765-22.949,12.1-37.089" fill="none" stroke="#46d6ff" stroke-miterlimit="10" stroke-width="3" stroke-dasharray="2.28 2.28"/><path d="M67.584,235.146q.1-.594.208-1.182" fill="none" stroke="#46d6ff" stroke-miterlimit="10" stroke-width="3"/><path d="M53.33,273.88q.154-.584.311-1.159" fill="none" stroke="#46d6ff" stroke-miterlimit="10" stroke-width="3"/><path d="M54.3,270.319c3.65-12.975,7.76-23.9,9.335-37.394" fill="none" stroke="#46d6ff" stroke-miterlimit="10" stroke-width="3" stroke-dasharray="2.49 2.49"/><path d="M63.775,231.688q.062-.594.116-1.194" fill="none" stroke="#46d6ff" stroke-miterlimit="10" stroke-width="3"/><path d="M52.817,269.4q.173-.573.341-1.15" fill="none" stroke="#46d6ff" stroke-miterlimit="10" stroke-width="3"/><path d="M53.81,265.957c6.964-25.153,8.315-52.963,9.591-79.031" fill="none" stroke="#46d6ff" stroke-miterlimit="10" stroke-width="3" stroke-dasharray="2.381 2.381"/><path d="M63.459,185.734q.03-.6.059-1.2" fill="none" stroke="#46d6ff" stroke-miterlimit="10" stroke-width="3"/><path d="M48.563,271.538q.188-.57.368-1.142" fill="none" stroke="#46d6ff" stroke-miterlimit="10" stroke-width="3"/><path d="M49.622,268.113c7.727-26.705,4.426-56.677,10.064-83.973" fill="none" stroke="#46d6ff" stroke-miterlimit="10" stroke-width="3" stroke-dasharray="2.386 2.386"/><path d="M59.933,182.972q.126-.587.26-1.171" fill="none" stroke="#46d6ff" stroke-miterlimit="10" stroke-width="3"/><path d="M48.294,268.873q.134-.58.266-1.166" fill="none" stroke="#46d6ff" stroke-miterlimit="10" stroke-width="3"/><path d="M49.077,265.388c3.145-14.392,5.839-31.161,8.4-45.561" fill="none" stroke="#46d6ff" stroke-miterlimit="10" stroke-width="3" stroke-dasharray="2.376 2.376"/><path d="M57.694,218.658q.106-.591.212-1.177" fill="none" stroke="#46d6ff" stroke-miterlimit="10" stroke-width="3"/><path d="M44.187,264.38l.3-1.155" fill="none" stroke="#46d6ff" stroke-miterlimit="10" stroke-width="3"/><path d="M45.078,260.966c3.59-13.954,7.177-30.385,8.69-44.6" fill="none" stroke="#46d6ff" stroke-miterlimit="10" stroke-width="3" stroke-dasharray="2.332 2.332"/><path d="M53.888,215.2q.059-.6.113-1.19" fill="none" stroke="#46d6ff" stroke-miterlimit="10" stroke-width="3"/><path d="M42.927,252.913q.173-.575.341-1.15" fill="none" stroke="#46d6ff" stroke-miterlimit="10" stroke-width="3"/><path d="M43.92,249.473c6.964-25.153,8.315-52.962,9.591-79.031" fill="none" stroke="#46d6ff" stroke-miterlimit="10" stroke-width="3" stroke-dasharray="2.381 2.381"/><path d="M53.569,169.251q.03-.6.059-1.2" fill="none" stroke="#46d6ff" stroke-miterlimit="10" stroke-width="3"/><path d="M48.935,271.68q-.278-.519-.537-1.07" fill="none" stroke="#46d6ff" stroke-miterlimit="10" stroke-width="3"/><path d="M47.453,268.366c-6.646-17.787-2.7-54.552,2.573-100.636" fill="none" stroke="#46d6ff" stroke-miterlimit="10" stroke-width="3" stroke-dasharray="2.44 2.44"/><path d="M50.166,166.511q.068-.6.136-1.193" fill="none" stroke="#46d6ff" stroke-miterlimit="10" stroke-width="3"/><path d="M58.169,269.972q-.133-.581-.266-1.166" fill="none" stroke="#46d6ff" stroke-miterlimit="10" stroke-width="3"/><path d="M57.387,266.487c-3.144-14.393-5.838-31.161-8.4-45.561" fill="none" stroke="#46d6ff" stroke-miterlimit="10" stroke-width="3" stroke-dasharray="2.376 2.376"/><path d="M48.774,219.757q-.105-.591-.211-1.177" fill="none" stroke="#46d6ff" stroke-miterlimit="10" stroke-width="3"/><path d="M62.277,265.48l-.3-1.155" fill="none" stroke="#46d6ff" stroke-miterlimit="10" stroke-width="3"/><path d="M61.387,262.065c-3.59-13.954-7.177-30.385-8.69-44.6" fill="none" stroke="#46d6ff" stroke-miterlimit="10" stroke-width="3" stroke-dasharray="2.332 2.332"/><path d="M52.577,216.3q-.06-.6-.113-1.19" fill="none" stroke="#46d6ff" stroke-miterlimit="10" stroke-width="3"/><path d="M63.538,254.012q-.172-.575-.341-1.15" fill="none" stroke="#46d6ff" stroke-miterlimit="10" stroke-width="3"/><path d="M62.545,250.572c-6.965-25.153-8.315-52.963-9.591-79.031" fill="none" stroke="#46d6ff" stroke-miterlimit="10" stroke-width="3" stroke-dasharray="2.381 2.381"/><path d="M52.894,170.35q-.03-.6-.059-1.2" fill="none" stroke="#46d6ff" stroke-miterlimit="10" stroke-width="3"/><path d="M67.794,256.153q-.187-.569-.368-1.141" fill="none" stroke="#46d6ff" stroke-miterlimit="10" stroke-width="3"/><path d="M66.733,252.728c-7.727-26.705-4.426-56.676-10.064-83.973" fill="none" stroke="#46d6ff" stroke-miterlimit="10" stroke-width="3" stroke-dasharray="2.386 2.386"/><path d="M56.422,167.588q-.127-.586-.26-1.171" fill="none" stroke="#46d6ff" stroke-miterlimit="10" stroke-width="3"/><path d="M49.545,241.716q.076-.594.15-1.189" fill="none" stroke="#46d6ff" stroke-miterlimit="10" stroke-width="3"/><path d="M49.994,238.113c2.544-21.421,3.736-45.3,6.455-66.644" fill="none" stroke="#46d6ff" stroke-miterlimit="10" stroke-width="3" stroke-dasharray="2.435 2.435"/><path d="M56.6,170.26q.078-.6.158-1.188" fill="none" stroke="#46d6ff" stroke-miterlimit="10" stroke-width="3"/><line x1="49.54" y1="199.071" x2="49.697" y2="197.881" fill="none" stroke="#46d6ff" stroke-miterlimit="10" stroke-width="3"/><line x1="50.009" y1="195.52" x2="53.599" y2="168.373" fill="none" stroke="#46d6ff" stroke-miterlimit="10" stroke-width="3" stroke-dasharray="2.381 2.381"/><line x1="53.756" y1="167.193" x2="53.913" y2="166.003" fill="none" stroke="#46d6ff" stroke-miterlimit="10" stroke-width="3"/><line x1="43.639" y1="198.35" x2="43.973" y2="197.197" fill="none" stroke="#46d6ff" stroke-miterlimit="10" stroke-width="3"/><line x1="44.694" y1="194.71" x2="51.537" y2="171.085" fill="none" stroke="#46d6ff" stroke-miterlimit="10" stroke-width="3" stroke-dasharray="2.589 2.589"/><line x1="51.898" y1="169.841" x2="52.231" y2="168.689" fill="none" stroke="#46d6ff" stroke-miterlimit="10" stroke-width="3"/><line x1="48.935" y1="222.232" x2="48.846" y2="221.035" fill="none" stroke="#46d6ff" stroke-miterlimit="10" stroke-width="3"/><line x1="48.662" y1="218.555" x2="46.917" y2="194.998" fill="none" stroke="#46d6ff" stroke-miterlimit="10" stroke-width="3" stroke-dasharray="2.487 2.487"/><line x1="46.825" y1="193.758" x2="46.737" y2="192.561" fill="none" stroke="#46d6ff" stroke-miterlimit="10" stroke-width="3"/><path d="M58.825,166.188q.321.51.629,1.022" fill="none" stroke="#46d6ff" stroke-miterlimit="10" stroke-width="3"/><path d="M60.675,169.347c15.174,27.958.217,57.716.678,85.746" fill="none" stroke="#46d6ff" stroke-miterlimit="10" stroke-width="3" stroke-dasharray="2.458 2.458"/><path d="M61.383,256.317q.02.6.049,1.2" fill="none" stroke="#46d6ff" stroke-miterlimit="10" stroke-width="3"/><line x1="60.094" y1="227.08" x2="60.091" y2="228.28" fill="none" stroke="#46d6ff" stroke-miterlimit="10" stroke-width="3"/><line x1="60.084" y1="230.711" x2="60.01" y2="258.665" fill="none" stroke="#46d6ff" stroke-miterlimit="10" stroke-width="3" stroke-dasharray="2.431 2.431"/><line x1="60.007" y1="259.88" x2="60.004" y2="261.08" fill="none" stroke="#46d6ff" stroke-miterlimit="10" stroke-width="3"/><text transform="translate(44.983 149.05)" font-size="30" font-family="Helvetica" style="isolation:isolate">2</text></svg>