<svg class="summary-menu__item-graphic" xmlns="http://www.w3.org/2000/svg" viewBox="0 0 593.643 213.03"><path d="M1063.787,946.908A420.651,420.651,0,0,1,960,959.835" transform="translate(-960 -749.305)" fill="none" stroke="#0d65d9" stroke-miterlimit="10" stroke-width="5"/><path d="M1323.3,750.561a421.536,421.536,0,0,1-70.01,89.847" transform="translate(-960 -749.305)" fill="none" stroke="#0d65d9" stroke-miterlimit="10" stroke-width="5"/><path d="M1049.143,927.98" transform="translate(-960 -749.305)" fill="none" stroke="#0d65d9" stroke-miterlimit="10" stroke-width="5"/><path d="M1049.143,927.98h0c-5.356-19.213,7.029-29,24.725-38.2,8.03-4.174,29.692-10.581,39.915-13.431,6.163-1.718,17.486-3.6,25.631-4.841,19.717-3,39.063-1.214,44.418,18h0c5.356,19.213-5.008,36.076-24.6,39.787-6.175,1.169-18.788,1.931-24.873,3.628-10.3,2.871-34.322,12.626-45.9,16.436-17.728,5.835-32.642-1.781-38.874-18.525" transform="translate(-960 -749.305)" fill="none" stroke="#0d65d9" stroke-miterlimit="10" stroke-width="5"/><path d="M1209.014,855.378c9.169-5.252,30.594-10.708,40.817-13.558,6.164-1.718,18.441-4.452,24.728-4.714,20.767-.866,39.063-1.214,44.419,18h0c5.356,19.213-5.059,35.816-24.605,39.787-8.055,1.636-26.39,3.424-32.476,5.12-10.3,2.872-28.605,11.522-38.3,14.944-18.806,6.642-34.676-2.89-40.032-22.1h0C1178.213,873.64,1191.707,865.292,1209.014,855.378Z" transform="translate(-960 -749.305)" fill="none" stroke="#0d65d9" stroke-miterlimit="10" stroke-width="5"/><path d="M1048.675,926.96" transform="translate(-960 -749.305)" fill="none" stroke="#0d65d9" stroke-miterlimit="10" stroke-width="3.729"/><path d="M1050.938,925.314s-29.536,10.5-41.986,31.83l6.589-.23s10.927-15.138,36.939-25.943" transform="translate(-960 -749.305)" fill="none" stroke="#0d65d9" stroke-miterlimit="10" stroke-width="3.729"/><path d="M1319.508,854.1a43.472,43.472,0,0,1,10.5-3.109c3.645-.412,7.4-.22,11.811,6.482" transform="translate(-960 -749.305)" fill="none" stroke="#ff7400" stroke-linecap="round" stroke-miterlimit="10" stroke-width="6"/><path d="M1339.289,855.379c21.436,19.359,24.944,1.128,59.974-1.29,11.018-.761,30.449,20.713,61.035-8.16,14.406-13.6,39.007,4.157,51.492,1.268,18.232-4.218,21.413-24.824,39.853-21.274" transform="translate(-960 -749.305)" fill="none" stroke="#ff7400" stroke-linecap="round" stroke-miterlimit="10" stroke-width="4"/><path d="M1322.257,848.382a35.843,35.843,0,0,0,2.923,8.557" transform="translate(-960 -749.305)" fill="none" stroke="#ff7400" stroke-linecap="round" stroke-miterlimit="10" stroke-width="1.44"/><path d="M1317.086,849.23c-.756,4.295,1.094,7.667,4.311,10.363" transform="translate(-960 -749.305)" fill="none" stroke="#ff7400" stroke-linecap="round" stroke-miterlimit="10" stroke-width="1.44"/><path d="M1322.267,857.142c-.646-1.448-2.815-5.376-2.907-6.515" transform="translate(-960 -749.305)" fill="none" stroke="#ff7400" stroke-linecap="round" stroke-miterlimit="10" stroke-width="1.44"/><path d="M1324.524,848.256c.888,2.3,2.021,5.46,2.665,6.9" transform="translate(-960 -749.305)" fill="none" stroke="#ff7400" stroke-linecap="round" stroke-miterlimit="10" stroke-width="1.44"/><path d="M1320.352,860.737c-4.7-3.99-5.517-5.728-4.365-11.282.287-1.389-5.219-.637-5.629.189-2.281,4.592-.2,11.979,5.24,14.629C1317.178,865.043,1321.539,861.746,1320.352,860.737Z" transform="translate(-960 -749.305)" fill="none" stroke="#ff7400" stroke-linecap="round" stroke-miterlimit="10" stroke-width="1.44"/><path d="M1319.285,862.864c.669-.567,1.452-1.032,1.41-1.906" transform="translate(-960 -749.305)" fill="none" stroke="#ff7400" stroke-linecap="round" stroke-miterlimit="10" stroke-width="0.96"/><path d="M1314.968,863.7c.838-.508,4.711-2.673,4.98-3.469" transform="translate(-960 -749.305)" fill="none" stroke="#ff7400" stroke-linecap="round" stroke-miterlimit="10" stroke-width="0.96"/><path d="M1313.992,862.943c.927-.438,4.831-2.463,4.9-3.509" transform="translate(-960 -749.305)" fill="none" stroke="#ff7400" stroke-linecap="round" stroke-miterlimit="10" stroke-width="0.96"/><path d="M1312.919,862.041c.942-.338,4.845-2.363,4.913-3.409" transform="translate(-960 -749.305)" fill="none" stroke="#ff7400" stroke-linecap="round" stroke-miterlimit="10" stroke-width="0.96"/><path d="M1311.972,861.044c.769-.424,4.563-2.278,5.083-3.275" transform="translate(-960 -749.305)" fill="none" stroke="#ff7400" stroke-linecap="round" stroke-miterlimit="10" stroke-width="0.96"/><path d="M1311.229,859.8c.724-.774,4.407-2.456,5.049-2.891" transform="translate(-960 -749.305)" fill="none" stroke="#ff7400" stroke-linecap="round" stroke-miterlimit="10" stroke-width="0.96"/><path d="M1310.5,858.429a25.752,25.752,0,0,1,5.084-2.7" transform="translate(-960 -749.305)" fill="none" stroke="#ff7400" stroke-linecap="round" stroke-miterlimit="10" stroke-width="0.96"/><path d="M1310.073,857.224a25.79,25.79,0,0,1,5.294-2.478" transform="translate(-960 -749.305)" fill="none" stroke="#ff7400" stroke-linecap="round" stroke-miterlimit="10" stroke-width="0.96"/><path d="M1309.58,855.56c.844-.184,4.778-2.068,5.653-2.111" transform="translate(-960 -749.305)" fill="none" stroke="#ff7400" stroke-linecap="round" stroke-miterlimit="10" stroke-width="0.96"/><path d="M1309.384,853.981c.985-.214,5.293-1.737,6.057-1.608" transform="translate(-960 -749.305)" fill="none" stroke="#ff7400" stroke-linecap="round" stroke-miterlimit="10" stroke-width="0.96"/><path d="M1309.421,852.794c.894-.636,5.121-1.847,6.229-1.5" transform="translate(-960 -749.305)" fill="none" stroke="#ff7400" stroke-linecap="round" stroke-miterlimit="10" stroke-width="0.96"/><path d="M1309.62,851.4c1.105-.069,5.241-1.7,6.067-1.292" transform="translate(-960 -749.305)" fill="none" stroke="#ff7400" stroke-linecap="round" stroke-miterlimit="10" stroke-width="0.96"/><path d="M1310.168,850.127c1.016-.073,4.568-1.643,5.762-.913" transform="translate(-960 -749.305)" fill="none" stroke="#ff7400" stroke-linecap="round" stroke-miterlimit="10" stroke-width="0.96"/><path d="M1412.828,835.618c-11.741-3.943-21.424-4.348-33.434,3.243" transform="translate(-960 -749.305)" fill="none" stroke="#eaeaea" stroke-miterlimit="10"/><path d="M1427.988,850.855c-18.482-9.091-32.927-11.959-52.944.691" transform="translate(-960 -749.305)" fill="none" stroke="#eaeaea" stroke-miterlimit="10"/><path d="M1505.834,865.7c12.383.244,21.742-2.271,30.927-13.11" transform="translate(-960 -749.305)" fill="none" stroke="#eaeaea" stroke-miterlimit="10"/><path d="M1486.806,855.7c20.357,3.135,35,1.545,50.305-16.522" transform="translate(-960 -749.305)" fill="none" stroke="#eaeaea" stroke-miterlimit="10"/><text transform="translate(282.991 134.429)" font-size="30" font-family="Helvetica">3</text></svg>