<svg class="summary-menu__item-graphic" xmlns="http://www.w3.org/2000/svg" viewBox="0 0 593.643 213.03"><path d="M103.787,197.6A420.682,420.682,0,0,1,19.05,210.112" fill="none" stroke="#0d65d9" stroke-miterlimit="10" stroke-width="5"/><path d="M356.156,13.1A421.563,421.563,0,0,1,293.29,91.1" fill="none" stroke="#0d65d9" stroke-miterlimit="10" stroke-width="5"/><path d="M89.143,178.675h0c-5.356-19.213,7.029-29,24.725-38.2,8.03-4.174,29.692-10.581,39.915-13.431,6.163-1.718,17.486-3.6,25.631-4.841,19.717-3,39.063-1.214,44.418,18h0c5.356,19.213-5.008,36.076-24.6,39.787-6.175,1.169-18.788,1.931-24.873,3.628-10.3,2.871-34.322,12.626-45.9,16.436-17.728,5.835-32.642-1.781-38.874-18.525" fill="none" stroke="#0d65d9" stroke-miterlimit="10" stroke-width="5"/><path d="M249.014,106.073c9.169-5.252,30.594-10.708,40.817-13.558C296,90.8,308.272,88.063,314.559,87.8c20.767-.866,39.063-1.214,44.419,18h0c5.356,19.213-5.059,35.816-24.605,39.787-8.055,1.636-26.39,3.424-32.476,5.12-10.3,2.872-28.605,11.522-38.3,14.944-18.806,6.642-34.676-2.89-40.032-22.1h0C218.213,124.335,231.707,115.987,249.014,106.073Z" fill="none" stroke="#0d65d9" stroke-miterlimit="10" stroke-width="5"/><path d="M90.938,176.009s-29.536,10.5-41.986,31.83l6.589-.23s10.927-15.138,36.939-25.943" fill="none" stroke="#0d65d9" stroke-miterlimit="10" stroke-width="3.729"/><path d="M359.508,104.8a43.481,43.481,0,0,1,10.5-3.109c3.645-.412,7.4-.22,11.811,6.482" fill="none" stroke="#ff7400" stroke-linecap="round" stroke-miterlimit="10" stroke-width="6"/><path d="M379.289,106.074c21.436,19.359,24.944,1.128,59.974-1.29,11.018-.761,30.449,20.713,61.035-8.16,14.406-13.6,39.007,4.157,51.492,1.268,18.232-4.218,21.413-24.824,39.853-21.274" fill="none" stroke="#ff7400" stroke-linecap="round" stroke-miterlimit="10" stroke-width="4"/><path d="M362.257,99.077a35.817,35.817,0,0,0,2.923,8.557" fill="none" stroke="#ff7400" stroke-linecap="round" stroke-miterlimit="10" stroke-width="1.44"/><path d="M357.086,99.925c-.756,4.3,1.094,7.667,4.311,10.363" fill="none" stroke="#ff7400" stroke-linecap="round" stroke-miterlimit="10" stroke-width="1.44"/><path d="M362.267,107.837c-.646-1.448-2.815-5.376-2.907-6.515" fill="none" stroke="#ff7400" stroke-linecap="round" stroke-miterlimit="10" stroke-width="1.44"/><path d="M364.524,98.951c.888,2.3,2.021,5.46,2.665,6.9" fill="none" stroke="#ff7400" stroke-linecap="round" stroke-miterlimit="10" stroke-width="1.44"/><path d="M360.352,111.432c-4.7-3.99-5.517-5.728-4.365-11.282.287-1.389-5.219-.637-5.629.189-2.281,4.592-.2,11.979,5.24,14.629C357.178,115.738,361.539,112.441,360.352,111.432Z" fill="none" stroke="#ff7400" stroke-linecap="round" stroke-miterlimit="10" stroke-width="1.44"/><path d="M359.285,113.559c.669-.567,1.452-1.032,1.41-1.906" fill="none" stroke="#ff7400" stroke-linecap="round" stroke-miterlimit="10" stroke-width="0.96"/><path d="M354.968,114.4c.838-.508,4.711-2.673,4.98-3.469" fill="none" stroke="#ff7400" stroke-linecap="round" stroke-miterlimit="10" stroke-width="0.96"/><path d="M353.992,113.638c.927-.438,4.831-2.463,4.9-3.509" fill="none" stroke="#ff7400" stroke-linecap="round" stroke-miterlimit="10" stroke-width="0.96"/><path d="M352.919,112.736c.942-.338,4.845-2.363,4.913-3.409" fill="none" stroke="#ff7400" stroke-linecap="round" stroke-miterlimit="10" stroke-width="0.96"/><path d="M351.972,111.739c.769-.424,4.563-2.278,5.083-3.275" fill="none" stroke="#ff7400" stroke-linecap="round" stroke-miterlimit="10" stroke-width="0.96"/><path d="M351.229,110.5c.724-.774,4.407-2.456,5.049-2.891" fill="none" stroke="#ff7400" stroke-linecap="round" stroke-miterlimit="10" stroke-width="0.96"/><path d="M350.5,109.124a25.747,25.747,0,0,1,5.084-2.7" fill="none" stroke="#ff7400" stroke-linecap="round" stroke-miterlimit="10" stroke-width="0.96"/><path d="M350.073,107.919a25.8,25.8,0,0,1,5.294-2.478" fill="none" stroke="#ff7400" stroke-linecap="round" stroke-miterlimit="10" stroke-width="0.96"/><path d="M349.58,106.255c.844-.184,4.778-2.068,5.653-2.111" fill="none" stroke="#ff7400" stroke-linecap="round" stroke-miterlimit="10" stroke-width="0.96"/><path d="M349.384,104.676c.985-.214,5.293-1.737,6.057-1.608" fill="none" stroke="#ff7400" stroke-linecap="round" stroke-miterlimit="10" stroke-width="0.96"/><path d="M349.421,103.489c.894-.636,5.121-1.847,6.229-1.5" fill="none" stroke="#ff7400" stroke-linecap="round" stroke-miterlimit="10" stroke-width="0.96"/><path d="M349.62,102.1c1.105-.069,5.241-1.7,6.067-1.292" fill="none" stroke="#ff7400" stroke-linecap="round" stroke-miterlimit="10" stroke-width="0.96"/><path d="M350.168,100.822c1.016-.073,4.568-1.643,5.762-.913" fill="none" stroke="#ff7400" stroke-linecap="round" stroke-miterlimit="10" stroke-width="0.96"/><path d="M452.828,86.313c-11.741-3.943-21.424-4.348-33.434,3.243" fill="none" stroke="#eaeaea" stroke-miterlimit="10"/><path d="M467.988,101.55c-18.482-9.091-32.927-11.959-52.944.691" fill="none" stroke="#eaeaea" stroke-miterlimit="10"/><path d="M545.834,116.4c12.383.244,21.742-2.271,30.927-13.11" fill="none" stroke="#eaeaea" stroke-miterlimit="10"/><path d="M526.806,106.4c20.357,3.135,35,1.545,50.3-16.522" fill="none" stroke="#eaeaea" stroke-miterlimit="10"/><text transform="translate(282.991 134.429)" font-size="30" font-family="Helvetica" style="isolation:isolate">3</text></svg>