<svg class="summary-menu__item-graphic" xmlns="http://www.w3.org/2000/svg" viewBox="0 0 366.716 237.886"><path d="M39.137,55.465a420.641,420.641,0,0,1-28.4-39.929" fill="none" stroke="#0d65d9" stroke-miterlimit="10" stroke-width="5"/><path d="M349.986,212.361a422.713,422.713,0,0,1-53.283-5.486" fill="none" stroke="#0d65d9" stroke-miterlimit="10" stroke-width="5"/><path d="M121.266,77.251c-24.1-32.9-63.382-34.824-90.441-9.938.7-10.281,36.412-29.636,59.221-18.254,53.357,26.626,183.375,91.734,183.375,91.734a50.205,50.205,0,0,1-45.028,89.748h0s-125.107-62.635-183.756-91.9C20.976,126.834,16.3,93.609,26.917,74.989,19.9,111.374,34.594,135.179,77.6,149.6c23.937,8.031,45.306-19.025,48.921-28.538S136.524,98.079,121.266,77.251Z" fill="none" stroke="#0d65d9" stroke-miterlimit="10" stroke-width="4"/><path d="M90.667,60.768c-44.074-22.58-87.676,40.52-36.026,71.709a44.836,44.836,0,0,0,23.3,11.744c16.441,2.685,35.351-12.089,39.873-21.15S135.494,83.735,90.667,60.768Z" fill="none" stroke="#0d65d9" stroke-miterlimit="10" stroke-width="4"/><text transform="translate(66.541 108.027)" font-size="30" font-family="Helvetica" style="isolation:isolate">4</text></svg>