<svg class="summary-menu__item-graphic" xmlns="http://www.w3.org/2000/svg" viewBox="0 0 366.716 237.886"><path d="M632.421,802.614a420.755,420.755,0,0,1-36.968-54.222" transform="translate(-593.284 -747.149)" fill="none" stroke="#0d65d9" stroke-miterlimit="10" stroke-width="5"/><path d="M960,959.835a422.676,422.676,0,0,1-70.013-5.811" transform="translate(-593.284 -747.149)" fill="none" stroke="#0d65d9" stroke-miterlimit="10" stroke-width="5"/><path d="M714.55,824.4c-24.1-32.9-63.382-34.824-90.441-9.938.7-10.281,36.412-29.636,59.221-18.254,53.357,26.626,183.375,91.734,183.375,91.734a50.205,50.205,0,0,1-45.028,89.748s-125.107-62.635-183.756-91.9c-23.661-11.807-28.342-45.032-17.72-63.652-7.017,36.385,7.677,60.19,50.678,74.616,23.937,8.031,45.306-19.025,48.921-28.538S729.808,845.228,714.55,824.4Z" transform="translate(-593.284 -747.149)" fill="none" stroke="#0d65d9" stroke-miterlimit="10" stroke-width="4"/><path d="M683.951,807.917c-44.074-22.58-87.676,40.52-36.026,71.709a44.837,44.837,0,0,0,23.3,11.744c16.441,2.685,35.351-12.089,39.873-21.15S728.778,830.884,683.951,807.917Z" transform="translate(-593.284 -747.149)" fill="none" stroke="#0d65d9" stroke-miterlimit="10" stroke-width="4"/><text transform="translate(66.541 108.027)" font-size="30" font-family="Helvetica">4</text></svg>