<svg class="summary-menu__item-graphic" xmlns="http://www.w3.org/2000/svg" viewBox="0 0 127.115 421.059"><path d="M549.456,453.191c9.31-43.524,25.367-85.987,47.022-123.362" transform="translate(-474.904 -328.575)" fill="none" stroke="#0d65d9" stroke-miterlimit="10" stroke-width="5"/><path d="M595.453,748.392A417.138,417.138,0,0,1,551.2,636.028" transform="translate(-474.904 -328.575)" fill="none" stroke="#0d65d9" stroke-miterlimit="10" stroke-width="5"/><path d="M559.977,623.3c-3.978,2.088-9.029,1.447-12.833,2.34-26.018,6.106-47.32-13.522-54.869-28.726-6.372-12.835-9.474-29.332-9.327-45.883.141-15.79,3.213-31.613,10.233-44.966a67.24,67.24,0,0,1,9.23-13.667c6.42-7.115,14.692-12.947,21.86-17.446,6.9-4.329,15.041-13.2,35.8.862,8.518,5.769,20.4,22.944,22.6,26.752,1.346,2.33,6.191,8.683,9.565,18.54,4.967,14.516,5.422,26.068,4.356,41.145-.189,2.68-.936,5.516-1.41,8.227a69.093,69.093,0,0,1-1.949,9.553A71.173,71.173,0,0,1,572.028,612c-2.8,2.483-5.261,5.026-7.57,7.428A18.9,18.9,0,0,1,559.977,623.3Zm18.858-34.286a74.251,74.251,0,0,0,9.508-35.426c.615-22.851-7.887-42.39-11.722-47.577A61.026,61.026,0,0,0,554.867,488.8c-4.4-2-7.386-1.155-12.58-1.456-6.415-.372-15.207-1.3-22.31,2.785-15.985,9.186-26.835,28.682-30.219,49.261a50.866,50.866,0,0,0-.494,8.157c-.01,1.735-.129,3.571-.008,5.29.264,3.741.794,7.458,1.392,11.22,1.053,6.62,1.884,12.759,4.821,18.479.1.19.653,1.747.755,1.934,6.262,11.492,20.683,13.73,24.754,17.521s9.493,11.026,15.1,13.629a8.422,8.422,0,0,0,5.207.271C551.693,613.527,571.949,601.063,578.835,589.019Z" transform="translate(-474.904 -328.575)" fill="#3d84e1" opacity="0.5"/><path d="M547.078,636.523c-5.172,1.4-13.458,1.185-18.425.451s-10.57-4-15.978-5.811c-6.632-2.228-17.253-11.813-20.755-17.96-1.7-2.985-6.82-12.406-8.29-17.283s-3.3-8.281-4.089-10.81-4.547-27.6-3.21-40.218,4.493-27.6,8.358-36.484a109.1,109.1,0,0,1,7.239-14.461,64.753,64.753,0,0,1,11.2-15.374c2.54-2.579,5.767-5.058,8.709-7.566,4.958-4.224,9.418-8.019,10.681-8.789,2.012-1.229,12.335-6.526,15.6-7.764s13-.907,19.341,1.249a18.243,18.243,0,0,1,3.118,1.8,29.28,29.28,0,0,1,5.2,3.466,39.481,39.481,0,0,1,5.553,6.353c2.193,3.18,3.9,5.152,5.086,6.686s4.447,4.817,5.858,6.718,4.711,5.66,5.8,8.261.668,5.618,1.307,7.487,3.884,12.944,5.193,15.91a58.717,58.717,0,0,1,2.072,6c.307,1.023.42,2.175.693,3.167.431,1.563.984,2.9,1.231,3.965.76,3.3,2.424,28.647,1.83,37.545s-9.047,32.888-10.134,34.807c-1.416,2.5-10.9,18.1-11.611,19.64-.976,2.1-12.47,12.884-14.482,14.113S549.891,635.761,547.078,636.523Zm17.38-17.092c2.309-2.4,4.766-4.945,7.57-7.428a71.173,71.173,0,0,0,21.209-31.967,69.093,69.093,0,0,0,1.949-9.553c.474-2.711,1.221-5.547,1.41-8.227,1.066-15.077.611-26.629-4.356-41.145-3.374-9.857-8.219-16.21-9.565-18.54-2.2-3.808-14.083-20.983-22.6-26.752-20.762-14.06-28.9-5.191-35.8-.862-7.168,4.5-15.44,10.331-21.86,17.446a67.24,67.24,0,0,0-9.23,13.667c-7.02,13.353-10.092,29.176-10.233,44.966-.147,16.551,2.955,33.048,9.327,45.883,7.549,15.2,28.851,34.832,54.869,28.726,3.8-.893,8.855-.252,12.833-2.34A18.9,18.9,0,0,0,564.458,619.431Z" transform="translate(-474.904 -328.575)" fill="#b2151b" opacity="0.7"/><path d="M491.92,613.2c-20.577-30.233-20.8-87.264.01-119.257,13.2-23.607,56-59.972,79.4-26.625,6.411,10.164,17.717,16.568,18.047,29.152,2.192,7.852,7.05,20.44,9.189,29.037.76,3.3,2.424,28.647,1.83,37.545-3.433,22.562-11.663,38.915-21.745,54.447C558.28,646.777,510.692,642.246,491.92,613.2Z" transform="translate(-474.904 -328.575)" fill="none" stroke="#b2151b" stroke-miterlimit="10" stroke-width="3"/><path d="M492.275,596.919c-6.372-12.835-9.474-29.332-9.327-45.883.141-15.79,3.213-31.613,10.233-44.966a67.24,67.24,0,0,1,9.23-13.667c6.42-7.115,14.692-12.947,21.86-17.446,6.9-4.329,15.041-13.2,35.8.862,8.518,5.769,20.4,22.944,22.6,26.752,1.346,2.33,6.191,8.683,9.565,18.54,4.967,14.515,5.422,26.068,4.356,41.145-.189,2.68-.936,5.516-1.41,8.227a69.093,69.093,0,0,1-1.949,9.553A71.173,71.173,0,0,1,572.028,612c-2.8,2.483-5.261,5.026-7.57,7.428a18.9,18.9,0,0,1-4.481,3.874c-3.978,2.088-9.029,1.447-12.833,2.34C521.126,631.751,499.824,612.123,492.275,596.919Z" transform="translate(-474.904 -328.575)" fill="none" stroke="#0d65d9" stroke-miterlimit="10" stroke-width="3"/><path d="M536.994,620.824c-4.895-1.028-12.536-10.663-19.066-13.957s-18.777-9.375-23.182-18.235c-3.731-7.506-8.727-23.241-8.409-39.824.488-25.385,12.029-49.251,31.957-62.667,19.3-12.991,46.218-1.924,60.048,16.3a48.863,48.863,0,0,1,4.961,7.53c4.787,9.6,15.658,56.881-2.356,81.274C561.705,617.3,541.89,621.852,536.994,620.824Zm41.841-31.8a74.251,74.251,0,0,0,9.508-35.426c.615-22.851-7.887-42.39-11.722-47.577A61.026,61.026,0,0,0,554.867,488.8c-4.4-2-7.386-1.155-12.58-1.456-6.415-.372-15.207-1.3-22.31,2.785-15.985,9.186-26.835,28.682-30.219,49.261a50.866,50.866,0,0,0-.494,8.157c-.01,1.735-.129,3.571-.008,5.29.264,3.741.794,7.458,1.392,11.22,1.053,6.62,1.884,12.759,4.821,18.479.1.19.653,1.747.755,1.934,6.262,11.492,20.683,13.73,24.754,17.521s9.493,11.026,15.1,13.629a8.422,8.422,0,0,0,5.207.271C551.693,613.527,571.949,601.063,578.835,589.019Z" transform="translate(-474.904 -328.575)" fill="#3d84e1"/><path d="M496.224,584.472c-.1-.187-.657-1.744-.755-1.934-2.937-5.72-3.768-11.859-4.821-18.479-.6-3.762-1.128-7.479-1.392-11.22-.121-1.719,0-3.555.008-5.29a50.866,50.866,0,0,1,.494-8.157c3.384-20.579,14.234-40.075,30.219-49.261,7.1-4.082,15.895-3.157,22.31-2.785,5.194.3,8.18-.54,12.58,1.456a56.2,56.2,0,0,1,7.947,4.239c1.4.94,2.636,1.969,3.87,2.944a56.22,56.22,0,0,1,9.937,10.031c3.835,5.187,12.337,24.726,11.722,47.577a74.251,74.251,0,0,1-9.508,35.426c-6.886,12.044-27.142,24.508-37.551,26.874a8.422,8.422,0,0,1-5.207-.271c-5.606-2.6-11.027-9.838-15.1-13.629S502.486,595.964,496.224,584.472Z" transform="translate(-474.904 -328.575)" fill="none" stroke="#0d65d9" stroke-miterlimit="10" stroke-width="3"/><text transform="translate(55.786 226.493)" font-size="30" font-family="Helvetica">5</text></svg>