<svg class="summary-menu__item-graphic" xmlns="http://www.w3.org/2000/svg" viewBox="0 0 365.685 234.054"><path d="M815.382,145.737A419.025,419.025,0,0,1,960,120.165" transform="translate(-594.315 -97.028)" fill="none" stroke="#0d65d9" stroke-miterlimit="10" stroke-width="5"/><path d="M596.478,329.829a421.8,421.8,0,0,1,90.065-108.4" transform="translate(-594.315 -97.028)" fill="none" stroke="#0d65d9" stroke-miterlimit="10" stroke-width="5"/><path d="M702.478,236.033c-1.463-1.714-2.641-3.492-3.932-5.331a57.16,57.16,0,0,1-5.488-9.19c-.914-1.327-1.346-2.979-2.116-4.149-1.22-1.853-2.678-3.153-3.616-5a41.286,41.286,0,0,1-2.056-3.646,62.141,62.141,0,0,1-1.82-7.337c-2.077-8.587.062-21.456,2.518-30.522a49.075,49.075,0,0,1,3.078-9.139c10.039-18.351,16.882-26.48,23.927-31.417,3.846-2.7,7.645-3.913,11.779-5.838,3.438-1.6,7.619-4.081,11.784-6.593,3.32-2.2,6.769-4.8,9.839-6.995,2.355-1.681,5.046-3.3,7.308-4.781a55.72,55.72,0,0,1,12.168-6.5,34.159,34.159,0,0,1,6.172-1.366,39.178,39.178,0,0,1,5.226-.173,27.509,27.509,0,0,1,7.78.586c.924.162,1.826.557,2.7.765a33.2,33.2,0,0,1,15.655,8.19c.6.552,1.927,1.621,2.485,2.209a34.4,34.4,0,0,1,6.38,8.381c4.239,8.538,5.09,18.717,3.61,28.405a96.781,96.781,0,0,1-.808,38.231c.586,24.46-11.959,55.945-34.089,65.558C756.816,266.157,721.741,256.11,702.478,236.033Z" transform="translate(-594.315 -97.028)" fill="none" stroke="#6ea3e8" stroke-miterlimit="10" stroke-width="2"/><path d="M706.136,236.8c-.829-.842-3.684-4.089-4.383-5.041-1.807-2.462-3.442-4.721-5.879-8.6-5.213-8.3-11.387-20.279-11.246-29.9.1-6.754.538-7.3,1.9-14.622a61.43,61.43,0,0,1,2.393-9.98c1.049-2.57,2.316-5.768,3.476-8.552a38.013,38.013,0,0,1,4.239-7.6c4.749-6.59,9.264-13.885,14.071-18.13,4.948-4.369,15.021-8.586,21.516-12.171,15.52-8.368,10.762-7.923,22.151-15.115,7.883-4.977,20.654-8.115,24.359-7.611,16.366,2.513,22.882,6.692,30.434,17.065,6.04,8.611,5.472,23.114,5.771,32.258,1.185,10.8.359,17.99-.3,28.043a49.43,49.43,0,0,1-.719,5.764c-1.824,9.869-3.537,22.376-5.778,29.866-6.6,22.067-15.409,29.222-28.144,36.305-11.676,6.494-21.483,7.338-32.737,6.159a70.09,70.09,0,0,1-11.682-2.58C725.821,249.582,713.727,244.5,706.136,236.8Z" transform="translate(-594.315 -97.028)" fill="none" stroke="#3d84e1" stroke-miterlimit="10"/><path d="M698.877,235.709a7.136,7.136,0,0,1-2.129.179c-1.355.153-2.814-1.177-4.113-1.955-4.71-2.818-5.125-8.507-7.644-12.961-.925-3.312-1.3-8.778-2.822-11.544-1.439-2.85-2.489-5.345-2.543-7,.523-3.662.37-4.755-.161-8.581-1.73-5.318-1.446-7.279-.364-12.39.511-2.121,1.56-7.8,2.938-9.838,2.468-11.27,4.014-10.76,5.639-13.983a42.464,42.464,0,0,1,7.975-12.692,87.991,87.991,0,0,1,17.552-18.491,19.256,19.256,0,0,1,4.619-4.061c1.253-2.893,5.805-7.305,5.089-3.308,8.224-4.962,7.984-4.469,9.776-3.676-4.356,3.7-10.414,6.405-14.263,10.676-12,5.355-22.3,17.065-32.98,39.054-5.5,16.8-7.824,36.754,1.281,50.877.752,1.05,1.682,2.135,2.385,3.253,3.149,5.006,5.739,10.215,9.6,14.786q.555.645,1.13,1.3" transform="translate(-594.315 -97.028)" fill="#b2151b" stroke="#b2151b" stroke-miterlimit="10" stroke-width="3"/><path d="M707.58,241.226a50.156,50.156,0,0,0,6.054,5.1,77.569,77.569,0,0,0,7.157,4.846c14.891,8.1,32.818,11.332,48.3,7.264a79.682,79.682,0,0,0,10.151-4.208c13.922-6.506,23.184-16.038,29.368-29.085a87.633,87.633,0,0,0,8.779-38.364c.824-5.08,1.948-11.851,2.216-15.928,5-22.52,4.144-23.252,7.049-25.712,1.535,3.873-.021,6.717-1.23,11.679-.614,1.855.21,5.767.516,9.665.2,6.787-1.458,8.27-3.308,12.592-2.109,2.973-1.051,4.7-.473,7.071.865,6.153-.3,9.463-1.022,13-.166,2.25-1.1,2.456-2.394,3.77-.391.938-1.52,4.407-1.909,5.384-.707,1.541-.45,2.439-.583,4.433-3.2,18.173-3.924,13.6-8.658,22.748-1.543.773-2.055,1.383-4.02,1.473-1.833.515-2.516,2.6-4.809,4.388-.712.341-1.181,2.474-1.63,3.622-2.109,3.413-6.809,10.325-8.155,10.2-9.533,3.349-6.942,3.091-13.61,1.935-2.545.665-1.818,2.319-2.775,2.441-4.795,2.158-9.366,2.047-13.235,2.419-3.479-.894-5.292-.539-8.941.465-1.592.151-5.186-.948-7.8-1.269.126-.195-4.362.128-4.241-.246-2.454-3.3-7.261-3.593-9.556-4.5-5.664-1.944-6.481-3.385-7.9-3.008-6.044.158-11.817-1.405-14.143-7.454.139.182-1.36-2.384-1.258-2.389.991-1.7,1.281-2.07,2.215-2.057" transform="translate(-594.315 -97.028)" fill="#b2151b" stroke="#b2151b" stroke-miterlimit="10" stroke-width="3"/><path d="M705.178,233.2c-21.95-27.8-20.549-37.342-16.681-56.534a64.628,64.628,0,0,1,6.871-20.524c9.586-12.211,13.375-18.132,16.535-20.64,7.473-6.926,18.428-10.391,27.928-15.892,7.2-3.043,13.612-9.569,20.352-14.032,6.062-2.228,11.393-4.617,18.645-4.463,28.569,4.376,34.738,20.365,34.682,44.121-.415,4.915.807,9.74.814,12.087-1.458,12.164-.233,23.936-3.092,33.178-6.246,44.755-20.194,50.9-35.9,58.679-16.3,10.02-41.64,1.418-55.537-4.886-1-.454-2.269-1.3-3.142-1.726C714.5,241.524,708.335,236.525,705.178,233.2Z" transform="translate(-594.315 -97.028)" fill="none" stroke="#0d65d9" stroke-miterlimit="10" stroke-width="4"/><text transform="translate(152.513 86.071)" font-size="30" font-family="Helvetica">6</text></svg>