<svg xmlns="http://www.w3.org/2000/svg" xmlns:xlink="http://www.w3.org/1999/xlink" version="1.1" x="0px" y="0px" viewBox="6 5 50 50" xml:space="preserve">
    <polygon points="22,6.59 11.77,17 22,17 "/>
    <path d="M11,53c0,0.27,0.11,0.52,0.29,0.71C11.48,53.89,11.74,54,12,54h36c0.55,0,1-0.45,1-1V7.01c0-0.55-0.45-1-1-1L24,6v12  c0,0.55-0.45,1-1,1H11V53z M40.5,46H19.67c-0.55,0-1-0.45-1-1s0.45-1,1-1H40.5c0.55,0,1,0.45,1,1S41.05,46,40.5,46z M40.42,39H19.59  c-0.55,0-1-0.45-1-1c0,0,0,0,0,0c0,0,0-0.01,0-0.01c0-0.55,0.45-1,1-1h20.83c0.55,0,1,0.45,1,1c0,0,0,0,0,0c0,0,0,0.01,0,0.01  C41.42,38.55,40.97,39,40.42,39z M19.58,23h20.83c0.55,0,1,0.45,1,1s-0.45,1-1,1H19.58c-0.55,0-1-0.45-1-1S19.03,23,19.58,23z   M19.5,30h20.83c0.55,0,1,0.45,1,1s-0.45,1-1,1H19.5c-0.55,0-1-0.45-1-1S18.95,30,19.5,30z"/>
</svg>