<svg class="landing-page-download-icon" xmlns:dc="http://purl.org/dc/elements/1.1/" xmlns:cc="http://creativecommons.org/ns#" xmlns:rdf="http://www.w3.org/1999/02/22-rdf-syntax-ns#" xmlns:svg="http://www.w3.org/2000/svg" xmlns="http://www.w3.org/2000/svg" xmlns:sodipodi="http://sodipodi.sourceforge.net/DTD/sodipodi-0.dtd" xmlns:inkscape="http://www.inkscape.org/namespaces/inkscape" version="1.1" x="0px" y="0px" viewBox="0 0 90 100">
    <g transform="translate(0,-952.36218)">
        <path style="color:#ffffff;enable-background:accumulate;" d="m 45.456864,971.36217 c 6.3981,0 12.8059,2.431 17.6875,7.3125 4.143,4.143 6.5293,9.38065 7.1563,14.78125 10.1873,0.9249 18.1562,9.47808 18.1562,19.90628 0,11.0456 -8.9544,20 -20,20 l -49,0 c -9.418,0 -16.9999998,-7.582 -16.9999998,-17 0,-9.418 7.5819998,-17.00003 16.9999998,-17.00003 l 1.1875,0 c -0.8812,-7.3544 1.5124,-15.0437 7.1563,-20.6875 4.8813,-4.8815 11.2581,-7.3125 17.6562,-7.3125 z m 0,21 c -1.1048,0 -2,0.89543 -2,2 l 0,21.50003 -7.6562,-6.9688 c -0.7764,-0.7088 -2.101,-0.6191 -2.8438,0.125 -0.7701,0.7713 -0.6263,2.1416 0.1562,2.8438 l 11,10 c 0.4403,0.4023 0.813,0.5017 1.3438,0.5 0.5349,-0.01 1.058,-0.2382 1.3438,-0.5 l 11,-10 c 0.8219,-0.7154 0.8618,-2.0644 0.1562,-2.8438 -0.7057,-0.7793 -2.0674,-0.8338 -2.8438,-0.125 l -7.6562,6.9688 0,-21.50003 c 0,-1.10457 -0.8952,-2 -2,-2 z" fill="#ffffff" stroke="none" marker="none" visibility="visible" display="inline" overflow="visible"/>
    </g>
</svg>