<svg class="summary-menu__item-graphic" xmlns="http://www.w3.org/2000/svg" viewBox="0 0 782.51 429.62"><path d="M1341.72,325.8a434.63,434.63,0,0,1,53.62,169.07" transform="translate(-782.79 -65.5)" fill="none" stroke="gold" stroke-miterlimit="10" stroke-width="5"/><path d="M1258.55,220a440.22,440.22,0,0,1,69,82.28" transform="translate(-782.79 -65.5)" fill="none" stroke="gold" stroke-miterlimit="10" stroke-width="5"/><path d="M1176.16,159.38A439.24,439.24,0,0,1,1258.55,220" transform="translate(-782.79 -65.5)" fill="none" stroke="gold" stroke-miterlimit="10" stroke-width="5"/><path d="M783.79,139.28a434.69,434.69,0,0,1,63.86-22.36" transform="translate(-782.79 -65.5)" fill="none" stroke="gold" stroke-miterlimit="10" stroke-width="5"/><path d="M847.35,116.85c-1.79,4.61-3.76,10.23-4.39,15.35h0a61.35,61.35,0,0,0,53.25,68.17s47,5.32,91.13,10.74c6.92.85,12.55-46.64,19.44-45.54,6.64,1.07-2,47.16,4.63,48.5,22.76,4.62,97.28,12.39,97.28,12.39a61.36,61.36,0,0,0,68.17-53.26h0a75.85,75.85,0,0,0,.25-13.79" transform="translate(-782.79 -65.5)" fill="none" stroke="#0d65d9" stroke-miterlimit="10" stroke-width="5"/><path d="M1327,304.47c20.93-11.48,40.66-10.68,47.64-21.83,21.69-26.21,20.22-55.53,57.05-67.81,63.27-18.76,145.37,41.63,129.06,81.1-8.57,51-104.82,82.5-145.84,49.55-25.54-15.14-25.23-21.75-32.55-25.75-13.61-6.51-28.48-1-42.29,7.94" transform="translate(-782.79 -65.5)" fill="none" stroke="#0d65d9" stroke-miterlimit="10" stroke-width="5"/><line x1="476.48" y1="153.97" x2="417.42" y2="307.84" fill="none" stroke="gold" stroke-miterlimit="10" stroke-width="5"/><line x1="533.71" y1="4.89" x2="476.48" y2="153.97" fill="none" stroke="gold" stroke-miterlimit="10" stroke-width="5"/><text transform="translate(495.9 25.76)" font-size="30" font-family="Helvetica">1</text><text transform="translate(407.46 135.65)" font-size="24" fill="#a7a9ac" font-family="Helvetica">a</text><text transform="translate(552.51 218.07)" font-size="24" fill="#a7a9ac" font-family="Helvetica">b</text></svg>