<svg class="summary-menu__item-graphic" xmlns="http://www.w3.org/2000/svg" viewBox="0 0 634.36 467.09"><path d="M804.37,949.16q-19.43-7.39-37.93-16.55" transform="translate(-765.33 -559.73)" fill="none" stroke="gold" stroke-miterlimit="10" stroke-width="5"/><path d="M1187.22,914.11A438.07,438.07,0,0,1,1135.47,941" transform="translate(-765.33 -559.73)" fill="none" stroke="gold" stroke-miterlimit="10" stroke-width="5"/><path d="M1218.18,893.41q-15,11-31,20.7" transform="translate(-765.33 -559.73)" fill="none" stroke="gold" stroke-miterlimit="10" stroke-width="5"/><path d="M1397.2,559.85a440.25,440.25,0,0,1-4.83,48.27" transform="translate(-765.33 -559.73)" fill="none" stroke="gold" stroke-miterlimit="10" stroke-width="5"/><path d="M803.47,948.83a72.88,72.88,0,0,0-1.34,16.47h0a61.35,61.35,0,0,0,63.26,59s47.28-2.09,91.69-3.64c7-.25,4.43-17.77,11.4-17.76,6.73,0,6.12,16.62,12.84,16.91,23.2,1,98-3,98-3a61.34,61.34,0,0,0,59-63.26h0a68.08,68.08,0,0,0-1.67-13" transform="translate(-765.33 -559.73)" fill="none" stroke="#0d65d9" stroke-miterlimit="10" stroke-width="5"/><path d="M1392.32,608.66a61.27,61.27,0,0,0-11.87-9.31h0a61.36,61.36,0,0,0-83.94,20.93s-24,40.78-46.88,78.88c-3.59,6,23.52,19.62,19.71,25.46-3.67,5.63-28.3-10.16-32.2-4.68-13.48,18.92-50.89,83.83-50.89,83.83a61.34,61.34,0,0,0,20.92,83.93h0a60.4,60.4,0,0,0,11.18,5.26" transform="translate(-765.33 -559.73)" fill="none" stroke="#0d65d9" stroke-miterlimit="10" stroke-width="5"/><line x1="416.54" y1="357.53" x2="555.52" y2="437.76" fill="none" stroke="gold" stroke-miterlimit="10" stroke-width="5"/><line x1="274.49" y1="275.52" x2="416.54" y2="357.53" fill="none" stroke="gold" stroke-miterlimit="10" stroke-width="5"/><path d="M1259.74,788.38c-30.65,13.41-5.51,40.24,11.2,32.44C1291.29,815.1,1281.43,778.47,1259.74,788.38Z" transform="translate(-765.33 -559.73)" fill="#337a33" stroke="#337a33" stroke-miterlimit="10"/><path d="M1336.66,688.66c-30.65-13.41-5.51-40.24,11.2-32.44C1368.22,661.94,1358.35,698.57,1336.66,688.66Z" transform="translate(-765.33 -559.73)" fill="#337a33" stroke="#337a33" stroke-miterlimit="10"/><path d="M1072.09,987.87c0,1.55-1.68,3.65-3.37,3.65s-2.49-2.1-2.49-3.65,1.38-2.24,3.08-2.24S1072.09,986.31,1072.09,987.87Z" transform="translate(-765.33 -559.73)" fill="#90e6ff"/><path d="M1044.46,999.05c0,1.56-1.68,3.66-3.38,3.66s-2.48-2.1-2.48-3.66,1.38-2.24,3.08-2.24S1044.46,997.5,1044.46,999.05Z" transform="translate(-765.33 -559.73)" fill="#90e6ff"/><path d="M1096.73,994.5c0,1.55-1.68,3.65-3.38,3.65s-2.48-2.1-2.48-3.65,1.38-2.24,3.08-2.24S1096.73,992.94,1096.73,994.5Z" transform="translate(-765.33 -559.73)" fill="#90e6ff"/><path d="M1094.46,983.26c0,1.56-1.68,3.66-3.38,3.66s-2.48-2.1-2.48-3.66,1.38-2.24,3.08-2.24S1094.46,981.71,1094.46,983.26Z" transform="translate(-765.33 -559.73)" fill="#90e6ff"/><path d="M1122.45,958.68c0,1.55-1.67,3.66-3.37,3.66s-2.49-2.11-2.49-3.66,1.38-2.24,3.08-2.24S1122.45,957.13,1122.45,958.68Z" transform="translate(-765.33 -559.73)" fill="#90e6ff"/><path d="M1121.35,973c0,1.55-1.67,3.65-3.37,3.65s-2.49-2.1-2.49-3.65,1.38-2.24,3.08-2.24S1121.35,971.41,1121.35,973Z" transform="translate(-765.33 -559.73)" fill="#90e6ff"/><path d="M1101.54,979c0,1.55-1.67,3.66-3.37,3.66s-2.48-2.11-2.48-3.66,1.38-2.24,3.08-2.24S1101.54,977.42,1101.54,979Z" transform="translate(-765.33 -559.73)" fill="#90e6ff"/><path d="M1097.38,987.92c0,1.55-1.67,3.65-3.37,3.65s-2.48-2.1-2.48-3.65,1.38-2.24,3.07-2.24S1097.38,986.36,1097.38,987.92Z" transform="translate(-765.33 -559.73)" fill="#90e6ff"/><path d="M1093.65,1000c0,1.56-1.67,3.66-3.37,3.66s-2.48-2.1-2.48-3.66,1.37-2.23,3.07-2.23S1093.65,998.47,1093.65,1000Z" transform="translate(-765.33 -559.73)" fill="#90e6ff"/><path d="M1089.85,989.84c0,1.55-1.67,3.66-3.37,3.66s-2.48-2.11-2.48-3.66,1.37-2.24,3.07-2.24S1089.85,988.29,1089.85,989.84Z" transform="translate(-765.33 -559.73)" fill="#90e6ff"/><path d="M1082.61,999.71c0,1.55-1.67,3.65-3.37,3.65s-2.48-2.1-2.48-3.65,1.38-2.24,3.07-2.24S1082.61,998.16,1082.61,999.71Z" transform="translate(-765.33 -559.73)" fill="#90e6ff"/><path d="M1077,979.37c0,1.55-1.67,3.65-3.37,3.65s-2.49-2.1-2.49-3.65,1.38-2.24,3.08-2.24S1077,977.81,1077,979.37Z" transform="translate(-765.33 -559.73)" fill="#90e6ff"/><path d="M1047.75,993.79c0,1.55-1.68,3.65-3.38,3.65s-2.48-2.1-2.48-3.65,1.38-2.24,3.08-2.24S1047.75,992.24,1047.75,993.79Z" transform="translate(-765.33 -559.73)" fill="#90e6ff"/><path d="M1075.42,1007.07c0,1.56-1.68,3.66-3.37,3.66s-2.49-2.1-2.49-3.66,1.38-2.23,3.08-2.23S1075.42,1005.52,1075.42,1007.07Z" transform="translate(-765.33 -559.73)" fill="#90e6ff"/><path d="M1062.19,977.13c0,1.56-1.68,3.66-3.38,3.66s-2.48-2.1-2.48-3.66,1.38-2.23,3.08-2.23S1062.19,975.58,1062.19,977.13Z" transform="translate(-765.33 -559.73)" fill="#90e6ff"/><path d="M1070,977.85c0,1.55-1.67,3.65-3.37,3.65s-2.48-2.1-2.48-3.65,1.37-2.24,3.07-2.24S1070,976.3,1070,977.85Z" transform="translate(-765.33 -559.73)" fill="#90e6ff"/><path d="M1055,998.56c0,1.56-1.67,3.66-3.37,3.66s-2.48-2.1-2.48-3.66,1.37-2.23,3.07-2.23S1055,997,1055,998.56Z" transform="translate(-765.33 -559.73)" fill="#90e6ff"/><path d="M1060.76,995c0,1.55-1.68,3.66-3.37,3.66s-2.49-2.11-2.49-3.66,1.38-2.24,3.08-2.24S1060.76,993.44,1060.76,995Z" transform="translate(-765.33 -559.73)" fill="#90e6ff"/><path d="M1066.47,994.28c0,1.55-1.67,3.65-3.37,3.65s-2.48-2.1-2.48-3.65,1.37-2.24,3.07-2.24S1066.47,992.72,1066.47,994.28Z" transform="translate(-765.33 -559.73)" fill="#90e6ff"/><path d="M1103.61,992.85c0,1.55-1.67,3.65-3.37,3.65s-2.48-2.1-2.48-3.65,1.38-2.24,3.07-2.24S1103.61,991.3,1103.61,992.85Z" transform="translate(-765.33 -559.73)" fill="#90e6ff"/><path d="M1083.26,970.06c0,1.55-1.68,3.66-3.37,3.66s-2.49-2.11-2.49-3.66,1.38-2.24,3.08-2.24S1083.26,968.51,1083.26,970.06Z" transform="translate(-765.33 -559.73)" fill="#90e6ff"/><path d="M1119.15,986.15c0,1.56-1.67,3.66-3.37,3.66s-2.48-2.1-2.48-3.66,1.37-2.23,3.07-2.23S1119.15,984.6,1119.15,986.15Z" transform="translate(-765.33 -559.73)" fill="#90e6ff"/><path d="M1048.26,977.66c0,1.55-1.68,3.65-3.38,3.65s-2.48-2.1-2.48-3.65,1.38-2.24,3.08-2.24S1048.26,976.1,1048.26,977.66Z" transform="translate(-765.33 -559.73)" fill="#90e6ff"/><path d="M1042.48,977.34c0,1.55-1.67,3.66-3.37,3.66s-2.48-2.11-2.48-3.66,1.37-2.24,3.07-2.24S1042.48,975.79,1042.48,977.34Z" transform="translate(-765.33 -559.73)" fill="#90e6ff"/><path d="M1033.27,982c0,1.55-1.67,3.65-3.37,3.65s-2.48-2.1-2.48-3.65,1.37-2.24,3.07-2.24S1033.27,980.39,1033.27,982Z" transform="translate(-765.33 -559.73)" fill="#90e6ff"/><path d="M1022.6,983.58c0,1.55-1.68,3.65-3.37,3.65s-2.49-2.1-2.49-3.65,1.38-2.24,3.08-2.24S1022.6,982,1022.6,983.58Z" transform="translate(-765.33 -559.73)" fill="#90e6ff"/><path d="M1041.46,987.26c0,1.55-1.67,3.65-3.37,3.65s-2.48-2.1-2.48-3.65,1.37-2.24,3.07-2.24S1041.46,985.71,1041.46,987.26Z" transform="translate(-765.33 -559.73)" fill="#90e6ff"/><path d="M1036.86,998.44c0,1.56-1.68,3.66-3.37,3.66s-2.49-2.1-2.49-3.66,1.38-2.23,3.08-2.23S1036.86,996.89,1036.86,998.44Z" transform="translate(-765.33 -559.73)" fill="#90e6ff"/><path d="M1037.73,991.47c0,1.55-1.67,3.66-3.37,3.66s-2.49-2.11-2.49-3.66,1.38-2.24,3.08-2.24S1037.73,989.92,1037.73,991.47Z" transform="translate(-765.33 -559.73)" fill="#90e6ff"/><path d="M1020.47,1007.07c0,1.56-1.67,3.66-3.37,3.66s-2.48-2.1-2.48-3.66,1.37-2.23,3.07-2.23S1020.47,1005.52,1020.47,1007.07Z" transform="translate(-765.33 -559.73)" fill="#90e6ff"/><path d="M1095.2,969.71c0,1.55-1.68,3.65-3.37,3.65s-2.49-2.1-2.49-3.65,1.38-2.24,3.08-2.24S1095.2,968.16,1095.2,969.71Z" transform="translate(-765.33 -559.73)" fill="#90e6ff"/><path d="M1101.33,1001.08c0,1.55-1.67,3.65-3.37,3.65s-2.48-2.1-2.48-3.65,1.37-2.24,3.07-2.24S1101.33,999.52,1101.33,1001.08Z" transform="translate(-765.33 -559.73)" fill="#90e6ff"/><path d="M878,995.91c0,1.55-1.68,3.65-3.38,3.65s-2.48-2.1-2.48-3.65,1.38-2.24,3.08-2.24S878,994.36,878,995.91Z" transform="translate(-765.33 -559.73)" fill="#90e6ff"/><path d="M850.39,1007.09c0,1.56-1.67,3.66-3.37,3.66s-2.48-2.1-2.48-3.66,1.38-2.23,3.07-2.23S850.39,1005.54,850.39,1007.09Z" transform="translate(-765.33 -559.73)" fill="#90e6ff"/><path d="M902.66,1002.54c0,1.55-1.67,3.65-3.37,3.65s-2.48-2.1-2.48-3.65,1.38-2.24,3.07-2.24S902.66,1001,902.66,1002.54Z" transform="translate(-765.33 -559.73)" fill="#90e6ff"/><path d="M900.39,991.31c0,1.55-1.67,3.65-3.37,3.65s-2.48-2.1-2.48-3.65,1.38-2.24,3.07-2.24S900.39,989.75,900.39,991.31Z" transform="translate(-765.33 -559.73)" fill="#90e6ff"/><path d="M874.47,1012.92c0,1.55-1.68,3.65-3.38,3.65s-2.48-2.1-2.48-3.65,1.38-2.24,3.08-2.24S874.47,1011.36,874.47,1012.92Z" transform="translate(-765.33 -559.73)" fill="#90e6ff"/><path d="M925.75,993.85c0,1.55-1.68,3.65-3.38,3.65s-2.48-2.1-2.48-3.65,1.38-2.24,3.08-2.24S925.75,992.29,925.75,993.85Z" transform="translate(-765.33 -559.73)" fill="#90e6ff"/><path d="M907.48,987c0,1.56-1.67,3.66-3.37,3.66s-2.48-2.1-2.48-3.66,1.37-2.23,3.07-2.23S907.48,985.46,907.48,987Z" transform="translate(-765.33 -559.73)" fill="#90e6ff"/><path d="M903.32,996c0,1.55-1.67,3.66-3.37,3.66s-2.48-2.11-2.48-3.66,1.37-2.24,3.07-2.24S903.32,994.41,903.32,996Z" transform="translate(-765.33 -559.73)" fill="#90e6ff"/><path d="M899.59,1008.07c0,1.55-1.67,3.65-3.37,3.65s-2.49-2.1-2.49-3.65,1.38-2.24,3.08-2.24S899.59,1006.51,899.59,1008.07Z" transform="translate(-765.33 -559.73)" fill="#90e6ff"/><path d="M895.79,997.88c0,1.56-1.67,3.66-3.37,3.66s-2.49-2.1-2.49-3.66,1.38-2.23,3.08-2.23S895.79,996.33,895.79,997.88Z" transform="translate(-765.33 -559.73)" fill="#90e6ff"/><path d="M888.55,1007.75c0,1.56-1.67,3.66-3.37,3.66s-2.48-2.1-2.48-3.66,1.37-2.24,3.07-2.24S888.55,1006.2,888.55,1007.75Z" transform="translate(-765.33 -559.73)" fill="#90e6ff"/><path d="M882.93,987.41c0,1.55-1.68,3.65-3.37,3.65s-2.49-2.1-2.49-3.65,1.38-2.24,3.08-2.24S882.93,985.85,882.93,987.41Z" transform="translate(-765.33 -559.73)" fill="#90e6ff"/><path d="M853.68,1001.83c0,1.56-1.67,3.66-3.37,3.66s-2.48-2.1-2.48-3.66,1.38-2.24,3.07-2.24S853.68,1000.28,853.68,1001.83Z" transform="translate(-765.33 -559.73)" fill="#90e6ff"/><path d="M865.53,978.81c0,1.55-1.68,3.65-3.38,3.65s-2.48-2.1-2.48-3.65,1.38-2.24,3.08-2.24S865.53,977.25,865.53,978.81Z" transform="translate(-765.33 -559.73)" fill="#90e6ff"/><path d="M868.12,985.18c0,1.55-1.67,3.65-3.37,3.65s-2.48-2.1-2.48-3.65,1.38-2.24,3.07-2.24S868.12,983.62,868.12,985.18Z" transform="translate(-765.33 -559.73)" fill="#90e6ff"/><path d="M876,985.89c0,1.56-1.67,3.66-3.37,3.66s-2.48-2.1-2.48-3.66,1.37-2.24,3.07-2.24S876,984.34,876,985.89Z" transform="translate(-765.33 -559.73)" fill="#90e6ff"/><path d="M861,1006.61c0,1.55-1.67,3.65-3.37,3.65s-2.48-2.1-2.48-3.65,1.37-2.24,3.07-2.24S861,1005.05,861,1006.61Z" transform="translate(-765.33 -559.73)" fill="#90e6ff"/><path d="M866.69,1003c0,1.56-1.67,3.66-3.37,3.66s-2.48-2.1-2.48-3.66,1.38-2.23,3.08-2.23S866.69,1001.48,866.69,1003Z" transform="translate(-765.33 -559.73)" fill="#90e6ff"/><path d="M872.41,1002.32c0,1.55-1.67,3.65-3.37,3.65s-2.49-2.1-2.49-3.65,1.38-2.24,3.08-2.24S872.41,1000.77,872.41,1002.32Z" transform="translate(-765.33 -559.73)" fill="#90e6ff"/><path d="M819.15,970.77c0,1.55-1.67,3.65-3.37,3.65s-2.48-2.1-2.48-3.65,1.37-2.24,3.07-2.24S819.15,969.22,819.15,970.77Z" transform="translate(-765.33 -559.73)" fill="#90e6ff"/><path d="M1016.08,997.18c0,1.56-1.68,3.66-3.37,3.66s-2.49-2.1-2.49-3.66,1.38-2.23,3.08-2.23S1016.08,995.63,1016.08,997.18Z" transform="translate(-765.33 -559.73)" fill="#90e6ff"/><path d="M843,985c0,1.55-1.67,3.65-3.37,3.65s-2.49-2.1-2.49-3.65,1.38-2.24,3.08-2.24S843,983.49,843,985Z" transform="translate(-765.33 -559.73)" fill="#90e6ff"/><path d="M914.63,984.6c0,1.55-1.67,3.65-3.37,3.65s-2.48-2.1-2.48-3.65,1.37-2.24,3.07-2.24S914.63,983.05,914.63,984.6Z" transform="translate(-765.33 -559.73)" fill="#90e6ff"/><path d="M848.42,985.38c0,1.56-1.67,3.66-3.37,3.66s-2.48-2.1-2.48-3.66,1.37-2.23,3.07-2.23S848.42,983.83,848.42,985.38Z" transform="translate(-765.33 -559.73)" fill="#90e6ff"/><path d="M839.21,990c0,1.55-1.67,3.65-3.37,3.65s-2.49-2.1-2.49-3.65,1.38-2.24,3.08-2.24S839.21,988.44,839.21,990Z" transform="translate(-765.33 -559.73)" fill="#90e6ff"/><path d="M828.54,991.62c0,1.55-1.68,3.65-3.38,3.65s-2.48-2.1-2.48-3.65,1.38-2.24,3.08-2.24S828.54,990.07,828.54,991.62Z" transform="translate(-765.33 -559.73)" fill="#90e6ff"/><path d="M847.4,995.3c0,1.56-1.67,3.66-3.37,3.66s-2.48-2.1-2.48-3.66,1.37-2.23,3.07-2.23S847.4,993.75,847.4,995.3Z" transform="translate(-765.33 -559.73)" fill="#90e6ff"/><path d="M842.8,1006.49c0,1.55-1.68,3.65-3.38,3.65s-2.48-2.1-2.48-3.65,1.38-2.24,3.08-2.24S842.8,1004.93,842.8,1006.49Z" transform="translate(-765.33 -559.73)" fill="#90e6ff"/><path d="M843.67,999.51c0,1.56-1.68,3.66-3.37,3.66s-2.49-2.1-2.49-3.66,1.38-2.23,3.08-2.23S843.67,998,843.67,999.51Z" transform="translate(-765.33 -559.73)" fill="#90e6ff"/><path d="M831.32,976.83c0,1.56-1.68,3.66-3.38,3.66s-2.48-2.1-2.48-3.66,1.38-2.24,3.08-2.24S831.32,975.28,831.32,976.83Z" transform="translate(-765.33 -559.73)" fill="#90e6ff"/><path d="M832.63,969.59c0,1.56-1.67,3.66-3.37,3.66s-2.48-2.1-2.48-3.66,1.37-2.23,3.07-2.23S832.63,968,832.63,969.59Z" transform="translate(-765.33 -559.73)" fill="#90e6ff"/><path d="M907.27,1009.12c0,1.55-1.67,3.65-3.37,3.65s-2.49-2.1-2.49-3.65,1.38-2.24,3.08-2.24S907.27,1007.57,907.27,1009.12Z" transform="translate(-765.33 -559.73)" fill="#90e6ff"/><path d="M973.63,984.92c0,1.55-1.67,3.66-3.37,3.66s-2.49-2.11-2.49-3.66,1.38-2.24,3.08-2.24S973.63,983.37,973.63,984.92Z" transform="translate(-765.33 -559.73)" fill="#90e6ff"/><path d="M946,996.11c0,1.55-1.67,3.65-3.37,3.65s-2.49-2.1-2.49-3.65,1.38-2.24,3.08-2.24S946,994.55,946,996.11Z" transform="translate(-765.33 -559.73)" fill="#90e6ff"/><path d="M998.27,991.55c0,1.55-1.67,3.66-3.37,3.66s-2.49-2.11-2.49-3.66,1.38-2.24,3.08-2.24S998.27,990,998.27,991.55Z" transform="translate(-765.33 -559.73)" fill="#90e6ff"/><path d="M1039.15,1011.47c0,1.55-1.67,3.65-3.37,3.65s-2.48-2.1-2.48-3.65,1.38-2.24,3.07-2.24S1039.15,1009.92,1039.15,1011.47Z" transform="translate(-765.33 -559.73)" fill="#90e6ff"/><path d="M921.72,1005.23c0,1.55-1.67,3.65-3.37,3.65s-2.49-2.1-2.49-3.65,1.38-2.24,3.08-2.24S921.72,1003.67,921.72,1005.23Z" transform="translate(-765.33 -559.73)" fill="#90e6ff"/><path d="M943,1010.33c0,1.55-1.68,3.65-3.37,3.65s-2.49-2.1-2.49-3.65,1.38-2.24,3.08-2.24S943,1008.78,943,1010.33Z" transform="translate(-765.33 -559.73)" fill="#90e6ff"/><path d="M998.64,1009.62c0,1.55-1.67,3.66-3.37,3.66s-2.48-2.11-2.48-3.66,1.37-2.24,3.07-2.24S998.64,1008.07,998.64,1009.62Z" transform="translate(-765.33 -559.73)" fill="#90e6ff"/><path d="M998.93,985c0,1.56-1.68,3.66-3.38,3.66s-2.48-2.1-2.48-3.66,1.38-2.24,3.08-2.24S998.93,983.42,998.93,985Z" transform="translate(-765.33 -559.73)" fill="#90e6ff"/><path d="M995.19,997.08c0,1.55-1.67,3.65-3.37,3.65s-2.48-2.1-2.48-3.65,1.37-2.24,3.07-2.24S995.19,995.52,995.19,997.08Z" transform="translate(-765.33 -559.73)" fill="#90e6ff"/><path d="M991.39,986.9c0,1.55-1.67,3.65-3.37,3.65s-2.48-2.1-2.48-3.65,1.38-2.24,3.07-2.24S991.39,985.34,991.39,986.9Z" transform="translate(-765.33 -559.73)" fill="#90e6ff"/><path d="M984.16,996.76c0,1.56-1.68,3.66-3.37,3.66s-2.49-2.1-2.49-3.66,1.38-2.23,3.08-2.23S984.16,995.21,984.16,996.76Z" transform="translate(-765.33 -559.73)" fill="#90e6ff"/><path d="M949.29,990.84c0,1.56-1.67,3.66-3.37,3.66s-2.49-2.1-2.49-3.66,1.38-2.24,3.08-2.24S949.29,989.29,949.29,990.84Z" transform="translate(-765.33 -559.73)" fill="#90e6ff"/><path d="M850.29,973.36c0,1.55-1.67,3.65-3.37,3.65s-2.48-2.1-2.48-3.65,1.37-2.24,3.07-2.24S850.29,971.8,850.29,973.36Z" transform="translate(-765.33 -559.73)" fill="#90e6ff"/><path d="M956.58,995.62c0,1.55-1.67,3.65-3.37,3.65s-2.48-2.1-2.48-3.65,1.38-2.24,3.08-2.24S956.58,994.06,956.58,995.62Z" transform="translate(-765.33 -559.73)" fill="#90e6ff"/><path d="M962.3,992.05c0,1.55-1.67,3.65-3.37,3.65s-2.49-2.1-2.49-3.65,1.38-2.24,3.08-2.24S962.3,990.49,962.3,992.05Z" transform="translate(-765.33 -559.73)" fill="#90e6ff"/><path d="M823.55,979.56c0,1.55-1.68,3.65-3.37,3.65s-2.49-2.1-2.49-3.65,1.38-2.24,3.08-2.24S823.55,978,823.55,979.56Z" transform="translate(-765.33 -559.73)" fill="#90e6ff"/><path d="M974.1,996c0,1.56-1.68,3.66-3.37,3.66s-2.49-2.1-2.49-3.66,1.38-2.23,3.08-2.23S974.1,994.49,974.1,996Z" transform="translate(-765.33 -559.73)" fill="#90e6ff"/><path d="M943,984.31c0,1.56-1.67,3.66-3.37,3.66s-2.48-2.1-2.48-3.66,1.38-2.23,3.08-2.23S943,982.76,943,984.31Z" transform="translate(-765.33 -559.73)" fill="#90e6ff"/><path d="M938.4,995.5c0,1.55-1.67,3.65-3.37,3.65s-2.49-2.1-2.49-3.65,1.38-2.24,3.08-2.24S938.4,993.94,938.4,995.5Z" transform="translate(-765.33 -559.73)" fill="#90e6ff"/><path d="M939.27,988.53c0,1.55-1.67,3.65-3.37,3.65s-2.48-2.1-2.48-3.65,1.37-2.24,3.07-2.24S939.27,987,939.27,988.53Z" transform="translate(-765.33 -559.73)" fill="#90e6ff"/><path d="M1002.87,998.13c0,1.55-1.67,3.65-3.37,3.65s-2.48-2.1-2.48-3.65,1.38-2.24,3.07-2.24S1002.87,996.58,1002.87,998.13Z" transform="translate(-765.33 -559.73)" fill="#90e6ff"/><text transform="translate(410.63 338.12)" font-size="24" fill="#a7a9ac" font-family="Helvetica">a</text><text transform="translate(384.26 406.25)" font-size="24" fill="#a7a9ac" font-family="Helvetica">b</text><text transform="translate(544.37 416.32)" font-size="30" font-family="Helvetica">2</text></svg>