<svg class="summary-menu__item-graphic" xmlns="http://www.w3.org/2000/svg" viewBox="0 0 371.33 744.11"><line x1="161.77" y1="107.65" x2="218.88" y2="140.58" fill="none" stroke="#ffe766" stroke-miterlimit="10" stroke-width="5" opacity="0.5"/><line x1="145.29" y1="130.73" x2="206.79" y2="162.22" fill="none" stroke="#ffe766" stroke-miterlimit="10" stroke-width="5" opacity="0.5"/><line x1="172.76" y1="129.63" x2="212.32" y2="149.41" fill="none" stroke="#ffe766" stroke-miterlimit="10" stroke-width="5" opacity="0.5"/><line x1="157.38" y1="128.53" x2="209.02" y2="155.62" fill="none" stroke="#ffe766" stroke-miterlimit="10" stroke-width="5" opacity="0.5"/><line x1="165.41" y1="117.12" x2="215.92" y2="144.94" fill="none" stroke="#ffe766" stroke-miterlimit="10" stroke-width="5" opacity="0.5"/><path d="M688.15,197" transform="translate(-368.01 -166.41)" fill="none" stroke="gold" stroke-miterlimit="10" stroke-width="5"/><path d="M522.36,540a442.48,442.48,0,0,1,4.12-60.29" transform="translate(-368.01 -166.41)" fill="none" stroke="gold" stroke-miterlimit="10" stroke-width="5"/><path d="M526.65,601.51A440.84,440.84,0,0,1,522.36,540" transform="translate(-368.01 -166.41)" fill="none" stroke="gold" stroke-miterlimit="10" stroke-width="5"/><path d="M723.7,908.43q-15.26-9.81-29.62-20.82" transform="translate(-368.01 -166.41)" fill="none" stroke="gold" stroke-miterlimit="10" stroke-width="5"/><path d="M688.15,197q16.27-12.93,33.78-24.3" transform="translate(-368.01 -166.41)" fill="none" stroke="gold" stroke-miterlimit="10" stroke-width="5"/><path d="M526.06,601.32a60.67,60.67,0,0,1,12-9.1h0a61.34,61.34,0,0,1,83.55,22.38s23.28,41.2,45.5,79.69c3.49,6-23.86,19.21-20.15,25.11,3.57,5.7,28.47-9.66,32.28-4.11C692.41,734.44,728.69,800,728.69,800a61.35,61.35,0,0,1-22.39,83.55h0A60.4,60.4,0,0,1,695,888.61" transform="translate(-368.01 -166.41)" fill="none" stroke="#0d65d9" stroke-miterlimit="10" stroke-width="5"/><line x1="153.2" y1="373.08" x2="0.86" y2="428.53" fill="none" stroke="gold" stroke-miterlimit="10" stroke-width="5"/><line x1="305.79" y1="317.54" x2="153.2" y2="373.08" fill="none" stroke="gold" stroke-miterlimit="10" stroke-width="5"/><circle cx="271.66" cy="547.21" r="3.3" fill="#ffdf33"/><circle cx="283.75" cy="561.5" r="3.3" fill="#ffdf33"/><circle cx="273.86" cy="561.5" r="3.3" fill="#ffdf33"/><circle cx="269.46" cy="556" r="3.3" fill="#ffdf33"/><line x1="269.46" y1="545.01" x2="209.02" y2="576.88" fill="none" stroke="#ffef99" stroke-miterlimit="10" stroke-width="5" opacity="0.5"/><line x1="282.65" y1="561.5" x2="221.49" y2="595.18" fill="none" stroke="#ffef99" stroke-miterlimit="10" stroke-width="5" opacity="0.5"/><line x1="268.37" y1="552.71" x2="213.42" y2="583.48" fill="none" stroke="#ffef99" stroke-miterlimit="10" stroke-width="5" opacity="0.5"/><line x1="271.85" y1="559.3" x2="216.45" y2="590.14" fill="none" stroke="#ffef99" stroke-miterlimit="10" stroke-width="5" opacity="0.5"/><circle cx="169.46" cy="112.05" r="3.08" fill="none" stroke="#ffe766" stroke-miterlimit="10" stroke-width="5"/><circle cx="149.9" cy="134.03" r="3.08" fill="none" stroke="#ffe766" stroke-miterlimit="10" stroke-width="5"/><circle cx="159.79" cy="132.93" r="3.08" fill="none" stroke="#ffe766" stroke-miterlimit="10" stroke-width="5"/><circle cx="168.59" cy="132.93" r="3.08" fill="none" stroke="#ffe766" stroke-miterlimit="10" stroke-width="5"/><circle cx="172.98" cy="118.64" r="3.08" fill="none" stroke="#ffe766" stroke-miterlimit="10" stroke-width="5"/><circle cx="177.38" cy="129.63" r="3.08" fill="none" stroke="#ffe766" stroke-miterlimit="10" stroke-width="5"/><path d="M689.13,196.66c-28.36-22.8-66.56-33.63-96.25-24.52-45.61,11.3-86,80.58-57.62,116.64.82,1,6.41,6.84,7.17,7.67C544.12,298.3,532.31,295,531,295c-62.2-3.15-99.3,44.54-86.51,109.34,1,21.23,34.53,59.83,75.31,73.91,1.27.63,6.18,2.64,7.52,3.17" transform="translate(-368.01 -166.41)" fill="none" stroke="#0d65d9" stroke-miterlimit="10" stroke-width="5"/><text transform="translate(166.19 406.17)" font-size="24" fill="#a7a9ac" font-family="Helvetica">a</text><text transform="translate(126.63 333.64)" font-size="24" fill="#a7a9ac" font-family="Helvetica">b</text><text transform="translate(5.3 406.18)" font-size="30" font-family="Helvetica">3</text></svg>