<svg class="summary-menu__item-graphic" xmlns="http://www.w3.org/2000/svg" viewBox="0 0 598.35 300.9"><path d="M989.35,93.7c145.83,9.44,272.62,88.78,347.2,204.86" transform="translate(-989.19 0.99)" fill="none" stroke="#0d65d9" stroke-miterlimit="10" stroke-width="5"/><path d="M1063.13,106.45c2.7-8.35,5.89-16,9.17-20.9,4.24-6.36,15.92-12.83,32.51-10.84" transform="translate(-989.19 0.99)" fill="none" stroke="#ff7400" stroke-linecap="round" stroke-miterlimit="10" stroke-width="15"/><path d="M1111.89,74.84c79.64,1.45,43.9-53.51,110.43-53.49,29,0,45.45-7.72,58.87-17.34" transform="translate(-989.19 0.99)" fill="none" stroke="#ff7400" stroke-linecap="round" stroke-miterlimit="10" stroke-width="10"/><path d="M1057.71,94.38a74.45,74.45,0,0,0,17.55,6.85" transform="translate(-989.19 0.99)" fill="none" stroke="#ff7400" stroke-linecap="round" stroke-miterlimit="10" stroke-width="3"/><path d="M1052.12,103.75c5.82,7,13.67,8.57,22.28,7.07" transform="translate(-989.19 0.99)" fill="none" stroke="#ff7400" stroke-linecap="round" stroke-miterlimit="10" stroke-width="3"/><path d="M1071.67,106.14c-3.17-.92-12.34-2.74-14.27-4.13" transform="translate(-989.19 0.99)" fill="none" stroke="#ff7400" stroke-linecap="round" stroke-miterlimit="10" stroke-width="3"/><path d="M1060.56,90.61c4.86,1.67,11.41,4.12,14.57,5" transform="translate(-989.19 0.99)" fill="none" stroke="#ff7400" stroke-linecap="round" stroke-miterlimit="10" stroke-width="3"/><path d="M1074.82,114c-12.66,2.12-16.53,1.09-23.83-8.21-1.82-2.33-8,7.45-7.26,9.21,4.24,9.8,18.8,16.42,30.33,11.32C1077.41,124.86,1078,113.49,1074.82,114Z" transform="translate(-989.19 0.99)" fill="none" stroke="#ff7400" stroke-linecap="round" stroke-miterlimit="10" stroke-width="3"/><path d="M1076.77,118.58c0-1.83.31-3.7-1.14-4.81" transform="translate(-989.19 0.99)" fill="none" stroke="#ff7400" stroke-linecap="round" stroke-miterlimit="10" stroke-width="2"/><path d="M1072.31,126.58c.31-2,2.07-11.09,1.17-12.59" transform="translate(-989.19 0.99)" fill="none" stroke="#ff7400" stroke-linecap="round" stroke-miterlimit="10" stroke-width="2"/><path d="M1069.78,127.11c.55-2.06,2.58-11,1-12.51" transform="translate(-989.19 0.99)" fill="none" stroke="#ff7400" stroke-linecap="round" stroke-miterlimit="10" stroke-width="2"/><path d="M1066.9,127.61c.73-2,2.76-10.89,1.18-12.41" transform="translate(-989.19 0.99)" fill="none" stroke="#ff7400" stroke-linecap="round" stroke-miterlimit="10" stroke-width="2"/><path d="M1064.05,127.77c.35-1.79,2.5-10.32,1.62-12.49" transform="translate(-989.19 0.99)" fill="none" stroke="#ff7400" stroke-linecap="round" stroke-miterlimit="10" stroke-width="2"/><path d="M1061.06,127.28c-.26-2.19,2-10.32,2.19-11.92" transform="translate(-989.19 0.99)" fill="none" stroke="#ff7400" stroke-linecap="round" stroke-miterlimit="10" stroke-width="2"/><path d="M1057.9,126.61c-.19-1.46,1.84-10.4,2.54-11.72" transform="translate(-989.19 0.99)" fill="none" stroke="#ff7400" stroke-linecap="round" stroke-miterlimit="10" stroke-width="2"/><path d="M1055.41,125.66c.06-2,1.89-8.7,3.18-11.76" transform="translate(-989.19 0.99)" fill="none" stroke="#ff7400" stroke-linecap="round" stroke-miterlimit="10" stroke-width="2"/><path d="M1052.1,124.21c.84-1.59,3.13-10.39,4.24-11.83" transform="translate(-989.19 0.99)" fill="none" stroke="#ff7400" stroke-linecap="round" stroke-miterlimit="10" stroke-width="2"/><path d="M1049.32,122.4c1-1.86,4.35-10.76,5.59-11.8" transform="translate(-989.19 0.99)" fill="none" stroke="#ff7400" stroke-linecap="round" stroke-miterlimit="10" stroke-width="2"/><path d="M1047.49,120.75c.18-2.28,3.94-10.64,6-11.93" transform="translate(-989.19 0.99)" fill="none" stroke="#ff7400" stroke-linecap="round" stroke-miterlimit="10" stroke-width="2"/><path d="M1045.53,118.56c1.38-1.85,4.34-10.63,6.1-11.4" transform="translate(-989.19 0.99)" fill="none" stroke="#ff7400" stroke-linecap="round" stroke-miterlimit="10" stroke-width="2"/><path d="M1044.24,116c1.25-1.71,3.53-9.48,6.3-10.4" transform="translate(-989.19 0.99)" fill="none" stroke="#ff7400" stroke-linecap="round" stroke-miterlimit="10" stroke-width="2"/><path d="M1258.72,217.16A148.21,148.21,0,0,0,1272.45,202c16.27-21,44.87-58.33,80.87-84.21,50.3-36.18,148.81-50.36,194-83.11,25.42-18.44,36.25-31,36.25-31" transform="translate(-989.19 0.99)" fill="none" stroke="#ff9033" stroke-linecap="round" stroke-miterlimit="10" stroke-width="8"/><path d="M1251,209.29c3.54-2.71,17.24,14.38,14.83,17.05C1262.84,229.69,1246.76,212.57,1251,209.29Z" transform="translate(-989.19 0.99)" fill="#ff9033" stroke="#ff9033" stroke-linecap="round" stroke-miterlimit="10" stroke-width="2.8"/><path d="M1261.39,200.65c3.67,3.95,12.73,15.42,12.73,15.42" transform="translate(-989.19 0.99)" fill="none" stroke="#ff9033" stroke-linecap="round" stroke-miterlimit="10" stroke-width="2.8"/><line x1="277.48" y1="197.7" x2="289.34" y2="211.34" fill="none" stroke="#ff9033" stroke-linecap="round" stroke-miterlimit="10" stroke-width="2.8"/><path d="M1132.3,84.87c20.57,1,35-2.06,48.34-21.6" transform="translate(-989.19 0.99)" fill="none" stroke="#eaeaea" stroke-miterlimit="10"/><path d="M1149.78,94.13c12.35-1,21.4-4.49,29.42-16.22" transform="translate(-989.19 0.99)" fill="none" stroke="#eaeaea" stroke-miterlimit="10"/><path d="M1078.4,47.05c-12.34,1-21.39,4.49-29.42,16.22" transform="translate(-989.19 0.99)" fill="none" stroke="#eaeaea" stroke-miterlimit="10"/><path d="M1247.5,34.47c12.34-1,21.39-4.49,29.41-16.22" transform="translate(-989.19 0.99)" fill="none" stroke="#eaeaea" stroke-miterlimit="10"/><path d="M1215.61,11.84c-20.57-1-35,2.06-48.34,21.6" transform="translate(-989.19 0.99)" fill="none" stroke="#eaeaea" stroke-miterlimit="10"/><path d="M1098.35,55c-20.57-1-35,2.06-48.34,21.6" transform="translate(-989.19 0.99)" fill="none" stroke="#eaeaea" stroke-miterlimit="10"/><path d="M1396.64,81.78c-25.71,5.15-53.49,21.6-69.94,40.12" transform="translate(-989.19 0.99)" fill="none" stroke="#eaeaea" stroke-miterlimit="10"/><path d="M1375,80.76c-15.43,3.08-32.09,13-42,24.06" transform="translate(-989.19 0.99)" fill="none" stroke="#eaeaea" stroke-miterlimit="10"/><path d="M1490.13,73.42c26-3.55,54.72-18.26,72.28-35.73" transform="translate(-989.19 0.99)" fill="none" stroke="#eaeaea" stroke-miterlimit="10"/><path d="M1511.63,75.78c15.59-2.13,32.83-11,43.36-21.44" transform="translate(-989.19 0.99)" fill="none" stroke="#eaeaea" stroke-miterlimit="10"/><text transform="translate(210.25 149.59)" font-size="30" font-family="Helvetica">1</text></svg>