<svg class="summary-menu__item-graphic" xmlns="http://www.w3.org/2000/svg" viewBox="0 0 387.59 442.08"><path d="M1360,339.75a448.23,448.23,0,0,1,.4,399.7" transform="translate(-1334.1 -300.95)" fill="none" stroke="#0d65d9" stroke-miterlimit="10" stroke-width="5"/><path d="M1382.61,415a147.44,147.44,0,0,0,16.89-11.51c20.73-16.6,57.28-46.2,98.34-63,57.37-23.38,156.46-14.11,208-35.38" transform="translate(-1334.1 -300.95)" fill="none" stroke="#ff9033" stroke-linecap="round" stroke-miterlimit="10" stroke-width="8.4"/><path d="M1377,405.54c4.07-1.8,13.38,18,10.43,20C1383.68,428.14,1372.05,407.73,1377,405.54Z" transform="translate(-1334.1 -300.95)" fill="#ff9033" stroke="#ff9033" stroke-linecap="round" stroke-miterlimit="10" stroke-width="2.8"/><path d="M1389.07,399.57c2.64,4.7,8.76,18,8.76,18" transform="translate(-1334.1 -300.95)" fill="none" stroke="#ff9033" stroke-linecap="round" stroke-miterlimit="10" stroke-width="2.8"/><line x1="61.02" y1="96.02" x2="69.36" y2="112.06" fill="none" stroke="#ff9033" stroke-linecap="round" stroke-miterlimit="10" stroke-width="2.8"/><path d="M1392,448.69a140.88,140.88,0,0,0,17.53-8.37c21.87-12.58,60.46-35.08,101.44-44.86,48.4-11.53,152.9,2.23,205.64-7.66" transform="translate(-1334.1 -300.95)" fill="none" stroke="#ff9033" stroke-linecap="round" stroke-miterlimit="10" stroke-width="7.5"/><path d="M1388.06,439c4.09-1.11,10,18.85,6.89,20.33C1391.09,461.18,1383.12,440.34,1388.06,439Z" transform="translate(-1334.1 -300.95)" fill="#ff9033" stroke="#ff9033" stroke-linecap="round" stroke-miterlimit="10" stroke-width="2.66"/><path d="M1400.28,435.14c1.8,4.79,5.63,18.14,5.63,18.14" transform="translate(-1334.1 -300.95)" fill="none" stroke="#ff9033" stroke-linecap="round" stroke-miterlimit="10" stroke-width="2.66"/><line x1="72.24" y1="132.63" x2="77.75" y2="148.89" fill="none" stroke="#ff9033" stroke-linecap="round" stroke-miterlimit="10" stroke-width="2.66"/><path d="M1397.34,487.18a150,150,0,0,0,20.15-3.46c25.75-6.48,71.29-18.22,115.59-16.39,29.71,1.23,124.17,38.05,184.61,34.76" transform="translate(-1334.1 -300.95)" fill="none" stroke="#ff9033" stroke-linecap="round" stroke-miterlimit="10" stroke-width="8"/><path d="M1396.14,476.24c4.46.05,4.69,21.95,1.16,22.56C1392.85,499.58,1390.75,476.18,1396.14,476.24Z" transform="translate(-1334.1 -300.95)" fill="#ff9033" stroke="#ff9033" stroke-linecap="round" stroke-miterlimit="10" stroke-width="2.8"/><path d="M1409.62,475.83c.45,5.37.5,20,.5,20" transform="translate(-1334.1 -300.95)" fill="none" stroke="#ff9033" stroke-linecap="round" stroke-miterlimit="10" stroke-width="2.8"/><line x1="82.1" y1="175.04" x2="83.03" y2="193.08" fill="none" stroke="#ff9033" stroke-linecap="round" stroke-miterlimit="10" stroke-width="2.8"/><path d="M1401.06,578a140.28,140.28,0,0,0,19.14-3.28c24.46-6.15,61-23.61,103.08-21.86,16.56.68,147.11,26.25,166.94,32.73" transform="translate(-1334.1 -300.95)" fill="none" stroke="#ff9033" stroke-linecap="round" stroke-miterlimit="10" stroke-width="7.98"/><path d="M1399.92,567.63c4.23,0,4.46,20.84,1.1,21.43C1396.79,589.8,1394.8,567.57,1399.92,567.63Z" transform="translate(-1334.1 -300.95)" fill="#ff9033" stroke="#ff9033" stroke-linecap="round" stroke-miterlimit="10" stroke-width="2.66"/><path d="M1412.73,567.23c.42,5.11.48,19,.48,19" transform="translate(-1334.1 -300.95)" fill="none" stroke="#ff9033" stroke-linecap="round" stroke-miterlimit="10" stroke-width="2.66"/><line x1="84.88" y1="266.43" x2="85.76" y2="283.58" fill="none" stroke="#ff9033" stroke-linecap="round" stroke-miterlimit="10" stroke-width="2.66"/><path d="M1391.62,634.91a149.3,149.3,0,0,1,19.58,5.87c24.78,9.55,112,32.74,269.13,28.34" transform="translate(-1334.1 -300.95)" fill="none" stroke="#ff9033" stroke-linecap="round" stroke-miterlimit="10" stroke-width="8"/><path d="M1389.1,645.62c4.44.49,7.32-21.21,3.88-22.25C1388.66,622.06,1383.75,645,1389.1,645.62Z" transform="translate(-1334.1 -300.95)" fill="#ff9033" stroke="#ff9033" stroke-linecap="round" stroke-miterlimit="10" stroke-width="2.8"/><path d="M1402.44,647.66c1.09-5.28,2.92-19.77,2.92-19.77" transform="translate(-1334.1 -300.95)" fill="none" stroke="#ff9033" stroke-linecap="round" stroke-miterlimit="10" stroke-width="2.8"/><line x1="74.89" y1="347.35" x2="77.99" y2="329.55" fill="none" stroke="#ff9033" stroke-linecap="round" stroke-miterlimit="10" stroke-width="2.8"/><path d="M1379.88,679.19a147.44,147.44,0,0,1,19.34,6.63c24.39,10.5,88.8,63.52,284.41,39.34" transform="translate(-1334.1 -300.95)" fill="none" stroke="#ff9033" stroke-linecap="round" stroke-miterlimit="10" stroke-width="8"/><path d="M1377,689.79c4.41.66,8.13-20.91,4.74-22.08C1377.43,666.23,1371.62,689,1377,689.79Z" transform="translate(-1334.1 -300.95)" fill="#ff9033" stroke="#ff9033" stroke-linecap="round" stroke-miterlimit="10" stroke-width="2.8"/><path d="M1390.19,692.35c1.3-5.23,3.69-19.65,3.69-19.65" transform="translate(-1334.1 -300.95)" fill="none" stroke="#ff9033" stroke-linecap="round" stroke-miterlimit="10" stroke-width="2.8"/><line x1="62.62" y1="392.3" x2="66.41" y2="374.63" fill="none" stroke="#ff9033" stroke-linecap="round" stroke-miterlimit="10" stroke-width="2.8"/><path d="M1392.23,539.52c-7,24-35.45,114-54.53,143.73" transform="translate(-1334.1 -300.95)" fill="none" stroke="#eaeaea" stroke-linecap="round" stroke-miterlimit="10" stroke-width="5"/><path d="M1387.77,513c1.5,2.68,2.33,4.52,2.29,5.25a10.88,10.88,0,0,1,2.13,2.76" transform="translate(-1334.1 -300.95)" fill="none" stroke="#eaeaea" stroke-linecap="round" stroke-miterlimit="10" stroke-width="3"/><path d="M1394,525.84a20.73,20.73,0,0,1-.11,7.79" transform="translate(-1334.1 -300.95)" fill="none" stroke="#eaeaea" stroke-linecap="round" stroke-miterlimit="10" stroke-width="3" stroke-dasharray="5.22 5.22"/><path d="M1393.2,536.16c-.25.9-.58,2-1,3.36" transform="translate(-1334.1 -300.95)" fill="none" stroke="#eaeaea" stroke-linecap="round" stroke-miterlimit="10" stroke-width="3"/><path d="M1336.6,415.85s40.06,77.19,51.17,97.1" transform="translate(-1334.1 -300.95)" fill="none" stroke="#eaeaea" stroke-linecap="round" stroke-miterlimit="10" stroke-width="5"/><path d="M1385.52,513.52a17.62,17.62,0,0,0-1.6,3.11" transform="translate(-1334.1 -300.95)" fill="none" stroke="#eaeaea" stroke-linecap="round" stroke-miterlimit="10" stroke-width="3"/><path d="M1382.55,523.43a23.89,23.89,0,0,0,2,10.17" transform="translate(-1334.1 -300.95)" fill="none" stroke="#eaeaea" stroke-linecap="round" stroke-miterlimit="10" stroke-width="3" stroke-dasharray="6.97 6.97"/><path d="M1386.26,536.66a14.14,14.14,0,0,0,2.25,2.67" transform="translate(-1334.1 -300.95)" fill="none" stroke="#eaeaea" stroke-linecap="round" stroke-miterlimit="10" stroke-width="3"/><path d="M1537.22,318.23c-26.21.82-56.32,12.47-75.61,28" transform="translate(-1334.1 -300.95)" fill="none" stroke="#eaeaea" stroke-miterlimit="10"/><path d="M1516.08,313.65c-15.72.49-33.79,7.48-45.36,16.8" transform="translate(-1334.1 -300.95)" fill="none" stroke="#eaeaea" stroke-miterlimit="10"/><path d="M1542.58,541.34c-25.37-6.62-57.55-4-80.44,5.46" transform="translate(-1334.1 -300.95)" fill="none" stroke="#eaeaea" stroke-miterlimit="10"/><path d="M1523.61,531c-15.22-4-34.53-2.39-48.27,3.27" transform="translate(-1334.1 -300.95)" fill="none" stroke="#eaeaea" stroke-miterlimit="10"/><path d="M1627,502.47c22.8,7.75,53.4,11.24,77.85,13.07" transform="translate(-1334.1 -300.95)" fill="none" stroke="#eaeaea" stroke-miterlimit="10"/><path d="M1642.47,515.84a164.85,164.85,0,0,0,46.29,8.19" transform="translate(-1334.1 -300.95)" fill="none" stroke="#eaeaea" stroke-miterlimit="10"/><path d="M1420.44,710.68c21,15.68,51.82,25.32,76.59,25.18" transform="translate(-1334.1 -300.95)" fill="none" stroke="#eaeaea" stroke-miterlimit="10"/><path d="M1434.12,727.43c12.61,9.4,31.09,15.19,46,15.1" transform="translate(-1334.1 -300.95)" fill="none" stroke="#eaeaea" stroke-miterlimit="10"/><text transform="translate(91.72 235.19)" font-size="30" font-family="Helvetica">2</text><text x="-1334.1" y="-300.95"/></svg>