<svg class="summary-menu__item-graphic" xmlns="http://www.w3.org/2000/svg" viewBox="0 0 396.17 248.16"><path d="M1338,779.15c-77.49,122.24-212.64,204.31-367.19,208" transform="translate(-970.75 -777.82)" fill="none" stroke="#0d65d9" stroke-miterlimit="10" stroke-width="5"/><path d="M1305,820.93c7,5.22,13.28,10.69,16.89,15.36,4.67,6,0,15.41-10,25.39" transform="translate(-970.75 -777.82)" fill="none" stroke="#ff7400" stroke-linecap="round" stroke-miterlimit="10" stroke-width="15"/><path d="M1084.7,991.55c-22.54,13.77-60,28.45-108.72,27.45" transform="translate(-970.75 -777.82)" fill="none" stroke="#ff7400" stroke-linecap="round" stroke-miterlimit="10" stroke-width="10"/><path d="M1310.05,865.37c-37.93,36.46-54.15,48.75-99.9,87.27" transform="translate(-970.75 -777.82)" fill="none" stroke="#ff7400" stroke-linecap="round" stroke-miterlimit="10" stroke-width="10"/><path d="M1318.18,819.65a75.3,75.3,0,0,0-12.09,14.45" transform="translate(-970.75 -777.82)" fill="none" stroke="#ff7400" stroke-linecap="round" stroke-miterlimit="10" stroke-width="3"/><path d="M1311.09,811.35c-8.47,3.3-12.48,10.23-13.81,18.88" transform="translate(-970.75 -777.82)" fill="none" stroke="#ff7400" stroke-linecap="round" stroke-miterlimit="10" stroke-width="3"/><path d="M1302.59,829.13c1.88-2.72,6.53-10.82,8.46-12.22" transform="translate(-970.75 -777.82)" fill="none" stroke="#ff7400" stroke-linecap="round" stroke-miterlimit="10" stroke-width="3"/><path d="M1322.11,824.26c-3.14,4.07-7.55,9.5-9.42,12.2" transform="translate(-970.75 -777.82)" fill="none" stroke="#ff7400" stroke-linecap="round" stroke-miterlimit="10" stroke-width="3"/><path d="M1294.11,829.6c2-12.68,4.25-16,15.39-20,2.78-1-4.5-10-6.42-9.83-10.64.9-21.55,12.59-20.4,25.14C1283,828.6,1293.6,832.8,1294.11,829.6Z" transform="translate(-970.75 -777.82)" fill="none" stroke="#ff7400" stroke-linecap="round" stroke-miterlimit="10" stroke-width="3"/><path d="M1289.17,830c1.73.58,3.41,1.47,4.92.45" transform="translate(-970.75 -777.82)" fill="none" stroke="#ff7400" stroke-linecap="round" stroke-miterlimit="10" stroke-width="2"/><path d="M1283,823.21c1.81.95,9.85,5.51,11.56,5.13" transform="translate(-970.75 -777.82)" fill="none" stroke="#ff7400" stroke-linecap="round" stroke-miterlimit="10" stroke-width="2"/><path d="M1283.31,820.65c1.79,1.18,9.61,6,11.55,4.94" transform="translate(-970.75 -777.82)" fill="none" stroke="#ff7400" stroke-linecap="round" stroke-miterlimit="10" stroke-width="2"/><path d="M1283.76,817.76c1.62,1.32,9.45,6.09,11.38,5.08" transform="translate(-970.75 -777.82)" fill="none" stroke="#ff7400" stroke-linecap="round" stroke-miterlimit="10" stroke-width="2"/><path d="M1284.52,815c1.58.91,9,5.67,11.32,5.52" transform="translate(-970.75 -777.82)" fill="none" stroke="#ff7400" stroke-linecap="round" stroke-miterlimit="10" stroke-width="2"/><path d="M1285.94,812.33c2.16.45,9.13,5.2,10.6,5.88" transform="translate(-970.75 -777.82)" fill="none" stroke="#ff7400" stroke-linecap="round" stroke-miterlimit="10" stroke-width="2"/><path d="M1287.58,809.55c1.44.29,9.27,5.06,10.3,6.14" transform="translate(-970.75 -777.82)" fill="none" stroke="#ff7400" stroke-linecap="round" stroke-miterlimit="10" stroke-width="2"/><path d="M1289.27,807.49c1.92.71,7.64,4.57,10.13,6.76" transform="translate(-970.75 -777.82)" fill="none" stroke="#ff7400" stroke-linecap="round" stroke-miterlimit="10" stroke-width="2"/><path d="M1291.7,804.82c1.24,1.3,8.85,6.28,9.87,7.79" transform="translate(-970.75 -777.82)" fill="none" stroke="#ff7400" stroke-linecap="round" stroke-miterlimit="10" stroke-width="2"/><path d="M1294.3,802.76c1.45,1.53,8.82,7.56,9.41,9.06" transform="translate(-970.75 -777.82)" fill="none" stroke="#ff7400" stroke-linecap="round" stroke-miterlimit="10" stroke-width="2"/><path d="M1296.46,801.55c2.1.9,8.82,7.13,9.4,9.48" transform="translate(-970.75 -777.82)" fill="none" stroke="#ff7400" stroke-linecap="round" stroke-miterlimit="10" stroke-width="2"/><path d="M1299.16,800.4c1.31,1.89,8.69,7.5,8.85,9.41" transform="translate(-970.75 -777.82)" fill="none" stroke="#ff7400" stroke-linecap="round" stroke-miterlimit="10" stroke-width="2"/><path d="M1302,800c1.23,1.73,7.86,6.36,7.85,9.28" transform="translate(-970.75 -777.82)" fill="none" stroke="#ff7400" stroke-linecap="round" stroke-miterlimit="10" stroke-width="2"/><path d="M1350.88,791.87c-114.2,160-226.05,201.79-380,214.41" transform="translate(-970.75 -777.82)" fill="none" stroke="#3d84e1" stroke-miterlimit="10" stroke-width="3"/><path d="M1364.84,802.87c-95.14,141.64-229.16,216.27-394,219" transform="translate(-970.75 -777.82)" fill="none" stroke="#6ea3e8" stroke-miterlimit="10" stroke-width="5"/><text transform="translate(189.81 233.73)" font-size="30" font-family="Helvetica">3</text></svg>