<svg class="summary-menu__item-graphic" xmlns="http://www.w3.org/2000/svg" viewBox="0 0 540.52 301.5"><path d="M932.66,986.43c-147.32-8.88-275.41-89.08-350.2-206.53" transform="translate(-392.29 -778.55)" fill="none" stroke="#0d65d9" stroke-miterlimit="10" stroke-width="5"/><path d="M670,877.05c-.79-.51-1.62-1-2.37-1.57l.41.31a1.62,1.62,0,0,1-.33-.31l.31.4c-.27-.35-.51-.72-.78-1.08a22.35,22.35,0,0,0-1.67-1.84,2,2,0,0,0-2.83,2.83,22.35,22.35,0,0,1,1.67,1.84l-.31-.4c.29.37.51.79.83,1.14a7.45,7.45,0,0,0,1.42,1.07L668,880.5a2,2,0,0,0,2.73-.72,2,2,0,0,0-.71-2.73Z" transform="translate(-392.29 -778.55)" fill="#ffac66"/><path d="M667.16,880.22l-1.79-1.16-.46-.32-.08-.06c-.09-.06.24.2.12.09l-.13-.1c-.11-.1-.23-.34,0,0l-.13-.2c-.19-.29-.4-.56-.62-.84a21.91,21.91,0,0,0-1.54-1.67,1,1,0,0,0-1.41,1.41c.5.51,1,1,1.44,1.56l.18.23c.12.14-.17-.23-.05-.07l.07.09.2.29a4.18,4.18,0,0,0,1.25,1.19c.64.43,1.3.85,1.95,1.27a1,1,0,0,0,1.36-.36,1,1,0,0,0-.35-1.37Z" transform="translate(-392.29 -778.55)" fill="#ffac66"/><path d="M665.49,888.32a133.47,133.47,0,0,1-10.27-9.18c-.9-.91-2.32.5-1.41,1.42a135.09,135.09,0,0,0,10.26,9.17,1,1,0,0,0,1.42,0,1,1,0,0,0,0-1.41Z" transform="translate(-392.29 -778.55)" fill="#ffac66"/><path d="M660,894.27a133.47,133.47,0,0,1-10.27-9.18c-.9-.92-2.32.5-1.41,1.41a131.4,131.4,0,0,0,10.27,9.18,1,1,0,0,0,1.41,0,1,1,0,0,0,0-1.41Z" transform="translate(-392.29 -778.55)" fill="#ffac66"/><path d="M661.12,879.38c-7.32,9.49-14.69,18.94-21.94,28.48-5.27,6.92-10.39,13.94-15.88,20.69q-9.45,11.6-18.94,23.16-13.29,16.21-26.54,32.46-13,15.9-25.83,31.86c-5.84,7.27-11.72,14.53-17.32,22-.38.5-.75,1-1.12,1.52a2,2,0,0,0,.72,2.74,2,2,0,0,0,2.73-.72c.83-1.15,1.69-2.28,2.55-3.4l.74-1,.23-.29,0,0c.17-.23.35-.46.53-.68.62-.81,1.25-1.61,1.88-2.41q4.73-6,9.54-12,12.55-15.68,25.27-31.23,13.41-16.46,26.87-32.88,10.06-12.29,20.13-24.6c4.44-5.44,8.74-11,12.95-16.61,7.05-9.44,14.29-18.74,21.48-28.07l5.43-7a2,2,0,0,0-.72-2.74,2,2,0,0,0-2.73.72Z" transform="translate(-392.29 -778.55)" fill="#ffac66"/><polygon points="246.84 126.02 251.32 117.39 259.5 124.8 252.26 130.67 246.84 126.02" fill="#ffac66" stroke="#ffac66" stroke-miterlimit="10" stroke-width="0.8"/><path d="M674.69,876.08c3.38-3.11-6-11.32-9-7.92C663,871.35,670.92,879.55,674.69,876.08Z" transform="translate(-392.29 -778.55)" fill="#ffac66" stroke="#ffac66" stroke-miterlimit="10" stroke-width="0.8"/><path d="M706.09,905.34c-.63-.34-1.27-.67-1.89-1a5.51,5.51,0,0,1-.78-.46l.41.31a4.13,4.13,0,0,1-.56-.62,17.29,17.29,0,0,0-2-1.86,2.14,2.14,0,0,0-1.42-.59,2,2,0,0,0-1.41,3.42,15.39,15.39,0,0,1,2.17,2.1A4.61,4.61,0,0,0,702,907.7l2,1.09a2.07,2.07,0,0,0,1.54.2,2,2,0,0,0,1.2-.92,2,2,0,0,0-.72-2.73Z" transform="translate(-392.29 -778.55)" fill="#ffac66"/><path d="M703.49,908.71c-.89-.48-1.8-.93-2.65-1.48.34.22.1.09,0,0l-.14-.17a8,8,0,0,0-.53-.61c-.53-.55-1.11-1.05-1.68-1.54a1,1,0,0,0-1.42,0,1,1,0,0,0,0,1.41,15.39,15.39,0,0,1,2.17,2.1,3.84,3.84,0,0,0,1.19.93c.68.38,1.36.73,2,1.09a1,1,0,1,0,1-1.72Z" transform="translate(-392.29 -778.55)" fill="#ffac66"/><path d="M702.91,916.66a131.21,131.21,0,0,1-10.82-8.09,1,1,0,0,0-1.42,0,1,1,0,0,0,0,1.41,137.36,137.36,0,0,0,11.23,8.41c1.06.73,2.07-1,1-1.73Z" transform="translate(-392.29 -778.55)" fill="#ffac66"/><path d="M698.54,924.38a131.21,131.21,0,0,1-10.82-8.09,1,1,0,0,0-1.42,0,1,1,0,0,0,0,1.41,135.1,135.1,0,0,0,11.23,8.41c1.06.73,2.07-1,1-1.73Z" transform="translate(-392.29 -778.55)" fill="#ffac66"/><path d="M697.41,908.2c-8.76,13.69-17.53,27.37-26.14,41.15-8.14,13-17.21,25.46-25.84,38.17-4.49,6.61-8.86,13.3-13,20.15-1.33,2.21,2.13,4.23,3.45,2,7.4-12.28,15.62-24,23.77-35.81,4.55-6.57,9.13-13.13,13.41-19.89s8.43-13.54,12.73-20.26l15.05-23.51c1.39-2.18-2.07-4.19-3.45-2Z" transform="translate(-392.29 -778.55)" fill="#ffac66"/><polygon points="286.05 156.27 289.76 147.29 298.56 153.95 291.86 160.43 286.05 156.27" fill="#ffac66" stroke="#ffac66" stroke-miterlimit="10" stroke-width="0.8"/><path d="M710.56,903.88c3.09-3.39-7-10.76-9.62-7.11C698.45,900.19,707.11,907.67,710.56,903.88Z" transform="translate(-392.29 -778.55)" fill="#ffac66" stroke="#ffac66" stroke-miterlimit="10" stroke-width="0.8"/><path d="M787.58,950.8c-.87-.3-1.76-.58-2.61-.93l.47.2a2.26,2.26,0,0,1-.43-.24l.4.31c-.22-.17-.42-.38-.64-.55a22.81,22.81,0,0,0-2.46-1.69,2,2,0,0,0-2.74.71,2,2,0,0,0,.72,2.74,23.92,23.92,0,0,1,2,1.33l-.41-.31a9.59,9.59,0,0,0,1.33,1,23.09,23.09,0,0,0,3.31,1.23,2,2,0,0,0,2.46-1.39,2,2,0,0,0-1.4-2.46Z" transform="translate(-392.29 -778.55)" fill="#ffac66"/><path d="M785.64,954.56l-2-.7-.52-.19c-.16-.06.26.12,0,0l-.13-.07-.11-.06c-.16-.09.1.08.1.08l-.17-.15c-.26-.24-.53-.45-.8-.66-.61-.46-1.26-.86-1.91-1.26a1,1,0,0,0-1,1.73c.6.37,1.2.74,1.77,1.16l.13.09c.16.12-.1-.07-.06,0l.18.15.26.23a4.12,4.12,0,0,0,1.5.84c.73.27,1.47.52,2.21.77a1,1,0,0,0,1.23-.7,1,1,0,0,0-.7-1.23Z" transform="translate(-392.29 -778.55)" fill="#ffac66"/><path d="M787,961.07a134.69,134.69,0,0,1-12.18-6.42c-1.1-.67-2.11,1.06-1,1.73A137.27,137.27,0,0,0,786,962.8c1.16.55,2.18-1.17,1-1.73Z" transform="translate(-392.29 -778.55)" fill="#ffac66"/><path d="M784.19,968.59A134.55,134.55,0,0,1,772,962.17a1,1,0,0,0-1,1.72,132.07,132.07,0,0,0,12.18,6.42c1.15.55,2.17-1.17,1-1.72Z" transform="translate(-392.29 -778.55)" fill="#ffac66"/><path d="M779.78,954.76l-11,25.12c-3.6,8.23-7,16.55-10.61,24.77-3.27,7.43-6.76,14.77-10,22.21s-6.51,15.14-9.67,22.75q-4.85,11.64-9.55,23.34a2,2,0,0,0,1.4,2.46,2.05,2.05,0,0,0,2.46-1.4c5.77-14.28,11.61-28.54,17.75-42.68,3.2-7.38,6.58-14.69,9.9-22,3.67-8.08,6.95-16.33,10.51-24.47l12.27-28.06a2.07,2.07,0,0,0-.72-2.74,2,2,0,0,0-2.74.72Z" transform="translate(-392.29 -778.55)" fill="#ffac66"/><polygon points="372.83 205.08 375.09 195.63 384.82 200.83 379.22 208.28 372.83 205.08" fill="#ffac66" stroke="#ffac66" stroke-miterlimit="10" stroke-width="0.8"/><path d="M792,948.72c2.52-3.83-8.56-9.54-10.62-5.51C779.43,947,789.15,953,792,948.72Z" transform="translate(-392.29 -778.55)" fill="#ffac66" stroke="#ffac66" stroke-miterlimit="10" stroke-width="0.8"/><path d="M740.17,1078.09c-69.59-13.53-138.28,15.33-250.56-61.5C459.23,995.8,427.46,948.75,394.05,888" transform="translate(-392.29 -778.55)" fill="none" stroke="#a7a9ac" stroke-miterlimit="10" stroke-width="4"/><path d="M926.61,1004.15c-186.29-20.63-277.53-92.41-360.78-211.09" transform="translate(-392.29 -778.55)" fill="none" stroke="#3d84e1" stroke-miterlimit="10" stroke-width="3"/><path d="M923.51,1021.75C761.29,1008.2,635.08,933.7,552,802.26" transform="translate(-392.29 -778.55)" fill="none" stroke="#6ea3e8" stroke-miterlimit="10" stroke-width="5"/><line x1="364.58" y1="211.46" x2="345.03" y2="255.69" fill="none" stroke="#eaeaea" stroke-miterlimit="10"/><line x1="263.78" y1="210.43" x2="283.32" y2="181.63" fill="none" stroke="#eaeaea" stroke-miterlimit="10"/><line x1="239.09" y1="130.2" x2="208.23" y2="168.26" fill="none" stroke="#eaeaea" stroke-miterlimit="10"/><line x1="170.18" y1="239.23" x2="151.66" y2="263.91" fill="none" stroke="#eaeaea" stroke-miterlimit="10"/><line x1="353.67" y1="275.23" x2="346.47" y2="293.74" fill="none" stroke="#eaeaea" stroke-miterlimit="10"/><text transform="translate(307.08 218.72)" font-size="30" font-family="Helvetica">4</text></svg>