<svg class="summary-menu__item-graphic" xmlns="http://www.w3.org/2000/svg" viewBox="0 0 234.8 504.51"><path d="M556.54,733.25A448.24,448.24,0,0,1,560,339.74" transform="translate(-327.42 -296.61)" fill="none" stroke="#0d65d9" stroke-miterlimit="10" stroke-width="5"/><path d="M499.66,621.46a37.7,37.7,0,0,0,.17,6.85c.1,16.71,3.5,39.74-3,50.7" transform="translate(-327.42 -296.61)" fill="none" stroke="#bcbec0" stroke-miterlimit="10" stroke-width="5" stroke-dasharray="1.44"/><path d="M490.9,555.05c-.24,8.76.79,13,2.33,23" transform="translate(-327.42 -296.61)" fill="none" stroke="#bcbec0" stroke-miterlimit="10" stroke-width="5" stroke-dasharray="1.44"/><path d="M506.75,426.86a34.3,34.3,0,0,1-3.52,2.92C495.53,442,493.14,455,493,468.62a113.34,113.34,0,0,0,2.27,16.29" transform="translate(-327.42 -296.61)" fill="none" stroke="#bcbec0" stroke-miterlimit="10" stroke-width="5" stroke-dasharray="1.44"/><path d="M519.17,387.8c-9.89,6.6-21.48,37.62-28.65,43-7.41,12.2-9.6,25-9.58,38.44.54,11.82,8.89,31.21,8.56,43.85-.52,12.14-3.45,25.19-8.07,37.67-8.41,22.77-.2,32.18,5.29,46.89,4.4,10.07,1.61,25.52,1.86,29.77.32,16.44,1.71,18-1.1,31.4" transform="translate(-327.42 -296.61)" fill="none" stroke="#bcbec0" stroke-miterlimit="10" stroke-width="5" stroke-dasharray="1.44"/><path d="M484.56,433.35a31.61,31.61,0,0,0-9.15,3.59c-3.3,1.77-6.45,3.79-9.56,5.87-6.08,4.06-12.71,8.09-16.82,14.32a30.28,30.28,0,0,0-4.16,11.43c-.36,2.05-.62,4.12-.88,6.18a31.23,31.23,0,0,1-.86,5.19c-1.88,6.21-7.26,11.25-12.12,15.23a87.88,87.88,0,0,1-24.47,14c-.75.28-.43,1.49.33,1.2a91,91,0,0,0,21.6-11.69c5.44-4,10.91-8.72,14.24-14.69a20.78,20.78,0,0,0,2.36-8c.56-4.36,1-8.79,2.46-13,2.76-8,9.61-12.86,16.36-17.43,3.33-2.26,6.67-4.51,10.16-6.52s7-3.87,10.84-4.56c.79-.14.46-1.35-.33-1.21Z" transform="translate(-327.42 -296.61)" fill="#86603c"/><path d="M483,445.56c-7.52,1.92-15.68,4.17-21.39,9.75a21.44,21.44,0,0,0-5.8,10.76c-1,4.65-1.08,9.44-1.84,14.12A81.59,81.59,0,0,1,449.66,495a23.47,23.47,0,0,1-1.68,3.8c-1.65,2.89-3.57,5.63-5.48,8.36-6.19,8.84-12.75,17.43-19.37,26-7.28,9.37-14.69,18.66-22.31,27.77-3,3.55-6,7.09-9.08,10.53a68.41,68.41,0,0,1-6.16,6.35,8,8,0,0,1-.83.66c-.66.45,0,1.54.63,1.08a32.85,32.85,0,0,0,5.19-4.95c2.88-3.1,5.64-6.3,8.38-9.52,7.48-8.81,14.72-17.83,21.85-26.92,6.91-8.81,13.74-17.71,20.28-26.81,2.27-3.16,4.53-6.34,6.61-9.63a46.27,46.27,0,0,0,4.59-10.33,66.56,66.56,0,0,0,3.35-14.62c.51-4.75.71-9.66,2.51-14.15,3.24-8.07,11.54-11.88,19.35-14.26,1.92-.58,3.86-1.1,5.81-1.6a.62.62,0,0,0-.33-1.2Z" transform="translate(-327.42 -296.61)" fill="#86603c"/><path d="M481.93,442.66c-4.28-2.06-9.6,1.17-13.3,3.22-4.62,2.56-9,5.63-14,7.53s-10.43,2.74-15.28.52c-3.51-1.62-6-4.66-8.66-7.38s-5.82-5.26-9.91-5.45c-.8,0-.8,1.21,0,1.25,3.86.18,6.68,2.66,9.24,5.31s4.89,5.38,8.12,7.06c9,4.66,18.92-.61,26.68-5.2,2.4-1.43,4.81-2.87,7.33-4.09s6.21-3.09,9.11-1.69c.72.34,1.36-.73.63-1.08Z" transform="translate(-327.42 -296.61)" fill="#86603c"/><path d="M473.25,529.77a50.89,50.89,0,0,0-11.34,1.43,28.71,28.71,0,0,0-9.82,5c-5.8,4.37-10.51,10.15-16.87,13.78-2.08,1.19-5,2.81-7.47,2.44a16.72,16.72,0,0,1-5.06-1.93,69,69,0,0,1-12.08-8.4,67.92,67.92,0,0,1-5.62-5.24,16.38,16.38,0,0,1-3.24-4.3c-.33-.73-1.41-.1-1.08.63a15.1,15.1,0,0,0,2.68,3.73,57.58,57.58,0,0,0,4.87,4.76,78,78,0,0,0,12.18,9,27.94,27.94,0,0,0,5.5,2.6,7.57,7.57,0,0,0,5,0c7-2.14,12.28-7.62,17.6-12.4,3.32-3,6.85-5.84,11-7.52,4.36-1.76,9.13-2.11,13.78-2.3.8,0,.81-1.28,0-1.25Z" transform="translate(-327.42 -296.61)" fill="#86603c"/><path d="M481,459.52c-5.87-.85-9.66-6.8-15.66-7.24-3.26-.24-6.76,1-9.8,2-9.42,3.08-18.46,7.2-27.82,10.47-2.13.75-4.29,1.46-6.48,2a14.56,14.56,0,0,1-4.63.6c-.8-.07-.79,1.18,0,1.25,3.09.26,6.43-1,9.31-1.93,4.56-1.5,9-3.27,13.51-5,4.69-1.84,9.37-3.72,14.13-5.39,3.39-1.18,7-2.55,10.64-2.77,2.68-.16,5.1,1.18,7.28,2.59,2.89,1.88,5.69,4.1,9.19,4.61.79.11,1.13-1.09.33-1.21Z" transform="translate(-327.42 -296.61)" fill="#86603c"/><path d="M473.57,503.68c-10.58,4.18-16.5,14.89-25.31,21.5-5,3.78-11.32,5.18-16.87,8s-10.83,6.32-17.08,7.64a19.77,19.77,0,0,1-4.59.58,29.7,29.7,0,0,1-4.3-.62c-2.42-.44-5.32-1.18-7.71-.25-.74.29-.42,1.5.33,1.21,2.29-.9,5.08-.11,7.39.31a21,21,0,0,0,7.2.33c5.9-.88,11.08-3.58,16.24-6.42a79,79,0,0,1,9.14-4.26,66,66,0,0,0,8.11-3.6c5-2.81,8.87-7.26,12.79-11.33,4.37-4.52,9-9.49,15-11.84.74-.29.42-1.5-.33-1.21Z" transform="translate(-327.42 -296.61)" fill="#86603c"/><path d="M474,563.49c-1.73-3.58-5.58-5.34-9.42-5.39a14,14,0,0,0-11.1,5.56c-7.21,9-5.43,21.4-10.6,31.25-2.49,4.77-6.11,8.81-9.26,13.13A35.52,35.52,0,0,0,427,622.56c-2.08,11.37,1.4,22.71,3.4,33.81s2.71,24.29-5.22,33.38c-.53.6.35,1.49.88.88,6.41-7.34,7.47-17.36,6.63-26.71-1-10.89-4.66-21.38-5-32.35a34.46,34.46,0,0,1,3.25-16.8c2.32-4.56,5.69-8.45,8.73-12.52A40.37,40.37,0,0,0,446.81,588c1.38-5.32,1.89-10.85,3.69-16.07,1.73-5,4.92-10.38,10.27-12.05,4.42-1.38,10-.25,12.18,4.22.35.73,1.43.09,1.08-.63Z" transform="translate(-327.42 -296.61)" fill="#86603c"/><path d="M471.22,548.8a54.62,54.62,0,0,1-22.4,4.27c-7.44-.15-15.22-1.89-21.18-6.56-.62-.49-1.51.38-.88.88,9.73,7.64,23.61,8.13,35.25,5.62a53.65,53.65,0,0,0,9.84-3.13c.74-.32.11-1.39-.63-1.08Z" transform="translate(-327.42 -296.61)" fill="#86603c"/><path d="M485.82,659.7a59.33,59.33,0,0,0-17.09,5.11,64.31,64.31,0,0,0-15.61,9.72c-5,4.35-9.07,9.93-13.32,15a102.83,102.83,0,0,1-14.86,15.22c-5.61,4.43-11.81,8.05-17.41,12.49a66.46,66.46,0,0,0-13.43,15c-3.85,5.63-7.4,11.52-12,16.57A65.24,65.24,0,0,1,368,759.85c-10.82,6.69-23.22,12.38-30.07,23.66a.62.62,0,0,0,1.07.63c6.09-10,16.8-15.55,26.56-21.35a88.24,88.24,0,0,0,14.13-9.89c4.78-4.29,8.47-9.58,12-14.89,3.8-5.68,7.53-11.49,12.5-16.24s11-8.47,16.65-12.45a89.06,89.06,0,0,0,15.56-13.91c4.64-5.23,8.89-10.79,13.56-16a54.86,54.86,0,0,1,16.18-12A60.06,60.06,0,0,1,485.82,661c.79-.09.8-1.34,0-1.25Z" transform="translate(-327.42 -296.61)" fill="#86603c"/><path d="M484.89,645.44c-1.19-.49-2.48.25-3.41.95a24.15,24.15,0,0,0-4.22,4.41c-3.35,4.23-6.24,8.81-9.16,13.33-1.25,1.93-2.49,3.88-3.83,5.75a52.18,52.18,0,0,1-4.63,5.12c-2.78,3-5.64,6.06-9.52,7.52-3.17,1.18-6.6,1.42-9.93,1.8-3,.34-6.1.72-8.82,2.12a10.79,10.79,0,0,0-5.35,7c-1,3.61-1.66,7.7-5.85,8.86-3.5,1-7.32,0-10.89,0a14.67,14.67,0,0,0-9.4,3.34,43.58,43.58,0,0,0-7.23,8.27c-2.42,3.25-5.14,6.4-8.8,8.29-3.91,2-7.89,1.37-12,.37-7.22-1.77-13.91-5-21-7.29-5.07-1.61-11-2.72-15.52.88a14.19,14.19,0,0,0-2.83,3.16c-.46.67.63,1.3,1.08.64a10.61,10.61,0,0,1,6.7-4.76,18.39,18.39,0,0,1,8.42.75c6.89,1.89,13.33,5.13,20.19,7.13,3.48,1,7.48,2.19,11.13,1.67a17.49,17.49,0,0,0,9.33-5.09c5.22-5,8.42-13.31,15.85-15.57,6.05-1.84,14.83,2.63,19.36-3.29,2.22-2.89,2-6.79,3.75-9.88,1.61-2.81,4.54-4.09,7.58-4.74,3.24-.69,6.57-.81,9.84-1.33a20,20,0,0,0,9.36-3.81c3.07-2.37,5.58-5.43,8.3-8.18a24.57,24.57,0,0,0,2.79-3.64c2.9-4.25,5.58-8.65,8.5-12.88a72.26,72.26,0,0,1,4.6-6.11,12.61,12.61,0,0,1,3.92-3.5,1.57,1.57,0,0,1,1.32-.11c.74.3,1.07-.91.33-1.21Z" transform="translate(-327.42 -296.61)" fill="#86603c"/><path d="M484.56,650.94c-3.86.6-8,.13-11.88,0-7.06-.29-14.12-.57-21.18-.62A289,289,0,0,0,390.44,656a231.11,231.11,0,0,0-41.05,12.56c-.73.3-.41,1.51.34,1.2a243.4,243.4,0,0,1,70.72-17c16.82-1.53,33.66-1.38,50.51-.68,4.55.19,9.4.76,13.93,0,.79-.12.46-1.33-.33-1.2Z" transform="translate(-327.42 -296.61)" fill="#86603c"/><path d="M479.25,580.83c-9-2-17.71,3.34-23,10.32a62.16,62.16,0,0,0-7.19,13c-2.07,4.72-4.07,9.49-5.93,14.29a101.7,101.7,0,0,0-4.77,15.44,107.61,107.61,0,0,0-1.86,16.31c-.31,5.59-.49,11.19-1.22,16.75a77.06,77.06,0,0,1-3.83,15.61c-3.48,9.88-8.49,19.11-13.16,28.45A129.37,129.37,0,0,1,410,725.89a65,65,0,0,1-25.59,22.56c-14.43,6.92-30.94,8-46.68,6.67-2.6-.23-5.18-.53-7.76-.89-.79-.11-1.13,1.1-.34,1.21,16.45,2.28,33.79,2.38,49.56-3.44a64.63,64.63,0,0,0,28.25-20.52,86.84,86.84,0,0,0,8.52-13.11c1.72-3.22,3.27-6.53,4.91-9.78,2.36-4.67,4.75-9.33,6.95-14.07,4.37-9.43,7.78-19.15,8.93-29.53,1.23-11.12.68-22.39,3.39-33.32a118.5,118.5,0,0,1,5.13-15.34c2-4.94,4-9.89,6.27-14.7,4.12-8.74,10.31-17.59,20.4-19.65a16.68,16.68,0,0,1,7,.06c.78.17,1.12-1,.33-1.21Z" transform="translate(-327.42 -296.61)" fill="#86603c"/><path d="M479.41,587.1a75.28,75.28,0,0,0-15.69,18.81,167.38,167.38,0,0,0-11.41,22.56,186.86,186.86,0,0,0-14.52,79.63c0,.8,1.28.8,1.25,0a185.91,185.91,0,0,1,5.19-51.22,181.47,181.47,0,0,1,18.83-47.4c4.61-8,10.09-15.56,17.23-21.5.62-.51-.27-1.39-.88-.88Z" transform="translate(-327.42 -296.61)" fill="#86603c"/><path d="M477.24,547a37.83,37.83,0,0,0-16.39-7.46c-5.68-1.23-11.46-1.52-17.18-2.41a103.49,103.49,0,0,1-28.07-8.65c-4.24-2-8.78-4.43-11.75-8.17-.5-.63-1.38.26-.89.88,2.56,3.21,6.28,5.44,9.86,7.3a93.56,93.56,0,0,0,14.23,5.81A115.9,115.9,0,0,0,441,538c5.18,1,10.47,1.24,15.67,2.09,7.06,1.15,14,3.22,19.64,7.85.62.51,1.51-.37.89-.88Z" transform="translate(-327.42 -296.61)" fill="#86603c"/><path d="M344.07,687.33c12.11-1,21.6-9.27,29.18-18.09,8.59-10,15.49-21.3,24.07-31.29,3.78-4.39,7.94-8.62,12.91-11.65,2.85-1.72,5.55-3.25,7.86-5.72a34.12,34.12,0,0,0,5.8-8.87c3.2-6.82,4.86-14.25,6.41-21.59A67.84,67.84,0,0,0,432,576.58c.06-5.3-.48-10.58-.84-15.86-.6-8.63-1.66-20.26,7.24-25.16,4.09-2.25,9-2.9,13.49-3.8q8-1.59,16.1-3,3.9-.69,7.82-1.35c.79-.13.46-1.34-.33-1.2q-8.07,1.35-16.12,2.87c-5.06,1-10.18,1.82-15.18,3.07-3.91,1-7.91,2.53-10.56,5.72s-3.55,7-3.9,10.9c-.92,10.22,1.5,20.46.94,30.7a82.1,82.1,0,0,1-2.17,13c-.82,3.77-1.72,7.52-2.88,11.2-2.18,7-5.41,14.18-11.38,18.71-2.36,1.8-5.12,3-7.51,4.78a55.87,55.87,0,0,0-6.28,5.52c-9.11,9.23-16,20.43-23.94,30.59-7.31,9.32-16.19,19.36-28.23,22.17a28.82,28.82,0,0,1-4.23.65c-.8.06-.81,1.31,0,1.25Z" transform="translate(-327.42 -296.61)" fill="#86603c"/><path d="M520.73,745C456,602.15,458.46,459.59,528.31,325" transform="translate(-327.42 -296.61)" fill="none" stroke="#6ea3e8" stroke-miterlimit="10" stroke-width="5"/><path d="M537.48,737.92c-70.21-164.38-53.28-277.1,6-406.43" transform="translate(-327.42 -296.61)" fill="none" stroke="#3d84e1" stroke-miterlimit="10" stroke-width="3"/><text transform="translate(120.85 125.83)" font-size="30" font-family="Helvetica">5</text><path d="M348.54,800.23q-3.87-7.8-7.77-15.72c-43.67-88.67,49.93-113.36,90-394.15,4.71-32.92,18.57-64,42.31-92.47" transform="translate(-327.42 -296.61)" fill="none" stroke="#a7a9ac" stroke-miterlimit="10" stroke-width="4"/></svg>