<svg class="summary-menu__item-graphic" xmlns="http://www.w3.org/2000/svg" viewBox="0 0 396.47 293.63"><path d="M588.86,290.34A449.55,449.55,0,0,1,665,203.82a215.15,215.15,0,0,0,41.46-49c15.33-24.76,52.83-49.29,84.34-61.71,19.81-7.81,45.58,16.4,66.65,11.46a447,447,0,0,1,77.31-11.11" transform="translate(-538.44 -11.06)" fill="none" stroke="#0d65d9" stroke-miterlimit="10" stroke-width="5"/><path d="M539.51,241.29a441.08,441.08,0,0,1,59-30.93c98.74-43.2,76.11-54.52,159.43-109,61.93-40.53,133.65-65.12,165-88.67" transform="translate(-538.44 -11.06)" fill="none" stroke="#a7a9ac" stroke-miterlimit="10" stroke-width="4"/><path d="M743.5,115.64c3.86,0,3.87-6,0-6s-3.87,6,0,6Z" transform="translate(-538.44 -11.06)" fill="#86603c"/><path d="M734.24,122.84c3.86,0,3.87-6,0-6s-3.87,6,0,6Z" transform="translate(-538.44 -11.06)" fill="#86603c"/><path d="M727,129c3.86,0,3.87-6,0-6s-3.87,6,0,6Z" transform="translate(-538.44 -11.06)" fill="#86603c"/><path d="M714.7,139.3c3.86,0,3.87-6,0-6s-3.87,6,0,6Z" transform="translate(-538.44 -11.06)" fill="#86603c"/><path d="M704.41,150.92c3.86,0,3.87-6,0-6s-3.86,6,0,6Z" transform="translate(-538.44 -11.06)" fill="#86603c"/><path d="M756.87,107.41c3.86,0,3.87-6,0-6s-3.87,6,0,6Z" transform="translate(-538.44 -11.06)" fill="#86603c"/><path d="M769.21,101.24c3.86,0,3.87-6,0-6s-3.86,6,0,6Z" transform="translate(-538.44 -11.06)" fill="#86603c"/><path d="M779.5,96.1c3.86,0,3.87-6,0-6s-3.87,6,0,6Z" transform="translate(-538.44 -11.06)" fill="#86603c"/><path d="M790.23,90.69c3.86,0,3.87-6,0-6s-3.87,6,0,6Z" transform="translate(-538.44 -11.06)" fill="#86603c"/><path d="M672.53,286.47c13.37,15.43,29.83,17.49,57.6,13.37" transform="translate(-538.44 -11.06)" fill="none" stroke="#ffc799" stroke-linecap="round" stroke-miterlimit="10" stroke-width="6"/><path d="M730.34,254.86c4.22-31,22.83-83.11,40.93-93.88" transform="translate(-538.44 -11.06)" fill="none" stroke="#ffc799" stroke-linecap="round" stroke-miterlimit="10" stroke-width="6"/><path d="M703.41,280.93C722.93,139.38,760,150.7,797,116.42" transform="translate(-538.44 -11.06)" fill="none" stroke="#ffc799" stroke-miterlimit="10" stroke-width="15" stroke-dasharray="1.8"/><line x1="254.9" y1="90.04" x2="275.53" y2="95.8" fill="none" stroke="#ffc799" stroke-linecap="round" stroke-miterlimit="10" stroke-width="6"/><text transform="translate(101.78 147.11)" font-size="30" font-family="Helvetica">6</text></svg>