<svg id="Layer_1" data-name="Layer 1" xmlns="http://www.w3.org/2000/svg" viewBox="0 0 1853.13 223.33"><defs><style>.cls-1,.cls-2{fill:#fff;stroke:#003b4c;}.cls-1,.cls-2,.cls-3,.cls-5,.cls-6{stroke-miterlimit:10;}.cls-1{stroke-width:0.9px;}.cls-2{stroke-width:0.9px;}.cls-3,.cls-6{fill:none;}.cls-3,.cls-5{stroke:#849895;stroke-width:1.8px;}.cls-4,.cls-5{fill:#003b4c;}.cls-6{stroke:#fff;stroke-width:0.68px;}</style></defs><polygon class="cls-1" points="65.99 0.45 41.3 0.45 0.61 133.79 106.21 133.79 106.21 132.24 65.99 0.45"/><path class="cls-2" d="M144.63,483.87V471.63h37.84v12.24H170.1v68.79H157V483.87Z" transform="translate(-40.99 -420.24)"/><path class="cls-2" d="M187.81,471.63H200.9v70h17.35v11H187.81Z" transform="translate(-40.99 -420.24)"/><path class="cls-2" d="M221.4,552.66l13.46-81h16l13.46,81H251.6l-2.43-16.54H236.56l-2.43,16.54ZM243.59,498l-.36-2.1h-.73l-.36,2.1-3.76,25.58h9Z" transform="translate(-40.99 -420.24)"/><path class="cls-2" d="M291.13,493.35a24.29,24.29,0,0,0-1-7.94c-.85-2.2-2.18-3.75-4.24-3.75-3.4.11-4.49,3.31-4.49,8,0,2.76,1.33,5.62,3.27,8.71s4.49,6.28,7,9.7a124.54,124.54,0,0,1,8.37,12.35c2.3,4.08,3.88,8.27,3.88,12.68,0,5.4-1,10.47-3.76,14.22s-7.28,6.17-14.44,6.17c-8.36,0-13.09-2.86-15.76-7.27S266.75,536,266.75,530l12.86-1.1c0,3.42.12,6.83,1.09,9.37s2.31,4.41,5.09,4.41c3.89,0,5.34-3.75,5.34-8.93,0-2.65-1.45-5.73-3.39-8.93-1.1-1.54-2.19-3.2-3.4-4.85-2.55-3.31-5.34-7.06-8.25-11.14a44.26,44.26,0,0,1-6.42-12.56,19.82,19.82,0,0,1-1.1-6.51,21.19,21.19,0,0,1,3.88-12.79c2.79-3.52,7-6.06,13.22-6.17,7.89-.11,12.5,2.86,15,7.16s3.28,9.82,3.28,14.34Z" transform="translate(-40.99 -420.24)"/><path class="cls-2" d="M353.51,540.77a14.54,14.54,0,0,1-1.55,6.3,11.14,11.14,0,0,1-3.73,4.25,11.89,11.89,0,0,1-7.19,2,12.21,12.21,0,0,1-7.28-2,10.84,10.84,0,0,1-3.63-4.25,14.4,14.4,0,0,1-1.56-6.3v-34.1a14.33,14.33,0,0,1,1.56-6.22,11,11,0,0,1,3.63-4.33,12.8,12.8,0,0,1,7.28-2,12.46,12.46,0,0,1,7.19,2,11.27,11.27,0,0,1,3.73,4.33,14.47,14.47,0,0,1,1.55,6.22Zm-9.35-34.1a5,5,0,0,0-1.21-3.62,3,3,0,0,0-4.68,1.49,5.54,5.54,0,0,0-.35,2.13v34.1a4.75,4.75,0,0,0,1.3,3.62A2.59,2.59,0,0,0,341,545a2.66,2.66,0,0,0,2.77-2.12,5.11,5.11,0,0,0,.35-2.13Z" transform="translate(-40.99 -420.24)"/><path class="cls-2" d="M382.27,503.52h-12.9v15.2H378v8.74h-8.66v25.2H360V494.78h22.26Z" transform="translate(-40.99 -420.24)"/><path class="cls-2" d="M409,552.66V436.9h16.46c11.08,0,19.75,1.89,25.46,6.77s8.67,12.44,8.67,23.94c0,5.51-.52,9.61-2.43,13.39s-4.85,6.93-9.18,10.55c4.68,2.36,8.14,6.77,10.91,14.18Q461,511.16,461,519.9c0,8.66-1.73,16.38-6.06,22.36s-11.78,9.93-22.87,10.4Zm18.71-68c1.56,0,5.2.16,8.31-1.73s5.55-5.67,5.55-13.7-2.43-11.82-5.55-13.71-6.75-1.73-8.31-1.73Zm0,51.19c1.56,0,5.2.31,8.31-1.73s5.55-6.62,5.55-16.07-2.43-14-5.55-16.07-6.75-1.73-8.31-1.73Z" transform="translate(-40.99 -420.24)"/><path class="cls-2" d="M466.72,552.66l13.46-81h16l13.46,81H496.92l-2.43-16.54H481.88l-2.43,16.54ZM488.91,498l-.36-2.1h-.73l-.36,2.1-3.76,25.58h9Z" transform="translate(-40.99 -420.24)"/><path class="cls-2" d="M550,524.88V536a20.29,20.29,0,0,1-2.18,8.82,15.55,15.55,0,0,1-5.21,6c-2.43,1.76-5.7,2.75-10.07,2.75s-7.76-1-10.19-2.75a15.19,15.19,0,0,1-5.09-6,20.43,20.43,0,0,1-2.18-8.82V488.28a20.34,20.34,0,0,1,2.18-8.71,15.38,15.38,0,0,1,5.09-6.06,17.83,17.83,0,0,1,10.19-2.76,17.42,17.42,0,0,1,10.07,2.76,15.73,15.73,0,0,1,5.21,6.06,20.2,20.2,0,0,1,2.18,8.71v11.13H537.79V488.28a6.57,6.57,0,0,0-1.94-5.07,4.57,4.57,0,0,0-3-.89,4.23,4.23,0,0,0-4,3,11.48,11.48,0,0,0-.61,3V536a7.22,7.22,0,0,0,2.07,5.07,3.61,3.61,0,0,0,2.54.89c2.79,0,3.88-1.33,4.49-3a7.12,7.12,0,0,0,.49-3V524.88Z" transform="translate(-40.99 -420.24)"/><path class="cls-2" d="M553.55,483.87V471.63h37.84v12.24H579v68.79h-13.1V483.87Z" transform="translate(-40.99 -420.24)"/><path class="cls-2" d="M596.72,471.63h30v12.24H609.82v21.28H622v13H609.82v22.27h16.86v12.24h-30Z" transform="translate(-40.99 -420.24)"/><path class="cls-2" d="M657.6,552.66l-6.79-34.18h-3.52v34.18H634.2v-81h13.09c15.65,0,22.32,8.05,22.32,23.37,0,8.05-2.31,15.33-7.28,18.41l8.37,39.25Zm-10.31-45.2a9.77,9.77,0,0,0,6.19-1.76c1.94-1.55,3.52-4.52,3.52-10.26s-1.58-8.82-3.52-10.36-4.37-1.65-6.19-1.65Z" transform="translate(-40.99 -420.24)"/><path class="cls-2" d="M678.22,471.63h13.1v81h-13.1Z" transform="translate(-40.99 -420.24)"/><path class="cls-2" d="M697.62,552.66l13.46-81h16l13.46,81H727.82l-2.43-16.54H712.78l-2.43,16.54ZM719.81,498l-.36-2.1h-.73l-.36,2.1-3.76,25.58h9Z" transform="translate(-40.99 -420.24)"/><path class="cls-2" d="M746.86,471.63H760v70H777.3v11H746.86Z" transform="translate(-40.99 -420.24)"/><path class="cls-2" d="M798.19,552.66l9.62-57.88h11.43l9.61,57.88h-9.09L818,540.85h-9l-1.73,11.81ZM814,513.6l-.26-1.5h-.52l-.26,1.5-2.68,18.27h6.41Z" transform="translate(-40.99 -420.24)"/><path class="cls-2" d="M843.23,522.5l-.78-2.68h-.52v32.84h-8.57V494.78h8.31l9.1,30.16.78,2.68h.52V494.78h8.58v57.88h-8.32Z" transform="translate(-40.99 -420.24)"/><path class="cls-2" d="M867.75,552.66V494.78h7.36c8.66,0,13.34,1.57,15.85,6s2.78,11.66,2.78,23-.35,18.5-2.78,22.91-7.19,6-15.85,6Zm9.35-8.5c3.21,0,5-.32,6-3.16a23.31,23.31,0,0,0,.87-6.14c.08-2.75.08-6.45.08-11.18s0-8.43-.08-11.18a24.64,24.64,0,0,0-.87-6.15c-1-2.75-2.77-3.07-6-3.07Z" transform="translate(-40.99 -420.24)"/><path class="cls-2" d="M917.72,552.66,937,436.9h22.87l19.23,115.76H960.86L957.39,529h-18l-3.46,23.62Zm31.7-78.12-.52-3h-1l-.52,3L942,511.08h12.82Z" transform="translate(-40.99 -420.24)"/><path class="cls-2" d="M1009.38,552.66l-6.79-34.18h-3.52v34.18H986v-81h13.09c15.65,0,22.32,8.05,22.32,23.37,0,8.05-2.31,15.33-7.28,18.41l8.37,39.25Zm-10.31-45.2a9.77,9.77,0,0,0,6.19-1.76c1.94-1.55,3.52-4.52,3.52-10.26s-1.58-8.82-3.52-10.36-4.37-1.65-6.19-1.65Z" transform="translate(-40.99 -420.24)"/><path class="cls-2" d="M1064.08,524.88V536a20.29,20.29,0,0,1-2.19,8.82,15.55,15.55,0,0,1-5.21,6c-2.43,1.76-5.7,2.75-10.07,2.75s-7.76-1-10.19-2.75a15.19,15.19,0,0,1-5.09-6,20.43,20.43,0,0,1-2.18-8.82V488.28a20.34,20.34,0,0,1,2.18-8.71,15.38,15.38,0,0,1,5.09-6.06,17.86,17.86,0,0,1,10.19-2.76,17.42,17.42,0,0,1,10.07,2.76,15.73,15.73,0,0,1,5.21,6.06,20.2,20.2,0,0,1,2.19,8.71v11.13h-12.25V488.28a6.57,6.57,0,0,0-1.94-5.07,4.56,4.56,0,0,0-3-.89,4.24,4.24,0,0,0-4,3,11.09,11.09,0,0,0-.6,3V536a7.21,7.21,0,0,0,2.06,5.07,3.63,3.63,0,0,0,2.55.89c2.78,0,3.88-1.33,4.48-3a7,7,0,0,0,.49-3V524.88Z" transform="translate(-40.99 -420.24)"/><path class="cls-2" d="M1095.49,517.38H1085.3v35.28h-13.1v-81h13.1v33.52h10.19V471.63h13.09v81h-13.09Z" transform="translate(-40.99 -420.24)"/><path class="cls-2" d="M1114.89,552.66l13.46-81h16l13.46,81h-12.73l-2.43-16.54h-12.61l-2.43,16.54ZM1137.08,498l-.36-2.1H1136l-.36,2.1-3.76,25.58h9Z" transform="translate(-40.99 -420.24)"/><path class="cls-2" d="M1164.12,471.63h30v12.24h-16.86v21.28h12.13v13h-12.13v22.27h16.86v12.24h-30Z" transform="translate(-40.99 -420.24)"/><path class="cls-2" d="M1198.2,552.66l13.46-81h16l13.46,81H1228.4L1226,536.12h-12.61l-2.42,16.54ZM1220.4,498l-.37-2.1h-.73l-.36,2.1-3.76,25.58h9Z" transform="translate(-40.99 -420.24)"/><path class="cls-2" d="M1247.44,471.63h13.1v70h17.34v11h-30.44Z" transform="translate(-40.99 -420.24)"/><path class="cls-2" d="M1361.24,513v15.91a29.22,29.22,0,0,1-3.11,12.6,22.17,22.17,0,0,1-7.45,8.5c-3.47,2.52-8.15,3.94-14.38,3.94s-11.09-1.42-14.56-3.94a21.63,21.63,0,0,1-7.27-8.5,29.08,29.08,0,0,1-3.12-12.6v-68.2a28.91,28.91,0,0,1,3.12-12.44,22.14,22.14,0,0,1,7.27-8.67c3.47-2.36,8.32-3.93,14.56-3.93s10.91,1.57,14.38,3.93a22.67,22.67,0,0,1,7.45,8.67,29,29,0,0,1,3.11,12.44v15.91h-17.49V460.68a9.36,9.36,0,0,0-2.78-7.24,6.54,6.54,0,0,0-4.33-1.26c-3.29,0-4.85,2.2-5.71,4.25a15.46,15.46,0,0,0-.87,4.25v68.2a10.3,10.3,0,0,0,2.94,7.24,5.24,5.24,0,0,0,3.64,1.26c4,0,5.55-1.89,6.41-4.25a10.08,10.08,0,0,0,.7-4.25V513Z" transform="translate(-40.99 -420.24)"/><path class="cls-2" d="M1370.77,471.63h30v12.24h-16.86v21.28H1396v13h-12.13v22.27h16.86v12.24h-30Z" transform="translate(-40.99 -420.24)"/><path class="cls-2" d="M1408.25,471.63h13.09v70h17.35v11h-30.44Z" transform="translate(-40.99 -420.24)"/><path class="cls-2" d="M1444.26,471.63h13.1v70h17.35v11h-30.45Z" transform="translate(-40.99 -420.24)"/><path class="cls-2" d="M1540.4,467.93c0-3.78-.17-8-1.39-11.35-1.21-3.14-3.12-5.35-6.06-5.35-4.85.16-6.41,4.72-6.41,11.5,0,3.93,1.9,8,4.68,12.44s6.41,9,10,13.86a174.3,174.3,0,0,1,12,17.64c3.29,5.83,5.54,11.81,5.54,18.11,0,7.72-1.38,15-5.37,20.32s-10.39,8.82-20.61,8.82c-12,0-18.72-4.09-22.53-10.39s-4.67-14.65-4.67-23.31l18.36-1.58c0,4.88.17,9.77,1.56,13.39,1.21,3.78,3.29,6.3,7.28,6.3,5.54,0,7.62-5.36,7.62-12.76,0-3.78-2.08-8.19-4.85-12.76-1.56-2.2-3.12-4.56-4.85-6.93-3.64-4.72-7.63-10.08-11.78-15.9a63.63,63.63,0,0,1-9.19-18,28.31,28.31,0,0,1-1.56-9.29c0-6.3,1.56-13.08,5.55-18.27,4-5,10-8.67,18.88-8.82,11.26-.16,17.85,4.09,21.48,10.23,3.64,6.31,4.68,14,4.68,20.48Z" transform="translate(-40.99 -420.24)"/><path class="cls-2" d="M1562.47,483.87V471.63h37.84v12.24h-12.37v68.79h-13.1V483.87Z" transform="translate(-40.99 -420.24)"/><path class="cls-2" d="M1629.05,552.66l-6.79-34.18h-3.52v34.18h-13.1v-81h13.1c15.64,0,22.31,8.05,22.31,23.37,0,8.05-2.3,15.33-7.27,18.41l8.37,39.25Zm-10.31-45.2a9.74,9.74,0,0,0,6.18-1.76c1.95-1.55,3.52-4.52,3.52-10.26s-1.57-8.82-3.52-10.36-4.36-1.65-6.18-1.65Z" transform="translate(-40.99 -420.24)"/><path class="cls-2" d="M1684.47,471.63V536a20.43,20.43,0,0,1-2.18,8.82,15.5,15.5,0,0,1-5.22,6c-2.42,1.76-5.7,2.75-10.06,2.75s-7.77-1-10.19-2.75a15.11,15.11,0,0,1-5.09-6,20.29,20.29,0,0,1-2.19-8.82V471.63h13.1V536a6.63,6.63,0,0,0,1.82,5.07,3.65,3.65,0,0,0,2.55.89,3.75,3.75,0,0,0,3.88-3,7.13,7.13,0,0,0,.48-3V471.63Z" transform="translate(-40.99 -420.24)"/><path class="cls-2" d="M1728.37,524.88V536a20.43,20.43,0,0,1-2.18,8.82,15.5,15.5,0,0,1-5.22,6c-2.42,1.76-5.7,2.75-10.06,2.75s-7.76-1-10.19-2.75a15.11,15.11,0,0,1-5.09-6,20.29,20.29,0,0,1-2.19-8.82V488.28a20.2,20.2,0,0,1,2.19-8.71,15.3,15.3,0,0,1,5.09-6.06,17.83,17.83,0,0,1,10.19-2.76,17.38,17.38,0,0,1,10.06,2.76,15.68,15.68,0,0,1,5.22,6.06,20.34,20.34,0,0,1,2.18,8.71v11.13h-12.25V488.28a6.54,6.54,0,0,0-1.94-5.07,4.54,4.54,0,0,0-3-.89,4.22,4.22,0,0,0-4,3,10.71,10.71,0,0,0-.61,3V536a7.21,7.21,0,0,0,2.06,5.07,3.65,3.65,0,0,0,2.55.89c2.79,0,3.88-1.33,4.49-3a7.13,7.13,0,0,0,.48-3V524.88Z" transform="translate(-40.99 -420.24)"/><path class="cls-2" d="M1731.89,483.87V471.63h37.84v12.24h-12.37v68.79h-13.1V483.87Z" transform="translate(-40.99 -420.24)"/><path class="cls-2" d="M1809.87,471.63V536a20.29,20.29,0,0,1-2.19,8.82,15.55,15.55,0,0,1-5.21,6c-2.43,1.76-5.7,2.75-10.07,2.75s-7.76-1-10.18-2.75a15.14,15.14,0,0,1-5.1-6,20.43,20.43,0,0,1-2.18-8.82V471.63H1788V536a6.59,6.59,0,0,0,1.82,5.07,3.61,3.61,0,0,0,2.54.89,3.74,3.74,0,0,0,3.88-3,7,7,0,0,0,.49-3V471.63Z" transform="translate(-40.99 -420.24)"/><path class="cls-2" d="M1843.1,552.66l-6.8-34.18h-3.51v34.18h-13.1v-81h13.1c15.64,0,22.31,8.05,22.31,23.37,0,8.05-2.3,15.33-7.27,18.41l8.36,39.25Zm-10.31-45.2a9.74,9.74,0,0,0,6.18-1.76c1.94-1.55,3.52-4.52,3.52-10.26s-1.58-8.82-3.52-10.36-4.36-1.65-6.18-1.65Z" transform="translate(-40.99 -420.24)"/><path class="cls-2" d="M1863.71,471.63h30v12.24h-16.86v21.28h12.13v13h-12.13v22.27h16.86v12.24h-30Z" transform="translate(-40.99 -420.24)"/><path class="cls-3" d="M92.81,577.06s1.35,6.17-2,9c-3.59,3-8.18-.61-11,4-2.5,4.13-1.63,10.19-1.63,10.19" transform="translate(-40.99 -420.24)"/><path class="cls-4" d="M97.94,508.47c-7-.45-12.6,2.63-13,6.54l-4.46,53.44c-.49,5.2,6.36,8.19,11.55,8.53h0c5.18.33,12.53-1.92,13-6.62l4.48-53.77c-.06-3.94-5-7.7-11.58-8.12Z" transform="translate(-40.99 -420.24)"/><path class="cls-3" d="M97.94,508.47c-7-.45-12.6,2.63-13,6.54l-4.46,53.44c-.49,5.2,6.36,8.19,11.55,8.53h0c5.18.33,12.53-1.92,13-6.62l4.48-53.77c-.06-3.94-5-7.7-11.58-8.12Z" transform="translate(-40.99 -420.24)"/><path class="cls-3" d="M63.17,620.28s1.35,6.17-2,9c-3.59,3-8.19-.61-11,4-2.5,4.13-1.63,10.19-1.63,10.19" transform="translate(-40.99 -420.24)"/><path class="cls-5" d="M111.75,479.13c0,4.84,7.55,6.48,4.66,11.11-3.33,5.35-7.62,1.61-11.72.54s-6.33.62-12.47-1.45c-8.4-2.83-14.46-9.73-12.86-17.94s11.1-17.05,20.19-14.31S111.77,470.88,111.75,479.13Z" transform="translate(-40.99 -420.24)"/><line class="cls-6" x1="41.52" y1="48.01" x2="38.11" y2="50.43"/><line class="cls-6" x1="43.37" y1="49.67" x2="37.91" y2="53.52"/><line class="cls-6" x1="47.08" y1="50.91" x2="39.35" y2="56.37"/><line class="cls-6" x1="50.35" y1="51.67" x2="39.88" y2="59.06"/><line class="cls-6" x1="52.78" y1="53.36" x2="41.79" y2="61.12"/><line class="cls-6" x1="54.03" y1="56.23" x2="43.03" y2="64"/><line class="cls-6" x1="56.11" y1="58.86" x2="45.41" y2="66.41"/><line class="cls-6" x1="56.97" y1="62" x2="48.78" y2="67.79"/><line class="cls-6" x1="58.87" y1="63.73" x2="52.27" y2="68.39"/><line class="cls-6" x1="59.93" y1="65.71" x2="56.06" y2="68.44"/><line class="cls-6" x1="45.96" y1="110.69" x2="47.91" y2="110.69"/><line class="cls-6" x1="45.68" y1="113.47" x2="48.74" y2="113.47"/><line class="cls-6" x1="45.4" y1="115.98" x2="50.13" y2="115.98"/><line class="cls-6" x1="45.12" y1="118.95" x2="50.41" y2="118.95"/><line class="cls-6" x1="44.56" y1="121.74" x2="50.69" y2="121.74"/><line class="cls-6" x1="44.56" y1="124.53" x2="50.97" y2="124.53"/><line class="cls-6" x1="44" y1="127.87" x2="50.41" y2="127.87"/><line class="cls-6" x1="44.28" y1="131.3" x2="50.5" y2="131.3"/><line class="cls-6" x1="43.45" y1="134.65" x2="49.86" y2="134.65"/><line class="cls-6" x1="42.8" y1="137.62" x2="49.21" y2="137.62"/><line class="cls-6" x1="43.17" y1="140.41" x2="48.37" y2="140.41"/><line class="cls-6" x1="42.89" y1="143.28" x2="47.35" y2="143.28"/><line class="cls-6" x1="42.33" y1="145.79" x2="46.79" y2="145.79"/><line class="cls-6" x1="42.33" y1="148.02" x2="44.56" y2="148.02"/><line class="cls-6" x1="41.78" y1="150.34" x2="43.73" y2="150.34"/><path class="cls-3" d="M78.06,598.49s1.35,6.17-2,9c-3.58,3-8.18-.61-11,4-2.51,4.13-1.64,10.19-1.64,10.19" transform="translate(-40.99 -420.24)"/></svg>