<svg xmlns="http://www.w3.org/2000/svg" viewBox="0 -15 100 150" x="0px" y="0px" width="1920px" height="1080px">
    <title>nounProject062019</title>
    <g data-name="Layer 1">
        <path d="M61.03572,88.83319H88.43484V63.50631ZM87.108,87.50633H83.12734a80.82354,80.82354,0,0,0-6.90076-10.90825L87.108,66.53968Z"/>
        <path d="M43.73139,44.079H21.93427a4.071,4.071,0,0,1-3.79061-4.12208A5.07441,5.07441,0,0,1,19.917,35.65967a4.02766,4.02766,0,0,1,2.20005-.99806,6.21737,6.21737,0,0,1,3.21988-2.6,6.99214,6.99214,0,0,1,5.29671-4.78621A9.18054,9.18054,0,0,1,37.69,23.92581a9.0212,9.0212,0,0,1,8.84672,6.922,7.01272,7.01272,0,0,1,3.8249,6.23179V37.449A6.63765,6.63765,0,0,1,43.73139,44.079ZM37.69,25.25258a7.84209,7.84209,0,0,0-6.167,3.03606l-.16.20737-.2585.042a5.74107,5.74107,0,0,0-4.58272,4.20973l-.09384.37135-.36852.1045a4.87509,4.87509,0,0,0-2.95989,2.391l-.18612.35018-.39661.00179a2.58948,2.58948,0,0,0-1.74411.70706,3.78378,3.78378,0,0,0-1.30217,3.28324,2.78764,2.78764,0,0,0,2.46369,2.79531H43.73139A5.30936,5.30936,0,0,0,49.03474,37.449v-.36941a5.68382,5.68382,0,0,0-3.34733-5.16814l-.30822-.13909-.06865-.33109A7.7091,7.7091,0,0,0,37.69,25.25258Z"/>
        <path d="M65.51176,10.91119H11.56516V88.83351H44.95262l43.26227-38.8886.21995-.1976V31.6919Zm.40751,2.16027L86.284,31.53317H65.91927ZM87.108,49.1558,67.01741,67.21534c-7.86327-6.2479-14.5415-7.70555-18.78912-7.81464q-.3258-.00875-.65225-.00842c-8.58779,0-17.46487,4.33852-25.71593,12.57954A73.63084,73.63084,0,0,0,12.892,82.94357V12.238H64.59242V32.86H87.108Z"/>
    </g>
    <text x="-50" y="115" font-family="'Helvetica Neue', Helvetica, Arial-Unicode, Arial, Sans-serif" font-weight="bold" font-size="7px">Image failed to load or does not exists. Please try refreshing.</text>
</svg>